<svg xmlns="http://www.w3.org/2000/svg" xmlns:xlink="http://www.w3.org/1999/xlink" width="1366" height="272" viewBox="0 0 1366 272">
  <defs>
    <clipPath id="clip-path">
      <rect id="Rectangle_5655" data-name="Rectangle 5655" width="1366" height="267" transform="translate(232 546.418)" fill="#fff" stroke="#707070" stroke-width="1"/>
    </clipPath>
    <clipPath id="clip-Manage_your_Account-edit-profile">
      <rect width="1366" height="272"/>
    </clipPath>
  </defs>
  <g id="Manage_your_Account-edit-profile" data-name="Manage your Account-edit-profile" clip-path="url(#clip-Manage_your_Account-edit-profile)">
    <g id="Mask_Group_3" data-name="Mask Group 3" transform="translate(-232 -543.418)" clip-path="url(#clip-path)">
      <circle id="Ellipse_119" data-name="Ellipse 119" cx="223.5" cy="223.5" r="223.5" transform="translate(232 582.418)" fill="#f1edeb"/>
      <ellipse id="Ellipse_121" data-name="Ellipse 121" cx="104" cy="104.5" rx="104" ry="104.5" transform="translate(1374 679.418)" fill="#fa9f68" opacity="0.11"/>
      <g id="Group_6544" data-name="Group 6544" transform="translate(388.77 591.458)" opacity="0.5">
        <path id="Path_9474" data-name="Path 9474" d="M3014.735,1323.431c18.3,16.71,10.344,33.419-3.182,64.452s-15.917,145.614-15.917,145.614l11.143-1.592s-1.594-117.764,13.525-149.592,21.485-47.743,35.012-37.4S3014.735,1323.431,3014.735,1323.431Z" transform="translate(-2886.891 -1250.156)" fill="#ccc"/>
        <path id="Path_9475" data-name="Path 9475" d="M3010.333,1250.372c2.223-9.9,15.42-20.619,33.074-29.707-2.627,14.606-11.041,38.487-2.333,43.385,11.744,6.606,1.145-26.736,5.677-45.062a218.074,218.074,0,0,1,54.869-18c-.023.069-.045.132-.072.2-10.345,26.258-23.869,36.6-18.3,40.582,4.187,2.992,17.839-27.34,35.86-42.887,13.53-.721,24.974,1.113,31.746,6.473,10.465,8.284,17.49,15.634,6.964,40.863a47.3,47.3,0,0,1-22.851,8.282c-23.871,2.386-35.011,3.183-18.3,11.14,8.18,3.9,21.9-.221,33.017-2.728-3.608,6.648-8.041,14.172-13.43,22.741a84.458,84.458,0,0,1-11.184,14.233c-7.7,1.475-14.4,1.491-17.952-.031-11.14-4.774-39.785-19.892-46.947-13.527-7.008,6.23,53.051,10.176,48.89,26.009-29.112,16.773-62.424,8.792-68.312-6.61C3032.841,1285.046,3003.642,1280.18,3010.333,1250.372Z" transform="translate(-2892.542 -1198.733)" fill="#ccc"/>
        <path id="Path_9476" data-name="Path 9476" d="M3050.238,1472.008c-31.829-23.871-64.452-1.591-81.163,23.871s-4.772,82.753-4.772,82.753,6.367,0,6.367-2.386-17.508-67.636,23.87-97.077c25.883-18.418,44.558-9.548,46.947-.795s-10.345,24.667-10.345,24.667Z" transform="translate(-2872.266 -1307.229)" fill="#ccc"/>
        <path id="Path_9477" data-name="Path 9477" d="M2987.872,1395.649c31.828,0,42.172,49.334,33.42,77.979s-20.691,81.958-20.691,81.958l-7.956-7.958s30.237-74.8,23.076-108.216-24.668-38.99-27.85-38.99S2987.872,1395.649,2987.872,1395.649Z" transform="translate(-2883.102 -1279.939)" fill="#ccc"/>
        <path id="Path_9478" data-name="Path 9478" d="M3028.689,1523.791a23.069,23.069,0,0,1,8.376-7.04,62.841,62.841,0,0,1-1.652,6.818c-3.987,13.052-8.636,31.222-12.517,47.14-.351-2.039-.895-5.178-1.734-10.025-.2-1.146-.351-2.387-.459-3.7A308.544,308.544,0,0,0,3028.689,1523.791Z" transform="translate(-2897.226 -1329.88)" fill="#ccc"/>
        <path id="Path_9479" data-name="Path 9479" d="M3037.555,1497.653c60.475-25.462,28.614-60.4,81.925-37.327,3.754,1.625,8.331,5.724,12.913,11.376a39.693,39.693,0,0,1-16.892,1.355c-15.915-2.387-10.344,10.345,15.915,13.527a58.945,58.945,0,0,1,12.3,2.6c12.508,24.026,18.147,55.641-8.327,66.63a59.93,59.93,0,0,1-18.839,3.866c-8.171-6.492,1.992-44.063-10.6-38.878-12.089,4.98,3.792,32.208,1.614,39.068a174.459,174.459,0,0,1-37.775-5.295c-5-2.8-8.81-6.557-9.987-11.494-3.979-16.71,22.28-27.054,23.077-41.376.731-13.167-9.625,28.968-37.061,35.168C3021.01,1525.282,3009.288,1509.556,3037.555,1497.653Z" transform="translate(-2897.392 -1303.503)" fill="#ccc"/>
        <path id="Path_9480" data-name="Path 9480" d="M2907.645,1412.04c6.366-13.527-10.345-16.709-9.55-6.365.707,9.165.783,31.447-8.616,37.513-16.212-1.757-38.27-8.289-54.943-18.248a6.761,6.761,0,0,1,.7-4.147c7.16-14.323,53.31-26.259,38.989-31.032-11.406-3.8-31.395,18.641-47.5,29.944-9.674-7.338-16.156-16.088-16.156-25.855,0-13.22,16.063-28.183,36.833-35.334,9.348.941,18.032,6.052,31.6,13.739,20.038,11.355,15.4-7-3.541-17.9,16.355.847,32.659,7.836,44.687,24.529,0,0-1.137,7.135,6.413,18.173,20.6,30.112-3.173,47.69-31.6,46.549C2896.57,1435.669,2903.246,1421.387,2907.645,1412.04Z" transform="translate(-2810.571 -1262.91)" fill="#ccc"/>
        <path id="Path_9481" data-name="Path 9481" d="M3105.193,1476.718c15.561,12.024,32.848,26.082,54.069,35.63s16.974,40.672,16.974,40.672,3.183-26.878-14.5-36.074-29.354-20.158-42.793-22.281a194.792,194.792,0,0,1-20.868-4.243s4.247-8.489,1.77-11.672S3105.193,1476.718,3105.193,1476.718Z" transform="translate(-2929.136 -1313.287)" fill="#ccc"/>
        <path id="Path_9482" data-name="Path 9482" d="M3160.548,1236.565c-56.941,15.207-98.674,51.633-106.452,60.476s-7.781,11.317-7.781,11.317l6.009,11.317,2.829-1.414s-4.594-9.55,7.429-21.928c20.736-21.346,45.977-38.195,63.305-45.622S3160.548,1236.565,3160.548,1236.565Z" transform="translate(-2907.79 -1214.334)" fill="#ccc"/>
        <path id="Rectangle_5639" data-name="Rectangle 5639" d="M0,0H77.772a0,0,0,0,1,0,0V39.105A38.886,38.886,0,0,1,38.886,77.991h0A38.886,38.886,0,0,1,0,39.105V0A0,0,0,0,1,0,0Z" transform="translate(67.577 259.414)" fill="#ccc"/>
        <rect id="Rectangle_5640" data-name="Rectangle 5640" width="77.772" height="5.475" transform="translate(67.577 268.348)" fill="#ccc"/>
        <rect id="Rectangle_5641" data-name="Rectangle 5641" width="77.772" height="3.22" transform="translate(67.577 278.331)" fill="#ccc"/>
      </g>
      <g id="Group_4232" data-name="Group 4232" transform="translate(331.758 553.274)">
        <g id="Group_4229" data-name="Group 4229" transform="translate(65.271 92.094)">
          <path id="Path_6656" data-name="Path 6656" d="M193,445.492a113.953,113.953,0,0,0,16.41.634c8.973-.539,20-.748,22.048,1.623s2.049,2.386-1.93,4.488a37.306,37.306,0,0,1-23.111,4.4,63.128,63.128,0,0,0-18.37-1.99Z" transform="translate(-94.243 -344.195)" fill="#fa9f68"/>
          <path id="Path_6657" data-name="Path 6657" d="M156.55,424.656s17.2,85.359,37.749,91.882a442.587,442.587,0,0,0,67.356,9.334s2.993-2.758,1.623-13.176c0,0-46.821-14.1-53.85-22.858-10.471-13.036,2.707-55.982-10.218-68.059S165.473,405.45,156.55,424.656Z" transform="translate(-156.55 -411.48)" fill="#6098d2"/>
        </g>
        <path id="Rectangle_2184" data-name="Rectangle 2184" d="M163.553,620.264h0a5.774,5.774,0,0,1-5.772-5.775V479.182a5.773,5.773,0,0,1,5.772-5.772h0a5.774,5.774,0,0,1,5.775,5.772V614.489A5.774,5.774,0,0,1,163.553,620.264Z" transform="translate(-88.844 -196.873)" fill="#384e64"/>
        <path id="Path_6658" data-name="Path 6658" d="M142.334,538.983c5.429-11.219,26.551-19.609,51.777-19.609s46.371,8.374,51.78,19.609Z" transform="translate(-119.402 -105.945)" fill="#384e64"/>
        <path id="Rectangle_2185" data-name="Rectangle 2185" d="M222.4,517.1H149.435a2.958,2.958,0,0,1-2.96-2.958h0a2.958,2.958,0,0,1,2.96-2.957H222.4a2.958,2.958,0,0,1,2.963,2.957h0A2.958,2.958,0,0,1,222.4,517.1Z" transform="translate(-111.21 -122.151)" fill="#384e64"/>
        <path id="Path_6659" data-name="Path 6659" d="M167.753,502.551a151.367,151.367,0,0,0,11.853,16.955c13.045,16.452,27.239,30.036,29.708,42.869a57.928,57.928,0,0,0,2.3,8.229c1.03,2.94,2.311,6.028,3.782,9.221a284.3,284.3,0,0,0,22.072,37.734c14.287,21.166,27.719,38.824,27.719,38.824l24.63-1.054c-.989-2.469-11.728-31.692-26.1-67.4l-18.03-44.793-2.386-5.924c-1.835-4.554-3.637-9.033-5.394-13.393l-24.24-60.238s-53.933-20.434-59.535-7.2C149.5,467.291,153.264,477.989,167.753,502.551Z" transform="translate(-99.766 -239.386)" fill="#07294e"/>
        <path id="Path_6660" data-name="Path 6660" d="M190.432,523.407s1.257,20.329,5.191,20.621c.524.036,19.948.036,19.948.036l24.791-.143a8.041,8.041,0,0,0-7.41-7.24,33.6,33.6,0,0,1-23.769-15.936C204.57,510.669,190.432,523.407,190.432,523.407Z" transform="translate(-24.252 -110.907)" fill="#07294e"/>
        <path id="Path_6661" data-name="Path 6661" d="M181.63,499.564s-17.134,11.011-15.466,14.584c.223.479,9.724,17.435,9.724,17.435L188.1,553.16a8.05,8.05,0,0,0,2.707-10,33.612,33.612,0,0,1,2.326-28.519C199.639,505.7,181.63,499.564,181.63,499.564Z" transform="translate(-72.486 -145.134)" fill="#07294e"/>
        <path id="Path_6662" data-name="Path 6662" d="M233.76,452.777s73.006,52.438,80.978,68.913c6.23,12.872-92.975,94.649-92.975,94.649A85.3,85.3,0,0,1,205.422,595.1s34.172-49.108,61.253-65.066c8.065-4.75-96.659-16.336-107.991-33.973a57.408,57.408,0,0,1-5.087-40.984Z" transform="translate(-100.495 -237.69)" fill="#003778"/>
        <path id="Rectangle_2186" data-name="Rectangle 2186" d="M266.3,501.24H151.6a16.963,16.963,0,0,1-16.964-16.964h0A16.963,16.963,0,0,1,151.6,467.315H266.3a16.963,16.963,0,0,1,16.964,16.961h0A16.963,16.963,0,0,1,266.3,501.24Z" transform="translate(-134.634 -208.93)" fill="#ec8336"/>
        <path id="Path_6663" data-name="Path 6663" d="M190.332,426.037a38.189,38.189,0,0,1,10.314,9.349c-16.214,4.2-43.1-10.838-43.1-10.838a39.783,39.783,0,0,0,14.307-22.438q.29-1.166.53-2.392a48.931,48.931,0,0,0,.876-8.437l7.478,6.671,12.387,11.1a106.945,106.945,0,0,1-1.832,12.527Q190.863,423.66,190.332,426.037Z" transform="translate(-89.31 -359.344)" fill="#fa9f68"/>
        <path id="Path_6664" data-name="Path 6664" d="M238.531,553.735a4.8,4.8,0,0,1-.143.5c-1.564,4.384-25.166,19.266-41.135,25.175-9.953,3.687-44.477,11.967-46.752,4.84-2.639-8.229,7.017-68.234,4.682-99.473-2.737-38.2,7.839-72.961,22.542-84.305,1.108-.816,3.315,1.352,9.679,4.375a28.461,28.461,0,0,0,17.881,2.377l4.929,4.235a55.034,55.034,0,0,1,17.7,27.32,224.841,224.841,0,0,1,4.819,34.315c.441,5.423.837,11.085,1.173,16.8.524,9.1.98,18.28,1.2,27.007v.816c.089.885.1,1.841.113,2.722s.051,1.766.074,2.633c.158,6.829.149,13.173.39,18.656a19.672,19.672,0,0,0,1.263,6.287,39.509,39.509,0,0,1,1.5,3.9A4.066,4.066,0,0,1,238.531,553.735Z" transform="translate(-104.159 -341.504)" fill="#a2c9eb"/>
        <path id="Path_6665" data-name="Path 6665" d="M184.112,404.6a106.469,106.469,0,0,1-1.835,12.529,32.855,32.855,0,0,1-19.445-19.448,22.354,22.354,0,0,1-.748-2.115l1.281-.271,8.33-1.763Z" transform="translate(-80.329 -354.887)" fill="#ea8249"/>
        <path id="Path_6666" data-name="Path 6666" d="M188.042,428.81s-26.739-.679-26.057-17.322-2.311-27.942,14.787-28.21,20.157,6.216,21.277,11.824S195.005,428.557,188.042,428.81Z" transform="translate(-80.551 -375.191)" fill="#fa9f68"/>
        <g id="Group_4230" data-name="Group 4230" transform="translate(138.314 135.988)">
          <rect id="Rectangle_2187" data-name="Rectangle 2187" width="64.052" height="2.446" transform="matrix(0.309, -0.951, 0.951, 0.309, 64.874, 60.917)" fill="#003778"/>
          <rect id="Rectangle_2188" data-name="Rectangle 2188" width="4.024" height="67.215" transform="matrix(0.021, -1, 1, 0.021, 0, 60.239)" fill="#003778"/>
        </g>
        <path id="Path_6667" data-name="Path 6667" d="M162.176,385.914c-.167-.277-.622-.56-1.692-.816a4.516,4.516,0,0,1,2.123-.209,5.538,5.538,0,0,1,4.488-4.181,3.291,3.291,0,0,0-1.99,2.064c3.553-2.55,10.382-3.657,27.951.911,23.183,5.983,12.714,19.68,9.384,20.943s-10.141-5.018-15.886-5.572-8.271,7.443-10.394,8.226-1.013-1.069-3.4-2.707-3.4,2.627-3.148,5.566-3.973,5.983-3.973,5.983l-2.916-4.524a41.061,41.061,0,0,1-1.138-24.818Z" transform="translate(-84.084 -380.558)" fill="#1a2c52"/>
        <path id="Path_6668" data-name="Path 6668" d="M224.111,510.637a100.594,100.594,0,0,1-34.163-11.547c-21.017-13.155-33.4-79.906-33.4-79.906l32.907,42.151,32.96,24.13.045.238c.158,6.829.152,13.17.39,18.653A19.791,19.791,0,0,0,224.111,510.637Z" transform="translate(-91.273 -304.145)" fill="#7ca9da"/>
        <g id="Group_4231" data-name="Group 4231" transform="translate(163.443 171.506)">
          <path id="Path_6669" data-name="Path 6669" d="M190.195,441.049a9.4,9.4,0,0,0,5.054,0,47.662,47.662,0,0,1,13.613-2.335c1.555.748,6.418,4.667,7.583,5.444a16.369,16.369,0,0,1,2.919,4.086c-1.078.748-3.979-1.885-5.438-2.079a165.467,165.467,0,0,1-16.342,3.535,62,62,0,0,1-8.071-1.847Z" transform="translate(-189.513 -437.016)" fill="#fa9f68"/>
          <path id="Path_6670" data-name="Path 6670" d="M196.246,440.713c0,.179,3.193,5.152,6.379,4.256l-2.728-3.741Z" transform="translate(-176.193 -433.062)" fill="#fa9f68"/>
          <path id="Path_6671" data-name="Path 6671" d="M191.44,442.176a56.8,56.8,0,0,0,5.42-4.032s.643.435.584,1.024a7.978,7.978,0,0,1-1.367,2.642Z" transform="translate(-185.701 -438.144)" fill="#fa9f68"/>
        </g>
        <path id="Path_6672" data-name="Path 6672" d="M192.967,411.652A23.014,23.014,0,0,0,155.929,435.5c7.219,25.428,21.16,67.311,35.489,71.35a442.8,442.8,0,0,0,67.621,7.24s2.406.921.688-9.453c0,0-48.7-15.04-54.037-24.943-2.865-5.3.965-56.042-12.318-67.7Z" transform="translate(-94.256 -329.889)" fill="#a2c9eb"/>
      </g>
      <g id="Group_6541" data-name="Group 6541" transform="translate(272.956 693.768)">
        <path id="Path_9474-2" data-name="Path 9474" d="M3018.263,1323.431c-9.686,8.843-5.474,17.686,1.684,34.109s8.423,77.062,8.423,77.062l-5.9-.842s.844-62.323-7.157-79.167-11.371-25.267-18.53-19.792S3018.263,1323.431,3018.263,1323.431Z" transform="translate(-2942.775 -1284.653)" fill="#52d1aa"/>
        <path id="Path_9475-2" data-name="Path 9475" d="M3090.153,1226.061c-1.176-5.241-8.161-10.912-17.5-15.722,1.39,7.73,5.843,20.368,1.234,22.96-6.215,3.5-.606-14.149-3-23.848a115.414,115.414,0,0,0-29.037-9.526c.012.036.023.07.038.107,5.475,13.9,12.632,19.371,9.685,21.477-2.216,1.583-9.441-14.469-18.978-22.7-7.161-.381-13.217.589-16.8,3.426-5.539,4.384-9.256,8.274-3.686,21.625a25.031,25.031,0,0,0,12.093,4.383c12.633,1.263,18.528,1.684,9.685,5.9-4.329,2.062-11.589-.117-17.474-1.444,1.909,3.518,4.256,7.5,7.108,12.035a44.706,44.706,0,0,0,5.918,7.532c4.073.781,7.621.789,9.5-.016,5.9-2.527,21.055-10.527,24.845-7.159,3.709,3.3-28.076,5.385-25.874,13.764,15.407,8.876,33.036,4.653,36.152-3.5C3078.242,1244.411,3093.695,1241.836,3090.153,1226.061Z" transform="translate(-3009.346 -1198.733)" fill="#52d1aa"/>
        <path id="Path_9476-2" data-name="Path 9476" d="M2960.172,1467.214c16.844-12.633,34.109-.842,42.953,12.633s2.526,43.794,2.526,43.794-3.37,0-3.37-1.262,9.265-35.794-12.632-51.375c-13.7-9.747-23.581-5.053-24.845-.421s5.475,13.054,5.475,13.054Z" transform="translate(-2911.213 -1380.011)" fill="#52d1aa"/>
        <path id="Path_9477-2" data-name="Path 9477" d="M3005.722,1395.649c-16.844,0-22.318,26.108-17.687,41.268s10.95,43.374,10.95,43.374l4.21-4.211s-16-39.584-12.212-57.27,13.054-20.634,14.739-20.634S3005.722,1395.649,3005.722,1395.649Z" transform="translate(-2918.023 -1334.413)" fill="#52d1aa"/>
        <path id="Path_9478-2" data-name="Path 9478" d="M3025.136,1520.477a12.206,12.206,0,0,0-4.433-3.726,33.2,33.2,0,0,0,.875,3.608c2.11,6.907,4.57,16.523,6.624,24.947.186-1.079.473-2.74.918-5.305.1-.606.185-1.263.243-1.959A163.376,163.376,0,0,1,3025.136,1520.477Z" transform="translate(-2951.564 -1417.856)" fill="#74b570"/>
        <path id="Path_9479-2" data-name="Path 9479" d="M3082.826,1476.532c-32-13.475-15.143-31.966-43.356-19.754-1.987.86-4.409,3.029-6.834,6.02a21.01,21.01,0,0,0,8.939.717c8.422-1.263,5.474,5.475-8.422,7.159a31.2,31.2,0,0,0-6.512,1.374c-6.619,12.715-9.6,29.446,4.407,35.262a31.712,31.712,0,0,0,9.97,2.046c4.324-3.436-1.054-23.319,5.612-20.575,6.4,2.636-2.007,17.045-.854,20.676a92.34,92.34,0,0,0,19.991-2.8c2.644-1.483,4.662-3.47,5.285-6.083,2.106-8.843-11.791-14.317-12.212-21.9-.387-6.968,5.094,15.33,19.613,18.612C3091.582,1491.154,3097.786,1482.832,3082.826,1476.532Z" transform="translate(-3013.858 -1373.785)" fill="#52d1aa"/>
        <path id="Path_9480-2" data-name="Path 9480" d="M2824.692,1384.884c-3.369-7.159,5.475-8.843,5.054-3.369-.374,4.85-.415,16.642,4.56,19.852a78.039,78.039,0,0,0,29.077-9.657,3.576,3.576,0,0,0-.371-2.195c-3.789-7.58-28.212-13.9-20.633-16.423,6.037-2.012,16.614,9.865,25.138,15.847,5.119-3.884,8.55-8.514,8.55-13.683,0-7-8.5-14.915-19.493-18.7-4.947.5-9.542,3.2-16.721,7.271-10.6,6.009-8.152-3.706,1.874-9.473a30.2,30.2,0,0,0-23.649,12.981s.6,3.776-3.394,9.618c-10.9,15.936,1.679,25.238,16.723,24.635C2830.553,1397.389,2827.02,1389.83,2824.692,1384.884Z" transform="translate(-2732.921 -1305.961)" fill="#52d1aa"/>
        <path id="Path_9481-2" data-name="Path 9481" d="M3135.854,1476.623c-8.235,6.363-17.384,13.8-28.614,18.856s-8.983,21.524-8.983,21.524-1.684-14.224,7.674-19.091,15.534-10.668,22.646-11.791a103.066,103.066,0,0,0,11.044-2.246s-2.248-4.492-.937-6.177S3135.854,1476.623,3135.854,1476.623Z" transform="translate(-3085.882 -1390.132)" fill="#52d1aa"/>
        <path id="Path_9482-2" data-name="Path 9482" d="M3046.314,1236.565c30.134,8.048,52.22,27.325,56.337,32s4.118,5.989,4.118,5.989l-3.18,5.989-1.5-.748s2.431-5.054-3.932-11.6c-10.974-11.3-24.332-20.213-33.5-24.144S3046.314,1236.565,3046.314,1236.565Z" transform="translate(-3036.934 -1224.8)" fill="#52d1aa"/>
        <path id="Rectangle_5639-2" data-name="Rectangle 5639" d="M0,0H41.158a0,0,0,0,1,0,0V20.695A20.579,20.579,0,0,1,20.579,41.274h0A20.579,20.579,0,0,1,0,20.695V0A0,0,0,0,1,0,0Z" transform="translate(66.224 137.286)" fill="#75a1de"/>
        <rect id="Rectangle_5640-2" data-name="Rectangle 5640" width="41.158" height="2.897" transform="translate(66.224 142.014)" fill="#fff"/>
        <rect id="Rectangle_5641-2" data-name="Rectangle 5641" width="41.158" height="1.704" transform="translate(66.224 147.298)" fill="#fff"/>
      </g>
      <g id="Group_4493" data-name="Group 4493" transform="translate(1353.601 662.131) rotate(19)">
        <path id="Path_7208" data-name="Path 7208" d="M1.306,21.6C7.073,18.49,33.385-3.082,36.584.374S60.236,31.032,58.736,34.122,23.39,58.6,19.9,57.056-5.51,25.274,1.306,21.6Z" transform="translate(15.211 14.418)" fill="#fa9f68"/>
        <path id="Path_7209" data-name="Path 7209" d="M20.873,58.455a1.684,1.684,0,0,1-.674-.115C17.045,56.946,1.186,36,.064,26.316c-.249-2.153.225-3.7,1.409-4.592h0l1.4-1.063C24.858,4,35.259-2.012,37.657.579c1.948,2.106,24.126,30.671,22.264,34.5-.984,2.026-11.86,9.176-18.93,13.487C33.407,53.193,24.073,58.455,20.873,58.455ZM35.986,1.306c-1.24,0-4.58.979-13.465,6.848C15.464,12.817,7.808,18.622,3.695,21.741L2.288,22.8c-.773.583-1.069,1.713-.878,3.356C2.514,35.7,18.286,56.015,20.745,57.1c.868.368,6.794-1.913,19.565-9.7C50.615,41.113,58.14,35.65,58.7,34.491,59.663,31.885,41.119,6.312,36.663,1.5A.9.9,0,0,0,35.986,1.306ZM1.881,22.264h0Z" transform="translate(14.636 13.754)" fill="none"/>
        <g id="Group_4489" data-name="Group 4489" transform="translate(37.486 33.842)">
          <path id="Path_7210" data-name="Path 7210" d="M4.89,9.773a4.92,4.92,0,0,1-1.427-.214A4.884,4.884,0,0,1,2.584.578a4.883,4.883,0,0,1,6.609,2.01h0a4.888,4.888,0,0,1-4.3,7.186ZM4.88,1.354A3.532,3.532,0,1,0,8,3.224H8A3.508,3.508,0,0,0,5.911,1.509,3.544,3.544,0,0,0,4.88,1.354Z" fill="#fff"/>
        </g>
        <g id="Group_4491" data-name="Group 4491">
          <g id="Group_4490" data-name="Group 4490">
            <path id="Path_7211" data-name="Path 7211" d="M32.861,84.818a2.706,2.706,0,0,1-1.87-.564C25.961,79.991-2.181,41.6.135,32.034L.2,31.776l.221-.146C5.553,28.224,50.723-1.6,56.091.067c3.729,1.151,13.493,18.622,16.4,23.949,5.87,10.768,12.146,23.845,12.054,27.109C84.395,56.361,54.79,76.166,40.81,82.408,36.661,84.26,34.285,84.818,32.861,84.818ZM1.4,32.6C-.068,41.5,26.665,78.813,31.867,83.221c.307.26,1.822.883,8.391-2.049,7.028-3.139,17.706-9.477,27.2-16.149,10.807-7.592,15.685-12.469,15.727-13.935.07-2.5-5.042-13.861-11.89-26.425C64.166,11.578,57.748,2,55.692,1.361,52.14.261,20.608,19.874,1.4,32.6Z" fill="#ea8249"/>
          </g>
        </g>
        <path id="Path_7212" data-name="Path 7212" d="M.8,4.676a.677.677,0,0,1-.581-.328c-.3-.5-.439-1.339.6-2.512A9.67,9.67,0,0,1,2.985.1a.677.677,0,0,1,.7,1.161A8.4,8.4,0,0,0,1.83,2.734c-.41.464-.523.8-.453.916a.676.676,0,0,1-.231.929A.666.666,0,0,1,.8,4.676Z" transform="translate(19.473 36.957)" fill="#fff"/>
        <path id="Path_7213" data-name="Path 7213" d="M.678,9.068A.677.677,0,0,1,.221,7.891C.462,7.672,6.172,2.5,12.028.053A.677.677,0,0,1,12.55,1.3C6.909,3.661,1.19,8.839,1.134,8.891A.672.672,0,0,1,.678,9.068Z" transform="translate(26.177 26.081)" fill="#fff"/>
        <g id="Group_4492" data-name="Group 4492" transform="translate(39.534 45.25)">
          <path id="Path_7214" data-name="Path 7214" d="M1.263,16.732A1.261,1.261,0,0,1,0,15.438,24.454,24.454,0,0,1,3.82,2.812h0c4.53-6.67,19.316.606,19.455.7l.322.211-.011.394c-.023.533-.037.826-21.724,12.469A1.274,1.274,0,0,1,1.263,16.732ZM4.94,3.573A23.024,23.024,0,0,0,1.358,15.316c10.3-5.529,17.8-9.66,20.235-11.138C18.218,2.661,8.036-.985,4.94,3.573Z" fill="#fff"/>
        </g>
      </g>
      <g id="Group_4241" data-name="Group 4241" transform="matrix(0.891, 0.454, -0.454, 0.891, 1453.607, 708.42)">
        <path id="Path_6717" data-name="Path 6717" d="M78.8,3.608,91.126,43.2a5.141,5.141,0,0,1-3.376,6.427L18.975,71.03a5.133,5.133,0,0,1-6.422-3.379L.236,28.062A5.127,5.127,0,0,1,3.6,21.638l.01,0L72.389.229A5.134,5.134,0,0,1,78.8,3.608Z" transform="translate(0.034)" fill="#c1d8f0"/>
        <g id="Group_4240" data-name="Group 4240" transform="translate(0 0.009)">
          <path id="Path_6718" data-name="Path 6718" d="M78.011,8.689a5.126,5.126,0,0,1-3.6,4.672l-68.78,21.4A5.122,5.122,0,0,1,0,32.938L34.52,0Z" transform="translate(13.376 36.27)" fill="#b0cdec"/>
          <path id="Path_6719" data-name="Path 6719" d="M78.837,3.6,48.729,42.807.9,30.1l-.66-2.026A5.127,5.127,0,0,1,3.6,21.647l.008,0L72.39.241a5.13,5.13,0,0,1,6.443,3.345Z" fill="#d7e5f5"/>
        </g>
      </g>
    </g>
  </g>
</svg>
