<svg xmlns="http://www.w3.org/2000/svg" xmlns:xlink="http://www.w3.org/1999/xlink" width="1366" height="272" viewBox="0 0 1366 272">
  <defs>
    <clipPath id="clip-path">
      <rect id="Rectangle_5655" data-name="Rectangle 5655" width="1366" height="267" transform="translate(232 546.179)" fill="#fff" stroke="#707070" stroke-width="1"/>
    </clipPath>
    <clipPath id="clip-Manage_your_Account-update-password">
      <rect width="1366" height="272"/>
    </clipPath>
  </defs>
  <g id="Manage_your_Account-update-password" data-name="Manage your Account-update-password" clip-path="url(#clip-Manage_your_Account-update-password)">
    <g id="Group_6951" data-name="Group 6951" transform="translate(-232 -546.179)">
      <g id="Mask_Group_49" data-name="Mask Group 49" clip-path="url(#clip-path)">
        <circle id="Ellipse_119" data-name="Ellipse 119" cx="223.5" cy="223.5" r="223.5" transform="translate(239 582.179)" fill="#ffd814" opacity="0.25"/>
        <circle id="Ellipse_121" data-name="Ellipse 121" cx="104" cy="104" r="104" transform="translate(1374 680.179)" fill="#1153b6" opacity="0.12"/>
        <g id="Group_5835" data-name="Group 5835" transform="translate(283.906 698.036)">
          <g id="Group_5824" data-name="Group 5824">
            <path id="Path_8895" data-name="Path 8895" d="M103.862,406.472c14.766-12.081,16.677-32.4,14.586-50.353-.349-3-.274-6.194-1.938-8.71s-5.191-4.041-7.814-2.55c-2.175,1.237-2.949,3.914-4.038,6.166a17.794,17.794,0,0,1-6.59,7.321c-1.858,1.154-4.207,1.957-6.207,1.074-2.744-1.214-3.346-4.769-3.572-7.761l-1.261-16.719a27.564,27.564,0,0,0-1.64-8.8c-1.174-2.759-3.469-5.223-6.416-5.782s-6.375,1.376-6.743,4.351a27.4,27.4,0,0,0,.219,3.729c.017,1.248-.457,2.669-1.622,3.114s-2.461-.3-3.438-1.1c-3.372-2.761-5.812-6.473-8.109-10.176s-4.547-7.5-7.651-10.559-7.243-5.343-11.6-5.228-8.761,3.139-9.514,7.431,2.086,8.374,5.076,11.561a67.381,67.381,0,0,0,15.156,12.081,5.541,5.541,0,0,1,2.56,2.3c.82,1.938-.932,4.075-2.871,4.895-2.2.927-4.664.9-7,1.368s-4.813,1.707-5.527,3.983c-.989,3.159,1.861,6.147,4.58,8.035a58.266,58.266,0,0,0,17.937,8.35c2.293.622,4.694,1.134,6.617,2.53s3.227,3.994,2.315,6.188-3.644,3.1-6.013,2.866-4.559-1.313-6.85-1.958c-4.289-1.207-9.64-.48-12.015,3.289a9.384,9.384,0,0,0-.335,8.448,21.816,21.816,0,0,0,5.194,7.008,58.389,58.389,0,0,0,26.274,15.2c9.924,2.508,18.942,2.665,28.253-1.589" transform="translate(-30.392 -304.481)" fill="#71c299"/>
          </g>
          <g id="Group_5826" data-name="Group 5826" transform="translate(4.162 2.975)">
            <g id="Group_5825" data-name="Group 5825">
              <path id="Path_8896" data-name="Path 8896" d="M104.9,419.619A130.365,130.365,0,0,0,97.924,395.4a267.239,267.239,0,0,0-13.131-27.941l-3.825-7.149c-1.259-2.344-2.508-4.667-3.872-6.864a133.9,133.9,0,0,0-8.571-12.186c-2.917-3.746-5.823-7.195-8.565-10.4s-5.369-6.138-7.871-8.713a107.626,107.626,0,0,0-12.713-11.277c-1.6-1.211-2.873-2.112-3.744-2.712l-.992-.677c-.225-.149-.348-.217-.348-.217s.1.092.32.255l.968.712c.852.624,2.108,1.546,3.689,2.778a112.469,112.469,0,0,1,12.589,11.359c2.482,2.584,5.083,5.527,7.816,8.736s5.619,6.669,8.521,10.414a134.655,134.655,0,0,1,8.522,12.16c1.355,2.19,2.593,4.5,3.855,6.847l3.82,7.147a272.227,272.227,0,0,1,13.142,27.88,132.18,132.18,0,0,1,7.046,24.12" transform="translate(-34.292 -307.269)" fill="#71c299"/>
            </g>
          </g>
          <g id="Group_5828" data-name="Group 5828" transform="translate(46.825 15.873)">
            <g id="Group_5827" data-name="Group 5827">
              <path id="Path_8897" data-name="Path 8897" d="M74.294,352.6a7.311,7.311,0,0,0,.172-1.3c.084-.839.171-2.057.257-3.562.175-3.012.281-7.178.385-11.773s.283-8.752.523-11.751c.115-1.5.224-2.715.312-3.551a7.169,7.169,0,0,0,.082-1.309,7.462,7.462,0,0,0-.257,1.287c-.141.832-.3,2.045-.455,3.545-.324,3-.553,7.169-.657,11.77-.1,4.555-.186,8.676-.253,11.77-.045,1.442-.084,2.64-.113,3.566A7.338,7.338,0,0,0,74.294,352.6Z" transform="translate(-74.271 -319.355)" fill="#71c299"/>
            </g>
          </g>
          <g id="Group_5830" data-name="Group 5830" transform="translate(7.328 44.909)">
            <g id="Group_5829" data-name="Group 5829">
              <path id="Path_8898" data-name="Path 8898" d="M37.259,346.805a1.439,1.439,0,0,0,.406.031l1.161,0c1.006,0,2.463-.008,4.262.046,3.6.075,8.565.361,14.028.917S67.5,349.1,71.044,349.73c1.775.3,3.2.59,4.191.783l1.141.218a1.4,1.4,0,0,0,.4.046,1.352,1.352,0,0,0-.384-.135l-1.122-.3c-.978-.247-2.4-.582-4.17-.927-3.535-.714-8.465-1.493-13.942-2.061s-10.46-.794-14.069-.788c-1.8-.012-3.264.042-4.271.1l-1.16.081A1.347,1.347,0,0,0,37.259,346.805Z" transform="translate(-37.259 -346.564)" fill="#71c299"/>
            </g>
          </g>
          <g id="Group_5832" data-name="Group 5832" transform="translate(67.299 39.73)">
            <g id="Group_5831" data-name="Group 5831">
              <path id="Path_8899" data-name="Path 8899" d="M93.459,392.407a2.419,2.419,0,0,0,.218-.494l.544-1.448c.467-1.259,1.1-3.1,1.853-5.377,1.509-4.559,3.4-10.92,5.4-17.965s3.839-13.415,5.267-17.994l1.715-5.417c.189-.6.341-1.092.462-1.475a2.384,2.384,0,0,0,.132-.525,2.45,2.45,0,0,0-.219.5c-.141.376-.32.856-.543,1.447-.467,1.259-1.1,3.1-1.851,5.377-1.51,4.559-3.4,10.919-5.4,17.968S97.2,380.41,95.768,384.99c-.711,2.245-1.292,4.083-1.714,5.417-.19.6-.343,1.092-.463,1.476A2.449,2.449,0,0,0,93.459,392.407Z" transform="translate(-93.456 -341.711)" fill="#71c299"/>
            </g>
          </g>
          <g id="Group_5834" data-name="Group 5834" transform="translate(14.219 78.229)">
            <g id="Group_5833" data-name="Group 5833">
              <path id="Path_8900" data-name="Path 8900" d="M43.716,377.792a2.727,2.727,0,0,0,.533.157l1.545.362,5.69,1.3c4.8,1.1,11.416,2.706,18.719,4.5s13.937,3.348,18.76,4.371c2.412.512,4.367.909,5.722,1.158l1.563.281a2.608,2.608,0,0,0,.551.067,2.467,2.467,0,0,0-.533-.157l-1.545-.363-5.689-1.3c-4.8-1.1-11.416-2.708-18.722-4.5s-13.935-3.347-18.757-4.37c-2.412-.513-4.367-.909-5.723-1.159l-1.562-.281A2.47,2.47,0,0,0,43.716,377.792Z" transform="translate(-43.716 -377.787)" fill="#71c299"/>
            </g>
          </g>
        </g>
        <g id="Group_5839" data-name="Group 5839" transform="translate(300.754 613.416)">
          <g id="Group_5837" data-name="Group 5837">
            <rect id="Rectangle_5574" data-name="Rectangle 5574" width="62.205" height="41.928" transform="translate(0.267 18.136) rotate(-16.745)" fill="#fff"/>
            <g id="Group_5836" data-name="Group 5836">
              <path id="Path_8901" data-name="Path 8901" d="M229.91,154.4s-.089-.253-.24-.733-.372-1.2-.658-2.122c-.573-1.869-1.408-4.591-2.475-8.073-2.121-6.974-5.164-16.982-8.871-29.173l.213.115-59.551,17.962h0l.143-.267,12.063,40.155-.245-.131L213.2,159.323l12.283-3.641,3.277-.961.849-.244c.193-.054.3-.077.3-.077s-.086.034-.269.093l-.822.26-3.225,1-12.21,3.728L170.4,172.511l-.188.057-.057-.188c-3.685-12.232-7.785-25.836-12.1-40.146l-.062-.205.206-.062,0,0,59.575-17.879.165-.05.049.165c3.648,12.255,6.642,22.316,8.729,29.327,1.027,3.477,1.829,6.2,2.38,8.062q.4,1.368.612,2.1C229.852,154.164,229.91,154.4,229.91,154.4Z" transform="translate(-157.995 -114.036)" fill="#e0e0e0"/>
            </g>
          </g>
          <g id="Group_5838" data-name="Group 5838" transform="translate(0.268 0.214)">
            <path id="Path_8902" data-name="Path 8902" d="M217.887,114.3c.007,0,.235.449.174.565-.075.137-13.979,24.329-19.457,33.619l-.092.156-.17-.066c-.578-.223-39.148-15.3-39.682-15.52-.23-.1,0-.672-.152-.736a.768.768,0,0,1-.188-.1.775.775,0,0,1,.2.055l.583.2,2.227.82,8.161,3.09,26.875,10.348,1.823.707-.262.091,14.074-23.607,4.271-7.074,1.177-1.906.314-.489A.752.752,0,0,1,217.887,114.3Z" transform="translate(-158.32 -114.296)" fill="#e0e0e0"/>
          </g>
        </g>
        <g id="Group_5847" data-name="Group 5847" transform="translate(551.756 745.064)">
          <path id="Path_8903" data-name="Path 8903" d="M426.859,308.786s-3.859-3.824-11.4,5.727a140.824,140.824,0,0,0-10.811,15.273s-1.876,1.942-3.115.181-2.512-6.308-5.261-6.083c-2.851.234-4.339,3.067-4.706,7.593s-1.536,14.412-1.644,15.3c-.107.877-.856,2.052-1.892.988s-6.414-10.136-10.566-7.327-3.1,15.585-3.015,16.984-.285,1.914-.982,2.118-2.217-3.017-3.852-5.535-3.971-5.151-6.232-3.33-4.651,10.775,1.045,27.225l3.138,7.45,8.039,1.143c17.352,1.4,25.422-3.157,26.621-5.8s-1.936-4.248-4.783-5.2-6.345-1.619-6.322-2.344.428-1.216,1.8-1.48,14.009-2.447,15.689-7.169-8.449-7.659-9.739-8.4-.34-1.756.483-2.079,10.117-3.934,14.407-5.422,6.66-3.638,6.173-6.456c-.47-2.718-5.191-2.812-7.206-3.572s-.6-3.062-.6-3.062a140.855,140.855,0,0,0,12.081-14.289c7.362-9.687,2.562-12.512,2.562-12.512" transform="translate(-360.905 -308.03)" fill="#71c299"/>
          <g id="Group_5840" data-name="Group 5840" transform="translate(0.786 9.298)">
            <path id="Path_8904" data-name="Path 8904" d="M420.263,319.318a1.054,1.054,0,0,1-.132.209l-.42.587-1.649,2.235c-1.437,1.937-3.541,4.72-6.158,8.149-5.23,6.857-12.547,16.259-20.673,26.607l-20.774,26.532-6.266,8.064-1.713,2.185c-.187.232-.337.416-.454.562a1.036,1.036,0,0,1-.166.182,1.093,1.093,0,0,1,.131-.209l.42-.587,1.649-2.234c1.437-1.937,3.541-4.72,6.158-8.148,5.23-6.857,12.548-16.26,20.676-26.612l20.77-26.527,6.265-8.065c.729-.93,1.3-1.662,1.713-2.185l.454-.562A1.073,1.073,0,0,1,420.263,319.318Z" transform="translate(-361.858 -319.318)" fill="#71c299"/>
          </g>
          <g id="Group_5841" data-name="Group 5841" transform="translate(36.856 22.288)">
            <path id="Path_8905" data-name="Path 8905" d="M405.685,335.087a10.158,10.158,0,0,1,.3,2.157c.123,1.339.233,3.193.306,5.24.054,1.97.1,3.751.142,5.241a13.591,13.591,0,0,1,0,2.175,9.167,9.167,0,0,1-.3-2.159c-.109-1.34-.2-3.195-.268-5.241-.068-1.967-.129-3.747-.18-5.237A11.855,11.855,0,0,1,405.685,335.087Z" transform="translate(-405.645 -335.087)" fill="#71c299"/>
          </g>
          <g id="Group_5842" data-name="Group 5842" transform="translate(38.346 35.934)">
            <path id="Path_8906" data-name="Path 8906" d="M407.454,353.105c-.01-.118,3.8-.531,8.505-.924a85.5,85.5,0,0,1,8.542-.5,85.533,85.533,0,0,1-8.506.925A85.3,85.3,0,0,1,407.454,353.105Z" transform="translate(-407.454 -351.652)" fill="#71c299"/>
          </g>
          <g id="Group_5843" data-name="Group 5843" transform="translate(24.677 53.263)">
            <path id="Path_8907" data-name="Path 8907" d="M390.861,372.7a12.5,12.5,0,0,1,2.194.351c1.345.254,3.2.61,5.26.937s3.933.579,5.291.755a12.687,12.687,0,0,1,2.193.353,10.411,10.411,0,0,1-2.224-.051c-1.369-.1-3.258-.3-5.327-.633s-3.926-.734-5.258-1.065A10.455,10.455,0,0,1,390.861,372.7Z" transform="translate(-390.861 -372.688)" fill="#71c299"/>
          </g>
          <g id="Group_5844" data-name="Group 5844" transform="translate(20.349 39.907)">
            <path id="Path_8908" data-name="Path 8908" d="M385.616,356.475a9.741,9.741,0,0,1,.8,1.894c.441,1.187,1.023,2.837,1.64,4.667s1.154,3.5,1.521,4.709a9.785,9.785,0,0,1,.512,1.99,9.779,9.779,0,0,1-.8-1.893c-.441-1.187-1.023-2.837-1.64-4.668s-1.154-3.5-1.521-4.709A9.764,9.764,0,0,1,385.616,356.475Z" transform="translate(-385.607 -356.475)" fill="#71c299"/>
          </g>
          <g id="Group_5845" data-name="Group 5845" transform="translate(6.502 52.4)">
            <path id="Path_8909" data-name="Path 8909" d="M368.8,371.641a15.994,15.994,0,0,1,1.007,2.432c.57,1.52,1.329,3.629,2.143,5.968s1.528,4.465,2.025,6.01a15.987,15.987,0,0,1,.719,2.531,16.05,16.05,0,0,1-1.006-2.431c-.57-1.52-1.33-3.629-2.143-5.969s-1.527-4.464-2.024-6.009A15.965,15.965,0,0,1,368.8,371.641Z" transform="translate(-368.797 -371.641)" fill="#71c299"/>
          </g>
          <g id="Group_5846" data-name="Group 5846" transform="translate(12.376 68.883)">
            <path id="Path_8910" data-name="Path 8910" d="M375.928,391.663a20.179,20.179,0,0,1,2.792.369c1.717.266,4.087.636,6.713.982s5.01.614,6.737.8a20.226,20.226,0,0,1,2.792.372,16.718,16.718,0,0,1-2.818-.07c-1.737-.11-4.134-.328-6.768-.679s-5-.765-6.709-1.109A16.72,16.72,0,0,1,375.928,391.663Z" transform="translate(-375.928 -391.65)" fill="#71c299"/>
          </g>
        </g>
        <g id="Group_6532" data-name="Group 6532" transform="translate(318.726 590.432)">
          <g id="Group_5048" data-name="Group 5048" transform="translate(0 92.26)">
            <g id="Group_4942" data-name="Group 4942" transform="translate(46.482)">
              <g id="Group_4941" data-name="Group 4941">
                <path id="Path_8003" data-name="Path 8003" d="M242,627.847l17.159-2.489,34.324,5.079,9.634,3.405-1.709,21.064-33,6.079-22.27-6.6L237.719,642Z" transform="translate(-237.719 -625.358)" fill="#ffbf9d"/>
              </g>
            </g>
            <g id="Group_4978" data-name="Group 4978" transform="translate(0 1.12)">
              <g id="Group_4944" data-name="Group 4944" transform="translate(14.027)">
                <g id="Group_4943" data-name="Group 4943">
                  <path id="Path_8004" data-name="Path 8004" d="M249.233,629.236l14.359-3.381s10.153,31.384,35.209,30.035c20.422-1.1,20.654-23.9,20.654-23.9l14.72,4.713s5.628,37.75-.6,64.493c-1.455,6.249-3.4,14.673-3.4,14.673l1.989,39.075-108.845.173,25.921-125.885Z" transform="translate(-223.312 -625.855)" fill="#ff735d"/>
                </g>
              </g>
              <g id="Group_4946" data-name="Group 4946" transform="translate(15.135 112.377)" opacity="0.3">
                <g id="Group_4945" data-name="Group 4945">
                  <path id="Path_8005" data-name="Path 8005" d="M291.285,684.869c-5.3-.131-10.187.318-15.481.187-6.357-.158-12.76-.311-19.034.723-4.7.775-9.279,2.21-13.985,2.951-6.416,1.014-13.269.651-18.98-2.44l.919-5.33,21.69-5.222Z" transform="translate(-223.804 -675.738)"/>
                </g>
              </g>
              <g id="Group_4948" data-name="Group 4948" transform="translate(118.355 10.543)">
                <g id="Group_4947" data-name="Group 4947">
                  <path id="Path_8006" data-name="Path 8006" d="M288.444,639.639c-4.979-6.432-13.256-9.1-13.256-9.1l-5.567,48.478L280.167,749.6l34.542-.162S295.658,648.956,288.444,639.639Z" transform="translate(-269.622 -630.535)" fill="#ff735d"/>
                </g>
              </g>
              <g id="Group_4950" data-name="Group 4950" transform="translate(0 3.026)">
                <g id="Group_4949" data-name="Group 4949">
                  <path id="Path_8007" data-name="Path 8007" d="M258.712,627.2s-23.249,1.863-31.591,39.954c-3.773,17.229-8.543,37.419-9.917,50.99-1,9.843,4.355,25.254,14.166,26.513l12.339,1.658a20.42,20.42,0,0,0,7.268-.268c7.79-1.791,8.583-7.137,9.957-12.819l3.6-11.368c1.969-10.811-8.1-12.827-13.663-12.706l4.147-49.343Z" transform="translate(-217.086 -627.198)" fill="#ff735d"/>
                </g>
              </g>
              <g id="Group_4953" data-name="Group 4953" transform="translate(120.879 37.496)">
                <g id="Group_4952" data-name="Group 4952">
                  <g id="Group_4951" data-name="Group 4951">
                    <path id="Path_8008" data-name="Path 8008" d="M276.664,642.5a3.275,3.275,0,0,1,.106.529l.234,1.536.16,1.11L277.3,647c.095.953.212,2.039.261,3.244a79.914,79.914,0,0,1,.059,8.473,102.664,102.664,0,0,1-1.03,10.325c-.534,3.643-1.205,7.085-1.888,10.2s-1.356,5.9-1.935,8.245-1.081,4.222-1.437,5.522l-.415,1.5a3.056,3.056,0,0,1-.169.514,2.832,2.832,0,0,1,.095-.534l.349-1.512c.322-1.349.77-3.235,1.322-5.549.545-2.345,1.205-5.136,1.854-8.252s1.322-6.551,1.854-10.185.9-7.11,1.056-10.284c.133-3.177.164-6.042.023-8.444-.034-1.2-.131-2.286-.207-3.239l-.106-1.327-.126-1.113-.164-1.543A2.784,2.784,0,0,1,276.664,642.5Z" transform="translate(-270.743 -642.499)" fill="#1a2e35"/>
                  </g>
                </g>
              </g>
              <g id="Group_4956" data-name="Group 4956" transform="translate(15.539 84.827)">
                <g id="Group_4955" data-name="Group 4955">
                  <g id="Group_4954" data-name="Group 4954">
                    <path id="Path_8009" data-name="Path 8009" d="M223.987,677.015a4.228,4.228,0,0,1,.185-.96,15.293,15.293,0,0,1,.9-2.505,17.1,17.1,0,0,1,13.648-9.933,15.339,15.339,0,0,1,2.661-.083,4.191,4.191,0,0,1,.969.119,34.691,34.691,0,0,0-3.6.225,17.59,17.59,0,0,0-13.443,9.784A34.815,34.815,0,0,0,223.987,677.015Z" transform="translate(-223.983 -663.509)" fill="#1a2e35"/>
                  </g>
                </g>
              </g>
              <g id="Group_4959" data-name="Group 4959" transform="translate(20.918 79.299)">
                <g id="Group_4958" data-name="Group 4958">
                  <g id="Group_4957" data-name="Group 4957">
                    <path id="Path_8010" data-name="Path 8010" d="M226.371,661.113a1.638,1.638,0,0,1,.561-.054,12.091,12.091,0,0,1,1.532.07,17.678,17.678,0,0,1,9.261,3.807,12.358,12.358,0,0,1,1.138,1.03c.25.263.381.414.363.433-.043.047-.629-.5-1.66-1.253a20.924,20.924,0,0,0-4.337-2.44,21.135,21.135,0,0,0-4.8-1.318C227.166,661.2,226.369,661.174,226.371,661.113Z" transform="translate(-226.371 -661.055)" fill="#1a2e35"/>
                  </g>
                </g>
              </g>
              <g id="Group_4962" data-name="Group 4962" transform="translate(38.092 5.485)">
                <g id="Group_4961" data-name="Group 4961">
                  <g id="Group_4960" data-name="Group 4960">
                    <path id="Path_8011" data-name="Path 8011" d="M240.887,652.839a5.432,5.432,0,0,1-.056-1.018c0-.656-.043-1.6-.122-2.766a44.357,44.357,0,0,0-4.9-17.439c-.538-1.036-1-1.865-1.336-2.426a5.48,5.48,0,0,1-.482-.9,5.28,5.28,0,0,1,.606.822c.374.541.872,1.352,1.444,2.379a40.056,40.056,0,0,1,4.925,17.547c.047,1.176.045,2.127,0,2.782A5.386,5.386,0,0,1,240.887,652.839Z" transform="translate(-233.994 -628.29)" fill="#1a2e35"/>
                  </g>
                </g>
              </g>
              <g id="Group_4965" data-name="Group 4965" transform="translate(56.643 64.615)">
                <g id="Group_4964" data-name="Group 4964">
                  <g id="Group_4963" data-name="Group 4963">
                    <path id="Path_8012" data-name="Path 8012" d="M275.1,654.537a1.807,1.807,0,0,1-.106.4c-.088.257-.189.647-.385,1.124a23.385,23.385,0,0,1-1.937,3.92,25.166,25.166,0,0,1-24.679,11.85,23.463,23.463,0,0,1-4.269-.937c-.5-.146-.863-.311-1.117-.4a1.654,1.654,0,0,1-.379-.169c.011-.031.55.153,1.536.433a26.31,26.31,0,0,0,4.26.815,25.791,25.791,0,0,0,26.45-15.562C274.877,655.064,275.07,654.528,275.1,654.537Z" transform="translate(-242.229 -654.537)" fill="#1a2e35"/>
                  </g>
                </g>
              </g>
              <g id="Group_4968" data-name="Group 4968" transform="translate(2.616 108.892)">
                <g id="Group_4967" data-name="Group 4967">
                  <g id="Group_4966" data-name="Group 4966">
                    <path id="Path_8013" data-name="Path 8013" d="M256.146,683.5c-.038-.031-.4.487-1.271,1.2a11.6,11.6,0,0,1-4.256,2.032,22.671,22.671,0,0,1-7,.615c-2.656-.191-5.585-.5-8.628-.955a44.093,44.093,0,0,1-8.423-1.94,10.764,10.764,0,0,1-3.1-2.066,16.621,16.621,0,0,1-2.163-2.46,23.12,23.12,0,0,1-2.377-4.122c-.221-.518-.394-.921-.5-1.2a2.275,2.275,0,0,0-.185-.415,1.994,1.994,0,0,0,.113.439c.081.288.234.7.437,1.232a21.143,21.143,0,0,0,2.3,4.222,16.55,16.55,0,0,0,2.167,2.53,10.97,10.97,0,0,0,3.17,2.156,42.866,42.866,0,0,0,8.5,1.994c3.062.453,5.988.755,8.669.928a22.24,22.24,0,0,0,7.09-.705,11.268,11.268,0,0,0,4.276-2.172,7.4,7.4,0,0,0,.908-.946A1.814,1.814,0,0,0,256.146,683.5Z" transform="translate(-218.247 -674.191)" fill="#1a2e35"/>
                  </g>
                </g>
              </g>
              <g id="Group_4971" data-name="Group 4971" transform="translate(33.761 42.175)">
                <g id="Group_4970" data-name="Group 4970">
                  <g id="Group_4969" data-name="Group 4969">
                    <path id="Path_8014" data-name="Path 8014" d="M242.665,644.576c-.1-.025-2.552,9.493-5.477,21.255s-5.213,21.323-5.114,21.348,2.55-9.491,5.477-21.257S242.764,644.6,242.665,644.576Z" transform="translate(-232.072 -644.576)" fill="#1a2e35"/>
                  </g>
                </g>
              </g>
              <g id="Group_4974" data-name="Group 4974" transform="translate(33.885 84.788)">
                <g id="Group_4973" data-name="Group 4973">
                  <g id="Group_4972" data-name="Group 4972">
                    <path id="Path_8015" data-name="Path 8015" d="M245.556,674.592a3.028,3.028,0,0,0,.117-.782,13.268,13.268,0,0,0,.05-2.163,6.264,6.264,0,0,0-1.043-3.048,9.19,9.19,0,0,0-1.194-1.5,8.227,8.227,0,0,0-1.651-1.23,20.73,20.73,0,0,0-6.767-2.185,19.1,19.1,0,0,0-2.149-.189,2.887,2.887,0,0,0-.791.027c0,.063,1.12.106,2.9.423a22.618,22.618,0,0,1,6.623,2.246,8.042,8.042,0,0,1,1.584,1.169,9.042,9.042,0,0,1,1.16,1.424,6.221,6.221,0,0,1,1.07,2.888,18.023,18.023,0,0,1,.068,2.129A3.282,3.282,0,0,0,245.556,674.592Z" transform="translate(-232.127 -663.491)" fill="#1a2e35"/>
                  </g>
                </g>
              </g>
              <g id="Group_4977" data-name="Group 4977" transform="translate(125.555 35.923)" opacity="0.3">
                <g id="Group_4976" data-name="Group 4976">
                  <g id="Group_4975" data-name="Group 4975">
                    <path id="Path_8016" data-name="Path 8016" d="M272.991,675.354c5.932-10.045,6.06-23.1.885-33.553a93.905,93.905,0,0,1-1.059,33.51" transform="translate(-272.818 -641.801)"/>
                  </g>
                </g>
              </g>
            </g>
            <g id="Group_5020" data-name="Group 5020" transform="translate(35.881 93.764)">
              <g id="Group_4995" data-name="Group 4995" transform="translate(0.049)">
                <g id="Group_4980" data-name="Group 4980" transform="translate(58.361 1.91)">
                  <g id="Group_4979" data-name="Group 4979">
                    <path id="Path_8017" data-name="Path 8017" d="M258.983,667.827l-.043.02Z" transform="translate(-258.94 -667.827)" fill="#ffbf9d"/>
                  </g>
                </g>
                <g id="Group_4982" data-name="Group 4982" transform="translate(58.054 2.032)">
                  <g id="Group_4981" data-name="Group 4981">
                    <path id="Path_8018" data-name="Path 8018" d="M258.9,667.881l-.095.045Z" transform="translate(-258.804 -667.881)" fill="#ffbf9d"/>
                  </g>
                </g>
                <g id="Group_4984" data-name="Group 4984" transform="translate(58.149 1.931)">
                  <g id="Group_4983" data-name="Group 4983">
                    <path id="Path_8019" data-name="Path 8019" d="M259.058,667.836l-.212.1Z" transform="translate(-258.846 -667.836)" fill="#ffbf9d"/>
                  </g>
                </g>
                <g id="Group_4986" data-name="Group 4986" transform="translate(58.403 1.865)">
                  <g id="Group_4985" data-name="Group 4985">
                    <path id="Path_8020" data-name="Path 8020" d="M259.054,667.807l-.095.045Z" transform="translate(-258.959 -667.807)" fill="#ffbf9d"/>
                  </g>
                </g>
                <g id="Group_4988" data-name="Group 4988">
                  <g id="Group_4987" data-name="Group 4987">
                    <path id="Path_8021" data-name="Path 8021" d="M313.371,688.906c-1.868-3.53-16.455-12.841-16.455-12.841l3.949-.912,4.359,1.843a10.721,10.721,0,0,0,1.877,4.084c1.6,2.287,4.323-.079,4.323-.079l-1.843-8.829-8.624-5.193s-8.117,1.241-9.426,1.865l-3.46,3.167c-1.518,1.19-5.9,5.882-7.1,6.024s-38.85-8.329-38.85-8.329h0c-5.163,4.089-7.883,12.21-8.7,18.068,0,0-.917,2.879.081,4.44l46.221,3.627,9.793,2.706a69.021,69.021,0,0,0,8.047,2.766c3.258.685,5.454-.367,5.54-2.169s-2.438-2-2.438-2a49.671,49.671,0,0,1-6.3-2.769,11.043,11.043,0,0,1-3.555-3.9l3.492.419s7.423,5.152,10.214,6.664,3.341-1.262,3.566-2.109-8.338-9.221-8.338-9.221,8.142,5.019,9.606,6.285,3.634,1.647,4.1.8S315.236,692.436,313.371,688.906Z" transform="translate(-233.034 -666.979)" fill="#ffbf9d"/>
                  </g>
                </g>
                <g id="Group_4990" data-name="Group 4990" transform="translate(57.973 2.077)">
                  <g id="Group_4989" data-name="Group 4989">
                    <path id="Path_8022" data-name="Path 8022" d="M258.849,667.9l-.081.038Z" transform="translate(-258.768 -667.901)" fill="#ffbf9d"/>
                  </g>
                </g>
                <g id="Group_4992" data-name="Group 4992" transform="translate(57.918 2.138)">
                  <g id="Group_4991" data-name="Group 4991">
                    <path id="Path_8023" data-name="Path 8023" d="M258.754,667.928Z" transform="translate(-258.743 -667.928)" fill="#ffbf9d"/>
                  </g>
                </g>
                <g id="Group_4994" data-name="Group 4994" transform="translate(57.928 2.115)">
                  <g id="Group_4993" data-name="Group 4993">
                    <path id="Path_8024" data-name="Path 8024" d="M258.793,667.918l-.045.023Z" transform="translate(-258.748 -667.918)" fill="#ffbf9d"/>
                  </g>
                </g>
              </g>
              <g id="Group_4998" data-name="Group 4998" transform="translate(40.169 11.055)">
                <g id="Group_4997" data-name="Group 4997">
                  <g id="Group_4996" data-name="Group 4996">
                    <path id="Path_8025" data-name="Path 8025" d="M250.89,683.573a1.841,1.841,0,0,1-.043-.572,3.383,3.383,0,0,1,.045-.671,4.919,4.919,0,0,1,.16-.881,12.411,12.411,0,0,1,2.365-4.56,26.648,26.648,0,0,1,3.562-3.7,10.657,10.657,0,0,1,1.681-1.3,17.055,17.055,0,0,1-1.518,1.48,34.2,34.2,0,0,0-3.451,3.731,13.6,13.6,0,0,0-2.4,4.413C250.923,682.755,250.962,683.575,250.89,683.573Z" transform="translate(-250.844 -671.886)" fill="#ff9a6c"/>
                  </g>
                </g>
              </g>
              <g id="Group_5001" data-name="Group 5001" transform="translate(58.983 7.256)">
                <g id="Group_5000" data-name="Group 5000">
                  <g id="Group_4999" data-name="Group 4999">
                    <path id="Path_8026" data-name="Path 8026" d="M263.8,671.755a5.394,5.394,0,0,1-4.607-1.548c.061-.083.953.579,2.228,1C262.694,671.64,263.8,671.651,263.8,671.755Z" transform="translate(-259.195 -670.2)" fill="#ff9a6c"/>
                  </g>
                </g>
              </g>
              <g id="Group_5004" data-name="Group 5004" transform="translate(58.72 15.468)">
                <g id="Group_5003" data-name="Group 5003">
                  <g id="Group_5002" data-name="Group 5002">
                    <path id="Path_8027" data-name="Path 8027" d="M266.375,676.855a22.822,22.822,0,0,1-3.713-1.343,23.225,23.225,0,0,1-3.584-1.658,22.873,22.873,0,0,1,3.715,1.343A22.627,22.627,0,0,1,266.375,676.855Z" transform="translate(-259.078 -673.845)" fill="#ff9a6c"/>
                  </g>
                </g>
              </g>
              <g id="Group_5007" data-name="Group 5007" transform="translate(54.435 21.922)">
                <g id="Group_5006" data-name="Group 5006">
                  <g id="Group_5005" data-name="Group 5005">
                    <path id="Path_8028" data-name="Path 8028" d="M260.936,678.2a8.779,8.779,0,0,1-1.9-.674,8.673,8.673,0,0,1-1.856-.8,7.526,7.526,0,0,1,3.76,1.469Z" transform="translate(-257.176 -676.71)" fill="#ff9a6c"/>
                  </g>
                </g>
              </g>
              <g id="Group_5010" data-name="Group 5010" transform="translate(62.493 19.104)">
                <g id="Group_5009" data-name="Group 5009">
                  <g id="Group_5008" data-name="Group 5008">
                    <path id="Path_8029" data-name="Path 8029" d="M263.076,675.477a4.758,4.758,0,0,0-2.269,2.98c-.041,0-.086-.232-.027-.6a3.1,3.1,0,0,1,1.708-2.246C262.831,675.457,263.065,675.437,263.076,675.477Z" transform="translate(-260.753 -675.459)" fill="#ff9a6c"/>
                  </g>
                </g>
              </g>
              <g id="Group_5013" data-name="Group 5013" transform="translate(66.599 13.708)">
                <g id="Group_5012" data-name="Group 5012">
                  <g id="Group_5011" data-name="Group 5011">
                    <path id="Path_8030" data-name="Path 8030" d="M264.219,673.082c.045.09-.595.435-1.014,1.174a9.135,9.135,0,0,0-.525,1.462,1.734,1.734,0,0,1,.23-1.633C263.4,673.237,264.2,672.99,264.219,673.082Z" transform="translate(-262.575 -673.064)" fill="#ff9a6c"/>
                  </g>
                </g>
              </g>
              <g id="Group_5016" data-name="Group 5016" transform="translate(66.707 0.921)">
                <g id="Group_5015" data-name="Group 5015">
                  <g id="Group_5014" data-name="Group 5014">
                    <path id="Path_8031" data-name="Path 8031" d="M263,670.556c-.038.018-.171-.144-.273-.459a2.5,2.5,0,0,1,.586-2.417c.234-.237.426-.318.451-.284a6.712,6.712,0,0,0-.732,1.5A6.639,6.639,0,0,0,263,670.556Z" transform="translate(-262.623 -667.388)" fill="#ff9a6c"/>
                  </g>
                </g>
              </g>
              <g id="Group_5019" data-name="Group 5019" transform="translate(0 2.18)">
                <g id="Group_5018" data-name="Group 5018">
                  <g id="Group_5017" data-name="Group 5017">
                    <path id="Path_8032" data-name="Path 8032" d="M233.117,692.328a5.685,5.685,0,0,0,.063-1.063c0-.34.013-.757.047-1.241s.045-1.034.115-1.64a36.891,36.891,0,0,1,2.019-9.261,33.232,33.232,0,0,1,2.19-4.74c.424-.682.8-1.352,1.221-1.926l.595-.847.592-.746c1.536-1.89,2.712-2.854,2.656-2.915a5.929,5.929,0,0,0-.829.667,10.012,10.012,0,0,0-.908.86,16.084,16.084,0,0,0-1.122,1.219l-.617.741c-.2.266-.405.552-.62.845-.442.572-.829,1.244-1.266,1.929a31.464,31.464,0,0,0-2.242,4.785,33.932,33.932,0,0,0-1.931,9.369c-.056.613-.05,1.167-.061,1.654s0,.908.016,1.25A5.822,5.822,0,0,0,233.117,692.328Z" transform="translate(-233.013 -667.946)" fill="#1a2e35"/>
                  </g>
                </g>
              </g>
            </g>
            <g id="Group_5022" data-name="Group 5022" transform="translate(12.211 85.539)" opacity="0.3">
              <g id="Group_5021" data-name="Group 5021">
                <path id="Path_8033" data-name="Path 8033" d="M230.422,665.088a23.2,23.2,0,0,1,13.7-1.246h0a18.925,18.925,0,0,0-18.48,11.951c-.336.887-.991,1.935-1.931,1.8-.874-.128-1.2-1.223-1.2-2.106C222.5,670.864,226.16,666.867,230.422,665.088Z" transform="translate(-222.506 -663.328)"/>
              </g>
            </g>
            <g id="Group_5024" data-name="Group 5024" transform="translate(127.077 25.631)">
              <g id="Group_5023" data-name="Group 5023">
                <path id="Path_8034" data-name="Path 8034" d="M273.494,646.453a2.249,2.249,0,0,0,.617-.207c.39-.153.942-.4,1.611-.737a34.288,34.288,0,0,0,9.363-6.921c.516-.541.917-1,1.178-1.322s.4-.511.379-.529c-.043-.038-.671.635-1.741,1.667a43.684,43.684,0,0,1-9.3,6.873A23.391,23.391,0,0,0,273.494,646.453Z" transform="translate(-273.494 -636.735)" fill="#fff"/>
              </g>
            </g>
            <g id="Group_5026" data-name="Group 5026" transform="translate(44.651 38.038)">
              <g id="Group_5025" data-name="Group 5025">
                <path id="Path_8035" data-name="Path 8035" d="M236.906,642.243a.863.863,0,0,0,.178.122l.55.329c.478.293,1.205.69,2.147,1.187a60.2,60.2,0,0,0,8.322,3.5,79.246,79.246,0,0,0,13.017,3.129,125.284,125.284,0,0,0,16.337,1.356c5.819.14,11.359.029,16.394-.083a110.329,110.329,0,0,0,13.352-1.007,52.085,52.085,0,0,0,8.79-2.043c1.012-.342,1.789-.629,2.3-.852l.59-.248a.918.918,0,0,0,.2-.095.963.963,0,0,0-.209.061l-.6.212c-.525.2-1.307.464-2.32.784a55.52,55.52,0,0,1-8.786,1.919,114.47,114.47,0,0,1-13.323.926c-5.03.095-10.57.194-16.376.054a128.721,128.721,0,0,1-16.292-1.322,81.148,81.148,0,0,1-12.987-3.041,64.87,64.87,0,0,1-8.34-3.379c-.951-.478-1.687-.852-2.176-1.124l-.565-.3A1.064,1.064,0,0,0,236.906,642.243Z" transform="translate(-236.906 -642.243)" fill="#fff"/>
              </g>
            </g>
            <g id="Group_5028" data-name="Group 5028" transform="translate(126.827 56.87)">
              <g id="Group_5027" data-name="Group 5027">
                <path id="Path_8036" data-name="Path 8036" d="M273.383,657.192a4.306,4.306,0,0,0,.885-.189l2.377-.649c2-.563,4.758-1.368,7.8-2.278s5.785-1.753,7.768-2.379l2.343-.764a4.281,4.281,0,0,0,.845-.327,4.1,4.1,0,0,0-.888.189l-2.374.649c-2,.563-4.76,1.367-7.8,2.275s-5.785,1.752-7.768,2.381l-2.341.761A4.29,4.29,0,0,0,273.383,657.192Z" transform="translate(-273.383 -650.602)" fill="#fff"/>
              </g>
            </g>
            <g id="Group_5030" data-name="Group 5030" transform="translate(124.75 93.45)">
              <g id="Group_5029" data-name="Group 5029">
                <path id="Path_8037" data-name="Path 8037" d="M272.461,676.338c.029.1,7.159-1.949,15.923-4.569s15.846-4.828,15.817-4.927-7.157,1.947-15.925,4.569S272.43,676.239,272.461,676.338Z" transform="translate(-272.461 -666.839)" fill="#fff"/>
              </g>
            </g>
            <g id="Group_5032" data-name="Group 5032" transform="translate(21.546 17.566)">
              <g id="Group_5031" data-name="Group 5031">
                <path id="Path_8038" data-name="Path 8038" d="M226.65,633.157a5.257,5.257,0,0,0,.786.62c.52.383,1.289.91,2.253,1.539a76.65,76.65,0,0,0,16.128,7.919c1.086.381,1.973.667,2.593.843a5.1,5.1,0,0,0,.971.243,5.055,5.055,0,0,0-.926-.381c-.669-.25-1.523-.57-2.548-.951-2.145-.82-5.078-2.032-8.223-3.573s-5.9-3.127-7.856-4.323l-2.311-1.435A5.068,5.068,0,0,0,226.65,633.157Z" transform="translate(-226.65 -633.155)" fill="#fff"/>
              </g>
            </g>
            <g id="Group_5034" data-name="Group 5034" transform="translate(7.325 58.134)">
              <g id="Group_5033" data-name="Group 5033">
                <path id="Path_8039" data-name="Path 8039" d="M220.337,651.165a8.492,8.492,0,0,0,1.158.55c.755.336,1.863.782,3.249,1.291a75.549,75.549,0,0,0,22.553,4.483c1.473.061,2.67.074,3.494.052a8.443,8.443,0,0,0,1.28-.063,8.085,8.085,0,0,0-1.277-.081c-.825-.023-2.014-.076-3.483-.169a85.928,85.928,0,0,1-22.479-4.47c-1.392-.478-2.514-.883-3.282-1.178A8.769,8.769,0,0,0,220.337,651.165Z" transform="translate(-220.337 -651.163)" fill="#fff"/>
              </g>
            </g>
            <g id="Group_5036" data-name="Group 5036" transform="translate(26.768 86.262)">
              <g id="Group_5035" data-name="Group 5035">
                <path id="Path_8040" data-name="Path 8040" d="M230.086,700.417a1.543,1.543,0,0,0-.036-.4l-.178-1.126c-.086-.487-.182-1.081-.25-1.78s-.194-1.489-.225-2.37l-.083-1.383c-.027-.48-.014-.98-.02-1.5-.034-1.039.043-2.145.1-3.307a44.933,44.933,0,0,1,3.544-14.67c.484-1.061.921-2.079,1.422-2.987.246-.457.46-.91.7-1.325l.705-1.192c.433-.771.9-1.417,1.284-2.005s.737-1.077,1.036-1.471l.669-.919a1.708,1.708,0,0,0,.216-.338,1.657,1.657,0,0,0-.275.291l-.725.879a17.543,17.543,0,0,0-1.093,1.439c-.4.579-.888,1.219-1.336,1.987l-.73,1.187c-.252.412-.475.865-.728,1.322-.516.91-.969,1.931-1.464,3a43.421,43.421,0,0,0-3.571,14.783c-.045,1.174-.11,2.287-.063,3.332.016.523.007,1.027.041,1.509l.108,1.39c.05.885.192,1.678.284,2.377a17.476,17.476,0,0,0,.313,1.78l.246,1.113A1.667,1.667,0,0,0,230.086,700.417Z" transform="translate(-228.968 -663.649)" fill="#fff"/>
              </g>
            </g>
            <g id="Group_5038" data-name="Group 5038" transform="translate(0.288 84.534)">
              <g id="Group_5037" data-name="Group 5037">
                <path id="Path_8041" data-name="Path 8041" d="M217.226,679.492c.041,0,.059-.581.221-1.611a14.01,14.01,0,0,1,1.4-4.161,17.5,17.5,0,0,1,4.035-5.085,21.166,21.166,0,0,1,6.86-4.012,26.811,26.811,0,0,1,7.86-1.386,50.415,50.415,0,0,1,6.558.246c1.865.176,3.37.36,4.413.48l1.2.13a2,2,0,0,0,.421.021,1.715,1.715,0,0,0-.412-.095l-1.192-.2c-1.036-.165-2.537-.39-4.4-.6a47.056,47.056,0,0,0-6.6-.327,26.6,26.6,0,0,0-7.973,1.376,21.081,21.081,0,0,0-6.963,4.109,17.3,17.3,0,0,0-4.042,5.222,13.2,13.2,0,0,0-1.311,4.255,9.158,9.158,0,0,0-.086,1.21A1.755,1.755,0,0,0,217.226,679.492Z" transform="translate(-217.213 -662.882)" fill="#fff"/>
              </g>
            </g>
            <g id="Group_5040" data-name="Group 5040" transform="translate(77.117 80.465)">
              <g id="Group_5039" data-name="Group 5039">
                <path id="Path_8042" data-name="Path 8042" d="M251.317,661.086a1.729,1.729,0,0,0,.405.07l1.163.119,4.283.358c3.618.279,8.621.622,14.152.91s10.545.464,14.175.5c1.816.014,3.285.02,4.3-.014l1.169-.036a1.707,1.707,0,0,0,.406-.038,1.646,1.646,0,0,0-.408-.036l-1.167-.034-4.294-.1c-3.627-.108-8.633-.322-14.163-.613l-14.152-.8c-1.773-.1-3.226-.182-4.292-.241l-1.167-.052A1.924,1.924,0,0,0,251.317,661.086Z" transform="translate(-251.317 -661.075)" fill="#fff"/>
              </g>
            </g>
            <g id="Group_5043" data-name="Group 5043" transform="translate(57.851 73.708)" opacity="0.3">
              <g id="Group_5042" data-name="Group 5042">
                <g id="Group_5041" data-name="Group 5041">
                  <path id="Path_8043" data-name="Path 8043" d="M257.884,666.328c-4.5,1.322-10.735,1.644-15.119-.025,3.431,4.871,10.05,6.637,15.792,5.051s11.041-7.335,11.485-13.278A24.592,24.592,0,0,1,257.884,666.328Z" transform="translate(-242.765 -658.076)"/>
                </g>
              </g>
            </g>
            <g id="Group_5045" data-name="Group 5045" transform="translate(36.492 77.247)">
              <g id="Group_5044" data-name="Group 5044">
                <path id="Path_8044" data-name="Path 8044" d="M233.284,659.652a1.316,1.316,0,0,0,.358.1l1.039.221c.9.185,2.214.43,3.839.716,3.249.57,7.752,1.271,12.749,1.881s9.538,1.016,12.828,1.244c1.647.117,2.978.194,3.9.232l1.061.036a1.318,1.318,0,0,0,.372-.014,1.485,1.485,0,0,0-.367-.061L268,663.9l-3.886-.349c-3.282-.295-7.813-.741-12.8-1.352s-9.493-1.268-12.751-1.771c-1.586-.248-2.89-.451-3.857-.6l-1.052-.151A1.471,1.471,0,0,0,233.284,659.652Z" transform="translate(-233.284 -659.647)" fill="#fff"/>
              </g>
            </g>
            <g id="Group_5047" data-name="Group 5047" transform="translate(34.144 45.462)" opacity="0.3">
              <g id="Group_5046" data-name="Group 5046">
                <path id="Path_8045" data-name="Path 8045" d="M242.074,645.538c1.126,12.924-2.4,25.752-5.884,38.248a5.44,5.44,0,0,1-.96,2.154,1.854,1.854,0,0,1-2.129.59c-1.09-.55-.944-2.129-.635-3.309q4.849-18.575,9.7-37.156" transform="translate(-232.242 -645.538)"/>
              </g>
            </g>
          </g>
          <g id="Group_5060" data-name="Group 5060" transform="translate(79.994 147.226)">
            <g id="Group_5054" data-name="Group 5054">
              <g id="Group_5050" data-name="Group 5050" transform="translate(0.174 0.038)">
                <g id="Group_5049" data-name="Group 5049">
                  <path id="Path_8046" data-name="Path 8046" d="M397.27,653.111,382.6,725.155H255.214a2.542,2.542,0,0,1-2.543-2.543h0a2.542,2.542,0,0,1,2.543-2.543h25.644l13.6-67.005a2.786,2.786,0,0,1,2.7-2.228l97.355-1.061A2.781,2.781,0,0,1,397.27,653.111Z" transform="translate(-252.671 -649.774)" fill="#011865"/>
                </g>
              </g>
              <g id="Group_5053" data-name="Group 5053">
                <g id="Group_5052" data-name="Group 5052">
                  <g id="Group_5051" data-name="Group 5051">
                    <path id="Path_8047" data-name="Path 8047" d="M397.366,653.132s.016-.072.041-.216a2.56,2.56,0,0,0,.014-.656,2.807,2.807,0,0,0-1.349-2.106,2.915,2.915,0,0,0-.84-.333,4.433,4.433,0,0,0-1-.061l-2.291.016-5.733.047c-8.64.083-21.181.2-36.811.349-7.815.079-16.4.167-25.662.259l-14.375.149q-3.71.037-7.54.077l-3.855.04c-.327.009-.635,0-.984.025a2.927,2.927,0,0,0-2.381,1.75,4.577,4.577,0,0,0-.268.98l-.2.969c-.133.647-.264,1.3-.4,1.946q-.4,1.957-.8,3.933-.8,3.96-1.631,8.016-1.649,8.11-3.372,16.587c-2.3,11.3-4.686,23.046-7.146,35.151l.171-.14H255.737a4.7,4.7,0,0,0-.991.058,2.724,2.724,0,0,0-.732,5.053,2.761,2.761,0,0,0,1.2.322l1.176.007h4.661q4.646,0,9.239,0,9.181,0,18.11,0l34.486-.007,59.808-.032h.11l.02-.108c4.485-22.143,8.135-40.159,10.665-52.642,1.253-6.238,2.23-11.093,2.895-14.393l.743-3.755c.167-.847.241-1.282.241-1.282s-.1.43-.279,1.275-.439,2.1-.784,3.747c-.68,3.3-1.681,8.148-2.965,14.38-2.557,12.478-6.245,30.483-10.78,52.617l.133-.106-59.808-.032-34.486-.007q-8.925,0-18.11,0l-9.239,0h-4.661l-1.162,0a2.418,2.418,0,0,1-1.043-.279,2.37,2.37,0,0,1,.635-4.4,4.361,4.361,0,0,1,.919-.052h10.451l14.767,0h.142l.027-.14c2.456-12.107,4.841-23.857,7.132-35.153q1.717-8.475,3.363-16.592.821-4.055,1.624-8.015.4-1.98.8-3.934l.4-1.949.2-.969a4.3,4.3,0,0,1,.246-.919,2.622,2.622,0,0,1,2.131-1.568c.3-.027.64-.016.957-.025l3.855-.043,7.54-.088q7.424-.084,14.375-.164c9.257-.11,17.844-.209,25.66-.3,15.628-.194,28.169-.349,36.811-.455l5.731-.077c.829-.013,1.593-.023,2.291-.034a4.376,4.376,0,0,1,.987.054,2.84,2.84,0,0,1,.825.318,2.78,2.78,0,0,1,1.347,2.055A3.547,3.547,0,0,1,397.366,653.132Z" transform="translate(-252.594 -649.757)" fill="#011865"/>
                  </g>
                </g>
              </g>
            </g>
            <g id="Group_5056" data-name="Group 5056" transform="translate(86.075 32.139)">
              <g id="Group_5055" data-name="Group 5055">
                <path id="Path_8048" data-name="Path 8048" d="M290.8,668.231a4.207,4.207,0,1,0,4.206-4.208A4.206,4.206,0,0,0,290.8,668.231Z" transform="translate(-290.802 -664.023)" fill="#011865"/>
              </g>
            </g>
            <g id="Group_5059" data-name="Group 5059" transform="translate(31.931 3.936)">
              <g id="Group_5058" data-name="Group 5058">
                <g id="Group_5057" data-name="Group 5057">
                  <path id="Path_8049" data-name="Path 8049" d="M379.492,651.526s-.149-.011-.439-.016l-1.289-.007c-1.144,0-2.811,0-4.952.007-4.314.02-10.534.05-18.214.088-15.389.108-36.628.257-60.089.423q-4.4.034-8.689.07-1.071.007-2.136.018a5.5,5.5,0,0,0-1.09.065,3.044,3.044,0,0,0-2.327,2.172c-.158.705-.277,1.372-.417,2.055-1.077,5.427-2.115,10.663-3.1,15.65-1.971,9.973-3.746,18.955-5.24,26.5-1.476,7.538-2.672,13.641-3.5,17.872l-.935,4.864c-.1.547-.178.969-.234,1.266s-.068.432-.068.432.041-.142.1-.426l.268-1.259c.232-1.122.568-2.753,1-4.85.854-4.226,2.088-10.322,3.611-17.851s3.314-16.52,5.312-26.486c1-4.988,2.041-10.221,3.125-15.646.137-.672.266-1.374.414-2.03a2.687,2.687,0,0,1,2.059-1.922,5.227,5.227,0,0,1,1.025-.059l2.136-.018,8.691-.068,60.087-.527,18.212-.2c2.142-.031,3.807-.056,4.952-.074l1.289-.027C379.343,651.54,379.492,651.526,379.492,651.526Z" transform="translate(-266.768 -651.504)" fill="#011865"/>
                </g>
              </g>
            </g>
          </g>
          <g id="Group_5263" data-name="Group 5263" transform="translate(50.425)">
            <g id="Group_5252" data-name="Group 5252">
              <g id="Group_5062" data-name="Group 5062" transform="translate(4.091 41.763)">
                <g id="Group_5061" data-name="Group 5061">
                  <path id="Path_8050" data-name="Path 8050" d="M241.3,602.943a47.163,47.163,0,0,0,15.053,35.61q3.362-9.746,6.727-19.491" transform="translate(-241.285 -602.943)" fill="#1a2e35"/>
                </g>
              </g>
              <g id="Group_5243" data-name="Group 5243">
                <g id="Group_5064" data-name="Group 5064">
                  <g id="Group_5063" data-name="Group 5063">
                    <path id="Path_8051" data-name="Path 8051" d="M294.3,587.4c-5.776-3.156-12.753-3.609-19.207-2.318s-12.467,4.215-18.164,7.511c-3.2,1.85-6.384,3.881-8.682,6.772-4.193,5.276-8.338,13.943-8.743,20.67-.327,5.44,1.757,19.059,4.057,24,2.109,4.533,11.985,7.984,16.86,9.1l44.725-52.015A22.647,22.647,0,0,0,294.3,587.4Z" transform="translate(-239.469 -584.405)" fill="#1a2e35"/>
                  </g>
                </g>
                <g id="Group_5066" data-name="Group 5066" transform="translate(51.819 8.093)">
                  <g id="Group_5065" data-name="Group 5065">
                    <path id="Path_8052" data-name="Path 8052" d="M273.192,589.914,262.471,588c5.862,13.956,7.45,45.876,10.8,60.639,3.954-5.733,13.132-23.2,12.641-30.147S285.932,588.729,273.192,589.914Z" transform="translate(-262.471 -587.997)" fill="#1a2e35"/>
                  </g>
                </g>
                <g id="Group_5067" data-name="Group 5067" transform="translate(11.644 10.009)">
                  <path id="Path_8053" data-name="Path 8053" d="M244.7,612.082a18.313,18.313,0,0,1,13.776-16.865l24.693-6.3c10.669-1.151,17.795,11.974,18.5,22.683.775,11.9,1.253,24.456-.138,33.339-2.8,17.86-16.475,20.163-16.475,20.163,0-.025,0,8.5-.011,13.711l-8.263,34.207-26.631-36.784-5.51-63.939C244.632,611.994,244.672,612.487,244.7,612.082Z" transform="translate(-244.638 -588.848)" fill="#ffbf9d"/>
                </g>
                <g id="Group_5083" data-name="Group 5083" transform="translate(58.738 44.19)">
                  <g id="Group_5082" data-name="Group 5082">
                    <g id="Group_5081" data-name="Group 5081">
                      <g id="Group_5080" data-name="Group 5080">
                        <g id="Group_5079" data-name="Group 5079">
                          <g id="Group_5078" data-name="Group 5078">
                            <g id="Group_5077" data-name="Group 5077">
                              <g id="Group_5076" data-name="Group 5076">
                                <g id="Group_5075" data-name="Group 5075">
                                  <g id="Group_5074" data-name="Group 5074">
                                    <g id="Group_5073" data-name="Group 5073">
                                      <g id="Group_5072" data-name="Group 5072">
                                        <g id="Group_5071" data-name="Group 5071">
                                          <g id="Group_5070" data-name="Group 5070">
                                            <g id="Group_5069" data-name="Group 5069">
                                              <g id="Group_5068" data-name="Group 5068">
                                                <path id="Path_8054" data-name="Path 8054" d="M270.11,606.085a2.288,2.288,0,0,1-2.2,2.314,2.187,2.187,0,0,1-2.363-2.059,2.288,2.288,0,0,1,2.2-2.316A2.193,2.193,0,0,1,270.11,606.085Z" transform="translate(-265.542 -604.02)" fill="#1a2e35"/>
                                              </g>
                                            </g>
                                          </g>
                                        </g>
                                      </g>
                                    </g>
                                  </g>
                                </g>
                              </g>
                            </g>
                          </g>
                        </g>
                      </g>
                    </g>
                  </g>
                </g>
                <g id="Group_5100" data-name="Group 5100" transform="translate(56.94 37.364)">
                  <g id="Group_5099" data-name="Group 5099">
                    <g id="Group_5098" data-name="Group 5098">
                      <g id="Group_5097" data-name="Group 5097">
                        <g id="Group_5096" data-name="Group 5096">
                          <g id="Group_5095" data-name="Group 5095">
                            <g id="Group_5094" data-name="Group 5094">
                              <g id="Group_5093" data-name="Group 5093">
                                <g id="Group_5092" data-name="Group 5092">
                                  <g id="Group_5091" data-name="Group 5091">
                                    <g id="Group_5090" data-name="Group 5090">
                                      <g id="Group_5089" data-name="Group 5089">
                                        <g id="Group_5088" data-name="Group 5088">
                                          <g id="Group_5087" data-name="Group 5087">
                                            <g id="Group_5086" data-name="Group 5086">
                                              <g id="Group_5085" data-name="Group 5085">
                                                <g id="Group_5084" data-name="Group 5084">
                                                  <path id="Path_8055" data-name="Path 8055" d="M273.8,603.387c-.284.3-2.021-.982-4.485-.969-2.462-.025-4.267,1.248-4.535.946-.133-.133.155-.674.942-1.248a6.279,6.279,0,0,1,3.629-1.126,6.027,6.027,0,0,1,3.571,1.142C273.676,602.713,273.935,603.252,273.8,603.387Z" transform="translate(-264.744 -600.99)" fill="#1a2e35"/>
                                                </g>
                                              </g>
                                            </g>
                                          </g>
                                        </g>
                                      </g>
                                    </g>
                                  </g>
                                </g>
                              </g>
                            </g>
                          </g>
                        </g>
                      </g>
                    </g>
                  </g>
                </g>
                <g id="Group_5116" data-name="Group 5116" transform="translate(37.258 44.19)">
                  <g id="Group_5115" data-name="Group 5115">
                    <g id="Group_5114" data-name="Group 5114">
                      <g id="Group_5113" data-name="Group 5113">
                        <g id="Group_5112" data-name="Group 5112">
                          <g id="Group_5111" data-name="Group 5111">
                            <g id="Group_5110" data-name="Group 5110">
                              <g id="Group_5109" data-name="Group 5109">
                                <g id="Group_5108" data-name="Group 5108">
                                  <g id="Group_5107" data-name="Group 5107">
                                    <g id="Group_5106" data-name="Group 5106">
                                      <g id="Group_5105" data-name="Group 5105">
                                        <g id="Group_5104" data-name="Group 5104">
                                          <g id="Group_5103" data-name="Group 5103">
                                            <g id="Group_5102" data-name="Group 5102">
                                              <g id="Group_5101" data-name="Group 5101">
                                                <path id="Path_8056" data-name="Path 8056" d="M260.578,606.085a2.29,2.29,0,0,1-2.2,2.314,2.189,2.189,0,0,1-2.366-2.059,2.292,2.292,0,0,1,2.2-2.316A2.193,2.193,0,0,1,260.578,606.085Z" transform="translate(-256.007 -604.02)" fill="#1a2e35"/>
                                              </g>
                                            </g>
                                          </g>
                                        </g>
                                      </g>
                                    </g>
                                  </g>
                                </g>
                              </g>
                            </g>
                          </g>
                        </g>
                      </g>
                    </g>
                  </g>
                </g>
                <g id="Group_5133" data-name="Group 5133" transform="translate(33.539 37.364)">
                  <g id="Group_5132" data-name="Group 5132">
                    <g id="Group_5131" data-name="Group 5131">
                      <g id="Group_5130" data-name="Group 5130">
                        <g id="Group_5129" data-name="Group 5129">
                          <g id="Group_5128" data-name="Group 5128">
                            <g id="Group_5127" data-name="Group 5127">
                              <g id="Group_5126" data-name="Group 5126">
                                <g id="Group_5125" data-name="Group 5125">
                                  <g id="Group_5124" data-name="Group 5124">
                                    <g id="Group_5123" data-name="Group 5123">
                                      <g id="Group_5122" data-name="Group 5122">
                                        <g id="Group_5121" data-name="Group 5121">
                                          <g id="Group_5120" data-name="Group 5120">
                                            <g id="Group_5119" data-name="Group 5119">
                                              <g id="Group_5118" data-name="Group 5118">
                                                <g id="Group_5117" data-name="Group 5117">
                                                  <path id="Path_8057" data-name="Path 8057" d="M263.407,603.387c-.284.3-2.023-.982-4.485-.969-2.462-.025-4.267,1.248-4.535.946-.131-.133.153-.671.942-1.248a6.279,6.279,0,0,1,3.629-1.126,6.027,6.027,0,0,1,3.571,1.142C263.286,602.713,263.547,603.252,263.407,603.387Z" transform="translate(-254.356 -600.99)" fill="#1a2e35"/>
                                                </g>
                                              </g>
                                            </g>
                                          </g>
                                        </g>
                                      </g>
                                    </g>
                                  </g>
                                </g>
                              </g>
                            </g>
                          </g>
                        </g>
                      </g>
                    </g>
                  </g>
                </g>
                <g id="Group_5150" data-name="Group 5150" transform="translate(49.094 38.583)">
                  <g id="Group_5149" data-name="Group 5149">
                    <g id="Group_5148" data-name="Group 5148">
                      <g id="Group_5147" data-name="Group 5147">
                        <g id="Group_5146" data-name="Group 5146">
                          <g id="Group_5145" data-name="Group 5145">
                            <g id="Group_5144" data-name="Group 5144">
                              <g id="Group_5143" data-name="Group 5143">
                                <g id="Group_5142" data-name="Group 5142">
                                  <g id="Group_5141" data-name="Group 5141">
                                    <g id="Group_5140" data-name="Group 5140">
                                      <g id="Group_5139" data-name="Group 5139">
                                        <g id="Group_5138" data-name="Group 5138">
                                          <g id="Group_5137" data-name="Group 5137">
                                            <g id="Group_5136" data-name="Group 5136">
                                              <g id="Group_5135" data-name="Group 5135">
                                                <g id="Group_5134" data-name="Group 5134">
                                                  <path id="Path_8058" data-name="Path 8058" d="M262.461,622.06c-.011-.14,1.518-.408,4-.73.631-.068,1.226-.194,1.329-.622a3.193,3.193,0,0,0-.423-1.865q-.892-2.281-1.87-4.787c-2.6-6.815-4.483-12.42-4.208-12.523s2.606,5.339,5.206,12.156c.624,1.681,1.223,3.282,1.793,4.816a3.637,3.637,0,0,1,.331,2.467,1.581,1.581,0,0,1-1.034.924,4.3,4.3,0,0,1-1.068.151C264.02,622.187,262.47,622.2,262.461,622.06Z" transform="translate(-261.261 -601.531)" fill="#1a2e35"/>
                                                </g>
                                              </g>
                                            </g>
                                          </g>
                                        </g>
                                      </g>
                                    </g>
                                  </g>
                                </g>
                              </g>
                            </g>
                          </g>
                        </g>
                      </g>
                    </g>
                  </g>
                </g>
                <g id="Group_5155" data-name="Group 5155" transform="translate(28.377 79.912)">
                  <g id="Group_5154" data-name="Group 5154">
                    <g id="Group_5153" data-name="Group 5153">
                      <g id="Group_5152" data-name="Group 5152">
                        <g id="Group_5151" data-name="Group 5151">
                          <path id="Path_8059" data-name="Path 8059" d="M252.065,619.877s5.812,12.264,23.679,10.554l0-4.2A44.967,44.967,0,0,1,252.065,619.877Z" transform="translate(-252.065 -619.877)" fill="#ff9a6c"/>
                        </g>
                      </g>
                    </g>
                  </g>
                </g>
                <g id="Group_5168" data-name="Group 5168" transform="translate(30.573 29.019)">
                  <g id="Group_5167" data-name="Group 5167">
                    <g id="Group_5166" data-name="Group 5166">
                      <g id="Group_5165" data-name="Group 5165">
                        <g id="Group_5164" data-name="Group 5164">
                          <g id="Group_5163" data-name="Group 5163">
                            <g id="Group_5162" data-name="Group 5162">
                              <g id="Group_5161" data-name="Group 5161">
                                <g id="Group_5160" data-name="Group 5160">
                                  <g id="Group_5159" data-name="Group 5159">
                                    <g id="Group_5158" data-name="Group 5158">
                                      <g id="Group_5157" data-name="Group 5157">
                                        <g id="Group_5156" data-name="Group 5156">
                                          <path id="Path_8060" data-name="Path 8060" d="M264.284,599.122c-.241.671-2.7.358-5.591.714-2.9.3-5.229,1.147-5.614.547-.171-.286.234-.919,1.176-1.568a9.795,9.795,0,0,1,8.536-.962C263.851,598.28,264.387,598.8,264.284,599.122Z" transform="translate(-253.04 -597.286)" fill="#1a2e35"/>
                                        </g>
                                      </g>
                                    </g>
                                  </g>
                                </g>
                              </g>
                            </g>
                          </g>
                        </g>
                      </g>
                    </g>
                  </g>
                </g>
                <g id="Group_5181" data-name="Group 5181" transform="translate(56.796 29.679)">
                  <g id="Group_5180" data-name="Group 5180">
                    <g id="Group_5179" data-name="Group 5179">
                      <g id="Group_5178" data-name="Group 5178">
                        <g id="Group_5177" data-name="Group 5177">
                          <g id="Group_5176" data-name="Group 5176">
                            <g id="Group_5175" data-name="Group 5175">
                              <g id="Group_5174" data-name="Group 5174">
                                <g id="Group_5173" data-name="Group 5173">
                                  <g id="Group_5172" data-name="Group 5172">
                                    <g id="Group_5171" data-name="Group 5171">
                                      <g id="Group_5170" data-name="Group 5170">
                                        <g id="Group_5169" data-name="Group 5169">
                                          <path id="Path_8061" data-name="Path 8061" d="M273.072,600.122c-.433.561-2.131-.016-4.172-.04-2.041-.095-3.769.385-4.168-.2-.176-.284.095-.845.849-1.376a6.038,6.038,0,0,1,6.72.191C273.024,599.273,273.261,599.848,273.072,600.122Z" transform="translate(-264.68 -597.579)" fill="#1a2e35"/>
                                        </g>
                                      </g>
                                    </g>
                                  </g>
                                </g>
                              </g>
                            </g>
                          </g>
                        </g>
                      </g>
                    </g>
                  </g>
                </g>
                <g id="Group_5186" data-name="Group 5186" transform="translate(7.238 3.093)">
                  <g id="Group_5185" data-name="Group 5185">
                    <g id="Group_5184" data-name="Group 5184">
                      <g id="Group_5183" data-name="Group 5183">
                        <g id="Group_5182" data-name="Group 5182">
                          <path id="Path_8062" data-name="Path 8062" d="M299.264,599.142c-1.09-2.688-4.039-4.3-6.936-4.447a15.263,15.263,0,0,0-8.236,2.4c-10.633,6.146-16.1,20.992-26.606,27.351-2.584,1.563-5.947.131-8.146,2.2s-3.622,5.382-2.408,8.149a25.117,25.117,0,0,1-3.645-6.166,8.441,8.441,0,0,1,.3-6.961c.91-1.575,2.514-2.778,2.956-4.542.387-1.552-.225-3.177-.158-4.774a10.379,10.379,0,0,1,1.636-4.555c4.116-7.279,9.777-13.864,17.07-17.957a30.231,30.231,0,0,1,15.671-4.053,23.119,23.119,0,0,1,14.909,5.918c2.35,2.192,4.821,4.458,3.6,7.432" transform="translate(-242.682 -585.777)" fill="#1a2e35"/>
                        </g>
                      </g>
                    </g>
                  </g>
                </g>
                <g id="Group_5224" data-name="Group 5224" transform="translate(4.527 45.219)">
                  <g id="Group_5204" data-name="Group 5204">
                    <g id="Group_5203" data-name="Group 5203">
                      <g id="Group_5202" data-name="Group 5202">
                        <g id="Group_5201" data-name="Group 5201">
                          <g id="Group_5200" data-name="Group 5200">
                            <g id="Group_5199" data-name="Group 5199">
                              <g id="Group_5198" data-name="Group 5198">
                                <g id="Group_5197" data-name="Group 5197">
                                  <g id="Group_5196" data-name="Group 5196">
                                    <g id="Group_5195" data-name="Group 5195">
                                      <g id="Group_5194" data-name="Group 5194">
                                        <g id="Group_5193" data-name="Group 5193">
                                          <g id="Group_5192" data-name="Group 5192">
                                            <g id="Group_5191" data-name="Group 5191">
                                              <g id="Group_5190" data-name="Group 5190">
                                                <g id="Group_5189" data-name="Group 5189">
                                                  <g id="Group_5188" data-name="Group 5188">
                                                    <g id="Group_5187" data-name="Group 5187">
                                                      <path id="Path_8063" data-name="Path 8063" d="M251.1,605.437c-.187-.511-9.5-3.873-9.624,6.026-.119,9.617,9.583,7.725,9.6,7.45S251.1,605.437,251.1,605.437Z" transform="translate(-241.479 -604.477)" fill="#ffbf9d"/>
                                                    </g>
                                                  </g>
                                                </g>
                                              </g>
                                            </g>
                                          </g>
                                        </g>
                                      </g>
                                    </g>
                                  </g>
                                </g>
                              </g>
                            </g>
                          </g>
                        </g>
                      </g>
                    </g>
                  </g>
                  <g id="Group_5223" data-name="Group 5223" transform="translate(2.411 3.137)">
                    <g id="Group_5222" data-name="Group 5222">
                      <g id="Group_5221" data-name="Group 5221">
                        <g id="Group_5220" data-name="Group 5220">
                          <g id="Group_5219" data-name="Group 5219">
                            <g id="Group_5218" data-name="Group 5218">
                              <g id="Group_5217" data-name="Group 5217">
                                <g id="Group_5216" data-name="Group 5216">
                                  <g id="Group_5215" data-name="Group 5215">
                                    <g id="Group_5214" data-name="Group 5214">
                                      <g id="Group_5213" data-name="Group 5213">
                                        <g id="Group_5212" data-name="Group 5212">
                                          <g id="Group_5211" data-name="Group 5211">
                                            <g id="Group_5210" data-name="Group 5210">
                                              <g id="Group_5209" data-name="Group 5209">
                                                <g id="Group_5208" data-name="Group 5208">
                                                  <g id="Group_5207" data-name="Group 5207">
                                                    <g id="Group_5206" data-name="Group 5206">
                                                      <g id="Group_5205" data-name="Group 5205">
                                                        <path id="Path_8064" data-name="Path 8064" d="M246.81,613.5c-.043-.031-.169.115-.453.243a1.678,1.678,0,0,1-1.253.014c-1.014-.383-1.854-2-1.883-3.737a5.525,5.525,0,0,1,.491-2.395,1.93,1.93,0,0,1,1.273-1.273.851.851,0,0,1,.984.469c.126.268.063.46.113.478.027.025.21-.16.135-.557a1.06,1.06,0,0,0-.374-.606,1.249,1.249,0,0,0-.924-.255,2.359,2.359,0,0,0-1.764,1.476,5.7,5.7,0,0,0-.606,2.674c.045,1.94,1.018,3.762,2.406,4.177a1.79,1.79,0,0,0,1.534-.241C246.789,613.728,246.843,613.514,246.81,613.5Z" transform="translate(-242.549 -605.87)" fill="#ff9a6c"/>
                                                      </g>
                                                    </g>
                                                  </g>
                                                </g>
                                              </g>
                                            </g>
                                          </g>
                                        </g>
                                      </g>
                                    </g>
                                  </g>
                                </g>
                              </g>
                            </g>
                          </g>
                        </g>
                      </g>
                    </g>
                  </g>
                </g>
                <g id="Group_5230" data-name="Group 5230" transform="translate(10.327 8.826)">
                  <g id="Group_5229" data-name="Group 5229">
                    <g id="Group_5228" data-name="Group 5228">
                      <g id="Group_5227" data-name="Group 5227">
                        <g id="Group_5226" data-name="Group 5226">
                          <g id="Group_5225" data-name="Group 5225">
                            <path id="Path_8065" data-name="Path 8065" d="M244.053,620.733a3.59,3.59,0,0,0,.581-.322c.367-.234.935-.547,1.613-1.025a33.169,33.169,0,0,0,5.19-4.726,92,92,0,0,0,6.351-8.25,75.69,75.69,0,0,1,7.937-9.883,30.292,30.292,0,0,1,5.121-4.046,24.985,24.985,0,0,1,5.533-2.512,27.4,27.4,0,0,1,10.189-1.25,26.273,26.273,0,0,1,6.824,1.338c.791.239,1.374.5,1.782.66a3.754,3.754,0,0,0,.629.223,3.66,3.66,0,0,0-.593-.3,16.3,16.3,0,0,0-1.762-.741,24.93,24.93,0,0,0-6.858-1.485,27.218,27.218,0,0,0-10.334,1.174,25.023,25.023,0,0,0-5.632,2.528,30.406,30.406,0,0,0-5.208,4.1,73.814,73.814,0,0,0-7.959,9.962,98.171,98.171,0,0,1-6.252,8.277,35.552,35.552,0,0,1-5.06,4.794c-.658.5-1.207.831-1.559,1.088A4.168,4.168,0,0,0,244.053,620.733Z" transform="translate(-244.053 -588.322)" fill="#375a64"/>
                          </g>
                        </g>
                      </g>
                    </g>
                  </g>
                </g>
                <g id="Group_5242" data-name="Group 5242" transform="translate(7.672 57.575)">
                  <g id="Group_5235" data-name="Group 5235" transform="translate(0.198 0.08)">
                    <g id="Group_5234" data-name="Group 5234">
                      <g id="Group_5233" data-name="Group 5233">
                        <g id="Group_5232" data-name="Group 5232">
                          <g id="Group_5231" data-name="Group 5231">
                            <path id="Path_8066" data-name="Path 8066" d="M245.2,610.026a1.891,1.891,0,1,0,.448.142" transform="translate(-242.962 -609.997)" fill="#fff"/>
                          </g>
                        </g>
                      </g>
                    </g>
                  </g>
                  <g id="Group_5241" data-name="Group 5241">
                    <g id="Group_5240" data-name="Group 5240">
                      <g id="Group_5239" data-name="Group 5239">
                        <g id="Group_5238" data-name="Group 5238">
                          <g id="Group_5237" data-name="Group 5237">
                            <g id="Group_5236" data-name="Group 5236">
                              <path id="Path_8067" data-name="Path 8067" d="M245.757,610.212a2.6,2.6,0,0,1,.865,1.291,1.633,1.633,0,0,1-.376,1.512,1.683,1.683,0,0,1-2.958-.944,1.632,1.632,0,0,1,.568-1.449,2.56,2.56,0,0,1,1.453-.552c0-.025-.149-.1-.451-.108a1.972,1.972,0,0,0-1.2.421,1.917,1.917,0,0,0-.77,1.735,2.064,2.064,0,0,0,3.661,1.165,1.919,1.919,0,0,0,.374-1.861,1.963,1.963,0,0,0-.737-1.036C245.935,610.217,245.766,610.19,245.757,610.212Z" transform="translate(-242.875 -609.962)" fill="#1a2e35"/>
                            </g>
                          </g>
                        </g>
                      </g>
                    </g>
                  </g>
                </g>
              </g>
              <g id="Group_5245" data-name="Group 5245" transform="translate(12.653 30.301)">
                <g id="Group_5244" data-name="Group 5244">
                  <path id="Path_8068" data-name="Path 8068" d="M245.179,611.511c-.151,2.627-.273,5.4.942,7.736s4.274,3.922,6.558,2.615c1.863-1.066,2.422-3.451,2.737-5.573.912-6.126,1.329-12.318,2.293-18.435Z" transform="translate(-245.086 -597.855)" fill="#1a2e35"/>
                </g>
              </g>
              <g id="Group_5248" data-name="Group 5248" transform="translate(12.913 11.433)">
                <g id="Group_5247" data-name="Group 5247">
                  <g id="Group_5246" data-name="Group 5246">
                    <path id="Path_8069" data-name="Path 8069" d="M293.74,589.929c-.009.056-.849-.16-2.39-.21a16.5,16.5,0,0,0-6.364,1.163A20.887,20.887,0,0,0,281,592.936a42.862,42.862,0,0,0-4.114,3.141,49.4,49.4,0,0,0-8.054,8.682c-1.221,1.714-2.3,3.479-3.476,5.112a24.473,24.473,0,0,1-3.857,4.337,42.829,42.829,0,0,1-8.126,5.436c-2.462,1.3-4.519,2.212-5.936,2.841l-1.647.7a2.809,2.809,0,0,1-.588.212,2.578,2.578,0,0,1,.543-.308l1.6-.793c1.39-.689,3.42-1.651,5.844-2.987a44.351,44.351,0,0,0,7.979-5.474,24.271,24.271,0,0,0,3.755-4.271c1.151-1.615,2.23-3.381,3.467-5.116a48.489,48.489,0,0,1,8.171-8.75,41.86,41.86,0,0,1,4.192-3.136,20.9,20.9,0,0,1,4.1-2.037,15.863,15.863,0,0,1,6.508-1.014,11.056,11.056,0,0,1,1.78.248A2.65,2.65,0,0,1,293.74,589.929Z" transform="translate(-245.201 -589.479)" fill="#375a64"/>
                  </g>
                </g>
              </g>
              <g id="Group_5251" data-name="Group 5251" transform="translate(1.761 25.678)">
                <g id="Group_5250" data-name="Group 5250">
                  <g id="Group_5249" data-name="Group 5249">
                    <path id="Path_8070" data-name="Path 8070" d="M250.97,608.142a4.26,4.26,0,0,1-.852.574q-.987.581-2.435,1.431l-.82.469a2.552,2.552,0,0,1-1.052.349,1.007,1.007,0,0,1-.651-.153.835.835,0,0,1-.36-.633,2.128,2.128,0,0,1,.455-1.217l2.827-4.526.381.354a10.073,10.073,0,0,1-6.533,1.946,2.946,2.946,0,0,1-.872-.149,1.188,1.188,0,0,1-.748-.651,1.048,1.048,0,0,1,.162-.971,4.036,4.036,0,0,1,.547-.6,20.227,20.227,0,0,0,3.276-4.129,34.912,34.912,0,0,0,2.084-4.429,5.131,5.131,0,0,1-.3,1.293,17.992,17.992,0,0,1-1.449,3.327,19.387,19.387,0,0,1-3.258,4.294c-.358.34-.714.732-.577,1.034.115.3.662.453,1.167.455a9.723,9.723,0,0,0,6.188-1.843l1.149-.841-.768,1.194-2.884,4.492a1.824,1.824,0,0,0-.41.937.458.458,0,0,0,.554.41,4.9,4.9,0,0,0,1.728-.712l2.512-1.291A4.471,4.471,0,0,1,250.97,608.142Z" transform="translate(-240.251 -595.803)" fill="#375a64"/>
                  </g>
                </g>
              </g>
            </g>
            <g id="Group_5253" data-name="Group 5253" transform="matrix(0.899, -0.438, 0.438, 0.899, 37.796, 64.018)">
              <path id="Path_8071" data-name="Path 8071" d="M.12,4.06A5.463,5.463,0,0,1,5.788.023,5.716,5.716,0,0,1,10.2,3.064a6.641,6.641,0,0,1,.25,5.32l-.088.384a6.382,6.382,0,0,1-7.029,1.45A5.623,5.623,0,0,1,.12,4.06Z" fill="#ff9a6c"/>
            </g>
            <g id="Group_5903" data-name="Group 5903" transform="translate(40.671 63.27)">
              <path id="Path_8958" data-name="Path 8958" d="M204.98,231.487a36.475,36.475,0,0,0,9.741,3.623s-2.561,3.858-6.7,1.974C203.721,235.128,204.98,231.487,204.98,231.487Z" transform="translate(-204.808 -231.487)" fill="#fff"/>
            </g>
          </g>
          <g id="Group_5265" data-name="Group 5265" transform="translate(15.194 217.88)">
            <g id="Group_5264" data-name="Group 5264">
              <path id="Path_8073" data-name="Path 8073" d="M223.83,681.127a.593.593,0,0,0,.169.029l.5.052,1.908.158c1.656.133,4.057.295,7.024.469,5.934.351,14.141.71,23.211.863s17.288.065,23.231-.088c2.971-.074,5.375-.158,7.038-.234l1.91-.095.5-.034a.741.741,0,0,0,.169-.023.6.6,0,0,0-.171-.016l-.5,0-1.913.025-7.038.115c-5.941.086-14.152.131-23.22-.02s-17.268-.471-23.2-.755l-7.029-.349-1.913-.088-.5-.013A.566.566,0,0,0,223.83,681.127Z" transform="translate(-223.83 -681.12)" fill="#fff"/>
            </g>
          </g>
        </g>
        <g id="Group_6535" data-name="Group 6535" transform="translate(433.166 570.09)">
          <g id="Union_7" data-name="Union 7" transform="translate(-0.166 0.089)" fill="#fff">
            <path d="M81.293,151.734H11a11,11,0,0,1-11-11V11A11,11,0,0,1,11,0H203a11,11,0,0,1,11,11V140.733a11,11,0,0,1-11,11H105.056L93.174,171Z" stroke="none"/>
            <path d="M 93.17433929443359 169.0957183837891 L 104.4978256225586 150.7337036132812 L 203.0013275146484 150.7337036132812 C 208.5152130126953 150.7337036132812 213.0010986328125 146.2474060058594 213.0010986328125 140.7330169677734 L 213.0010986328125 11.00159454345703 C 213.0010986328125 5.487205982208252 208.5152130126953 1.000900268554688 203.0013275146484 1.000900268554688 L 10.99979972839355 1.000900268554688 C 5.485882759094238 1.000900268554688 0.9999937415122986 5.487205982208252 0.9999937415122986 11.00159454345703 L 0.9999937415122986 140.7330169677734 C 0.9999937415122986 146.2474060058594 5.485882759094238 150.7337036132812 10.99979972839355 150.7337036132812 L 81.85166168212891 150.7337036132812 L 93.17433929443359 169.0957183837891 M 93.17430114746094 171.0009002685547 L 81.29346466064453 151.7337036132812 L 10.99979972839355 151.7337036132812 C 4.92479944229126 151.7337036132812 -6.239149115572218e-06 146.8088989257812 -6.239149115572218e-06 140.7330169677734 L -6.239149115572218e-06 11.00159454345703 C -6.239149115572218e-06 4.925705909729004 4.92479944229126 0.0009002685546875 10.99979972839355 0.0009002685546875 L 203.0013275146484 0.0009002685546875 C 209.0762939453125 0.0009002685546875 214.0010986328125 4.925705909729004 214.0010986328125 11.00159454345703 L 214.0010986328125 140.7330169677734 C 214.0010986328125 146.8088989257812 209.0762939453125 151.7337036132812 203.0013275146484 151.7337036132812 L 105.0559921264648 151.7337036132812 L 93.17430114746094 171.0009002685547 Z" stroke="none" fill="rgba(17,83,182,0.5)"/>
          </g>
          <g id="Group_6534" data-name="Group 6534" transform="translate(83.116 24.35)">
            <g id="Group_4922" data-name="Group 4922">
              <g id="Group_4921" data-name="Group 4921">
                <ellipse id="Ellipse_94" data-name="Ellipse 94" cx="23.528" cy="23.528" rx="23.528" ry="23.528" fill="#1153b6"/>
              </g>
            </g>
            <g id="Group_4933" data-name="Group 4933" transform="translate(15.76 12.465)">
              <g id="Group_4924" data-name="Group 4924" transform="translate(3.122)">
                <g id="Group_4923" data-name="Group 4923">
                  <path id="Path_7998" data-name="Path 7998" d="M303.852,584.539h.392v-2.2a4.589,4.589,0,0,0-9.179,0v1.791h.392v-1.791a4.2,4.2,0,1,1,8.394,0Z" transform="translate(-295.065 -577.754)" fill="#fff" stroke="#fff" stroke-width="1"/>
                </g>
              </g>
              <g id="Group_4932" data-name="Group 4932" transform="translate(0 6.589)">
                <g id="Group_4926" data-name="Group 4926">
                  <g id="Group_4925" data-name="Group 4925">
                    <path id="Path_7999" data-name="Path 7999" d="M295.885,595.643h11.668a1.938,1.938,0,0,0,1.937-1.934V582.039a1.938,1.938,0,0,0-1.937-1.934H295.885a1.936,1.936,0,0,0-1.934,1.934V593.71A1.936,1.936,0,0,0,295.885,595.643ZM307.553,580.5a1.545,1.545,0,0,1,1.544,1.542V593.71a1.547,1.547,0,0,1-1.544,1.544H295.885a1.547,1.547,0,0,1-1.544-1.544V582.039a1.545,1.545,0,0,1,1.544-1.542Z" transform="translate(-293.951 -580.105)" fill="#fff" stroke="#fff" stroke-width="1"/>
                  </g>
                </g>
                <g id="Group_4931" data-name="Group 4931" transform="translate(5.88 4.49)">
                  <g id="Group_4928" data-name="Group 4928">
                    <g id="Group_4927" data-name="Group 4927">
                      <path id="Path_8000" data-name="Path 8000" d="M297.882,585.37a1.832,1.832,0,1,0-1.833-1.833A1.833,1.833,0,0,0,297.882,585.37Zm0-3.271a1.439,1.439,0,1,1-1.441,1.438A1.439,1.439,0,0,1,297.882,582.1Z" transform="translate(-296.049 -581.707)" fill="#fff" stroke="#fff" stroke-width="1"/>
                    </g>
                  </g>
                  <g id="Group_4930" data-name="Group 4930" transform="translate(1.692 3.383)">
                    <g id="Group_4929" data-name="Group 4929">
                      <rect id="Rectangle_5505" data-name="Rectangle 5505" width="0.391" height="3.305" fill="#fff" stroke="#fff" stroke-width="1"/>
                    </g>
                  </g>
                </g>
              </g>
            </g>
          </g>
          <g id="Group_6533" data-name="Group 6533" transform="translate(28.91 81.913)">
            <g id="Group_4896" data-name="Group 4896" transform="translate(65.537 0.235)" opacity="0">
              <rect id="Rectangle_5501" data-name="Rectangle 5501" width="26.718" height="37.995" rx="2.881" fill="#fff"/>
            </g>
            <g id="Group_4897" data-name="Group 4897" transform="translate(33.423 0.235)" opacity="0">
              <rect id="Rectangle_5502" data-name="Rectangle 5502" width="26.718" height="37.995" rx="2.881" fill="#fff"/>
            </g>
            <g id="Group_4898" data-name="Group 4898" transform="translate(97.499 0.235)" opacity="0">
              <rect id="Rectangle_5503" data-name="Rectangle 5503" width="27.473" height="37.995" rx="2.963" fill="#fff"/>
            </g>
            <g id="Group_4899" data-name="Group 4899" transform="translate(129.009 0.235)" opacity="0">
              <rect id="Rectangle_5504" data-name="Rectangle 5504" width="27.473" height="37.995" rx="2.963" fill="#fff"/>
            </g>
            <g id="Rectangle_5656" data-name="Rectangle 5656" transform="translate(-0.076 0.175)" fill="rgba(255,255,255,0.81)" stroke="#1153b6" stroke-width="1" opacity="0.49">
              <rect width="157" height="38" rx="4" stroke="none"/>
              <rect x="0.5" y="0.5" width="156" height="37" rx="3.5" fill="none"/>
            </g>
            <g id="Group_4901" data-name="Group 4901" transform="translate(67.911 14.039)">
              <g id="Group_4900" data-name="Group 4900">
                <path id="Path_7988" data-name="Path 7988" d="M286.238,609.673l2.939,1.59-1.32,2.211-2.965-1.754.051,3.26h-2.533l.029-3.286-2.965,1.78-1.294-2.211,2.939-1.59-2.939-1.616,1.294-2.211,2.965,1.78-.029-3.29h2.533l-.051,3.29,2.965-1.78,1.32,2.211Z" transform="translate(-278.181 -604.336)" fill="#1a1a1a"/>
              </g>
            </g>
            <g id="Group_4903" data-name="Group 4903" transform="translate(88.389 13.863)">
              <g id="Group_4902" data-name="Group 4902">
                <path id="Path_7989" data-name="Path 7989" d="M295,609.625l2.935,1.59-1.32,2.212-2.965-1.755.055,3.261h-2.533l.026-3.286-2.965,1.78-1.294-2.212,2.939-1.59-2.939-1.615,1.294-2.212,2.965,1.78-.026-3.29H293.7l-.055,3.29,2.965-1.78,1.32,2.212Z" transform="translate(-286.936 -604.288)" fill="#1a1a1a"/>
              </g>
            </g>
            <g id="Group_4905" data-name="Group 4905" transform="translate(110.071 13.863)">
              <g id="Group_4904" data-name="Group 4904">
                <path id="Path_7990" data-name="Path 7990" d="M303.963,609.625l2.935,1.59-1.32,2.212-2.964-1.755.051,3.261h-2.533l.029-3.286-2.965,1.78-1.294-2.212,2.939-1.59-2.939-1.615L297.2,605.8l2.965,1.78-.029-3.29h2.533l-.051,3.29,2.964-1.78,1.32,2.212Z" transform="translate(-295.903 -604.288)" fill="#1a1a1a"/>
              </g>
            </g>
            <g id="Group_4907" data-name="Group 4907" transform="translate(131.754 13.863)">
              <g id="Group_4906" data-name="Group 4906">
                <path id="Path_7991" data-name="Path 7991" d="M312.646,609.625l2.935,1.59-1.32,2.212-2.964-1.755.055,3.261h-2.533l.026-3.286-2.961,1.78-1.294-2.212,2.935-1.59-2.935-1.615,1.294-2.212,2.961,1.78-.026-3.29h2.533l-.055,3.29,2.964-1.78,1.32,2.212Z" transform="translate(-304.589 -604.288)" fill="#1a1a1a"/>
              </g>
            </g>
            <g id="Group_6540" data-name="Group 6540" opacity="0">
              <g id="Group_4909" data-name="Group 4909">
                <g id="Group_4908" data-name="Group 4908">
                  <path id="Path_7992" data-name="Path 7992" d="M296.493,639.277H282.285a6.632,6.632,0,0,1-6.624-6.627V607.435a6.632,6.632,0,0,1,6.624-6.624h14.209a6.632,6.632,0,0,1,6.624,6.624V632.65A6.632,6.632,0,0,1,296.493,639.277Zm-14.209-38a6.163,6.163,0,0,0-6.156,6.156V632.65a6.161,6.161,0,0,0,6.156,6.156h14.209a6.161,6.161,0,0,0,6.156-6.156V607.435a6.163,6.163,0,0,0-6.156-6.156Z" transform="translate(-275.661 -600.811)" fill="#1a2e35"/>
                </g>
              </g>
              <g id="Group_4911" data-name="Group 4911" transform="translate(32.987)">
                <g id="Group_4910" data-name="Group 4910">
                  <path id="Path_7993" data-name="Path 7993" d="M305.517,639.277H291.309a6.632,6.632,0,0,1-6.624-6.627V607.435a6.632,6.632,0,0,1,6.624-6.624h14.209a6.633,6.633,0,0,1,6.627,6.624V632.65A6.633,6.633,0,0,1,305.517,639.277Zm-14.209-38a6.165,6.165,0,0,0-6.156,6.156V632.65a6.163,6.163,0,0,0,6.156,6.156h14.209a6.161,6.161,0,0,0,6.156-6.156V607.435a6.163,6.163,0,0,0-6.156-6.156Z" transform="translate(-284.685 -600.811)" fill="#1a2e35"/>
                </g>
              </g>
              <g id="Group_4913" data-name="Group 4913" transform="translate(65.067)">
                <g id="Group_4912" data-name="Group 4912">
                  <path id="Path_7994" data-name="Path 7994" d="M314.3,639.277H300.088a6.633,6.633,0,0,1-6.627-6.627V607.435a6.633,6.633,0,0,1,6.627-6.624H314.3a6.632,6.632,0,0,1,6.624,6.624V632.65A6.632,6.632,0,0,1,314.3,639.277Zm-14.209-38a6.163,6.163,0,0,0-6.156,6.156V632.65a6.161,6.161,0,0,0,6.156,6.156H314.3a6.163,6.163,0,0,0,6.156-6.156V607.435a6.165,6.165,0,0,0-6.156-6.156Z" transform="translate(-293.461 -600.811)" fill="#1a2e35"/>
                </g>
              </g>
              <g id="Group_4915" data-name="Group 4915" transform="translate(97.513)">
                <g id="Group_4914" data-name="Group 4914">
                  <path id="Path_7995" data-name="Path 7995" d="M323.173,639.277H308.961a6.632,6.632,0,0,1-6.624-6.627V607.435a6.632,6.632,0,0,1,6.624-6.624h14.212a6.632,6.632,0,0,1,6.624,6.624V632.65A6.632,6.632,0,0,1,323.173,639.277Zm-14.212-38a6.165,6.165,0,0,0-6.156,6.156V632.65a6.163,6.163,0,0,0,6.156,6.156h14.212a6.163,6.163,0,0,0,6.156-6.156V607.435a6.165,6.165,0,0,0-6.156-6.156Z" transform="translate(-302.337 -600.811)" fill="#1a2e35"/>
                </g>
              </g>
              <g id="Group_4917" data-name="Group 4917" transform="translate(129.015)">
                <g id="Group_4916" data-name="Group 4916">
                  <path id="Path_7996" data-name="Path 7996" d="M331.791,639.277H317.582a6.633,6.633,0,0,1-6.627-6.627V607.435a6.633,6.633,0,0,1,6.627-6.624h14.209a6.632,6.632,0,0,1,6.624,6.624V632.65A6.632,6.632,0,0,1,331.791,639.277Zm-14.209-38a6.163,6.163,0,0,0-6.156,6.156V632.65a6.161,6.161,0,0,0,6.156,6.156h14.209a6.163,6.163,0,0,0,6.156-6.156V607.435a6.165,6.165,0,0,0-6.156-6.156Z" transform="translate(-310.955 -600.811)" fill="#1a2e35"/>
                </g>
              </g>
            </g>
          </g>
        </g>
        <g id="Group_6539" data-name="Group 6539" transform="translate(1398.531 678.617)">
          <g id="Group_5296" data-name="Group 5296" transform="translate(0 0)">
            <path id="Path_8183" data-name="Path 8183" d="M103.055,558.871a3.1,3.1,0,0,1,2.408-.832c9.458.855,24.313-8.908,38.636-15.593a3.106,3.106,0,0,1,3.178.332c12.825,9.64,34.086,11.636,41.466,12.044a3.122,3.122,0,0,1,2.923,2.8c6.712,65.188-35.495,88.81-44.249,92.98a3.108,3.108,0,0,1-2.983-.173c-43.628-27.329-41.762-62.868-42.365-89.2A3.148,3.148,0,0,1,103.055,558.871Z" transform="translate(-102.069 -542.155)" fill="#ff9483"/>
            <path id="Path_8184" data-name="Path 8184" d="M144.393,641.033a.315.315,0,0,0,.176-.053,104.865,104.865,0,0,0,22.039-21.708,83.021,83.021,0,0,0,13.17-25.086,66.213,66.213,0,0,0,1.814-32.771.316.316,0,0,0-.332-.254c-.287.022-28.811,1.888-40.389-13.775a.315.315,0,0,0-.244-.128.321.321,0,0,0-.251.112c-.107.128-10.821,12.831-19.328,15.894s-14.708,1.741-14.77,1.728a.311.311,0,0,0-.262.059.318.318,0,0,0-.121.241,98,98,0,0,0,4.359,27.382,96.622,96.622,0,0,0,11.318,24.7,86.08,86.08,0,0,0,22.639,23.6A.306.306,0,0,0,144.393,641.033Zm36.634-79.227a65.584,65.584,0,0,1-1.846,32.181,82.4,82.4,0,0,1-13.064,24.892,105.036,105.036,0,0,1-21.722,21.455,85.4,85.4,0,0,1-22.286-23.29,95.954,95.954,0,0,1-11.246-24.531,99.19,99.19,0,0,1-4.34-26.835,30.347,30.347,0,0,0,14.74-1.821c8.03-2.891,17.621-13.774,19.341-15.78,3.492,4.56,10.589,10.349,24.726,12.753A76.006,76.006,0,0,0,181.027,561.805Z" transform="translate(-98.045 -539.9)" fill="#fff" stroke="#fff" stroke-width="1"/>
          </g>
          <g id="Group_5297" data-name="Group 5297" transform="translate(27.398 24.475)">
            <path id="Path_8185" data-name="Path 8185" d="M123.487,603.039h26.106a3.22,3.22,0,0,0,3.376-3.011h0l1.4-24.843a3.163,3.163,0,0,0-.881-2.382,3.4,3.4,0,0,0-2.382-1.1l-27.5-.9a3.358,3.358,0,0,0-3.472,3.379v25.836A3.061,3.061,0,0,0,123.487,603.039Zm0-31.607h.092l27.5.9a2.768,2.768,0,0,1,1.939.893,2.557,2.557,0,0,1,.717,1.921l-1.4,24.843h0a2.606,2.606,0,0,1-2.747,2.415H123.487a2.45,2.45,0,0,1-2.724-2.389V574.183a2.73,2.73,0,0,1,2.728-2.751Z" transform="translate(-120.133 -553.968)" fill="#fff" stroke="#fff" stroke-width="1"/>
            <path id="Path_8186" data-name="Path 8186" d="M147.41,577.386a.316.316,0,0,0,.311-.27c.865-5.9.048-10.531-2.433-13.762a10.777,10.777,0,0,0-6.756-4.12c-7.1-.829-12.245,3.217-13.767,10.821l0,.039-.476,6.2a.315.315,0,0,0,.627.049l.474-6.188c1.455-7.236,6.339-11.085,13.073-10.3a10.339,10.339,0,0,1,6.336,3.889c2.366,3.092,3.141,7.559,2.3,13.278a.313.313,0,0,0,.265.356A.251.251,0,0,0,147.41,577.386Z" transform="translate(-119.799 -559.128)" fill="#fff" stroke="#fff" stroke-width="1"/>
            <path id="Path_8187" data-name="Path 8187" d="M141.162,575.5a.317.317,0,0,0,.311-.268c.039-.257.932-6.33-1.957-9.695a6.363,6.363,0,0,0-5.077-2.134,6.262,6.262,0,0,0-5.11,2.151c-2.656,3.23-1.583,8.875-1.536,9.115a.314.314,0,0,0,.617-.121c-.012-.056-1.063-5.6,1.406-8.6a5.667,5.667,0,0,1,4.623-1.919,5.756,5.756,0,0,1,4.6,1.915c2.7,3.146,1.821,9.129,1.811,9.188a.315.315,0,0,0,.264.359A.267.267,0,0,0,141.162,575.5Z" transform="translate(-118.068 -557.24)" fill="#fff" stroke="#fff" stroke-width="1"/>
            <path id="Path_8188" data-name="Path 8188" d="M134.055,596.564h.238a3.122,3.122,0,0,0,2.8-2.714v-10.6a4.322,4.322,0,0,0,2.43-3.893c0-2.532-2.493-4.591-5.559-4.591-3.093,0-5.517,2.016-5.517,4.591,0,1.909,1.409,3.553,3.609,4.239V593.85C132.052,595.165,132.755,596.564,134.055,596.564Zm2.405-13.122V593.85a2.532,2.532,0,0,1-2.167,2.085h-.238c-.947,0-1.373-1.22-1.373-2.085V583.362a.315.315,0,0,0-.231-.3c-2.053-.564-3.38-2.016-3.38-3.7,0-2.222,2.147-3.961,4.888-3.961,2.718,0,4.93,1.777,4.93,3.961a3.763,3.763,0,0,1-2.449,3.5.315.315,0,0,0-.193.29A.281.281,0,0,0,136.46,583.442Z" transform="translate(-117.257 -552.215)" fill="#fff" stroke="#fff" stroke-width="1"/>
          </g>
        </g>
        <g id="Group_4791" data-name="Group 4791" transform="matrix(-0.485, 0.875, -0.875, -0.485, 1380.665, 755.915)" opacity="0.6">
          <g id="Group_4787" data-name="Group 4787" transform="translate(0 34.238)" opacity="0.64">
            <path id="Path_7623" data-name="Path 7623" d="M1.463,0h0A1.464,1.464,0,0,0,0,1.466C0,2.274.03,3.1.086,3.909c.053.77.133,1.549.237,2.313a1.461,1.461,0,1,0,2.9-.388c-.095-.7-.166-1.419-.216-2.127-.05-.746-.077-1.5-.077-2.248A1.466,1.466,0,0,0,1.463,0ZM3.551,11.776a1.426,1.426,0,0,0-.5.092,1.46,1.46,0,0,0-.871,1.875A35.648,35.648,0,0,0,4.12,18.1,1.462,1.462,0,1,0,6.705,16.74a32.469,32.469,0,0,1-1.783-4A1.46,1.46,0,0,0,3.551,11.776ZM9.575,22.112A1.461,1.461,0,0,0,8.462,24.52a36.282,36.282,0,0,0,3.323,3.424,1.462,1.462,0,1,0,1.958-2.171,33.273,33.273,0,0,1-3.051-3.146A1.463,1.463,0,0,0,9.575,22.112Zm9.211,7.632a1.463,1.463,0,0,0-.726,2.733,35.381,35.381,0,0,0,4.294,2.076,1.461,1.461,0,1,0,1.093-2.71,32.678,32.678,0,0,1-3.939-1.908A1.456,1.456,0,0,0,18.786,29.745Zm27.662,2.733a1.443,1.443,0,0,0-.459.074,33.116,33.116,0,0,1-4.244,1.093,1.461,1.461,0,0,0,.536,2.873A35.347,35.347,0,0,0,46.9,35.33a1.463,1.463,0,0,0-.456-2.852Zm-16.4,1.271a1.461,1.461,0,0,0-.237,2.9,35.837,35.837,0,0,0,4.751.465,1.462,1.462,0,0,0,.089-2.924,32.419,32.419,0,0,1-4.36-.426A1.7,1.7,0,0,0,30.05,33.749Z" transform="translate(0 0)" fill="#1153b6"/>
            <path id="Path_7624" data-name="Path 7624" d="M3.426,0a1.449,1.449,0,0,0-.835.261c-.61.424-1.244.832-1.878,1.214a1.462,1.462,0,1,0,1.5,2.508c.693-.415,1.38-.859,2.046-1.321A1.462,1.462,0,0,0,3.426,0Z" transform="translate(51.774 28.104)" fill="#1153b6"/>
          </g>
          <g id="Group_4788" data-name="Group 4788" transform="translate(13.426 0)" opacity="0.64">
            <path id="Path_7625" data-name="Path 7625" d="M1.845,0A1.461,1.461,0,0,0,.4,1.27C.3,2.008.177,2.751.029,3.477a1.463,1.463,0,1,0,2.867.58c.16-.791.3-1.6.4-2.4A1.465,1.465,0,0,0,2.04.012,1.429,1.429,0,0,0,1.845,0Z" transform="translate(54.339 38.745)" fill="#1153b6"/>
            <path id="Path_7626" data-name="Path 7626" d="M13.872,0c-.3,0-.6.006-.9.012a1.462,1.462,0,1,0,.074,2.923,33.151,33.151,0,0,1,4.306.174A1.462,1.462,0,1,0,17.657.2,35.776,35.776,0,0,0,13.872,0ZM5.759.963A1.535,1.535,0,0,0,5.416,1,35.942,35.942,0,0,0,.935,2.4,1.462,1.462,0,0,0,1.989,5.133,32.727,32.727,0,0,1,6.1,3.847,1.463,1.463,0,0,0,5.759.963Zm18.881.782a1.462,1.462,0,0,0-.462,2.849A32.546,32.546,0,0,1,28.165,6.22a1.462,1.462,0,1,0,1.282-2.627A35.75,35.75,0,0,0,25.1,1.818,1.466,1.466,0,0,0,24.641,1.744ZM34.995,7.328a1.461,1.461,0,0,0-.906,2.609A33.214,33.214,0,0,1,37.3,12.822a1.462,1.462,0,0,0,2.091-2.044A35.7,35.7,0,0,0,35.9,7.641,1.445,1.445,0,0,0,34.995,7.328Zm7.863,8.752a1.461,1.461,0,0,0-1.238,2.239,32.7,32.7,0,0,1,2.041,3.794A1.463,1.463,0,1,0,46.323,20.9,35.671,35.671,0,0,0,44.1,16.766,1.454,1.454,0,0,0,42.858,16.079Zm4.431,10.905a1.585,1.585,0,0,0-.311.032,1.461,1.461,0,0,0-1.119,1.738,33.585,33.585,0,0,1,.628,4.262A1.462,1.462,0,1,0,49.4,32.78a36.269,36.269,0,0,0-.684-4.641A1.463,1.463,0,0,0,47.289,26.985Z" transform="translate(8.424 0)" fill="#1153b6"/>
            <path id="Path_7627" data-name="Path 7627" d="M3.365,0a1.477,1.477,0,0,0-.809.242C1.884.69,1.217,1.167.572,1.662A1.462,1.462,0,0,0,2.352,3.98c.592-.453,1.205-.891,1.821-1.3A1.462,1.462,0,0,0,3.365,0Z" transform="translate(0 5.684)" fill="#1153b6"/>
          </g>
          <g id="Group_4790" data-name="Group 4790" transform="translate(9.209 9.458)">
            <g id="Group_4789" data-name="Group 4789" transform="translate(0 0)">
              <path id="Path_7628" data-name="Path 7628" d="M8,7.527A.42.42,0,0,1,8.458,7.4L13.149,9.13A21.786,21.786,0,0,1,19.36,5.783L20.5.92a.417.417,0,0,1,.358-.314L26.829,0a.41.41,0,0,1,.415.237l2.094,4.535A21.752,21.752,0,0,1,36.1,6.805l4.25-2.633a.405.405,0,0,1,.474.033L45.468,8a.406.406,0,0,1,.124.459l-1.724,4.691a21.719,21.719,0,0,1,3.344,6.214L52.075,20.5a.406.406,0,0,1,.314.358l.6,5.965a.412.412,0,0,1-.234.415l-4.534,2.1a21.816,21.816,0,0,1-2.032,6.756l2.63,4.25a.415.415,0,0,1-.03.477L45,45.465a.415.415,0,0,1-.462.127l-4.691-1.726a21.791,21.791,0,0,1-6.211,3.347l-1.146,4.863a.41.41,0,0,1-.358.314l-5.965.6a.41.41,0,0,1-.415-.237L23.66,48.222A21.747,21.747,0,0,1,16.9,46.19l-4.25,2.633a.41.41,0,0,1-.474-.032L7.531,45A.412.412,0,0,1,7.4,44.54L9.13,39.849a21.753,21.753,0,0,1-3.344-6.214L.923,32.492a.413.413,0,0,1-.317-.358L0,26.169a.411.411,0,0,1,.237-.415l4.534-2.1A21.816,21.816,0,0,1,6.805,16.9l-2.63-4.25a.415.415,0,0,1,.03-.477Z" fill="#ff7f3d"/>
            </g>
            <path id="Path_7629" data-name="Path 7629" d="M7.064,0A7.088,7.088,0,0,0,.077,6.048,7.079,7.079,0,1,0,14.083,8.112,7.078,7.078,0,0,0,8.112.077,7.333,7.333,0,0,0,7.064,0Zm.018,10.65a3.5,3.5,0,0,1-.521-.039A3.57,3.57,0,0,1,7.6,3.548h0a3.57,3.57,0,0,1-.518,7.1Z" transform="translate(19.419 19.416)" fill="#fff" opacity="0.56"/>
            <path id="Path_7630" data-name="Path 7630" d="M15.081,0a15.124,15.124,0,0,0-1.546.08h0A15.181,15.181,0,0,0,10.4.738a.583.583,0,0,0-.4.557.652.652,0,0,0,.027.181.587.587,0,0,0,.737.376,13.894,13.894,0,0,1,18.1,11.805,13.627,13.627,0,0,1,.074,1.428,13.886,13.886,0,0,1-27.7,1.371,13.167,13.167,0,0,1-.068-1.407A13.826,13.826,0,0,1,2.479,9.167a.586.586,0,1,0-1.06-.5A14.968,14.968,0,0,0,0,15.055a14.5,14.5,0,0,0,.077,1.52,15.053,15.053,0,0,0,30.029-1.5,14.79,14.79,0,0,0-.077-1.528A15.06,15.06,0,0,0,15.081,0Z" transform="translate(11.538 11.529)" fill="#f9f9f9"/>
          </g>
        </g>
      </g>
    </g>
  </g>
</svg>
