<svg xmlns="http://www.w3.org/2000/svg" xmlns:xlink="http://www.w3.org/1999/xlink" width="1366" height="270" viewBox="0 0 1366 270">
  <defs>
    <clipPath id="clip-path">
      <rect id="Rectangle_5655" data-name="Rectangle 5655" width="1366" height="267" transform="translate(232 546.418)" fill="#fff" stroke="#707070" stroke-width="1"/>
    </clipPath>
    <clipPath id="clip-Manage_your_Account-Access-code">
      <rect width="1366" height="270"/>
    </clipPath>
  </defs>
  <g id="Manage_your_Account-Access-code" data-name="Manage your Account-Access-code" clip-path="url(#clip-Manage_your_Account-Access-code)">
    <g id="Mask_Group_3" data-name="Mask Group 3" transform="translate(-232 -546.418)" clip-path="url(#clip-path)">
      <circle id="Ellipse_119" data-name="Ellipse 119" cx="223.5" cy="223.5" r="223.5" transform="translate(232 582.418)" fill="#f1aa8b" opacity="0.36"/>
      <ellipse id="Ellipse_121" data-name="Ellipse 121" cx="104" cy="104.5" rx="104" ry="104.5" transform="translate(1374 679.418)" fill="#71c299" opacity="0.15"/>
      <g id="Group_6554" data-name="Group 6554" transform="translate(252.861 546)">
        <g id="Group_6619" data-name="Group 6619">
          <g id="Group_6554-2" data-name="Group 6554" transform="translate(6.939 197.778)">
            <path id="Path_9564" data-name="Path 9564" d="M65.456,374.063a62.558,62.558,0,0,0-26.774-9.216c-4.375-.449-9.154-.322-12.664,2.329a2.607,2.607,0,0,0-1.3,2.313,2.834,2.834,0,0,0,1.239,1.582c10.893,8.309,27.372,9.359,39.5,2.992" transform="translate(-24.69 -364.648)" fill="#71c299"/>
          </g>
          <g id="Group_6555" data-name="Group 6555" transform="translate(18.563 164.462)">
            <path id="Path_9565" data-name="Path 9565" d="M59.544,388.283c-6.06-4.731-12.157-9.492-17.293-15.214s-9.307-12.517-10.842-20.05c-.465-2.285-.609-4.9.857-6.709C46.05,357.075,56.879,371,59.544,388.283" transform="translate(-31.088 -346.309)" fill="#71c299"/>
          </g>
          <g id="Group_6556" data-name="Group 6556" transform="translate(46.684 165.652)">
            <path id="Path_9566" data-name="Path 9566" d="M47.446,388.4c-1.037-7.541-1.412-15.293.322-22.7s5.762-14.506,12.093-18.733c2.382,5.566,1.357,11.981-.32,17.8A86.545,86.545,0,0,1,47.549,390.01" transform="translate(-46.568 -346.964)" fill="#71c299"/>
          </g>
          <g id="Group_6557" data-name="Group 6557" transform="translate(27.323 231.3)">
            <path id="Path_9567" data-name="Path 9567" d="M69.662,383.1c-8.2,1-15.345,5.321-21.471,10.867A40.626,40.626,0,0,0,35.91,415.052c8.046-.5,14.871-6.171,19.822-12.533s8.38-13.343,13.819-19.293" transform="translate(-35.91 -383.101)" fill="#71c299"/>
          </g>
          <g id="Group_6558" data-name="Group 6558" transform="translate(60.318 185.083)">
            <path id="Path_9568" data-name="Path 9568" d="M57.765,407.751A52.952,52.952,0,0,1,63.88,357.66c4.672,16.622,2.958,35.4-6.115,50.091" transform="translate(-54.073 -357.66)" fill="#71c299"/>
          </g>
          <g id="Group_6559" data-name="Group 6559" transform="translate(44.694 256.36)">
            <path id="Path_9569" data-name="Path 9569" d="M82.642,396.967a38.294,38.294,0,0,0-36.615,21.077c-.454.907-.854,2.058-.247,2.87a2.719,2.719,0,0,0,2.429.714c7.216-.467,13.61-4.809,18.888-9.752s9.874-10.655,15.705-14.929" transform="translate(-45.472 -396.896)" fill="#71c299"/>
          </g>
          <g id="Group_6560" data-name="Group 6560" transform="translate(78.228 204.541)">
            <path id="Path_9570" data-name="Path 9570" d="M67,419.1a68.194,68.194,0,0,1-.681-38.092c1.343-4.9,3.6-10.066,8.13-12.364a1.6,1.6,0,0,1,1.244-.22,1.637,1.637,0,0,1,.785.912,22.931,22.931,0,0,1,1.917,10.927,68.424,68.424,0,0,1-1.711,11.063c-1.428,6.762-2.189,14.028-5.9,19.86a40.685,40.685,0,0,0-2.358,4.362c-.7,1.482-.707,2-1.35,3.183" transform="translate(-63.931 -368.371)" fill="#71c299"/>
          </g>
          <g id="Group_6561" data-name="Group 6561" transform="translate(127.24 220.354)">
            <path id="Path_9571" data-name="Path 9571" d="M92.223,419.038c-3.5-13.318.216-29.464,8.609-40.383.618-.8,1.437-1.666,2.447-1.573,1.544.143,1.946,2.2,1.877,3.753a72.958,72.958,0,0,1-12.933,38.2" transform="translate(-90.911 -377.075)" fill="#71c299"/>
          </g>
          <g id="Group_6562" data-name="Group 6562" transform="translate(132.814 251.267)">
            <path id="Path_9572" data-name="Path 9572" d="M93.979,408.053c16.181,4.211,34.744.118,48.2-9.8a39.015,39.015,0,0,0-26.093-3.2c-8.718,1.993-16.682,5.9-22.109,13.005" transform="translate(-93.979 -394.092)" fill="#71c299"/>
          </g>
          <g id="Group_6563" data-name="Group 6563" transform="translate(136.407 231.064)">
            <path id="Path_9573" data-name="Path 9573" d="M95.957,408.268c9.061-14.775,26.436-24.419,43.747-25.3-1.995,7.041-7.781,12.513-14.308,15.819s-13.816,4.747-21,6.142c-2.794.543-6.627,1.139-8.438,3.335" transform="translate(-95.957 -382.971)" fill="#71c299"/>
          </g>
          <g id="Group_6564" data-name="Group 6564" transform="translate(123.169 162.367)">
            <path id="Path_9574" data-name="Path 9574" d="M94.954,396.119c2.454-8.408,4.921-16.89,5.6-25.62s-.57-17.849-5.1-25.342c-8.464,16.379-9.321,35.517-.747,51.84" transform="translate(-88.67 -345.156)" fill="#71c299"/>
          </g>
          <g id="Group_6565" data-name="Group 6565" transform="translate(157.953 164.547)">
            <path id="Path_9575" data-name="Path 9575" d="M107.817,380.734c9.9-17.992,30.1-32.364,50.532-34.378-7.882,19.629-29.383,34.8-50.532,34.378" transform="translate(-107.817 -346.356)" fill="#71c299"/>
          </g>
          <g id="Group_6566" data-name="Group 6566" transform="translate(151.725 199.499)">
            <path id="Path_9576" data-name="Path 9576" d="M104.389,368.547c14.764,2.249,27.342,11.679,41.138,17.395,2.95,1.223,6.135,2.2,9.3,1.782s6.291-2.54,7-5.653a8.116,8.116,0,0,0-2.442-7.227,19.906,19.906,0,0,0-6.756-4.1c-15.027-6.257-31.141-6.413-46.972-2.62" transform="translate(-104.389 -365.596)" fill="#71c299"/>
          </g>
          <g id="Group_6567" data-name="Group 6567" transform="translate(143.182 212.092)">
            <path id="Path_9577" data-name="Path 9577" d="M99.686,373.241c3.343.957,4.485,2.689,7.132,4.941a76.931,76.931,0,0,0,31.2,16.027c1.192.3,2.754.414,3.344-.663.516-.941-.136-2.078-.807-2.918-4.8-6-11.636-10.1-18.835-12.786s-13.438-5.913-22.031-5.219" transform="translate(-99.686 -372.528)" fill="#71c299"/>
          </g>
          <g id="Group_6568" data-name="Group 6568" transform="translate(133.541 148.67)">
            <path id="Path_9578" data-name="Path 9578" d="M94.379,339.213a59.047,59.047,0,0,0,45.264,15.4,3.11,3.11,0,0,0,2.06-.739c1.139-1.241-.227-3.154-1.555-4.187-13.307-10.375-29.426-14.677-45.769-10.473" transform="translate(-94.379 -337.616)" fill="#71c299"/>
          </g>
          <g id="Group_6569" data-name="Group 6569" transform="translate(144.971 133.791)">
            <path id="Path_9579" data-name="Path 9579" d="M100.671,341.717a63.086,63.086,0,0,1,56.48-9.319c-7.112,7.01-16.98,10.782-26.914,11.816a85.156,85.156,0,0,1-29.566-2.5" transform="translate(-100.671 -329.426)" fill="#71c299"/>
          </g>
          <g id="Group_6570" data-name="Group 6570" transform="translate(132.799 77.398)">
            <path id="Path_9580" data-name="Path 9580" d="M101.6,338.331c-1.308-13.283-.46-23.767-1.382-37.112-.073-1.066-.3-2.349-1.3-2.734-1.39-.534-2.547,1.174-3,2.589a42.542,42.542,0,0,0,5.664,36.965" transform="translate(-93.971 -298.384)" fill="#71c299"/>
          </g>
          <g id="Group_6571" data-name="Group 6571" transform="translate(139.472 77.056)">
            <path id="Path_9581" data-name="Path 9581" d="M97.644,339.952c9-5.568,15.758-12.84,22-21.386,4.345-5.946,8.01-13.069,7.021-20.368-6.1-.122-11.9,3.245-15.87,7.883s-6.329,10.433-8.091,16.277-3,11.85-5.063,17.594" transform="translate(-97.644 -298.195)" fill="#71c299"/>
          </g>
          <g id="Group_6572" data-name="Group 6572" transform="translate(160.807 79.538)">
            <path id="Path_9582" data-name="Path 9582" d="M109.671,332.831a177.376,177.376,0,0,0,54.147-31.93c-6.467-2.605-13.874-1.046-20.339,1.564-14.775,5.964-26.845,16.03-34.091,30.22" transform="translate(-109.388 -299.561)" fill="#71c299"/>
          </g>
          <g id="Group_6573" data-name="Group 6573" transform="translate(145.551 110.417)">
            <path id="Path_9583" data-name="Path 9583" d="M100.99,332.222c10,1.092,20.15,1.8,30.067.145,9.748-1.629,18.96-5.492,28.069-9.327a3.3,3.3,0,0,0,1.907-1.448,2.2,2.2,0,0,0-.685-2.4,5.812,5.812,0,0,0-2.393-1.121c-9.9-2.77-20.59-1.473-30.335,1.811a140.664,140.664,0,0,0-26.632,12.341" transform="translate(-100.99 -316.56)" fill="#71c299"/>
          </g>
          <g id="Group_6574" data-name="Group 6574" transform="translate(83.466 106.701)">
            <path id="Path_9584" data-name="Path 9584" d="M71.824,358.533c-6.82-13.767-6.376-29.831-.485-44.019,4.147,6.32,4.652,14.366,3.895,21.887s-3.048,15.26-3.2,22.815" transform="translate(-66.815 -314.514)" fill="#71c299"/>
          </g>
          <g id="Group_6575" data-name="Group 6575" transform="translate(15.611 136.969)">
            <path id="Path_9585" data-name="Path 9585" d="M75.083,331.186a61.392,61.392,0,0,0-45.62,19.435c8.5,1.335,17.251-.857,24.981-4.632s14.6-9.069,21.407-14.328" transform="translate(-29.463 -331.175)" fill="#71c299"/>
          </g>
          <g id="Group_6576" data-name="Group 6576" transform="translate(0 130.052)">
            <path id="Path_9586" data-name="Path 9586" d="M63.785,328.17c-8.329-.676-16.344-1.706-24.354.747s-15.3,8.026-18.561,15.74c7.79.879,15.69-1.075,22.832-4.311s13.634-7.717,20.083-12.175" transform="translate(-20.87 -327.367)" fill="#71c299"/>
          </g>
          <g id="Group_6577" data-name="Group 6577" transform="translate(21.202 118.347)">
            <path id="Path_9587" data-name="Path 9587" d="M81.373,333.711c-7.494-4.91-15.187-9.91-23.913-11.943s-18.837-.532-24.919,6.044c7.061,4.146,15.631,4.634,23.82,4.629s18.228-.1,25.947,2.632" transform="translate(-32.541 -320.924)" fill="#71c299"/>
          </g>
          <g id="Group_6578" data-name="Group 6578" transform="translate(55.539 79.154)">
            <path id="Path_9588" data-name="Path 9588" d="M65.982,351.726c-12.811-12.579-17.667-35.178-12.513-52.376a79.812,79.812,0,0,1,12.513,52.376" transform="translate(-51.442 -299.35)" fill="#71c299"/>
          </g>
          <g id="Group_6579" data-name="Group 6579" transform="translate(105.304 54.552)">
            <path id="Path_9589" data-name="Path 9589" d="M78.836,327.142c2.416-5.615,4.117-11.51,6.284-17.229s4.861-11.343,8.956-15.883,9.761-7.919,15.867-8.222A63.9,63.9,0,0,1,79.15,327.233" transform="translate(-78.836 -285.808)" fill="#71c299"/>
          </g>
          <g id="Group_6580" data-name="Group 6580" transform="translate(65.792 80.739)">
            <path id="Path_9590" data-name="Path 9590" d="M90.224,322.8c-4-5.5-8.616-12.973-14.039-17.08s-12.482-6.593-19.1-5.016a44.479,44.479,0,0,0,33.138,22.1" transform="translate(-57.086 -300.223)" fill="#71c299"/>
          </g>
          <g id="Group_6581" data-name="Group 6581" transform="translate(93.424 55.068)">
            <path id="Path_9591" data-name="Path 9591" d="M79.077,327.37c-2.62-6.66-5.259-13.391-6.32-20.466s-.414-14.637,3.2-20.812c7.032,13.292,9.3,27.562,3.475,41.427" transform="translate(-72.296 -286.092)" fill="#71c299"/>
          </g>
          <g id="Group_6582" data-name="Group 6582" transform="translate(105.37 26.896)">
            <path id="Path_9592" data-name="Path 9592" d="M78.872,298.757c3.982-13.178,16.048-22.879,29.076-27.332a10.849,10.849,0,0,1,5.1-.765A4.424,4.424,0,0,1,116.8,273.8c.474,2.24-1.377,4.249-3.119,5.739a98.964,98.964,0,0,1-34.813,19.22" transform="translate(-78.872 -270.584)" fill="#71c299"/>
          </g>
          <g id="Group_6583" data-name="Group 6583" transform="translate(105.304)">
            <path id="Path_9593" data-name="Path 9593" d="M79.045,300.071c.507-8.5,1.037-17.117,3.8-25.166s8.09-15.6,15.838-19.126c1.317,8.582-2.469,17.118-7.034,24.5s-10.07,14.353-12.813,22.592" transform="translate(-78.836 -255.779)" fill="#71c299"/>
          </g>
          <g id="Group_6584" data-name="Group 6584" transform="translate(80.595 3.946)">
            <path id="Path_9594" data-name="Path 9594" d="M89.944,304.145c-3.292-9.6-3.631-21.8-9.383-30.167-4.018-5.848-10.457-9.834-13.921-16.027-2.3,5.784-1.6,12.451.81,18.194s6.384,10.686,10.638,15.229,7.9,7.964,11.855,12.771" transform="translate(-65.235 -257.951)" fill="#71c299"/>
          </g>
          <g id="Group_6586" data-name="Group 6586" transform="translate(104.873 46.793)">
            <g id="Group_6585" data-name="Group 6585">
              <path id="Path_9595" data-name="Path 9595" d="M79.1,567.7c-.256,0-.478-64.064-.5-143.076-.018-79.037.176-143.089.431-143.089s.478,64.052.5,143.089C79.544,503.636,79.35,567.7,79.1,567.7Z" transform="translate(-78.598 -281.537)" fill="#71c299"/>
            </g>
          </g>
          <g id="Group_6588" data-name="Group 6588" transform="translate(105.286 141.042)">
            <g id="Group_6587" data-name="Group 6587">
              <path id="Path_9596" data-name="Path 9596" d="M134.9,333.428a13.812,13.812,0,0,1-2.409.9l-6.629,2.236c-5.59,1.9-13.269,4.662-21.6,8.077C96,348.185,88.222,351.059,83.791,354.9a15.043,15.043,0,0,0-4.113,5.441c-.636,1.5-.748,2.423-.834,2.407a1.866,1.866,0,0,1,.027-.672,10.369,10.369,0,0,1,.471-1.866,14.483,14.483,0,0,1,4.013-5.8,36.057,36.057,0,0,1,8.88-5.515c3.553-1.657,7.49-3.386,11.67-5.1,8.358-3.424,16.1-6.093,21.749-7.843,2.825-.881,5.13-1.53,6.727-1.958A13.758,13.758,0,0,1,134.9,333.428Z" transform="translate(-78.826 -333.417)" fill="#71c299"/>
            </g>
          </g>
          <g id="Group_6590" data-name="Group 6590" transform="translate(109.693 95.976)">
            <g id="Group_6589" data-name="Group 6589">
              <path id="Path_9597" data-name="Path 9597" d="M151.264,308.612a3.978,3.978,0,0,1-.676.719c-.545.514-1.224,1.152-2.055,1.931l-7.675,6.972c-6.625,5.9-15.612,13.9-25.544,22.745-9.97,8.876-18.588,17.356-24.559,23.742-2.99,3.188-5.345,5.83-6.951,7.674l-1.857,2.12a3.9,3.9,0,0,1-.694.7,3.963,3.963,0,0,1,.549-.819c.389-.516.952-1.283,1.724-2.234,1.526-1.918,3.811-4.632,6.747-7.886A323.323,323.323,0,0,1,114.7,340.289c10.006-8.856,19.111-16.809,25.727-22.545,3.246-2.787,5.911-5.072,7.87-6.751l2.169-1.8A3.952,3.952,0,0,1,151.264,308.612Z" transform="translate(-81.252 -308.61)" fill="#71c299"/>
            </g>
          </g>
          <g id="Group_6592" data-name="Group 6592" transform="translate(132.97 115.19)">
            <g id="Group_6591" data-name="Group 6591">
              <path id="Path_9598" data-name="Path 9598" d="M94.087,341.367c-.262-.116,1.822-4.927,3.9-11.009,2.1-6.082,3.081-11.214,3.346-11.171.242.024-.347,5.306-2.469,11.467a74.557,74.557,0,0,1-3.1,7.7A12.062,12.062,0,0,1,94.087,341.367Z" transform="translate(-94.065 -319.187)" fill="#71c299"/>
            </g>
          </g>
          <g id="Group_6594" data-name="Group 6594" transform="translate(68.294 129.366)">
            <g id="Group_6593" data-name="Group 6593">
              <path id="Path_9599" data-name="Path 9599" d="M95.6,373.771a11.663,11.663,0,0,1-1.537-1.784l-3.937-5.048c-3.306-4.273-7.877-10.171-13-16.628s-9.835-12.25-13.247-16.439l-4.022-4.979a11.487,11.487,0,0,1-1.388-1.9,11.469,11.469,0,0,1,1.662,1.666c1.026,1.112,2.478,2.749,4.249,4.792,3.542,4.086,8.338,9.819,13.471,16.284s9.625,12.433,12.8,16.811c1.588,2.189,2.852,3.975,3.7,5.226A11.434,11.434,0,0,1,95.6,373.771Z" transform="translate(-58.463 -326.99)" fill="#71c299"/>
            </g>
          </g>
          <g id="Group_6596" data-name="Group 6596" transform="translate(86.781 141.02)">
            <g id="Group_6595" data-name="Group 6595">
              <path id="Path_9600" data-name="Path 9600" d="M75.011,352.772c-.151.162-3.426-3.724-5.143-9.628a27.476,27.476,0,0,1-1.166-9.706l.409.035c-.183.741-.316,1.132-.391,1.121s-.076-.425-.015-1.188l.409.035a44.137,44.137,0,0,0,1.642,9.441C72.413,348.6,75.26,352.616,75.011,352.772Z" transform="translate(-68.64 -333.405)" fill="#71c299"/>
            </g>
          </g>
          <g id="Group_6598" data-name="Group 6598" transform="translate(49.576 136.515)">
            <g id="Group_6597" data-name="Group 6597">
              <path id="Path_9601" data-name="Path 9601" d="M75.888,334.861a16.574,16.574,0,0,0-3.59-2.086c-2.4-.928-6.008-1.132-9.97-.792a61.423,61.423,0,0,0-10.037,1.62,30.385,30.385,0,0,1-4.131.99,14.365,14.365,0,0,1,3.955-1.622,45.978,45.978,0,0,1,10.144-1.913c4.006-.345,7.8-.036,10.284,1.11C75.056,333.283,75.972,334.839,75.888,334.861Z" transform="translate(-48.159 -330.926)" fill="#71c299"/>
            </g>
          </g>
          <g id="Group_6600" data-name="Group 6600" transform="translate(34.585 129.733)">
            <g id="Group_6599" data-name="Group 6599">
              <path id="Path_9602" data-name="Path 9602" d="M78.87,333.08c-.071.143-2.091-.839-5.5-2a55.355,55.355,0,0,0-27.72-2.113c-3.546.634-5.693,1.3-5.741,1.146a5.184,5.184,0,0,1,1.459-.621,33.9,33.9,0,0,1,4.153-1.168,48.933,48.933,0,0,1,28.075,2.142,33.98,33.98,0,0,1,3.929,1.782A5.2,5.2,0,0,1,78.87,333.08Z" transform="translate(-39.908 -327.192)" fill="#71c299"/>
            </g>
          </g>
          <g id="Group_6602" data-name="Group 6602" transform="translate(98.151 87.092)">
            <g id="Group_6601" data-name="Group 6601">
              <path id="Path_9603" data-name="Path 9603" d="M82.052,331.818c-.247.062-2.044-6.177-4.011-13.936s-3.363-14.1-3.114-14.163,2.044,6.175,4.011,13.936S82.3,331.755,82.052,331.818Z" transform="translate(-74.898 -303.72)" fill="#71c299"/>
            </g>
          </g>
          <g id="Group_6604" data-name="Group 6604" transform="translate(94.566 100.079)">
            <g id="Group_6603" data-name="Group 6603">
              <path id="Path_9604" data-name="Path 9604" d="M83.919,325.98c-.276.089-1.432-4.08-4.447-8.344-2.934-4.353-6.682-6.538-6.544-6.752a6.05,6.05,0,0,1,2.525,1.3A20.313,20.313,0,0,1,80.23,317.1C83.362,321.542,84.143,325.964,83.919,325.98Z" transform="translate(-72.925 -310.869)" fill="#71c299"/>
            </g>
          </g>
          <g id="Group_6606" data-name="Group 6606" transform="translate(46.679 205.298)">
            <g id="Group_6605" data-name="Group 6605">
              <path id="Path_9605" data-name="Path 9605" d="M105.256,462.3c-.1.015-.289-1.541-1.01-4.262a60.723,60.723,0,0,0-4.282-11.091c-4.425-9.045-12.48-20.514-22.714-32-5.072-5.793-9.992-11.26-14.168-16.492a115.774,115.774,0,0,1-10.13-14.611A70.006,70.006,0,0,1,47.839,373c-.471-1.335-.816-2.378-1-3.1a5.121,5.121,0,0,1-.263-1.106c.082-.025.549,1.466,1.6,4.078a79.173,79.173,0,0,0,5.343,10.642,122.558,122.558,0,0,0,10.23,14.406c4.193,5.179,9.12,10.615,14.2,16.419,10.262,11.518,18.3,23.131,22.608,32.326a55.248,55.248,0,0,1,4.04,11.29,30.409,30.409,0,0,1,.567,3.214A5.3,5.3,0,0,1,105.256,462.3Z" transform="translate(-46.565 -368.788)" fill="#71c299"/>
            </g>
          </g>
          <g id="Group_6608" data-name="Group 6608" transform="translate(105.364 241.659)">
            <g id="Group_6607" data-name="Group 6607">
              <path id="Path_9606" data-name="Path 9606" d="M129.465,388.808a23.474,23.474,0,0,1-2.652,1.488,58,58,0,0,0-6.876,4.547,78.909,78.909,0,0,0-9.032,8.239c-3.17,3.348-6.435,7.238-9.768,11.4-6.664,8.36-12.9,15.758-16.628,21.664-1.895,2.928-3.272,5.4-4.175,7.13a23.028,23.028,0,0,1-1.459,2.67,2.552,2.552,0,0,1,.245-.752c.2-.478.465-1.193.89-2.078a67.829,67.829,0,0,1,3.946-7.321c3.622-6.048,9.806-13.547,16.457-21.894,3.341-4.175,6.645-8.071,9.875-11.416a73.37,73.37,0,0,1,9.256-8.171,48.22,48.22,0,0,1,7.1-4.34c.879-.441,1.6-.712,2.069-.917A2.557,2.557,0,0,1,129.465,388.808Z" transform="translate(-78.869 -388.803)" fill="#e0e0e0"/>
            </g>
          </g>
          <g id="Group_6610" data-name="Group 6610" transform="translate(121.985 260.134)">
            <g id="Group_6609" data-name="Group 6609">
              <path id="Path_9607" data-name="Path 9607" d="M122.983,399.04a38.336,38.336,0,0,1-5.6.816,73.934,73.934,0,0,0-13.291,2.616,39.981,39.981,0,0,0-11.9,6.246c-2.743,2.12-4.037,3.873-4.164,3.771a4.227,4.227,0,0,1,.83-1.29,21.18,21.18,0,0,1,2.919-2.988,36.052,36.052,0,0,1,12.03-6.62,60.02,60.02,0,0,1,13.51-2.387A31.107,31.107,0,0,1,122.983,399.04Z" transform="translate(-88.018 -398.973)" fill="#e0e0e0"/>
            </g>
          </g>
          <g id="Group_6612" data-name="Group 6612" transform="translate(123.602 252.627)">
            <g id="Group_6611" data-name="Group 6611">
              <path id="Path_9608" data-name="Path 9608" d="M88.931,413.827c-.292-.165,2.234-4.024,4.193-9.212,1.838-5.236,2.269-9.828,2.6-9.774a8.884,8.884,0,0,1-.093,3.007,32.224,32.224,0,0,1-1.635,7.083,34.3,34.3,0,0,1-3.25,6.5A9.05,9.05,0,0,1,88.931,413.827Z" transform="translate(-88.908 -394.841)" fill="#e0e0e0"/>
            </g>
          </g>
          <g id="Group_6614" data-name="Group 6614" transform="translate(105.384 191.892)">
            <g id="Group_6613" data-name="Group 6613">
              <path id="Path_9609" data-name="Path 9609" d="M145.84,361.413a4.143,4.143,0,0,1-.9.478c-.7.314-1.566.712-2.634,1.2-1.154.494-2.552,1.121-4.131,1.953s-3.43,1.659-5.354,2.814l-3.057,1.739c-1.061.609-2.109,1.333-3.225,2.031-2.254,1.368-4.513,3.052-6.921,4.771a118.813,118.813,0,0,0-26.658,27.584c-1.637,2.469-3.243,4.781-4.531,7.081-.661,1.139-1.348,2.213-1.922,3.292s-1.11,2.12-1.631,3.116c-1.09,1.962-1.868,3.837-2.629,5.448-.778,1.6-1.357,3.025-1.811,4.195-.449,1.083-.816,1.967-1.106,2.674a4.194,4.194,0,0,1-.447.912,4.215,4.215,0,0,1,.271-.976c.249-.723.563-1.63.946-2.74.4-1.194.937-2.641,1.671-4.273s1.462-3.543,2.52-5.535q.76-1.515,1.59-3.161c.56-1.1,1.235-2.185,1.886-3.341,1.27-2.331,2.863-4.678,4.491-7.176a114.4,114.4,0,0,1,26.852-27.786c2.442-1.713,4.732-3.384,7.02-4.734,1.132-.688,2.2-1.4,3.272-2l3.106-1.7c1.955-1.126,3.833-1.931,5.445-2.707s3.034-1.373,4.213-1.818l2.707-1.039A4.248,4.248,0,0,1,145.84,361.413Z" transform="translate(-78.88 -361.408)" fill="#e0e0e0"/>
            </g>
          </g>
          <g id="Group_6616" data-name="Group 6616" transform="translate(132.296 212.035)">
            <g id="Group_6615" data-name="Group 6615">
              <path id="Path_9610" data-name="Path 9610" d="M93.7,379.185c-.082-.013.363-1.568,2.2-3.279a13.908,13.908,0,0,1,8.871-3.4,24.247,24.247,0,0,1,9.334,1.824,13.275,13.275,0,0,1,3.53,1.715,21.737,21.737,0,0,1-3.744-1.1,28.235,28.235,0,0,0-9.091-1.517,14.455,14.455,0,0,0-8.473,2.974A26.135,26.135,0,0,0,93.7,379.185Z" transform="translate(-93.694 -372.496)" fill="#e0e0e0"/>
            </g>
          </g>
          <g id="Group_6618" data-name="Group 6618" transform="translate(126.301 208.147)">
            <g id="Group_6617" data-name="Group 6617">
              <path id="Path_9611" data-name="Path 9611" d="M90.414,387.107c-.254-.142,2-3.452,2.518-8.195.592-4.736-.845-8.477-.565-8.555a5.412,5.412,0,0,1,1.041,2.387,16.942,16.942,0,0,1-1.433,12.279C91.193,386.441,90.5,387.171,90.414,387.107Z" transform="translate(-90.394 -370.356)" fill="#e0e0e0"/>
            </g>
          </g>
        </g>
        <g id="Group_6620" data-name="Group 6620" transform="translate(61.121 307.987)">
          <path id="Path_9612" data-name="Path 9612" d="M54.515,425.314C55.9,449.8,63.273,474.7,74.622,499.87h49.348c10.824-24.924,17.691-49.785,18.911-74.556Z" transform="translate(-54.515 -425.314)" fill="#e0e0e0"/>
        </g>
        <g id="Group_6622" data-name="Group 6622" transform="translate(68.915 347.141)">
          <g id="Group_6621" data-name="Group 6621">
            <path id="Path_9613" data-name="Path 9613" d="M131.38,447.33c0,.254-16.248.463-36.286.463s-36.29-.209-36.29-.463,16.245-.463,36.29-.463S131.38,447.074,131.38,447.33Z" transform="translate(-58.805 -446.867)" fill="#fafafa"/>
          </g>
        </g>
        <g id="Group_6624" data-name="Group 6624" transform="translate(72.35 356.01)">
          <g id="Group_6623" data-name="Group 6623">
            <path id="Path_9614" data-name="Path 9614" d="M128.733,452.212c0,.256-15.233.463-34.017.463s-34.021-.207-34.021-.463,15.227-.463,34.021-.463S128.733,451.956,128.733,452.212Z" transform="translate(-60.696 -451.749)" fill="#fafafa"/>
          </g>
        </g>
        <g id="Group_6626" data-name="Group 6626" transform="translate(81.562 324.061)">
          <g id="Group_6625" data-name="Group 6625">
            <path id="Path_9615" data-name="Path 9615" d="M66.228,434.162c.256,0,.463,5.09.463,11.367s-.207,11.367-.463,11.367-.461-5.088-.461-11.367S65.974,434.162,66.228,434.162Z" transform="translate(-65.767 -434.162)" fill="#fafafa"/>
          </g>
        </g>
        <g id="Group_6628" data-name="Group 6628" transform="translate(108.002 324.061)">
          <g id="Group_6627" data-name="Group 6627">
            <path id="Path_9616" data-name="Path 9616" d="M80.784,434.162c.256,0,.463,5.272.463,11.772s-.207,11.772-.463,11.772-.463-5.27-.463-11.772S80.528,434.162,80.784,434.162Z" transform="translate(-80.321 -434.162)" fill="#fafafa"/>
          </g>
        </g>
        <g id="Group_6630" data-name="Group 6630" transform="translate(132.823 323.861)">
          <g id="Group_6629" data-name="Group 6629">
            <path id="Path_9617" data-name="Path 9617" d="M94.447,434.052c.256,0,.463,5.377.463,12.006s-.207,12.006-.463,12.006-.463-5.374-.463-12.006S94.191,434.052,94.447,434.052Z" transform="translate(-93.984 -434.052)" fill="#fafafa"/>
          </g>
        </g>
        <g id="Group_6632" data-name="Group 6632" transform="translate(62.798 323.597)">
          <g id="Group_6631" data-name="Group 6631">
            <path id="Path_9618" data-name="Path 9618" d="M140.561,434.37c0,.256-19.057.463-42.561.463s-42.562-.207-42.562-.463,19.053-.463,42.562-.463S140.561,434.116,140.561,434.37Z" transform="translate(-55.438 -433.907)" fill="#fafafa"/>
          </g>
        </g>
      </g>
      <g id="Group_6543" data-name="Group 6543" transform="translate(270.459 588.867)" opacity="0">
        <rect id="Rectangle_5638" data-name="Rectangle 5638" width="247.263" height="9.214" rx="4.607" transform="translate(168.932 157.435)" fill="#2e5b9a"/>
        <g id="Group_6481" data-name="Group 6481" transform="translate(0)">
          <path id="Path_9449" data-name="Path 9449" d="M2492.892,795.118c-3.279,11.56,4.73,23.472,13.551,25.974s15.118-5.352,18.4-16.912-1.215-22.96-10.036-25.462S2496.172,783.558,2492.892,795.118Z" transform="translate(-2383.638 -761.169)" fill="#f09959"/>
          <path id="Path_9450" data-name="Path 9450" d="M2442.322,1536.709s-22.609,35.116-25.663,36.643-10.687,1.909-7.825,7.634,4.009,28.245,6.68,29.391,25.573,3.817,22.138,0-5.548-1.909-7.282-8.779-4.168-19.849-.924-22.52,23.093-26.719,23.093-26.719Z" transform="translate(-2283.606 -1278.759)" fill="#f09959"/>
          <path id="Path_9451" data-name="Path 9451" d="M1949.52,1584.192s27.484,45.3,32.573,49.368,21.885,10.18,8.143,11.2-20.358-4.581-29.01-7.126-19.34-4.072-15.269-10.688,2.38-21.061-6.4-30.222S1949.52,1584.192,1949.52,1584.192Z" transform="translate(-1677.01 -1311.161)" fill="#f09959"/>
          <path id="Path_9452" data-name="Path 9452" d="M2050.074,1253.39s68.035-1.779,95.01,20.358c15.778,23.922,53.945,94.5,56.913,102.278-2.035,2.036-13.488,5.709-18.577,5.2-15.015-17.9-34.859-33.379-42.753-47.422-9.726-17.3-12.723-25.957-28.5-27.484s-51.4-6.616-62.093-6.616S2050.074,1253.39,2050.074,1253.39Z" transform="translate(-1917.816 -1085.397)" fill="#6791c9"/>
          <path id="Path_9453" data-name="Path 9453" d="M2618.736,1546.02h3.566l25.574-106.7h-7.846Z" transform="translate(-2545.808 -1212.302)" fill="#2e5b9a"/>
          <path id="Path_9454" data-name="Path 9454" d="M2407.023,1537.916h-3.566l-29.346-110.47h7.846Z" transform="translate(-2227.263 -1204.197)" fill="#2e5b9a"/>
          <path id="Path_9455" data-name="Path 9455" d="M2232.335,1238.789l39.555,6.827s52.564.483,76.591,4.958c21.86,4.072,25.081,28.91,0,63.111-14.248,19.429-26.294,34.926-50.928,52.4-6.267-4.6-8.664-6.341-10.4-17.411,1.784-2.444,6.4-17.745,7.831-20.739,13.625-28.482,31.813-38.841,32.065-41.642-3.055-4.962-80.886,25.865-96.361,7.731C2215.917,1276.711,2232.335,1238.789,2232.335,1238.789Z" transform="translate(-2138.837 -1075.457)" fill="#75a1de"/>
          <path id="Path_9456" data-name="Path 9456" d="M2503.755,955.86a41.392,41.392,0,0,1,30.951,7.7c8.671,8.839,18.483,23.415,17.882,47.459-.764,30.536,4.726,32.5-1,40.894-23.88,9.861-64.722,52.23-55.1,6.807,6.964-32.89-15.275-57.4,2.666-93.887C2500.61,961.866,2502.434,958.987,2503.755,955.86Z" transform="translate(-2411.901 -882.078)" fill="#f37168"/>
          <path id="Path_9457" data-name="Path 9457" d="M2541.779,1038.9c.463,15.919,2.711,20.609.993,25.6-9.734.994-27.542,4.889-31.993,11.119-5.09,7.125-10.179,8.143-7.8,2.884s8.652-12.724-1.018-38.341-14.251-42.922-4.75-60.735Z" transform="translate(-2401.085 -898.469)" fill="#d54a41"/>
          <path id="Path_9458" data-name="Path 9458" d="M2553.441,887.538c6.415-15.186,7.99-32.249,7.99-32.249l16.795,4.962s-9.542,21.375-.382,29.009a87.372,87.372,0,0,1,6.547,5.979A41.386,41.386,0,0,0,2553.441,887.538Z" transform="translate(-2461.586 -813.755)" fill="#f09959"/>
          <path id="Path_9459" data-name="Path 9459" d="M2573.6,861.263c.994-.885,2.24-1.99,3.549-3.146l13.7,4.047.028.074c-.331.757-3.819,8.9-4.279,16.73-4.083-2.477-8.552-6.515-13.663-13.569C2573.211,863.836,2573.431,862.44,2573.6,861.263Z" transform="translate(-2474.262 -815.685)" fill="#e38540"/>
          <path id="Path_9460" data-name="Path 9460" d="M2304.723,970.834c17.3,6.049,15.379,24.272,31.3,51.147,8.24,13.908,15.891,13.7,15.891,13.7a368.5,368.5,0,0,0,42.692-2.7c14.635-1.79,15.564,2.567,5.385,6.206-20.527,7.339-41.83,15.239-59.007,13.331s-46.553-45.734-48.067-57.142C2290.821,979.6,2296.011,967.787,2304.723,970.834Z" transform="translate(-2201.061 -892.275)" fill="#f09959"/>
          <g id="Group_6477" data-name="Group 6477" transform="translate(67.437 116.206)">
            <path id="Path_9461" data-name="Path 9461" d="M2439.333,1205.667c1.076,0,2.177-.014,3.307-.042a164.455,164.455,0,0,0,31.4-3.865c9-1.83,13.963-2.838,19.735-.08a4.447,4.447,0,0,0,3.834-8.024c-8.46-4.042-15.541-2.6-25.34-.611a156.667,156.667,0,0,1-29.853,3.689c-14.9.372-23.986-1.839-28.592-6.945-4.1-4.55-5.3-12.195-3.777-24.059.521-4.06,1.044-7.437,1.5-10.417,1.3-8.405,2.159-13.959,1.094-22.544-.987-7.972-3.627-18.591-9.742-39.181a4.446,4.446,0,1,0-8.524,2.531c11.393,38.37,10.815,42.106,8.383,57.835-.469,3.032-1,6.469-1.537,10.642-1.881,14.63.023,24.527,5.994,31.149C2413.372,1202.562,2423.351,1205.667,2439.333,1205.667Z" transform="translate(-2394.199 -1090.406)" fill="#2e5b9a"/>
          </g>
          <path id="Path_9462" data-name="Path 9462" d="M1939.806,1704.4c18.236,8.919,28.052,14.03,33.9,13.543,1.38-.115,2.524-.256,3.483-.405,6.5,3.843,16.884,8.385,5.2,9.251-13.742,1.018-20.358-4.58-29.01-7.126s-19.341-4.071-15.269-10.688A13.912,13.912,0,0,0,1939.806,1704.4Z" transform="translate(-1669.164 -1393.192)" fill="#d54a41"/>
          <path id="Path_9463" data-name="Path 9463" d="M2460.439,1654.431c.445,14.438,2.43,28.745,11.26,31.448a14.828,14.828,0,0,0,6.362.567c1.389,1.718,3.084,1.737,5.358,4.264,3.436,3.817-19.466,1.145-22.138,0s-3.818-23.666-6.681-29.391C2452.25,1656.617,2456.982,1655.52,2460.439,1654.431Z" transform="translate(-2329.374 -1359.093)" fill="#d54a41"/>
          <g id="Group_6478" data-name="Group 6478" transform="translate(196.861 99.417)">
            <path id="Path_9464" data-name="Path 9464" d="M2040.576,1096.822h57.934a4.446,4.446,0,0,0,4.033-2.573l23.411-50.386a4.446,4.446,0,0,0-8.065-3.748l-22.216,47.814h-55.1a4.446,4.446,0,1,0,0,8.892Z" transform="translate(-2036.13 -1037.542)" fill="#75a1de"/>
          </g>
          <path id="Path_9465" data-name="Path 9465" d="M2191.654,1155.744c11.706-.17,23.315-7.147,29.084-6.13s24.6,14.082,22.224,14.591-17.3-7.229-17.814-7.347-3.732,5.359-11.705,7.371-.057-5.975-24.773,1.489C2172.6,1170.571,2191.654,1155.744,2191.654,1155.744Z" transform="translate(-2002.467 -1014.534)" fill="#f09959"/>
          <path id="Path_9466" data-name="Path 9466" d="M2522.427,913.192,2520.7,927.05s15.148.9,22.686,5.143,18.663,16.5,18.663,16.5l-9.089-15.647-1.309-10.01Z" transform="translate(-2428.85 -853.268)" fill="#f2e5de"/>
          <path id="Path_9467" data-name="Path 9467" d="M2358.135,966.014c11.251-2.108,16.456,7.974,23.751,24.43s19.749,36.443,22.225,39.02,41.734,0,41.734,0,1.188,11.367,0,12.724-7.974,1.188-7.974,1.188-2.714,2.168-5.259,3.883-24.091,4.939-34.1,4.43-19.171-1.357-20.528-2.884-28.671-43.6-30.368-58.7S2352.393,967.09,2358.135,966.014Z" transform="translate(-2258.112 -889.125)" fill="#f2e5de"/>
          <path id="Path_9468" data-name="Path 9468" d="M2509.316,732.183c21.28,1.018,17.942,33.03,17.942,33.03s-5.527,1.706-17.105-.2c.89-3.436.509-12.215.509-12.215a80,80,0,0,1-3.054,11.452c-2.447,1.122-5.216.127-9.924-1.011-2.417,10.172-9.249,14.469-13.926,15.94-5.169,1.625-10.639,3.563-16.746.509s-2.75-34.27.492-40.547c4.87-9.423,12.96-17.856,26.956-13.4A103.952,103.952,0,0,1,2509.316,732.183Z" transform="translate(-2376.116 -724.512)" fill="#303c60"/>
          <path id="Path_9469" data-name="Path 9469" d="M2731.361,863.454l-8.7,12.707s9.643,24.091-18.4,35c-21.962,8.548-19.375,23.609-9.451,38.756s-5.937,28.373-5.937,28.373-2.419-16.779-23.757-19.946c-29.1-4.318-37.334-43.381-15.6-62.913,17.982-16.163,23.454-2.778,35.627-17.282s35.151-4.707,35.151-4.707l8.423-12.283Z" transform="translate(-2635.165 -817.764)" fill="#303c60"/>
          <g id="Group_6479" data-name="Group 6479" transform="translate(0 50.147)">
            <path id="Path_9470" data-name="Path 9470" d="M2673.978,949.284a.774.774,0,0,0,.678-1.145c-7.316-13.37-1.346-29.568,1.656-33.956.318-.465.62-.937.939-1.435,2.95-4.6,6.622-10.336,26.213-13.863,4.717-.849,8.538-3.654,12.583-6.623,8.354-6.133,17.821-13.084,38.4-3.615a.774.774,0,0,0,.647-1.406c-21.4-9.85-31.26-2.612-39.958,3.773-3.9,2.86-7.576,5.562-11.942,6.347-20.254,3.647-24.128,9.693-27.24,14.551-.313.489-.609.95-.914,1.4-3.146,4.6-9.4,21.568-1.736,35.573A.773.773,0,0,0,2673.978,949.284Z" transform="translate(-2669.637 -882.409)" fill="#303c60"/>
          </g>
          <g id="Group_6480" data-name="Group 6480" transform="translate(90.123 28.444)">
            <path id="Path_9471" data-name="Path 9471" d="M2561.727,844.339a30.608,30.608,0,0,0,4.518-.364c7.445-1.115,17.433-5.346,18.216-29.1a.774.774,0,1,0-1.546-.051c-.323,9.793-2.265,17.039-5.774,21.536-2.666,3.417-6.2,5.351-11.124,6.089-6.889,1.032-11.457-.24-13.572-3.781a.774.774,0,0,0-1.329.794C2553.055,842.7,2556.615,844.339,2561.727,844.339Z" transform="translate(-2551.006 -814.072)" fill="#303c60"/>
          </g>
        </g>
        <path id="Path_9472" data-name="Path 9472" d="M1739.291,1409.986h-5.718l-22.24-170.009h12.577Z" transform="translate(-1349.037 -1076.267)" fill="#2e5b9a"/>
        <path id="Path_9473" data-name="Path 9473" d="M2234.154,1409.986h5.718l22.24-170.009h-12.578Z" transform="translate(-2037.904 -1076.267)" fill="#2e5b9a"/>
      </g>
      <g id="Group_6545" data-name="Group 6545" transform="translate(1331.281 892.805) rotate(-14)">
        <g id="Group_6549" data-name="Group 6549">
          <g id="Group_6548" data-name="Group 6548">
            <g id="Group_6547" data-name="Group 6547">
              <g id="Group_6546" data-name="Group 6546">
                <g id="Group_6545-2" data-name="Group 6545">
                  <path id="Path_9562" data-name="Path 9562" d="M69.673,52.862a4.732,4.732,0,0,0,2.285-.817,4.328,4.328,0,0,0,1.616-2.391,6.982,6.982,0,0,0,.142-1.88q0-1.032,0-2.191c.029-6.237.07-15.187.121-26.228q.027-4.154.057-8.691.016-2.267.031-4.623a13.075,13.075,0,0,0-.077-2.3A3.923,3.923,0,0,0,72.82,1.8,3.708,3.708,0,0,0,70.862.753,19.242,19.242,0,0,0,68.427.7L63.3.736,52.6.8,4.974,1.066A3.883,3.883,0,0,0,1.215,4.65q-.038,3.113-.075,6.184-.062,6.171-.122,12.153C.934,30.954.853,38.638.776,45.961q-.015,1.373-.03,2.728a4.072,4.072,0,0,0,.59,2.373,3.713,3.713,0,0,0,1.831,1.516,6.453,6.453,0,0,0,2.459.237l10.09-.029,18.113-.038,26.226,0,7.13.041,1.855.031a3.7,3.7,0,0,1,.632.039,3.64,3.64,0,0,1-.632.045l-1.854.049-7.129.11-26.225.255-18.113.137-10.091.069a7.073,7.073,0,0,1-2.717-.275,4.442,4.442,0,0,1-2.2-1.8,4.83,4.83,0,0,1-.711-2.768q.012-1.355.022-2.729C.09,38.631.156,30.946.223,22.98Q.277,17,.332,10.827q.038-3.1.076-6.246A4.693,4.693,0,0,1,4.971.255L52.6.057,63.3.023,68.424.008a18.98,18.98,0,0,1,2.563.073A4.378,4.378,0,0,1,73.3,1.325a4.6,4.6,0,0,1,1.2,2.28,13.4,13.4,0,0,1,.079,2.441q-.028,2.355-.056,4.623-.057,4.531-.109,8.69c-.159,11.04-.288,19.989-.379,26.226q-.02,1.159-.039,2.191a7.178,7.178,0,0,1-.188,1.94,4.465,4.465,0,0,1-1.755,2.462,4.069,4.069,0,0,1-1.744.668A2.365,2.365,0,0,1,69.673,52.862Z" fill="#ff725e"/>
                </g>
              </g>
            </g>
          </g>
        </g>
        <g id="Group_6553" data-name="Group 6553" transform="translate(30.926 16.969)">
          <g id="Group_6552" data-name="Group 6552" transform="translate(0 0)">
            <g id="Group_6551" data-name="Group 6551">
              <g id="Group_6550" data-name="Group 6550">
                <path id="Path_9563" data-name="Path 9563" d="M9.133,5.316l8.854,5.316L8.993,15.967,0,21.3.139,10.651.278,0Z" fill="#ff725e"/>
              </g>
            </g>
          </g>
        </g>
      </g>
      <g id="Group_6943" data-name="Group 6943" transform="translate(301.866 575.475)">
        <path id="Path_7537" data-name="Path 7537" d="M4873.743,1096.579l-8.591,4.56s-46.461-49.265-57.63-96.54a73.428,73.428,0,0,1-1.946-24.664s-.675-2.141-1.857-5.927c-.05-.166-.1-.335-.157-.505-.517-1.661-1.14-3.615-1.823-5.827-2.249-7.144-5.33-16.92-8.841-28.049-8.085-25.612-26.578-83.375-34.483-107.4l56.8-20.552s6.453,14.714,15.728,54.7c1.428,5.22,2.86,10.991,4.19,17.281,1.521,7.123,2.931,14.911,4.112,23.326a358.164,358.164,0,0,1,3.4,47.883q.053,10.734-.567,22.233c-.307,5.614.527,13.094,2.089,21.6C4851.324,1037.609,4873.743,1096.579,4873.743,1096.579Z" transform="translate(-4678.477 -596.212)" fill="#67a6b9"/>
        <path id="Path_7538" data-name="Path 7538" d="M5118.182,1721.612h-45.925s-1.721-7.325,1.3-12.309c2.666-4.411,1.645-6.923-.332-10.572a17.831,17.831,0,0,0,7.733,1.457,16.157,16.157,0,0,0,6.831-2.4c1.975,2.254,10.441,11.847,13.082,13.746C5103.876,1713.688,5117.255,1712.92,5118.182,1721.612Z" transform="translate(-4891.81 -1199.479)"/>
        <path id="Path_7539" data-name="Path 7539" d="M4839.245,906.983l-35.684,66.52c-.517-1.661-1.14-3.615-1.823-5.827-2.249-7.144-5.33-16.92-8.841-28.049-8.085-25.612-26.578-83.375-34.483-107.4l56.8-20.552s6.453,14.714,15.728,54.7c1.428,5.22,2.86,10.991,4.19,17.281C4836.653,890.78,4838.063,898.568,4839.245,906.983Z" transform="translate(-4678.477 -593.896)" fill="#538c9f"/>
        <path id="Path_7540" data-name="Path 7540" d="M4755.122,1722.991s-1.07,7.8,1.925,14.376h19.024s.141-5.681-4.7-12.808S4755.122,1722.991,4755.122,1722.991Z" transform="translate(-4676.109 -1215.233)"/>
        <path id="Path_7541" data-name="Path 7541" d="M4712.4,804.1s-.058.5-.155,1.441c-.042.406-.1.9-.159,1.471-.4,3.792-1.174,11.07-2.171,20.533-2.587,24.818-6.653,64.678-9.427,96.14-2.168,24.6-3.545,44.068-2.8,47.194,2.234,9.407,0,121.864,0,121.864-8.024,3.848-20.2,0-20.2,0s-21.381-101.339-18.385-115.425a48.481,48.481,0,0,0-2-26.109c-16.6-77.306-14.781-120.15-11.486-140.662a86.6,86.6,0,0,1,2.84-12.524,26.4,26.4,0,0,1,1.138-3.079C4686.215,785.091,4712.4,804.1,4712.4,804.1Z" transform="translate(-4600.197 -582.894)" fill="#67a6b9"/>
        <path id="Path_7517" data-name="Path 7517" d="M10.935,51.252q5.6-7.509,11.416-14.855C30.06,26.661,36.6,16.818,46.84,9.381c1.8-1.309,3.83-2.821,4.061-5.034A1.8,1.8,0,0,0,50.593,3a2.274,2.274,0,0,0-1.236-.625A24.431,24.431,0,0,0,33.345,3.956C25.267,7.669,31.855.6,26.215,0c-1.842,3.376-3.652,6.832-5.782,10.046-4.815,7.272-5.161,13.343-5.161,13.343S2.182,37.126.559,41.5C-2.405,49.474,7.213,52.872,10.935,51.252Z" transform="translate(94.428 195.04) rotate(86)" fill="#ebaf7d"/>
        <path id="Path_9669" data-name="Path 9669" d="M97.459,2.489,92.86,7.97s10.48,26.183-20,38.045C48.994,55.306,51.8,71.674,62.592,88.137s-6.453,30.837-6.453,30.837S53.509,100.738,30.318,97.3C-1.3,92.6-10.258,50.147,13.361,28.919,32.905,11.352,38.852,25.9,52.082,10.136s38.2-5.116,38.2-5.116L94.583,0Z" transform="translate(7.972 58.372) rotate(-30)" fill="#2d133b"/>
        <g id="Group_6944" data-name="Group 6944" transform="matrix(0.921, 0.391, -0.391, 0.921, 130.18, 63.764)">
          <path id="Path_7513" data-name="Path 7513" d="M10.937,51.255q5.6-7.513,11.416-14.858c2.609-3.294,5.18-7.412,8.509-10,6.467-5.025,9.3-12.969,16.3-17.766a7.911,7.911,0,0,0,2.517-2.245A2.393,2.393,0,0,0,49.35,3.3a3.27,3.27,0,0,0-1.864-.463A28.871,28.871,0,0,0,35.943,4.552c-2.286.935-4.565,3.522-7.13,3.465-4.4-.1.967-4.974-1.1-7.5L26.211,0s-3.8,7.057-5.779,10.046c-4.815,7.272-5.158,13.343-5.158,13.343S2.184,37.126.558,41.5C-2.4,49.474,7.215,52.872,10.937,51.255Z" transform="translate(108.565 0)" fill="#ebaf7d"/>
          <path id="Path_7514" data-name="Path 7514" d="M136.56,15.263c-9.688,13.112-44.785,51.128-58.537,53.516a31.164,31.164,0,0,1-10.937-.428C51.622,65.253,31.314,53.53,17.419,41.7,9.544,35.038,3.736,28.375,2.028,23.211-1.254,13.339-2.214-.946,12.324.049c5.449.393,10.366,3.278,14.925,6.236,16.532,10.69,29.324,23.871,47.033,32.494,4.882,2.352,44.322-36.27,44.928-36.625C125.8-1.482,134.315,10.6,136.56,15.263Z" transform="translate(0 19.2)" fill="#80acd2"/>
          <path id="Path_7515" data-name="Path 7515" d="M49.667,37.221C34.2,34.124,13.895,22.4,0,10.573L4.774,0S30.782,21.009,49.667,37.221Z" transform="translate(17.419 50.329)" fill="#363b74"/>
        </g>
        <path id="Path_7542" data-name="Path 7542" d="M97.973,25.71a94.126,94.126,0,0,1-33.311,7.158,112.233,112.233,0,0,1-27.408-2.587A126.652,126.652,0,0,1,0,15.871,86.483,86.483,0,0,1,2.856,3.347C14.063-4.59,41.788,3,64.429,11.424c.812.3,1.613.607,2.41.91C84.185,18.928,97.973,25.71,97.973,25.71Z" transform="translate(42.026 222.091) rotate(-8)" fill="#538c9f"/>
        <path id="Path_7516" data-name="Path 7516" d="M168.4,252.13c1.392,10.04,1.4,20.153,1.363,30.272-.013,3.538,1.021,6.8.948,10.281-.022.942-1.782,12.658-2.007,12.6,22.828,5.614,41.085,5.839,54.432,4.289a69.436,69.436,0,0,0,10.5-5.646s4.318-37.528,7.9-47.6c.846-2.4-11.007-15.293-10.95-19.668,0,0,.624-8.791-1.779-27.739-.089-.707-1.411-.225-2.086-.336-6.546-.989-12.5-1.271-12.5-1.271L212.333,187.9c-.989-10.189-21.842-5.814-21.842-5.814v25c0,.393-4.743.7-10.385,1.157-.621.029-1.243.082-1.867.14-4.353.38-8.991.571-13.226,1.731-5.022,1.376-3.357,5.136-2.752,9.707,1.389,10.49,4.41,20.679,5.973,31.14C168.29,251.35,168.347,251.74,168.4,252.13Z" transform="translate(-106.858 -123.784)" fill="#ebaf7d"/>
        <path id="Path_7518" data-name="Path 7518" d="M78.031,68.752c13.752-2.381,48.84-40.394,58.531-53.5-2.248-4.676-10.769-16.754-17.35-13.105-.625.346-40.055,38.971-44.934,36.6C56.563,30.158,43.771,16.964,27.245,6.265,22.674,3.3,17.763.428,12.333.051-2.206-.963-1.255,13.334,2.02,23.2,7.543,39.827,55.916,72.581,78.031,68.752Z" transform="translate(68.892 84.473) rotate(86)" fill="#a2c9eb"/>
        <path id="Path_7519" data-name="Path 7519" d="M245.589,264.774a138.508,138.508,0,0,1,4.166-22.08s3.414-9.732,3.95-15.464a26.629,26.629,0,0,0-.789-8.81c-.91-3.668-10.37-22.673-11.612-24.677,0,0-5.063,18.194-24.055,18.476-9.764.114-20.289-1.693-29.714-3.161-3.7-.621-22.828-7.856-26.075-8.223,0,0,9.571,12.57,14.96,62.116,0,0-4.321,41.586-19.56,65.711,0,0,21.852,8.715,52.831,8.483,0,0,18.108-3.826,24.632,0,0,0,12.731,2.308,28.9-7.218C263.224,329.93,249.006,287.066,245.589,264.774Z" transform="translate(-116.94 -96.465)" fill="#a2c9eb"/>
        <path id="Path_7520" data-name="Path 7520" d="M170.646,182.845v7.469c8.217,7.4,18.1,8.217,23.063,8.087L192.495,186C188.161,180.471,175.072,182.1,170.646,182.845Z" transform="translate(-87.02 -121.881)" fill="#e6965f"/>
        <path id="Path_7521" data-name="Path 7521" d="M167.355,176.671a7.319,7.319,0,0,1,3.157,2.064,8.856,8.856,0,0,1,2.317,2.948c.136.355-.355.571-.593.349-.675-.628-1.214-1.376-1.842-2.054a4.156,4.156,0,0,1-1.525,1.2c-.479.174-.834-.418-.625-.812a3.79,3.79,0,0,1,1.259-1.2,19.294,19.294,0,0,1-2.508-1.88A.372.372,0,0,1,167.355,176.671Z" transform="translate(-95.167 -133.527)" fill="#e0855c"/>
        <path id="Path_7524" data-name="Path 7524" d="M218.763,198.019s10.031-32.8-21.881-32.716c-37.058.1-33.9,27.08-27.92,36.333S219.924,212.428,218.763,198.019Z" transform="translate(-101.459 -158.185)" fill="#2d133b"/>
        <path id="Path_7525" data-name="Path 7525" d="M206.521,177.639c2.254,3.173,2.92,9.1,3.145,16.057.682,21.066-9.492,28.8-16.387,28.8-7.085,0-22.017-2.98-24.334-22.515-1.157-9.764-1.087-17.972,1.157-23.006C174.813,166.422,196.627,163.728,206.521,177.639Z" transform="translate(-92.316 -152.076)" fill="#ebaf7d"/>
        <path id="Path_7527" data-name="Path 7527" d="M192.9,174.832a6.491,6.491,0,0,1-2.381,3.96c-1.316.926-2.97,1.078-4.524,1.42s-3.211,1.027-3.906,2.511a14.481,14.481,0,0,0-.618,3.291,6,6,0,0,1-2.777,3.953c-1.278.748-2.875,1.024-3.8,2.206a15.928,15.928,0,0,0-1.306,2.926c-.476.957-1.56,1.8-2.495,1.338-1.835-3.23-3.573-6.629-4.07-10.344a17.774,17.774,0,0,1,6.169-15.607,18.958,18.958,0,0,1,16-3.8C193.4,167.588,193.767,170.907,192.9,174.832Z" transform="translate(-95.187 -156.104)" fill="#2d133b"/>
        <path id="Path_7528" data-name="Path 7528" d="M175.933,180.45s-3.294-8.724-8.49-4.1,1.953,17.109,9.9,16.133C177.344,192.481,178.466,183.433,175.933,180.45Z" transform="translate(-97.807 -137.147)" fill="#ebaf7d"/>
        <path id="Path_7530" data-name="Path 7530" d="M171.864,174.875c.745-1.851,3.979-2.026,5.358-.881a.522.522,0,0,1-.228.865,12.13,12.13,0,0,1-2.495.025,8.08,8.08,0,0,0-2,.628A.522.522,0,0,1,171.864,174.875Z" transform="translate(-84.437 -140.883)" fill="#011948"/>
        <path id="Path_7535" data-name="Path 7535" d="M3.581,11.831C3.84,10.614,7.081-2.412,27.294.4c0,0-10.087-.542-12.552,3.505,0,0,7.662-4.2,12.843-1.517s6.726,12.839,6.21,16-5.333,12.81-8.96,13.071a10.776,10.776,0,0,1-4.215-.728,48.337,48.337,0,0,1,1.861,5.288C27.633,53.869-11.794-.166,3.581,11.831Z" transform="translate(59.259 37.85) rotate(-96)" fill="#2d133b"/>
        <path id="Path_7536" data-name="Path 7536" d="M2.572,27.8c4.179,5.875,7.724,4.906,9.779,3.378C27.9,41.239,39.267,28.834,39.267,28.834A35.319,35.319,0,0,1,52.282,8.849s-5.156-3.72-17.825-1.414C30.586,8.14,27,10.6,23.879,13.666A69.348,69.348,0,0,1,36.806,0c-15.349,5.8-22.8,26.041-23.551,28.184-1.692-1.753-5-5.534-5.835-9.068C6.28,14.315,6.309,4.6,3.467,4.727,3.467,4.727-3.7,18.994,2.572,27.8Z" transform="matrix(-0.999, 0.035, -0.035, -0.999, 120.967, 44.042)" fill="#2d133b"/>
        <path id="Path_9670" data-name="Path 9670" d="M9527.637,729s5.888,33.081,5.75,36.766-2.922,20.033-2.922,20.033,6.129-16.026,12.02-20.033,8.407-5.959,8.407-5.959-9.114-2.761-13.593-10.3S9527.637,729,9527.637,729Z" transform="translate(-9473.867 -599.47)" fill="#71a3ce"/>
      </g>
      <g id="Group_6535" data-name="Group 6535" transform="translate(429.552 638.752)">
        <g id="Union_7" data-name="Union 7" transform="translate(0.448 -0.333)" fill="#fff">
          <path d="M94.978,263.543h25.248L107.6,284ZM11,151.628a11,11,0,0,1-11-11V11A11,11,0,0,1,11,0H203a11,11,0,0,1,11,11V140.629a11,11,0,0,1-11,11Z" stroke="none"/>
          <path d="M 107.6013336181641 282.0970458984375 L 118.4334411621094 264.5433959960938 L 96.76999664306641 264.5433959960938 L 107.6013336181641 282.0970458984375 M 203.0012969970703 150.62841796875 C 208.5152282714844 150.62841796875 213.0011138916016 146.1425323486328 213.0011138916016 140.6286010742188 L 213.0011138916016 11.0015983581543 C 213.0011138916016 5.487205982208252 208.5152282714844 1.000920057296753 203.0012969970703 1.000920057296753 L 10.99979972839355 1.000920057296753 C 5.485906600952148 1.000920057296753 1.000013589859009 5.487205982208252 1.000013589859009 11.0015983581543 L 1.000013589859009 140.6286010742188 C 1.000013589859009 146.1425323486328 5.485906600952148 150.62841796875 10.99979972839355 150.62841796875 L 203.0012969970703 150.62841796875 M 107.6013031005859 284.0013122558594 L 94.9779052734375 263.5433959960938 L 120.2255859375 263.5433959960938 L 107.6013031005859 284.0013122558594 Z M 203.0012969970703 151.62841796875 L 10.99979972839355 151.62841796875 C 4.92479944229126 151.62841796875 1.360212081635837e-05 146.7035980224609 1.360212081635837e-05 140.6286010742188 L 1.360212081635837e-05 11.0015983581543 C 1.360212081635837e-05 4.925705909729004 4.92479944229126 0.0009200613712891936 10.99979972839355 0.0009200613712891936 L 203.0012969970703 0.0009200613712891936 C 209.0762939453125 0.0009200613712891936 214.0011138916016 4.925705909729004 214.0011138916016 11.0015983581543 L 214.0011138916016 140.6286010742188 C 214.0011138916016 146.7035980224609 209.0762939453125 151.62841796875 203.0012969970703 151.62841796875 Z" stroke="none" fill="rgba(17,83,182,0.5)"/>
        </g>
        <g id="Group_6533" data-name="Group 6533" transform="translate(28.91 46.98)">
          <g id="Group_4896" data-name="Group 4896" transform="translate(65.537 0.235)" opacity="0">
            <rect id="Rectangle_5501" data-name="Rectangle 5501" width="26.718" height="37.995" rx="2.881" fill="#fff"/>
          </g>
          <g id="Group_4897" data-name="Group 4897" transform="translate(33.423 0.235)" opacity="0">
            <rect id="Rectangle_5502" data-name="Rectangle 5502" width="26.718" height="37.995" rx="2.881" fill="#fff"/>
          </g>
          <g id="Group_4898" data-name="Group 4898" transform="translate(97.499 0.235)" opacity="0">
            <rect id="Rectangle_5503" data-name="Rectangle 5503" width="27.473" height="37.995" rx="2.963" fill="#fff"/>
          </g>
          <g id="Group_4899" data-name="Group 4899" transform="translate(129.009 0.235)" opacity="0">
            <rect id="Rectangle_5504" data-name="Rectangle 5504" width="27.473" height="37.995" rx="2.963" fill="#fff"/>
          </g>
          <g id="Rectangle_5656" data-name="Rectangle 5656" transform="translate(-0.462 -0.313)" fill="rgba(255,255,255,0.81)" stroke="#1153b6" stroke-width="1" opacity="0.49">
            <rect width="157" height="39" rx="4" stroke="none"/>
            <rect x="0.5" y="0.5" width="156" height="38" rx="3.5" fill="none"/>
          </g>
          <g id="Group_6950" data-name="Group 6950" transform="translate(67.911 13.863)" opacity="0">
            <g id="Group_4901" data-name="Group 4901" transform="translate(0 0.175)">
              <g id="Group_4900" data-name="Group 4900">
                <path id="Path_7988" data-name="Path 7988" d="M286.238,609.673l2.939,1.59-1.32,2.211-2.965-1.754.051,3.26h-2.533l.029-3.286-2.965,1.78-1.294-2.211,2.939-1.59-2.939-1.616,1.294-2.211,2.965,1.78-.029-3.29h2.533l-.051,3.29,2.965-1.78,1.32,2.211Z" transform="translate(-278.181 -604.336)" fill="#1a1a1a"/>
              </g>
            </g>
            <g id="Group_4903" data-name="Group 4903" transform="translate(20.478)">
              <g id="Group_4902" data-name="Group 4902">
                <path id="Path_7989" data-name="Path 7989" d="M295,609.625l2.935,1.59-1.32,2.212-2.965-1.755.055,3.261h-2.533l.026-3.286-2.965,1.78-1.294-2.212,2.939-1.59-2.939-1.615,1.294-2.212,2.965,1.78-.026-3.29H293.7l-.055,3.29,2.965-1.78,1.32,2.212Z" transform="translate(-286.936 -604.288)" fill="#1a1a1a"/>
              </g>
            </g>
            <g id="Group_4905" data-name="Group 4905" transform="translate(42.16)">
              <g id="Group_4904" data-name="Group 4904">
                <path id="Path_7990" data-name="Path 7990" d="M303.963,609.625l2.935,1.59-1.32,2.212-2.964-1.755.051,3.261h-2.533l.029-3.286-2.965,1.78-1.294-2.212,2.939-1.59-2.939-1.615L297.2,605.8l2.965,1.78-.029-3.29h2.533l-.051,3.29,2.964-1.78,1.32,2.212Z" transform="translate(-295.903 -604.288)" fill="#1a1a1a"/>
              </g>
            </g>
            <g id="Group_4907" data-name="Group 4907" transform="translate(63.843)">
              <g id="Group_4906" data-name="Group 4906">
                <path id="Path_7991" data-name="Path 7991" d="M312.646,609.625l2.935,1.59-1.32,2.212-2.964-1.755.055,3.261h-2.533l.026-3.286-2.961,1.78-1.294-2.212,2.935-1.59-2.935-1.615,1.294-2.212,2.961,1.78-.026-3.29h2.533l-.055,3.29,2.964-1.78,1.32,2.212Z" transform="translate(-304.589 -604.288)" fill="#1a1a1a"/>
              </g>
            </g>
          </g>
          <g id="Group_6540" data-name="Group 6540" opacity="0">
            <g id="Group_4909" data-name="Group 4909">
              <g id="Group_4908" data-name="Group 4908">
                <path id="Path_7992" data-name="Path 7992" d="M296.493,639.277H282.285a6.632,6.632,0,0,1-6.624-6.627V607.435a6.632,6.632,0,0,1,6.624-6.624h14.209a6.632,6.632,0,0,1,6.624,6.624V632.65A6.632,6.632,0,0,1,296.493,639.277Zm-14.209-38a6.163,6.163,0,0,0-6.156,6.156V632.65a6.161,6.161,0,0,0,6.156,6.156h14.209a6.161,6.161,0,0,0,6.156-6.156V607.435a6.163,6.163,0,0,0-6.156-6.156Z" transform="translate(-275.661 -600.811)" fill="#1a2e35"/>
              </g>
            </g>
            <g id="Group_4911" data-name="Group 4911" transform="translate(32.987)">
              <g id="Group_4910" data-name="Group 4910">
                <path id="Path_7993" data-name="Path 7993" d="M305.517,639.277H291.309a6.632,6.632,0,0,1-6.624-6.627V607.435a6.632,6.632,0,0,1,6.624-6.624h14.209a6.633,6.633,0,0,1,6.627,6.624V632.65A6.633,6.633,0,0,1,305.517,639.277Zm-14.209-38a6.165,6.165,0,0,0-6.156,6.156V632.65a6.163,6.163,0,0,0,6.156,6.156h14.209a6.161,6.161,0,0,0,6.156-6.156V607.435a6.163,6.163,0,0,0-6.156-6.156Z" transform="translate(-284.685 -600.811)" fill="#1a2e35"/>
              </g>
            </g>
            <g id="Group_4913" data-name="Group 4913" transform="translate(65.067)">
              <g id="Group_4912" data-name="Group 4912">
                <path id="Path_7994" data-name="Path 7994" d="M314.3,639.277H300.088a6.633,6.633,0,0,1-6.627-6.627V607.435a6.633,6.633,0,0,1,6.627-6.624H314.3a6.632,6.632,0,0,1,6.624,6.624V632.65A6.632,6.632,0,0,1,314.3,639.277Zm-14.209-38a6.163,6.163,0,0,0-6.156,6.156V632.65a6.161,6.161,0,0,0,6.156,6.156H314.3a6.163,6.163,0,0,0,6.156-6.156V607.435a6.165,6.165,0,0,0-6.156-6.156Z" transform="translate(-293.461 -600.811)" fill="#1a2e35"/>
              </g>
            </g>
            <g id="Group_4915" data-name="Group 4915" transform="translate(97.513)">
              <g id="Group_4914" data-name="Group 4914">
                <path id="Path_7995" data-name="Path 7995" d="M323.173,639.277H308.961a6.632,6.632,0,0,1-6.624-6.627V607.435a6.632,6.632,0,0,1,6.624-6.624h14.212a6.632,6.632,0,0,1,6.624,6.624V632.65A6.632,6.632,0,0,1,323.173,639.277Zm-14.212-38a6.165,6.165,0,0,0-6.156,6.156V632.65a6.163,6.163,0,0,0,6.156,6.156h14.212a6.163,6.163,0,0,0,6.156-6.156V607.435a6.165,6.165,0,0,0-6.156-6.156Z" transform="translate(-302.337 -600.811)" fill="#1a2e35"/>
              </g>
            </g>
            <g id="Group_4917" data-name="Group 4917" transform="translate(129.015)">
              <g id="Group_4916" data-name="Group 4916">
                <path id="Path_7996" data-name="Path 7996" d="M331.791,639.277H317.582a6.633,6.633,0,0,1-6.627-6.627V607.435a6.633,6.633,0,0,1,6.627-6.624h14.209a6.632,6.632,0,0,1,6.624,6.624V632.65A6.632,6.632,0,0,1,331.791,639.277Zm-14.209-38a6.163,6.163,0,0,0-6.156,6.156V632.65a6.161,6.161,0,0,0,6.156,6.156h14.209a6.163,6.163,0,0,0,6.156-6.156V607.435a6.165,6.165,0,0,0-6.156-6.156Z" transform="translate(-310.955 -600.811)" fill="#1a2e35"/>
              </g>
            </g>
          </g>
          <text id="B" transform="matrix(-1, 0, 0, 1, 138.538, 25.687)" font-size="16" font-family="FiraSans-Medium, Fira Sans" font-weight="500" opacity="0.27"><tspan x="-4.904" y="0">B</tspan></text>
          <text id="_9" data-name="9" transform="matrix(-1, 0, 0, 1, 124.538, 25.687)" font-size="16" font-family="FiraSans-Medium, Fira Sans" font-weight="500" opacity="0.27"><tspan x="-4.352" y="0">9</tspan></text>
          <text id="_0" data-name="0" transform="translate(109.538 24.686)" font-size="16" font-family="FiraSans-Medium, Fira Sans" font-weight="500" opacity="0.27"><tspan x="-4.584" y="0">0</tspan></text>
          <text id="_0-2" data-name="0" transform="translate(95.538 24.686)" font-size="16" font-family="FiraSans-Medium, Fira Sans" font-weight="500" opacity="0.27"><tspan x="-4.584" y="0">0</tspan></text>
        </g>
      </g>
      <g id="Group_6945" data-name="Group 6945" transform="matrix(0.309, 0.951, -0.951, 0.309, 1138.907, 719.225)" opacity="0.26">
        <path id="Path_9671" data-name="Path 9671" d="M0,15.232A70.315,70.315,0,0,1,5.347,8.869c2.312-2.725,4.686-5.4,6.985-8.134.669-.8,1.2-1.028,2.079-.281q13,11.031,26.051,22.01A1.238,1.238,0,0,1,40.987,24c-.625,1.754-2.081,2.894-3.234,4.234-2.853,3.314-5.681,6.653-8.6,9.913-.361.4-.661.888-1.276.951-.6-.152-.9-.724-1.4-1.017C18.388,31.33,10.4,24.456,2.3,17.708A6.693,6.693,0,0,1,0,15.232Z" transform="translate(6.536)" fill="#adc3f4"/>
        <path id="Path_9672" data-name="Path 9672" d="M6.536,0c3.641,3.047,7.295,6.081,10.922,9.146q7.941,6.712,15.851,13.46c.342.547,0,.964-.311,1.335a39.32,39.32,0,0,1-2.554,3.108,9.841,9.841,0,0,0-3.154,5.093c-2.816-2-5.343-4.35-7.958-6.6-2.024-1.739-4.142-3.368-6.15-5.134-2.675-2.351-5.431-4.609-8.157-6.9-1.173-.986-2.383-1.93-3.53-2.947-1.883-1.67-2-2.845-.271-4.648C2.829,4.242,4.2,2.383,5.74.662A6.76,6.76,0,0,1,6.536,0Z" transform="translate(0 15.232)" fill="#33479d"/>
        <path id="Path_9673" data-name="Path 9673" d="M6.239,14.94Q12.315,7.927,18.395.918c.288-.332.634-.613.953-.918l3.013,2.592c.339.783-.3,1.191-.689,1.64Q15.81,10.987,9.951,17.745c-.706.6-1.145,1.474-1.988,1.933-.247.071-.408.542-.99,1.262A11.412,11.412,0,0,0,5.7,22.583,6.356,6.356,0,0,1,4.4,24.057,2.207,2.207,0,0,1,.993,24.1a2.206,2.206,0,0,1-.357-3.389C2.088,18.9,3.677,17.2,5.218,15.456A1.246,1.246,0,0,1,6.239,14.94Z" transform="translate(28.175 23.999)" fill="#f7f7e0"/>
        <path id="Path_9674" data-name="Path 9674" d="M0,15.176Q5.288,9.034,10.573,2.889c.739-.862,1.434-1.761,2.149-2.643.4-.159.866-.489,1.177.048.275.473-.133.824-.424,1.158L.91,15.867C.3,16.04.059,15.728,0,15.176Z" transform="translate(37.813 26.344)" fill="#adc3f4"/>
        <path id="Path_9675" data-name="Path 9675" d="M7.277,1.1C5.53,3.125,3.777,5.143,2.039,7.174c-1,1.171-.9,1.706.349,2.844.991.9,1.878,1.011,2.77-.109C5.5,9.484,8.6,6.073,8.97,5.674c.583-.079.972.075.915.764-.412.494-3.5,4.05-3.952,4.507-1.4,1.42-2.658,1.452-4.159.125C1.218,10.577.692,10.049.153,9.537-.433,7.694.782,6.529,1.833,5.39A38.493,38.493,0,0,0,6.172,0,2.193,2.193,0,0,1,7.277,1.1Z" transform="translate(27.137 37.838)" fill="#7b88d0"/>
        <path id="Path_9677" data-name="Path 9677" d="M1.026,2.845,0,2.015,1.83,0l.91.691Z" transform="translate(35.983 41.52)" fill="#7b88d0"/>
      </g>
      <g id="Group_4483" data-name="Group 4483" transform="matrix(0.921, 0.391, -0.391, 0.921, 1354.932, 645.276)">
        <rect id="Rectangle_2235" data-name="Rectangle 2235" width="111.373" height="79.756" transform="matrix(0.918, -0.396, 0.396, 0.918, 0, 44.104)" fill="rgba(255,255,255,0.58)" stroke="#ff9483" stroke-width="1"/>
        <path id="Path_7191" data-name="Path 7191" d="M0,0,11.844,27.464,26.794,4.731Z" transform="translate(52.027 48.809)" fill="#ff9483"/>
        <g id="Group_4482" data-name="Group 4482" transform="translate(47.049 75.965)">
          <path id="Path_7192" data-name="Path 7192" d="M.2,3.48a2.492,2.492,0,1,1,3.275,1.3A2.492,2.492,0,0,1,.2,3.48Z" transform="translate(0 22.243)" fill="#ff9483"/>
          <path id="Path_7193" data-name="Path 7193" d="M55.995,1.576.807,25.375c-.181.078-.48-.208-.666-.639h0c-.186-.431-.189-.845-.009-.924L55.321.013c.182-.079.48.208.665.639h0C56.173,1.085,56.177,1.5,55.995,1.576Z" transform="translate(2.351 0)" fill="#ff9483"/>
        </g>
      </g>
      <g id="Group_6946" data-name="Group 6946" transform="translate(1227.764 674.962)">
        <path id="Path_9679" data-name="Path 9679" d="M10455.008,714.476l3.184,4.436-30.285,34.913-4.146-4.919Z" transform="translate(-10378.646 -675.733)" fill="#fff"/>
        <path id="Path_9678" data-name="Path 9678" d="M1191.987,676.71l31.571-36.153,44.4,37.739-30.762,35.2,3.805,4.757,31.369-35.642.7,1.931L1241,721.322,1191.44,679.8Z" transform="translate(-1191.44 -640.557)" fill="#c8d3ec"/>
        <rect id="Rectangle_5657" data-name="Rectangle 5657" width="35.76" height="12.261" transform="translate(11.122 35.468) rotate(-49)" fill="#33479d" opacity="0.12"/>
      </g>
      <g id="Group_6947" data-name="Group 6947" transform="translate(1470.333 694.409)">
        <path id="Path_8388" data-name="Path 8388" d="M1088.855,643.641h59.7l-20.408-82.564h-59.7Z" transform="translate(-1068.447 -550.038)" fill="#afcdfb"/>
        <path id="Path_8389" data-name="Path 8389" d="M1081.452,639.365h59.7L1120.742,556.8h-59.7Z" transform="translate(-1052.127 -550.913)" fill="#c0d8f9"/>
        <path id="Path_8390" data-name="Path 8390" d="M1073.431,634.477h59.7l-20.408-82.564h-59.7Z" transform="translate(-1034.443 -551.913)" fill="#fefeff"/>
        <path id="Path_8391" data-name="Path 8391" d="M1069.655,561.077,1088.543,638l49.63.494-51.128,1.125Z" transform="translate(-1059.522 -550.038)" fill="#699dee"/>
        <path id="Path_8392" data-name="Path 8392" d="M1062.207,556.8l17.944,76.183,49.63.494-50.472,1.247Z" transform="translate(-1042.158 -550.913)" fill="#699dee"/>
        <path id="Path_8393" data-name="Path 8393" d="M1067.83,593.185h40.124l-.539-2.123h-40.124Z" transform="translate(-1026.456 -543.903)" fill="#afcdfb"/>
        <path id="Path_8394" data-name="Path 8394" d="M1065.506,601.933h40.124l-.539-2.123h-40.124Z" transform="translate(-1021.331 -542.114)" fill="#afcdfb"/>
      </g>
    </g>
  </g>
</svg>
