<svg xmlns="http://www.w3.org/2000/svg" xmlns:xlink="http://www.w3.org/1999/xlink" width="1024" height="600" viewBox="0 0 1024 600">
  <defs>
    <clipPath id="clip-path">
      <rect id="Rectangle_5655" data-name="Rectangle 5655" width="1024" height="590.462" transform="translate(0 0)" fill="#fff" stroke="#707070" stroke-width="1"/>
    </clipPath>
    <clipPath id="clip-Forget-password">
      <rect width="1024" height="600"/>
    </clipPath>
  </defs>
  <g id="Forget-password" clip-path="url(#clip-Forget-password)">
    <g id="Group_7154" data-name="Group 7154" transform="translate(-7868 468)">
      <g id="Mask_Group_3" data-name="Mask Group 3" transform="translate(7868 -468)" clip-path="url(#clip-path)">
        <circle id="Ellipse_119" data-name="Ellipse 119" cx="493.382" cy="493.382" r="493.382" transform="translate(15.958 79.792)" fill="#ffd814" opacity="0.25"/>
      </g>
      <g id="Group_5835" data-name="Group 5835" transform="translate(7982.61 -132.302)">
        <g id="Group_5824" data-name="Group 5824">
          <path id="Path_8895" data-name="Path 8895" d="M192.615,529.679C225.218,503,229.438,458.136,224.82,418.5c-.771-6.619-.606-13.676-4.279-19.232s-11.461-8.923-17.253-5.632c-4.8,2.731-6.51,8.643-8.916,13.615a39.289,39.289,0,0,1-14.55,16.164c-4.1,2.547-9.288,4.322-13.7,2.37-6.058-2.681-7.387-10.53-7.886-17.137q-1.393-18.457-2.785-36.916c-.5-6.6-1.027-13.344-3.622-19.437s-7.66-11.532-14.166-12.766-14.076,3.037-14.889,9.607c-.339,2.733.445,5.478.483,8.233s-1.009,5.893-3.582,6.876c-2.6.992-5.434-.66-7.592-2.425-7.446-6.1-12.832-14.293-17.905-22.47s-10.04-16.565-16.894-23.315-15.992-11.8-25.61-11.543S32.325,311.42,30.663,320.9c-1.666,9.5,4.607,18.49,11.209,25.528A148.777,148.777,0,0,0,75.336,373.1c2.229,1.3,4.644,2.71,5.653,5.087,1.81,4.279-2.057,9-6.338,10.808-4.852,2.048-10.3,1.984-15.464,3.021s-10.627,3.77-12.2,8.794c-2.184,6.974,4.109,13.572,10.113,17.74a128.655,128.655,0,0,0,39.6,18.438c5.064,1.374,10.365,2.5,14.611,5.587s7.125,8.819,5.111,13.664-8.047,6.845-13.278,6.329-10.066-2.9-15.125-4.324c-9.47-2.665-21.284-1.06-26.529,7.262-3.447,5.469-3.2,12.672-.74,18.652s6.857,10.943,11.468,15.474c16.124,15.841,36.1,28.016,58.014,33.556s41.824,5.884,62.382-3.508" transform="translate(-30.392 -304.481)" fill="#71c299"/>
        </g>
        <g id="Group_5826" data-name="Group 5826" transform="translate(9.19 6.569)">
          <g id="Group_5825" data-name="Group 5825">
            <path id="Path_8896" data-name="Path 8896" d="M190.185,555.34a287.847,287.847,0,0,0-15.394-53.466c-7.573-19.567-17.677-40.33-28.994-61.694q-4.277-7.991-8.445-15.785c-2.78-5.177-5.537-10.3-8.549-15.155a295.657,295.657,0,0,0-18.926-26.906c-6.44-8.27-12.858-15.886-18.911-22.967-6.07-7.069-11.854-13.553-17.38-19.239a237.636,237.636,0,0,0-28.07-24.9c-3.534-2.674-6.343-4.663-8.266-5.987-.935-.636-1.661-1.131-2.191-1.494-.5-.33-.768-.478-.768-.478s.231.2.707.563l2.137,1.572c1.88,1.379,4.654,3.414,8.146,6.133a248.327,248.327,0,0,1,27.8,25.08c5.481,5.7,11.223,12.2,17.257,19.288s12.406,14.724,18.815,22.995a297.325,297.325,0,0,1,18.817,26.85c2.992,4.835,5.726,9.927,8.511,15.118s5.587,10.452,8.435,15.78c11.31,21.35,21.419,42.062,29.017,61.56a291.858,291.858,0,0,1,15.558,53.256" transform="translate(-34.292 -307.269)" fill="#71c299"/>
          </g>
        </g>
        <g id="Group_5828" data-name="Group 5828" transform="translate(103.391 35.047)">
          <g id="Group_5827" data-name="Group 5827">
            <path id="Path_8897" data-name="Path 8897" d="M74.323,392.769a16.144,16.144,0,0,0,.379-2.875c.186-1.852.377-4.543.568-7.865.386-6.649.62-15.848.851-25.994s.624-19.324,1.155-25.947c.255-3.313.495-5.994.688-7.842a15.829,15.829,0,0,0,.181-2.891,16.48,16.48,0,0,0-.568,2.842c-.311,1.838-.66,4.515-1,7.827-.716,6.628-1.221,15.829-1.451,25.987-.217,10.057-.41,19.156-.558,25.987-.1,3.183-.186,5.829-.25,7.875A16.2,16.2,0,0,0,74.323,392.769Z" transform="translate(-74.271 -319.355)" fill="#71c299"/>
          </g>
        </g>
        <g id="Group_5830" data-name="Group 5830" transform="translate(16.181 99.16)">
          <g id="Group_5829" data-name="Group 5829">
            <path id="Path_8898" data-name="Path 8898" d="M37.259,347.1a3.176,3.176,0,0,0,.9.068c.7,0,1.548.007,2.564.009,2.222,0,5.438-.016,9.411.1,7.943.165,18.911.8,30.973,2.024,12.064,1.254,22.931,2.858,30.754,4.255,3.918.672,7.071,1.3,9.253,1.73,1,.188,1.828.349,2.519.481a3.092,3.092,0,0,0,.893.1,2.992,2.992,0,0,0-.848-.3L121.2,354.9c-2.158-.544-5.3-1.284-9.208-2.048-7.806-1.576-18.69-3.3-30.785-4.55-12.09-1.235-23.1-1.753-31.065-1.739-3.982-.026-7.208.092-9.43.217l-2.561.179A2.975,2.975,0,0,0,37.259,347.1Z" transform="translate(-37.259 -346.564)" fill="#71c299"/>
          </g>
        </g>
        <g id="Group_5832" data-name="Group 5832" transform="translate(148.598 87.724)">
          <g id="Group_5831" data-name="Group 5831">
            <path id="Path_8899" data-name="Path 8899" d="M93.462,453.648a5.341,5.341,0,0,0,.481-1.091c.313-.832.712-1.892,1.2-3.2,1.032-2.78,2.429-6.838,4.09-11.873,3.332-10.066,7.507-24.112,11.916-39.668s8.476-29.621,11.631-39.731l3.787-11.96c.417-1.331.754-2.41,1.02-3.256a5.264,5.264,0,0,0,.292-1.159,5.4,5.4,0,0,0-.483,1.093c-.311.829-.707,1.89-1.2,3.2-1.032,2.78-2.427,6.838-4.088,11.873-3.334,10.066-7.509,24.109-11.92,39.673s-8.473,29.613-11.628,39.727c-1.569,4.958-2.853,9.015-3.784,11.96-.419,1.331-.756,2.411-1.023,3.259A5.406,5.406,0,0,0,93.462,453.648Z" transform="translate(-93.456 -341.711)" fill="#71c299"/>
          </g>
        </g>
        <g id="Group_5834" data-name="Group 5834" transform="translate(31.396 172.73)">
          <g id="Group_5833" data-name="Group 5833">
            <path id="Path_8900" data-name="Path 8900" d="M43.716,377.8a6.016,6.016,0,0,0,1.176.346c.884.205,2.015.471,3.412.8l12.564,2.87c10.6,2.434,25.207,5.976,41.331,9.929s30.773,7.392,41.423,9.651c5.325,1.131,9.642,2.007,12.634,2.556l3.452.62a5.763,5.763,0,0,0,1.216.148,5.454,5.454,0,0,0-1.176-.346c-.884-.207-2.012-.474-3.412-.8-3.089-.707-7.349-1.678-12.561-2.868-10.6-2.434-25.207-5.98-41.338-9.932s-30.768-7.389-41.416-9.649c-5.325-1.133-9.642-2.007-12.637-2.559l-3.45-.62A5.469,5.469,0,0,0,43.716,377.8Z" transform="translate(-43.716 -377.787)" fill="#71c299"/>
          </g>
        </g>
      </g>
      <g id="Group_5839" data-name="Group 5839" transform="translate(8019.809 -319.144)">
        <g id="Group_5837" data-name="Group 5837">
          <rect id="Rectangle_5574" data-name="Rectangle 5574" width="137.35" height="92.579" transform="translate(0.59 40.045) rotate(-16.745)" fill="#fff"/>
          <g id="Group_5836" data-name="Group 5836">
            <path id="Path_8901" data-name="Path 8901" d="M316.784,203.162s-.2-.558-.529-1.619q-.508-1.635-1.454-4.684c-1.264-4.126-3.109-10.138-5.465-17.826-4.682-15.4-11.4-37.5-19.587-64.414l.471.255c-36.294,10.946-81.98,24.726-131.488,39.659l-.009,0,.316-.589c9.494,31.6,18.519,61.649,26.634,88.664l-.54-.289L279.9,214.031l27.12-8.039,7.235-2.121,1.876-.538c.426-.118.657-.171.657-.171s-.189.075-.593.206l-1.815.573c-1.648.508-4.031,1.244-7.12,2.2l-26.96,8.232c-23.238,7.047-56.136,17.022-94.913,28.779l-.415.125-.125-.415c-8.137-27.009-17.189-57.047-26.711-88.642l-.137-.453.455-.136.009,0L290,114.147l.364-.111.109.364c8.055,27.06,14.666,49.274,19.274,64.755,2.267,7.677,4.039,13.682,5.256,17.8q.879,3.021,1.352,4.641C316.656,202.64,316.784,203.162,316.784,203.162Z" transform="translate(-157.995 -114.036)" fill="#e0e0e0"/>
          </g>
        </g>
        <g id="Group_5838" data-name="Group 5838" transform="translate(0.591 0.473)">
          <path id="Path_8902" data-name="Path 8902" d="M289.845,114.3c.015.009.519.991.384,1.248-.166.3-30.867,53.719-42.962,74.232l-.2.344-.375-.146c-1.275-.493-86.439-33.788-87.618-34.268-.508-.218,0-1.483-.336-1.625a1.694,1.694,0,0,1-.415-.213,1.712,1.712,0,0,1,.449.122l1.288.449,4.917,1.81L183,163.073l59.341,22.849c1.379.535,2.751,1.068,4.026,1.561l-.578.2,31.077-52.124c3.958-6.558,7.167-11.872,9.43-15.619q1.648-2.669,2.6-4.21l.693-1.081A1.665,1.665,0,0,1,289.845,114.3Z" transform="translate(-158.32 -114.296)" fill="#e0e0e0"/>
        </g>
      </g>
      <g id="Group_5847" data-name="Group 5847" transform="translate(8516.617 -53.089)">
        <path id="Path_8903" data-name="Path 8903" d="M506.532,309.7s-8.521-8.443-25.161,12.645S457.5,356.068,457.5,356.068s-4.142,4.289-6.879.4S445.074,342.539,439,343.038c-6.3.517-9.58,6.772-10.391,16.765s-3.391,31.821-3.631,33.793c-.236,1.937-1.89,4.531-4.178,2.181s-14.162-22.381-23.331-16.179-6.852,34.411-6.657,37.5-.629,4.227-2.168,4.676-4.895-6.663-8.505-12.221-8.769-11.373-13.76-7.352-10.269,23.791,2.308,60.114l6.928,16.45,17.751,2.525c38.314,3.087,56.132-6.972,58.779-12.809s-4.274-9.38-10.56-11.484-14.009-3.574-13.96-5.175.946-2.685,3.983-3.269,30.932-5.4,34.642-15.83-18.656-16.912-21.5-18.54-.751-3.878,1.066-4.591c1.85-.728,22.338-8.687,31.81-11.972s14.706-8.032,13.631-14.255c-1.037-6-11.463-6.21-15.912-7.887s-1.333-6.761-1.333-6.761,10.422-10.162,26.676-31.55,5.657-27.627,5.657-27.627" transform="translate(-360.905 -308.03)" fill="#71c299"/>
        <g id="Group_5840" data-name="Group 5840" transform="translate(1.735 20.531)">
          <path id="Path_8904" data-name="Path 8904" d="M490.816,319.318a2.332,2.332,0,0,1-.291.462l-.928,1.3c-.871,1.182-2.09,2.834-3.641,4.935-3.174,4.276-7.819,10.422-13.6,17.992-11.548,15.14-27.7,35.9-45.646,58.748-17.9,22.858-34.1,43.546-45.869,58.583l-13.834,17.8-3.782,4.826c-.413.511-.744.919-1,1.24a2.3,2.3,0,0,1-.367.4,2.411,2.411,0,0,1,.289-.462c.24-.335.546-.762.928-1.3.873-1.18,2.092-2.832,3.641-4.933,3.174-4.276,7.82-10.422,13.6-17.99,11.548-15.14,27.705-35.9,45.654-58.759l45.861-58.571c5.809-7.479,10.526-13.549,13.834-17.807,1.61-2.054,2.876-3.67,3.783-4.826.413-.511.742-.92,1-1.24A2.361,2.361,0,0,1,490.816,319.318Z" transform="translate(-361.858 -319.318)" fill="#71c299"/>
        </g>
        <g id="Group_5841" data-name="Group 5841" transform="translate(81.378 49.213)">
          <path id="Path_8905" data-name="Path 8905" d="M405.732,335.087a22.434,22.434,0,0,1,.671,4.764c.271,2.956.515,7.05.677,11.57.118,4.349.225,8.281.315,11.572a30.02,30.02,0,0,1,0,4.8,20.249,20.249,0,0,1-.666-4.767c-.24-2.959-.431-7.054-.591-11.572-.151-4.344-.286-8.274-.4-11.563A26.174,26.174,0,0,1,405.732,335.087Z" transform="translate(-405.645 -335.087)" fill="#71c299"/>
        </g>
        <g id="Group_5842" data-name="Group 5842" transform="translate(84.668 79.342)">
          <path id="Path_8906" data-name="Path 8906" d="M407.454,354.861c-.022-.26,8.387-1.173,18.78-2.041s18.838-1.359,18.86-1.1-8.385,1.175-18.782,2.043S407.476,355.123,407.454,354.861Z" transform="translate(-407.454 -351.652)" fill="#71c299"/>
        </g>
        <g id="Group_5843" data-name="Group 5843" transform="translate(54.487 117.605)">
          <path id="Path_8907" data-name="Path 8907" d="M390.861,372.717a27.608,27.608,0,0,1,4.844.775c2.97.562,7.066,1.346,11.615,2.07s8.685,1.279,11.683,1.668a28.015,28.015,0,0,1,4.842.779,23,23,0,0,1-4.911-.113c-3.023-.22-7.194-.66-11.763-1.4s-8.669-1.621-11.61-2.352A23.083,23.083,0,0,1,390.861,372.717Z" transform="translate(-390.861 -372.688)" fill="#71c299"/>
        </g>
        <g id="Group_5844" data-name="Group 5844" transform="translate(44.93 88.115)">
          <path id="Path_8908" data-name="Path 8908" d="M385.627,356.475a21.5,21.5,0,0,1,1.764,4.182c.975,2.621,2.259,6.264,3.621,10.306s2.548,7.721,3.359,10.4a21.618,21.618,0,0,1,1.13,4.394,21.583,21.583,0,0,1-1.764-4.18c-.973-2.621-2.259-6.264-3.621-10.307s-2.548-7.719-3.359-10.4A21.573,21.573,0,0,1,385.627,356.475Z" transform="translate(-385.607 -356.475)" fill="#71c299"/>
        </g>
        <g id="Group_5845" data-name="Group 5845" transform="translate(14.356 115.7)">
          <path id="Path_8909" data-name="Path 8909" d="M368.813,371.641a35.333,35.333,0,0,1,2.223,5.369c1.258,3.356,2.934,8.014,4.731,13.178s3.374,9.858,4.471,13.27a35.271,35.271,0,0,1,1.588,5.587,35.448,35.448,0,0,1-2.221-5.367c-1.259-3.356-2.936-8.014-4.733-13.18s-3.372-9.856-4.469-13.269A35.231,35.231,0,0,1,368.813,371.641Z" transform="translate(-368.797 -371.641)" fill="#71c299"/>
        </g>
        <g id="Group_5846" data-name="Group 5846" transform="translate(27.326 152.095)">
          <path id="Path_8910" data-name="Path 8910" d="M375.928,391.679a44.524,44.524,0,0,1,6.164.815c3.791.587,9.023,1.4,14.822,2.168s11.062,1.355,14.876,1.77a44.659,44.659,0,0,1,6.164.822,36.909,36.909,0,0,1-6.222-.155c-3.836-.244-9.127-.724-14.944-1.5s-11.046-1.69-14.813-2.448A36.933,36.933,0,0,1,375.928,391.679Z" transform="translate(-375.928 -391.65)" fill="#71c299"/>
        </g>
      </g>
      <g id="Group_5867" data-name="Group 5867" transform="translate(8615.475 -138.209) rotate(-30)">
        <g id="Group_5866" data-name="Group 5866" transform="translate(0 0)">
          <path id="Path_8923" data-name="Path 8923" d="M69.559,91.884a5.819,5.819,0,0,0,2.8.462,5.036,5.036,0,0,0,3.007-1.5,29.205,29.205,0,0,0,2.488-4.06l15.28-26.671q2.432-4.22,5.085-8.824l2.707-4.694a15.435,15.435,0,0,0,1.244-2.368,4.515,4.515,0,0,0,.071-2.514,4.233,4.233,0,0,0-1.355-2.137,22.788,22.788,0,0,0-2.432-1.447q-2.584-1.446-5.243-2.931l-10.94-6.124L33.59,1.757a4.411,4.411,0,0,0-5.723,1.43q-1.841,3.146-3.655,6.246-3.64,6.252-7.168,12.309C12.341,29.806,7.806,37.586,3.482,45q-.813,1.389-1.612,2.762a4.647,4.647,0,0,0-.759,2.691,4.231,4.231,0,0,0,.957,2.531A7.476,7.476,0,0,0,4.4,54.622q5.305,3,10.292,5.825L33.159,70.916c11.216,6.4,20.316,11.6,26.694,15.236,3.082,1.791,5.5,3.2,7.227,4.2.771.464,1.386.832,1.864,1.119a3.307,3.307,0,0,1,.615.417,3.308,3.308,0,0,1-.676-.309l-1.925-1.011c-1.751-.954-4.208-2.293-7.34-4C53.2,83.01,44.031,77.93,32.733,71.672L14.2,61.333q-5-2.792-10.323-5.771a8.412,8.412,0,0,1-2.646-1.88A5.331,5.331,0,0,1,.006,50.5a5.769,5.769,0,0,1,.9-3.3q.8-1.375,1.6-2.766c4.3-7.427,8.819-15.219,13.5-23.3q3.517-6.054,7.151-12.316,1.838-3.142,3.7-6.329a5.64,5.64,0,0,1,7.337-1.8c17.246,9.72,33.673,18.977,48.629,27.4l10.914,6.169,5.229,2.955a22.411,22.411,0,0,1,2.585,1.574,5.244,5.244,0,0,1,1.673,2.67,5.516,5.516,0,0,1-.1,3.08,15.688,15.688,0,0,1-1.345,2.552l-2.74,4.675q-2.686,4.581-5.153,8.787C87.318,71.674,82,80.7,78.263,87.023A27.424,27.424,0,0,1,75.621,91.1a5.256,5.256,0,0,1-3.242,1.492,4.78,4.78,0,0,1-2.17-.344A2.544,2.544,0,0,1,69.559,91.884Z" fill="#e0e0e0"/>
        </g>
        <path id="Path_8924" data-name="Path 8924" d="M18.565,10.545,24.5,21.091l-12.252.224L0,21.539l6.312-10.77L12.625,0Z" transform="translate(38.541 33.033)" fill="#e0e0e0"/>
      </g>
      <g id="Group_6532" data-name="Group 6532" transform="translate(8059.493 -369.894)">
        <g id="Group_5048" data-name="Group 5048" transform="translate(0 203.711)">
          <g id="Group_4942" data-name="Group 4942" transform="translate(102.633)">
            <g id="Group_4941" data-name="Group 4941">
              <path id="Path_8003" data-name="Path 8003" d="M247.168,630.854l37.887-5.5,75.788,11.214,21.272,7.519L378.342,690.6l-72.863,13.422-49.172-14.569L237.719,662.1Z" transform="translate(-237.719 -625.358)" fill="#ffbf9d"/>
            </g>
          </g>
          <g id="Group_4978" data-name="Group 4978" transform="translate(0 2.473)">
            <g id="Group_4944" data-name="Group 4944" transform="translate(30.972)">
              <g id="Group_4943" data-name="Group 4943">
                <path id="Path_8004" data-name="Path 8004" d="M280.545,633.321l31.706-7.467s22.419,69.3,77.742,66.317c45.091-2.432,45.6-52.762,45.6-52.762l32.5,10.406s12.426,83.353-1.333,142.4c-3.213,13.8-7.516,32.4-7.516,32.4l4.392,86.278-240.33.383,57.233-277.955Z" transform="translate(-223.312 -625.855)" fill="#ff735d"/>
              </g>
            </g>
            <g id="Group_4946" data-name="Group 4946" transform="translate(33.419 248.13)" opacity="0.3">
              <g id="Group_4945" data-name="Group 4945">
                <path id="Path_8005" data-name="Path 8005" d="M372.8,695.9c-11.694-.289-22.493.7-34.183.413-14.037-.349-28.174-.687-42.027,1.6-10.386,1.711-20.489,4.88-30.88,6.516-14.167,2.238-29.3,1.438-41.908-5.387l2.03-11.769,47.892-11.531Z" transform="translate(-223.804 -675.738)"/>
              </g>
            </g>
            <g id="Group_4948" data-name="Group 4948" transform="translate(261.328 23.279)">
              <g id="Group_4947" data-name="Group 4947">
                <path id="Path_8006" data-name="Path 8006" d="M311.182,650.636c-10.993-14.2-29.268-20.1-29.268-20.1L269.622,737.576l23.284,155.853,76.27-.358S327.109,671.209,311.182,650.636Z" transform="translate(-269.622 -630.535)" fill="#ff735d"/>
              </g>
            </g>
            <g id="Group_4950" data-name="Group 4950" transform="translate(0 6.68)">
              <g id="Group_4949" data-name="Group 4949">
                <path id="Path_8007" data-name="Path 8007" d="M309,627.2s-51.334,4.114-69.754,88.218c-8.332,38.043-18.862,82.622-21.9,112.587-2.2,21.732,9.615,55.761,31.278,58.542l27.244,3.661a45.09,45.09,0,0,0,16.047-.592c17.2-3.955,18.952-15.759,21.986-28.3l7.949-25.1c4.347-23.871-17.887-28.323-30.169-28.055l9.158-108.951Z" transform="translate(-217.086 -627.198)" fill="#ff735d"/>
              </g>
            </g>
            <g id="Group_4953" data-name="Group 4953" transform="translate(266.903 82.791)">
              <g id="Group_4952" data-name="Group 4952">
                <g id="Group_4951" data-name="Group 4951">
                  <path id="Path_8008" data-name="Path 8008" d="M283.817,642.5a7.244,7.244,0,0,1,.234,1.169l.517,3.393.353,2.452.3,2.935c.209,2.1.468,4.5.577,7.163a176.46,176.46,0,0,1,.129,18.708,226.677,226.677,0,0,1-2.273,22.8c-1.179,8.044-2.661,15.644-4.169,22.518-1.477,6.885-2.994,13.038-4.273,18.206-1.3,5.154-2.387,9.322-3.173,12.192l-.915,3.3a6.76,6.76,0,0,1-.373,1.134,6.241,6.241,0,0,1,.209-1.179l.771-3.338c.711-2.98,1.7-7.143,2.92-12.252,1.2-5.178,2.661-11.341,4.094-18.221,1.462-6.874,2.92-14.465,4.094-22.488s1.995-15.7,2.333-22.708c.294-7.014.363-13.341.05-18.643-.075-2.656-.289-5.049-.458-7.153l-.234-2.93-.279-2.457-.363-3.407A6.131,6.131,0,0,1,283.817,642.5Z" transform="translate(-270.743 -642.499)" fill="#1a2e35"/>
                </g>
              </g>
            </g>
            <g id="Group_4956" data-name="Group 4956" transform="translate(34.31 187.299)">
              <g id="Group_4955" data-name="Group 4955">
                <g id="Group_4954" data-name="Group 4954">
                  <path id="Path_8009" data-name="Path 8009" d="M223.993,693.33a9.329,9.329,0,0,1,.408-2.119,33.764,33.764,0,0,1,1.98-5.531,37.757,37.757,0,0,1,30.134-21.932,33.853,33.853,0,0,1,5.875-.184,9.246,9.246,0,0,1,2.139.263,76.649,76.649,0,0,0-7.939.5,38.838,38.838,0,0,0-29.681,21.6A76.9,76.9,0,0,0,223.993,693.33Z" transform="translate(-223.983 -663.509)" fill="#1a2e35"/>
                </g>
              </g>
            </g>
            <g id="Group_4959" data-name="Group 4959" transform="translate(46.188 175.094)">
              <g id="Group_4958" data-name="Group 4958">
                <g id="Group_4957" data-name="Group 4957">
                  <path id="Path_8010" data-name="Path 8010" d="M226.371,661.183a3.609,3.609,0,0,1,1.239-.119,26.667,26.667,0,0,1,3.383.154,39.027,39.027,0,0,1,20.449,8.406,27.251,27.251,0,0,1,2.512,2.273c.552.582.841.915.8.955-.095.1-1.388-1.095-3.666-2.766a45.084,45.084,0,0,0-20.166-8.3C228.127,661.377,226.366,661.318,226.371,661.183Z" transform="translate(-226.371 -661.055)" fill="#1a2e35"/>
                </g>
              </g>
            </g>
            <g id="Group_4962" data-name="Group 4962" transform="translate(84.108 12.111)">
              <g id="Group_4961" data-name="Group 4961">
                <g id="Group_4960" data-name="Group 4960">
                  <path id="Path_8011" data-name="Path 8011" d="M249.214,682.5a11.982,11.982,0,0,1-.124-2.249c-.01-1.447-.095-3.537-.269-6.108a97.941,97.941,0,0,0-10.809-38.505c-1.189-2.288-2.209-4.119-2.95-5.357A12.075,12.075,0,0,1,234,628.291a11.653,11.653,0,0,1,1.338,1.816c.826,1.194,1.925,2.984,3.188,5.253A88.444,88.444,0,0,1,249.4,674.1c.1,2.6.1,4.7.01,6.143A11.893,11.893,0,0,1,249.214,682.5Z" transform="translate(-233.994 -628.29)" fill="#1a2e35"/>
                </g>
              </g>
            </g>
            <g id="Group_4965" data-name="Group 4965" transform="translate(125.069 142.671)">
              <g id="Group_4964" data-name="Group 4964">
                <g id="Group_4963" data-name="Group 4963">
                  <path id="Path_8012" data-name="Path 8012" d="M314.813,654.537a4,4,0,0,1-.234.886c-.194.567-.418,1.428-.851,2.482a51.645,51.645,0,0,1-4.278,8.655,55.567,55.567,0,0,1-54.493,26.165,51.8,51.8,0,0,1-9.426-2.07c-1.094-.323-1.905-.686-2.467-.89a3.644,3.644,0,0,1-.836-.373c.025-.069,1.214.339,3.392.955a58.1,58.1,0,0,0,9.406,1.8,56.947,56.947,0,0,0,58.4-34.362C314.316,655.7,314.743,654.517,314.813,654.537Z" transform="translate(-242.229 -654.537)" fill="#1a2e35"/>
                </g>
              </g>
            </g>
            <g id="Group_4968" data-name="Group 4968" transform="translate(5.777 240.434)">
              <g id="Group_4967" data-name="Group 4967">
                <g id="Group_4966" data-name="Group 4966">
                  <path id="Path_8013" data-name="Path 8013" d="M301.929,694.75c-.085-.07-.89,1.074-2.805,2.651a25.625,25.625,0,0,1-9.4,4.487,50.059,50.059,0,0,1-15.46,1.358c-5.865-.423-12.331-1.109-19.051-2.109-6.7-1.04-13.142-2.248-18.6-4.283a23.762,23.762,0,0,1-6.835-4.561,36.7,36.7,0,0,1-4.775-5.432,51.049,51.049,0,0,1-5.248-9.1c-.487-1.144-.87-2.034-1.1-2.651a5,5,0,0,0-.408-.915,4.416,4.416,0,0,0,.249.97c.179.637.517,1.552.965,2.721a46.677,46.677,0,0,0,5.069,9.322,36.547,36.547,0,0,0,4.785,5.586,24.226,24.226,0,0,0,7,4.76c5.611,2.134,12.023,3.348,18.773,4.4,6.76,1,13.221,1.667,19.141,2.05a49.112,49.112,0,0,0,15.654-1.557,24.881,24.881,0,0,0,9.441-4.8,16.331,16.331,0,0,0,2-2.089A4,4,0,0,0,301.929,694.75Z" transform="translate(-218.247 -674.191)" fill="#1a2e35"/>
                </g>
              </g>
            </g>
            <g id="Group_4971" data-name="Group 4971" transform="translate(74.544 93.123)">
              <g id="Group_4970" data-name="Group 4970">
                <g id="Group_4969" data-name="Group 4969">
                  <path id="Path_8014" data-name="Path 8014" d="M255.462,644.576c-.224-.055-5.636,20.961-12.092,46.932s-11.51,47.082-11.292,47.136,5.631-20.956,12.092-46.937S255.681,644.631,255.462,644.576Z" transform="translate(-232.072 -644.576)" fill="#1a2e35"/>
                </g>
              </g>
            </g>
            <g id="Group_4974" data-name="Group 4974" transform="translate(74.82 187.213)">
              <g id="Group_4973" data-name="Group 4973">
                <g id="Group_4972" data-name="Group 4972">
                  <path id="Path_8015" data-name="Path 8015" d="M261.778,688a6.683,6.683,0,0,0,.259-1.726,29.3,29.3,0,0,0,.109-4.775,13.832,13.832,0,0,0-2.3-6.73,20.3,20.3,0,0,0-2.636-3.308,18.158,18.158,0,0,0-3.646-2.716,45.77,45.77,0,0,0-14.943-4.825,42.09,42.09,0,0,0-4.745-.418,6.386,6.386,0,0,0-1.746.06c-.01.139,2.472.234,6.4.935a49.937,49.937,0,0,1,14.624,4.959,17.757,17.757,0,0,1,3.5,2.582,19.958,19.958,0,0,1,2.562,3.144,13.736,13.736,0,0,1,2.363,6.377,39.8,39.8,0,0,1,.149,4.7A7.245,7.245,0,0,0,261.778,688Z" transform="translate(-232.127 -663.491)" fill="#1a2e35"/>
                </g>
              </g>
            </g>
            <g id="Group_4977" data-name="Group 4977" transform="translate(277.226 79.319)" opacity="0.3">
              <g id="Group_4976" data-name="Group 4976">
                <g id="Group_4975" data-name="Group 4975">
                  <path id="Path_8016" data-name="Path 8016" d="M273.2,715.887c13.1-22.18,13.381-51,1.955-74.086,3.407,24.583,3.129,49.782-2.338,73.992" transform="translate(-272.818 -641.801)"/>
                </g>
              </g>
            </g>
          </g>
          <g id="Group_5020" data-name="Group 5020" transform="translate(79.225 207.033)">
            <g id="Group_4995" data-name="Group 4995" transform="translate(0.108)">
              <g id="Group_4980" data-name="Group 4980" transform="translate(128.861 4.218)">
                <g id="Group_4979" data-name="Group 4979">
                  <path id="Path_8017" data-name="Path 8017" d="M259.035,667.827l-.095.044Z" transform="translate(-258.94 -667.827)" fill="#ffbf9d"/>
                </g>
              </g>
              <g id="Group_4982" data-name="Group 4982" transform="translate(128.184 4.487)">
                <g id="Group_4981" data-name="Group 4981">
                  <path id="Path_8018" data-name="Path 8018" d="M259.013,667.881l-.209.1Z" transform="translate(-258.804 -667.881)" fill="#ffbf9d"/>
                </g>
              </g>
              <g id="Group_4984" data-name="Group 4984" transform="translate(128.393 4.263)">
                <g id="Group_4983" data-name="Group 4983">
                  <path id="Path_8019" data-name="Path 8019" d="M259.314,667.836l-.468.224Z" transform="translate(-258.846 -667.836)" fill="#ffbf9d"/>
                </g>
              </g>
              <g id="Group_4986" data-name="Group 4986" transform="translate(128.955 4.119)">
                <g id="Group_4985" data-name="Group 4985">
                  <path id="Path_8020" data-name="Path 8020" d="M259.168,667.807l-.209.1Z" transform="translate(-258.959 -667.807)" fill="#ffbf9d"/>
                </g>
              </g>
              <g id="Group_4988" data-name="Group 4988">
                <g id="Group_4987" data-name="Group 4987">
                  <path id="Path_8021" data-name="Path 8021" d="M410.419,715.393c-4.124-7.795-36.332-28.353-36.332-28.353l8.72-2.015,9.625,4.069a23.674,23.674,0,0,0,4.143,9.018c3.537,5.049,9.546-.174,9.546-.174l-4.069-19.494-19.041-11.466S365.089,669.72,362.2,671.1l-7.641,6.994c-3.353,2.627-13.032,12.988-15.679,13.3S253.1,673,253.1,673h0c-11.4,9.028-17.4,26.96-19.215,39.893,0,0-2.024,6.357.179,9.8l102.056,8.008,21.623,5.974s11.963,4.885,17.768,6.108c7.193,1.512,12.042-.811,12.232-4.79s-5.382-4.417-5.382-4.417-9.083-3.283-13.908-6.113-7.849-8.615-7.849-8.615l7.71.925s16.39,11.376,22.553,14.714,7.377-2.786,7.874-4.656-18.41-20.36-18.41-20.36,17.977,11.082,21.21,13.878,8.023,3.636,9.053,1.761S414.537,723.188,410.419,715.393Z" transform="translate(-233.034 -666.979)" fill="#ffbf9d"/>
                </g>
              </g>
              <g id="Group_4990" data-name="Group 4990" transform="translate(128.005 4.586)">
                <g id="Group_4989" data-name="Group 4989">
                  <path id="Path_8022" data-name="Path 8022" d="M258.947,667.9l-.179.085Z" transform="translate(-258.768 -667.901)" fill="#ffbf9d"/>
                </g>
              </g>
              <g id="Group_4992" data-name="Group 4992" transform="translate(127.883 4.72)">
                <g id="Group_4991" data-name="Group 4991">
                  <path id="Path_8023" data-name="Path 8023" d="M258.766,667.928Z" transform="translate(-258.744 -667.928)" fill="#ffbf9d"/>
                </g>
              </g>
              <g id="Group_4994" data-name="Group 4994" transform="translate(127.906 4.671)">
                <g id="Group_4993" data-name="Group 4993">
                  <path id="Path_8024" data-name="Path 8024" d="M258.848,667.918l-.1.05Z" transform="translate(-258.748 -667.918)" fill="#ffbf9d"/>
                </g>
              </g>
            </g>
            <g id="Group_4998" data-name="Group 4998" transform="translate(88.695 24.41)">
              <g id="Group_4997" data-name="Group 4997">
                <g id="Group_4996" data-name="Group 4996">
                  <path id="Path_8025" data-name="Path 8025" d="M250.945,697.691a4.063,4.063,0,0,1-.094-1.263,7.474,7.474,0,0,1,.1-1.483A10.867,10.867,0,0,1,251.3,693a27.406,27.406,0,0,1,5.223-10.068,58.834,58.834,0,0,1,7.864-8.173,23.506,23.506,0,0,1,3.711-2.87,37.754,37.754,0,0,1-3.353,3.268,75.481,75.481,0,0,0-7.621,8.237,30.031,30.031,0,0,0-5.308,9.744C251.02,695.886,251.1,697.7,250.945,697.691Z" transform="translate(-250.844 -671.886)" fill="#ff9a6c"/>
                </g>
              </g>
            </g>
            <g id="Group_5001" data-name="Group 5001" transform="translate(130.235 16.021)">
              <g id="Group_5000" data-name="Group 5000">
                <g id="Group_4999" data-name="Group 4999">
                  <path id="Path_8026" data-name="Path 8026" d="M269.374,673.633c.035.189-2.537.512-5.492-.5-2.969-.979-4.82-2.79-4.681-2.92.134-.184,2.1,1.279,4.919,2.2C266.922,673.379,269.374,673.4,269.374,673.633Z" transform="translate(-259.195 -670.2)" fill="#ff9a6c"/>
                </g>
              </g>
            </g>
            <g id="Group_5004" data-name="Group 5004" transform="translate(129.653 34.154)">
              <g id="Group_5003" data-name="Group 5003">
                <g id="Group_5002" data-name="Group 5002">
                  <path id="Path_8027" data-name="Path 8027" d="M275.19,680.49c-.08.194-3.751-1.134-8.2-2.965s-7.994-3.472-7.914-3.661,3.751,1.134,8.2,2.965S275.27,680.3,275.19,680.49Z" transform="translate(-259.078 -673.845)" fill="#ff9a6c"/>
                </g>
              </g>
            </g>
            <g id="Group_5007" data-name="Group 5007" transform="translate(120.193 48.404)">
              <g id="Group_5006" data-name="Group 5006">
                <g id="Group_5005" data-name="Group 5005">
                  <path id="Path_8028" data-name="Path 8028" d="M265.479,680.008c-.1.19-1.925-.6-4.2-1.487s-4.153-1.547-4.1-1.756,2.054.144,4.372,1.054S265.578,679.834,265.479,680.008Z" transform="translate(-257.176 -676.71)" fill="#ff9a6c"/>
                </g>
              </g>
            </g>
            <g id="Group_5010" data-name="Group 5010" transform="translate(137.984 42.181)">
              <g id="Group_5009" data-name="Group 5009">
                <g id="Group_5008" data-name="Group 5008">
                  <path id="Path_8029" data-name="Path 8029" d="M265.883,675.5c.085.209-1.786.9-3.179,2.776-1.438,1.845-1.607,3.83-1.83,3.8-.09,0-.189-.512-.06-1.328a6.837,6.837,0,0,1,3.77-4.959C265.341,675.454,265.858,675.409,265.883,675.5Z" transform="translate(-260.753 -675.459)" fill="#ff9a6c"/>
                </g>
              </g>
            </g>
            <g id="Group_5013" data-name="Group 5013" transform="translate(147.051 30.268)">
              <g id="Group_5012" data-name="Group 5012">
                <g id="Group_5011" data-name="Group 5011">
                  <path id="Path_8030" data-name="Path 8030" d="M266.2,673.1c.1.2-1.313.96-2.238,2.592-.97,1.611-.94,3.218-1.159,3.228-.194.07-.592-1.751.507-3.606C264.389,673.447,266.17,672.9,266.2,673.1Z" transform="translate(-262.575 -673.064)" fill="#ff9a6c"/>
                </g>
              </g>
            </g>
            <g id="Group_5016" data-name="Group 5016" transform="translate(147.29 2.033)">
              <g id="Group_5015" data-name="Group 5015">
                <g id="Group_5014" data-name="Group 5014">
                  <path id="Path_8031" data-name="Path 8031" d="M263.447,674.383c-.085.039-.378-.319-.6-1.015a5.517,5.517,0,0,1,1.293-5.337c.517-.523.94-.7.995-.627.149.164-1.164,1.318-1.617,3.3C263.014,672.676,263.651,674.3,263.447,674.383Z" transform="translate(-262.623 -667.388)" fill="#ff9a6c"/>
                </g>
              </g>
            </g>
            <g id="Group_5019" data-name="Group 5019" transform="translate(0 4.812)">
              <g id="Group_5018" data-name="Group 5018">
                <g id="Group_5017" data-name="Group 5017">
                  <path id="Path_8032" data-name="Path 8032" d="M233.243,721.78a12.559,12.559,0,0,0,.139-2.348c.01-.751.03-1.671.1-2.741s.1-2.283.254-3.621a81.455,81.455,0,0,1,4.457-20.449,73.384,73.384,0,0,1,4.835-10.466c.935-1.507,1.756-2.984,2.7-4.253l1.313-1.87,1.308-1.646c3.392-4.173,5.989-6.3,5.865-6.437a13.1,13.1,0,0,0-1.831,1.472,22.122,22.122,0,0,0-2,1.9,35.539,35.539,0,0,0-2.477,2.691l-1.363,1.636c-.453.587-.9,1.219-1.368,1.865-.975,1.264-1.831,2.746-2.8,4.258a69.474,69.474,0,0,0-4.949,10.565,74.92,74.92,0,0,0-4.263,20.688c-.124,1.353-.109,2.577-.134,3.651s-.01,2,.035,2.761A12.845,12.845,0,0,0,233.243,721.78Z" transform="translate(-233.013 -667.946)" fill="#1a2e35"/>
                </g>
              </g>
            </g>
          </g>
          <g id="Group_5022" data-name="Group 5022" transform="translate(26.962 188.871)" opacity="0.3">
            <g id="Group_5021" data-name="Group 5021">
              <path id="Path_8033" data-name="Path 8033" d="M239.986,667.214a51.231,51.231,0,0,1,30.243-2.751h-.005c-17.663-1.085-34.7,10.212-40.8,26.388-.741,1.96-2.189,4.273-4.263,3.965-1.93-.284-2.651-2.7-2.651-4.651C222.5,679.968,230.574,671.143,239.986,667.214Z" transform="translate(-222.506 -663.328)"/>
            </g>
          </g>
          <g id="Group_5024" data-name="Group 5024" transform="translate(280.587 56.594)">
            <g id="Group_5023" data-name="Group 5023">
              <path id="Path_8034" data-name="Path 8034" d="M273.495,658.193a4.97,4.97,0,0,0,1.363-.458c.861-.338,2.079-.89,3.557-1.627a75.7,75.7,0,0,0,20.673-15.281c1.139-1.194,2.025-2.2,2.6-2.92s.881-1.129.836-1.169c-.094-.085-1.482,1.4-3.845,3.681A96.447,96.447,0,0,1,278.146,655.6,51.648,51.648,0,0,0,273.495,658.193Z" transform="translate(-273.494 -636.735)" fill="#fff"/>
            </g>
          </g>
          <g id="Group_5026" data-name="Group 5026" transform="translate(98.591 83.989)">
            <g id="Group_5025" data-name="Group 5025">
              <path id="Path_8035" data-name="Path 8035" d="M236.906,642.244a1.9,1.9,0,0,0,.393.269l1.214.726c1.054.647,2.661,1.522,4.74,2.621a132.874,132.874,0,0,0,18.375,7.73,174.979,174.979,0,0,0,28.741,6.909,276.577,276.577,0,0,0,36.073,2.994c12.849.309,25.08.065,36.2-.184a243.608,243.608,0,0,0,29.482-2.224,114.993,114.993,0,0,0,19.41-4.512c2.233-.756,3.949-1.388,5.084-1.881l1.3-.547a2.019,2.019,0,0,0,.433-.209,2.122,2.122,0,0,0-.463.134l-1.328.468c-1.159.438-2.885,1.025-5.123,1.731a122.585,122.585,0,0,1-19.4,4.238,252.819,252.819,0,0,1-29.418,2.044c-11.107.209-23.339.428-36.158.119a284.18,284.18,0,0,1-35.974-2.92,179.184,179.184,0,0,1-28.676-6.715,143.258,143.258,0,0,1-18.415-7.461c-2.1-1.055-3.726-1.88-4.805-2.483l-1.249-.652A2.369,2.369,0,0,0,236.906,642.244Z" transform="translate(-236.906 -642.243)" fill="#fff"/>
            </g>
          </g>
          <g id="Group_5028" data-name="Group 5028" transform="translate(280.036 125.569)">
            <g id="Group_5027" data-name="Group 5027">
              <path id="Path_8036" data-name="Path 8036" d="M273.383,665.152a9.507,9.507,0,0,0,1.955-.418l5.248-1.432c4.417-1.244,10.505-3.02,17.221-5.029s12.774-3.87,17.151-5.253l5.173-1.687a9.442,9.442,0,0,0,1.865-.721,9.057,9.057,0,0,0-1.96.418l-5.243,1.433c-4.422,1.243-10.511,3.019-17.226,5.024s-12.774,3.87-17.151,5.258c-2.059.671-3.79,1.234-5.168,1.681A9.472,9.472,0,0,0,273.383,665.152Z" transform="translate(-273.383 -650.602)" fill="#fff"/>
            </g>
          </g>
          <g id="Group_5030" data-name="Group 5030" transform="translate(275.45 206.339)">
            <g id="Group_5029" data-name="Group 5029">
              <path id="Path_8037" data-name="Path 8037" d="M272.461,687.813c.065.214,15.808-4.3,35.158-10.088s34.989-10.66,34.924-10.879-15.8,4.3-35.163,10.088S272.391,687.594,272.461,687.813Z" transform="translate(-272.461 -666.839)" fill="#fff"/>
            </g>
          </g>
          <g id="Group_5032" data-name="Group 5032" transform="translate(47.575 38.786)">
            <g id="Group_5031" data-name="Group 5031">
              <path id="Path_8038" data-name="Path 8038" d="M226.651,633.159a11.634,11.634,0,0,0,1.736,1.368c1.149.846,2.845,2.01,4.974,3.4a169.22,169.22,0,0,0,35.611,17.484c2.4.841,4.357,1.472,5.725,1.86a11.283,11.283,0,0,0,2.144.537,11.149,11.149,0,0,0-2.044-.841c-1.477-.552-3.362-1.258-5.626-2.1-4.735-1.811-11.212-4.487-18.156-7.889s-13.018-6.9-17.345-9.546l-5.1-3.168A11.173,11.173,0,0,0,226.651,633.159Z" transform="translate(-226.65 -633.155)" fill="#fff"/>
            </g>
          </g>
          <g id="Group_5034" data-name="Group 5034" transform="translate(16.173 128.361)">
            <g id="Group_5033" data-name="Group 5033">
              <path id="Path_8039" data-name="Path 8039" d="M220.337,651.168a18.77,18.77,0,0,0,2.557,1.214c1.666.741,4.114,1.726,7.173,2.85a166.813,166.813,0,0,0,49.8,9.9c3.253.134,5.894.164,7.715.115a18.615,18.615,0,0,0,2.826-.139,17.88,17.88,0,0,0-2.82-.179c-1.821-.049-4.447-.169-7.69-.373a189.716,189.716,0,0,1-49.633-9.869c-3.074-1.055-5.551-1.95-7.247-2.6A19.355,19.355,0,0,0,220.337,651.168Z" transform="translate(-220.337 -651.163)" fill="#fff"/>
            </g>
          </g>
          <g id="Group_5036" data-name="Group 5036" transform="translate(59.104 190.468)">
            <g id="Group_5035" data-name="Group 5035">
              <path id="Path_8040" data-name="Path 8040" d="M231.436,744.834a3.407,3.407,0,0,0-.08-.876l-.393-2.487c-.189-1.074-.4-2.387-.552-3.93s-.428-3.288-.5-5.233l-.184-3.054c-.06-1.06-.03-2.164-.045-3.308-.075-2.293.094-4.735.214-7.3a99.212,99.212,0,0,1,7.824-32.392c1.069-2.343,2.034-4.591,3.139-6.6.542-1.01,1.015-2.01,1.552-2.925l1.557-2.631c.955-1.7,1.99-3.129,2.835-4.427s1.627-2.378,2.288-3.248l1.477-2.029a3.767,3.767,0,0,0,.478-.746,3.652,3.652,0,0,0-.607.642l-1.6,1.94a38.662,38.662,0,0,0-2.413,3.178c-.885,1.279-1.96,2.691-2.95,4.387l-1.612,2.621c-.557.91-1.049,1.91-1.607,2.92-1.139,2.009-2.139,4.263-3.233,6.616a95.869,95.869,0,0,0-7.884,32.641c-.1,2.591-.244,5.049-.139,7.357.035,1.154.015,2.268.089,3.333l.239,3.069c.109,1.955.423,3.706.627,5.248a38.588,38.588,0,0,0,.691,3.93l.542,2.457A3.7,3.7,0,0,0,231.436,744.834Z" transform="translate(-228.968 -663.649)" fill="#fff"/>
            </g>
          </g>
          <g id="Group_5038" data-name="Group 5038" transform="translate(0.636 186.652)">
            <g id="Group_5037" data-name="Group 5037">
              <path id="Path_8041" data-name="Path 8041" d="M217.241,699.558c.09,0,.129-1.284.487-3.557a30.934,30.934,0,0,1,3.094-9.187,38.646,38.646,0,0,1,8.909-11.227,46.739,46.739,0,0,1,15.146-8.859,59.215,59.215,0,0,1,17.355-3.059,111.388,111.388,0,0,1,14.48.542c4.119.388,7.441.8,9.745,1.06l2.651.288a4.422,4.422,0,0,0,.93.045,3.78,3.78,0,0,0-.91-.209l-2.632-.437c-2.288-.363-5.6-.861-9.725-1.323a103.828,103.828,0,0,0-14.565-.721,58.732,58.732,0,0,0-17.6,3.039,46.547,46.547,0,0,0-15.375,9.073,38.2,38.2,0,0,0-8.924,11.53,29.142,29.142,0,0,0-2.895,9.4,20.2,20.2,0,0,0-.189,2.671A3.875,3.875,0,0,0,217.241,699.558Z" transform="translate(-217.213 -662.882)" fill="#fff"/>
            </g>
          </g>
          <g id="Group_5040" data-name="Group 5040" transform="translate(170.275 177.667)">
            <g id="Group_5039" data-name="Group 5039">
              <path id="Path_8042" data-name="Path 8042" d="M251.317,661.1a3.813,3.813,0,0,0,.9.154l2.567.264c2.343.194,5.546.463,9.456.791,7.989.617,19.036,1.373,31.248,2.01s23.284,1.025,31.3,1.109c4.009.03,7.252.045,9.5-.03l2.581-.08a3.764,3.764,0,0,0,.9-.084,3.627,3.627,0,0,0-.9-.08l-2.577-.075c-2.353-.055-5.566-.134-9.481-.229-8.008-.239-19.061-.711-31.273-1.353l-31.248-1.766c-3.915-.219-7.123-.4-9.476-.532l-2.577-.114A4.231,4.231,0,0,0,251.317,661.1Z" transform="translate(-251.317 -661.075)" fill="#fff"/>
            </g>
          </g>
          <g id="Group_5043" data-name="Group 5043" transform="translate(127.735 162.747)" opacity="0.3">
            <g id="Group_5042" data-name="Group 5042">
              <g id="Group_5041" data-name="Group 5041">
                <path id="Path_8043" data-name="Path 8043" d="M276.147,676.3c-9.939,2.92-23.7,3.631-33.382-.055,7.576,10.754,22.19,14.654,34.869,11.152s24.379-16.2,25.359-29.318C296.85,666.418,286.086,673.372,276.147,676.3Z" transform="translate(-242.765 -658.076)"/>
              </g>
            </g>
          </g>
          <g id="Group_5045" data-name="Group 5045" transform="translate(80.575 170.561)">
            <g id="Group_5044" data-name="Group 5044">
              <path id="Path_8044" data-name="Path 8044" d="M233.284,659.657a2.9,2.9,0,0,0,.791.224l2.293.488c1.995.408,4.89.95,8.476,1.582,7.173,1.258,17.116,2.806,28.149,4.154s21.061,2.243,28.323,2.746c3.636.258,6.576.428,8.61.512l2.343.079a2.915,2.915,0,0,0,.821-.03,3.266,3.266,0,0,0-.811-.134l-2.333-.234c-2.149-.194-5.049-.453-8.58-.772-7.247-.651-17.251-1.636-28.274-2.984s-20.961-2.8-28.154-3.91c-3.5-.547-6.382-.995-8.516-1.323l-2.323-.333A3.252,3.252,0,0,0,233.284,659.657Z" transform="translate(-233.284 -659.647)" fill="#fff"/>
            </g>
          </g>
          <g id="Group_5047" data-name="Group 5047" transform="translate(75.39 100.381)" opacity="0.3">
            <g id="Group_5046" data-name="Group 5046">
              <path id="Path_8045" data-name="Path 8045" d="M253.951,645.538c2.487,28.537-5.293,56.86-12.993,84.452a12.01,12.01,0,0,1-2.119,4.755c-1.149,1.323-3.139,2.094-4.7,1.3-2.407-1.214-2.084-4.7-1.4-7.307q10.707-41.015,21.424-82.04" transform="translate(-232.242 -645.538)"/>
            </g>
          </g>
        </g>
        <g id="Group_5060" data-name="Group 5060" transform="translate(176.627 325.078)">
          <g id="Group_5054" data-name="Group 5054">
            <g id="Group_5050" data-name="Group 5050" transform="translate(0.383 0.084)">
              <g id="Group_5049" data-name="Group 5049">
                <path id="Path_8046" data-name="Path 8046" d="M571.947,657.141l-32.4,159.076H258.287a5.613,5.613,0,0,1-5.616-5.616h0a5.613,5.613,0,0,1,5.616-5.616h56.622l30.039-147.949a6.152,6.152,0,0,1,5.954-4.919l214.962-2.343A6.14,6.14,0,0,1,571.947,657.141Z" transform="translate(-252.671 -649.774)" fill="#011865"/>
              </g>
            </g>
            <g id="Group_5053" data-name="Group 5053">
              <g id="Group_5052" data-name="Group 5052">
                <g id="Group_5051" data-name="Group 5051">
                  <path id="Path_8047" data-name="Path 8047" d="M572.253,657.208s.035-.159.09-.478a5.654,5.654,0,0,0,.03-1.447,6.2,6.2,0,0,0-2.979-4.651,6.433,6.433,0,0,0-1.856-.736,9.788,9.788,0,0,0-2.213-.134c-1.542.01-3.233.02-5.059.035l-12.659.1c-19.076.184-46.768.447-81.279.771-17.256.174-36.222.368-56.662.572q-15.325.157-31.74.328-8.193.082-16.649.169l-8.511.089c-.721.02-1.4-.01-2.174.055a6.463,6.463,0,0,0-5.258,3.865,10.111,10.111,0,0,0-.592,2.164l-.433,2.139c-.294,1.428-.582,2.86-.876,4.3q-.88,4.32-1.771,8.685-1.776,8.745-3.6,17.7-3.641,17.907-7.446,36.625c-5.074,24.941-10.346,50.887-15.778,77.613l.378-.308H259.533a10.374,10.374,0,0,0-2.189.129,6.014,6.014,0,0,0-1.617,11.157,6.1,6.1,0,0,0,2.646.711l2.6.015h10.292q10.259-.008,20.4-.005,20.272,0,39.988,0l76.146-.015,132.056-.07h.244l.045-.239c9.9-48.892,17.962-88.671,23.548-116.233,2.766-13.773,4.925-24.493,6.392-31.78l1.642-8.292c.368-1.87.532-2.83.532-2.83s-.224.95-.617,2.815-.97,4.646-1.731,8.272c-1.5,7.282-3.711,17.992-6.546,31.75-5.646,27.552-13.789,67.307-23.8,116.178l.294-.234-132.056-.07-76.146-.015q-19.705-.007-39.988,0-10.14,0-20.4-.005H260.971l-2.567-.01a5.339,5.339,0,0,1-2.3-.617,5.232,5.232,0,0,1,1.4-9.715,9.625,9.625,0,0,1,2.03-.114h23.075c11.073,0,21.971,0,32.606,0h.313l.06-.308c5.422-26.732,10.69-52.677,15.749-77.618q3.79-18.713,7.426-36.635,1.813-8.954,3.586-17.7.88-4.372,1.756-8.685l.875-4.3.433-2.139a9.486,9.486,0,0,1,.542-2.03,5.791,5.791,0,0,1,4.705-3.462c.657-.06,1.413-.035,2.114-.055l8.511-.095,16.649-.194q16.393-.187,31.741-.363c20.439-.243,39.4-.462,56.657-.666,34.506-.428,62.2-.771,81.279-1,4.765-.065,8.993-.119,12.654-.169,1.831-.03,3.517-.05,5.059-.074a9.659,9.659,0,0,1,2.179.119,6.267,6.267,0,0,1,1.821.7,6.138,6.138,0,0,1,2.974,4.536A7.833,7.833,0,0,1,572.253,657.208Z" transform="translate(-252.594 -649.757)" fill="#011865"/>
                </g>
              </g>
            </g>
          </g>
          <g id="Group_5056" data-name="Group 5056" transform="translate(190.056 70.962)">
            <g id="Group_5055" data-name="Group 5055">
              <path id="Path_8048" data-name="Path 8048" d="M290.8,673.315a9.289,9.289,0,1,0,9.287-9.292A9.288,9.288,0,0,0,290.8,673.315Z" transform="translate(-290.802 -664.023)" fill="#011865"/>
            </g>
          </g>
          <g id="Group_5059" data-name="Group 5059" transform="translate(70.505 8.69)">
            <g id="Group_5058" data-name="Group 5058">
              <g id="Group_5057" data-name="Group 5057">
                <path id="Path_8049" data-name="Path 8049" d="M515.664,651.554s-.328-.025-.97-.035l-2.845-.015c-2.527,0-6.208,0-10.933.015-9.526.044-23.259.109-40.217.194-33.979.239-80.876.567-132.678.935q-9.715.074-19.186.154-2.365.015-4.716.04a12.132,12.132,0,0,0-2.408.144,6.722,6.722,0,0,0-5.138,4.8c-.348,1.557-.612,3.03-.92,4.536-2.378,11.983-4.671,23.544-6.855,34.556-4.352,22.021-8.272,41.853-11.57,58.517-3.258,16.644-5.9,30.119-7.73,39.461l-2.064,10.739c-.224,1.209-.393,2.139-.517,2.8-.109.632-.149.955-.149.955s.09-.313.229-.94l.592-2.781c.512-2.477,1.253-6.079,2.209-10.71,1.885-9.331,4.611-22.791,7.974-39.416,3.338-16.654,7.317-36.476,11.729-58.482,2.2-11.013,4.507-22.568,6.9-34.546.3-1.483.587-3.034.915-4.482a5.932,5.932,0,0,1,4.547-4.243,11.55,11.55,0,0,1,2.263-.13c1.567-.015,3.139-.025,4.716-.04l19.191-.149c51.8-.453,98.694-.866,132.673-1.164l40.212-.438c4.731-.07,8.407-.124,10.933-.164l2.845-.059C515.335,651.583,515.664,651.554,515.664,651.554Z" transform="translate(-266.768 -651.504)" fill="#011865"/>
              </g>
            </g>
          </g>
        </g>
        <g id="Group_5263" data-name="Group 5263" transform="translate(111.34)">
          <g id="Group_5252" data-name="Group 5252">
            <g id="Group_5062" data-name="Group 5062" transform="translate(9.033 92.214)">
              <g id="Group_5061" data-name="Group 5061">
                <path id="Path_8050" data-name="Path 8050" d="M241.325,602.943a104.136,104.136,0,0,0,33.238,78.628q7.424-21.519,14.853-43.037" transform="translate(-241.285 -602.943)" fill="#1a2e35"/>
              </g>
            </g>
            <g id="Group_5243" data-name="Group 5243">
              <g id="Group_5064" data-name="Group 5064">
                <g id="Group_5063" data-name="Group 5063">
                  <path id="Path_8051" data-name="Path 8051" d="M360.537,591.012c-12.754-6.969-28.159-7.969-42.41-5.119S290.6,595.2,278.02,602.478c-7.058,4.084-14.1,8.57-19.171,14.952-9.257,11.65-18.41,30.785-19.305,45.639-.721,12.013,3.88,42.082,8.959,53,4.656,10.008,26.463,17.629,37.227,20.1l98.753-114.85A50.006,50.006,0,0,0,360.537,591.012Z" transform="translate(-239.469 -584.405)" fill="#1a2e35"/>
                </g>
              </g>
              <g id="Group_5066" data-name="Group 5066" transform="translate(114.418 17.869)">
                <g id="Group_5065" data-name="Group 5065">
                  <path id="Path_8052" data-name="Path 8052" d="M286.143,592.23,262.471,588c12.943,30.816,16.45,101.3,23.851,133.892,8.73-12.66,28.995-51.225,27.91-66.565S314.273,589.614,286.143,592.23Z" transform="translate(-262.471 -587.997)" fill="#1a2e35"/>
                </g>
              </g>
              <g id="Group_5067" data-name="Group 5067" transform="translate(25.71 22.1)">
                <path id="Path_8053" data-name="Path 8053" d="M244.779,640.149c1.273-18.007,12.928-32.775,30.417-37.237L329.719,589c23.558-2.542,39.291,26.438,40.839,50.085,1.711,26.274,2.766,54-.3,73.614-6.173,39.435-36.376,44.519-36.376,44.519-.005-.055-.01,18.758-.025,30.273l-18.245,75.529-58.8-81.219L244.639,640.627C244.624,639.955,244.714,641.044,244.779,640.149Z" transform="translate(-244.638 -588.848)" fill="#ffbf9d"/>
              </g>
              <g id="Group_5083" data-name="Group 5083" transform="translate(129.695 97.573)">
                <g id="Group_5082" data-name="Group 5082">
                  <g id="Group_5081" data-name="Group 5081">
                    <g id="Group_5080" data-name="Group 5080">
                      <g id="Group_5079" data-name="Group 5079">
                        <g id="Group_5078" data-name="Group 5078">
                          <g id="Group_5077" data-name="Group 5077">
                            <g id="Group_5076" data-name="Group 5076">
                              <g id="Group_5075" data-name="Group 5075">
                                <g id="Group_5074" data-name="Group 5074">
                                  <g id="Group_5073" data-name="Group 5073">
                                    <g id="Group_5072" data-name="Group 5072">
                                      <g id="Group_5071" data-name="Group 5071">
                                        <g id="Group_5070" data-name="Group 5070">
                                          <g id="Group_5069" data-name="Group 5069">
                                            <g id="Group_5068" data-name="Group 5068">
                                              <path id="Path_8054" data-name="Path 8054" d="M275.628,608.58a5.052,5.052,0,0,1-4.865,5.108,4.828,4.828,0,0,1-5.218-4.546,5.052,5.052,0,0,1,4.855-5.114A4.842,4.842,0,0,1,275.628,608.58Z" transform="translate(-265.542 -604.02)" fill="#1a2e35"/>
                                            </g>
                                          </g>
                                        </g>
                                      </g>
                                    </g>
                                  </g>
                                </g>
                              </g>
                            </g>
                          </g>
                        </g>
                      </g>
                    </g>
                  </g>
                </g>
              </g>
              <g id="Group_5100" data-name="Group 5100" transform="translate(125.725 82.499)">
                <g id="Group_5099" data-name="Group 5099">
                  <g id="Group_5098" data-name="Group 5098">
                    <g id="Group_5097" data-name="Group 5097">
                      <g id="Group_5096" data-name="Group 5096">
                        <g id="Group_5095" data-name="Group 5095">
                          <g id="Group_5094" data-name="Group 5094">
                            <g id="Group_5093" data-name="Group 5093">
                              <g id="Group_5092" data-name="Group 5092">
                                <g id="Group_5091" data-name="Group 5091">
                                  <g id="Group_5090" data-name="Group 5090">
                                    <g id="Group_5089" data-name="Group 5089">
                                      <g id="Group_5088" data-name="Group 5088">
                                        <g id="Group_5087" data-name="Group 5087">
                                          <g id="Group_5086" data-name="Group 5086">
                                            <g id="Group_5085" data-name="Group 5085">
                                              <g id="Group_5084" data-name="Group 5084">
                                                <path id="Path_8055" data-name="Path 8055" d="M284.73,606.283c-.627.662-4.462-2.169-9.9-2.139-5.437-.055-9.421,2.755-10.013,2.089-.293-.294.343-1.487,2.079-2.756a13.864,13.864,0,0,1,8.014-2.487,13.308,13.308,0,0,1,7.884,2.522C284.466,604.8,285.038,605.984,284.73,606.283Z" transform="translate(-264.744 -600.99)" fill="#1a2e35"/>
                                              </g>
                                            </g>
                                          </g>
                                        </g>
                                      </g>
                                    </g>
                                  </g>
                                </g>
                              </g>
                            </g>
                          </g>
                        </g>
                      </g>
                    </g>
                  </g>
                </g>
              </g>
              <g id="Group_5116" data-name="Group 5116" transform="translate(82.266 97.573)">
                <g id="Group_5115" data-name="Group 5115">
                  <g id="Group_5114" data-name="Group 5114">
                    <g id="Group_5113" data-name="Group 5113">
                      <g id="Group_5112" data-name="Group 5112">
                        <g id="Group_5111" data-name="Group 5111">
                          <g id="Group_5110" data-name="Group 5110">
                            <g id="Group_5109" data-name="Group 5109">
                              <g id="Group_5108" data-name="Group 5108">
                                <g id="Group_5107" data-name="Group 5107">
                                  <g id="Group_5106" data-name="Group 5106">
                                    <g id="Group_5105" data-name="Group 5105">
                                      <g id="Group_5104" data-name="Group 5104">
                                        <g id="Group_5103" data-name="Group 5103">
                                          <g id="Group_5102" data-name="Group 5102">
                                            <g id="Group_5101" data-name="Group 5101">
                                              <path id="Path_8056" data-name="Path 8056" d="M266.1,608.58a5.056,5.056,0,0,1-4.865,5.108,4.833,4.833,0,0,1-5.223-4.546,5.06,5.06,0,0,1,4.86-5.114A4.842,4.842,0,0,1,266.1,608.58Z" transform="translate(-256.007 -604.02)" fill="#1a2e35"/>
                                            </g>
                                          </g>
                                        </g>
                                      </g>
                                    </g>
                                  </g>
                                </g>
                              </g>
                            </g>
                          </g>
                        </g>
                      </g>
                    </g>
                  </g>
                </g>
              </g>
              <g id="Group_5133" data-name="Group 5133" transform="translate(74.054 82.499)">
                <g id="Group_5132" data-name="Group 5132">
                  <g id="Group_5131" data-name="Group 5131">
                    <g id="Group_5130" data-name="Group 5130">
                      <g id="Group_5129" data-name="Group 5129">
                        <g id="Group_5128" data-name="Group 5128">
                          <g id="Group_5127" data-name="Group 5127">
                            <g id="Group_5126" data-name="Group 5126">
                              <g id="Group_5125" data-name="Group 5125">
                                <g id="Group_5124" data-name="Group 5124">
                                  <g id="Group_5123" data-name="Group 5123">
                                    <g id="Group_5122" data-name="Group 5122">
                                      <g id="Group_5121" data-name="Group 5121">
                                        <g id="Group_5120" data-name="Group 5120">
                                          <g id="Group_5119" data-name="Group 5119">
                                            <g id="Group_5118" data-name="Group 5118">
                                              <g id="Group_5117" data-name="Group 5117">
                                                <path id="Path_8057" data-name="Path 8057" d="M274.341,606.283c-.627.662-4.467-2.169-9.9-2.139-5.437-.055-9.421,2.755-10.013,2.089-.288-.294.338-1.482,2.079-2.756a13.864,13.864,0,0,1,8.013-2.487,13.308,13.308,0,0,1,7.884,2.522C274.072,604.8,274.649,605.984,274.341,606.283Z" transform="translate(-254.356 -600.99)" fill="#1a2e35"/>
                                              </g>
                                            </g>
                                          </g>
                                        </g>
                                      </g>
                                    </g>
                                  </g>
                                </g>
                              </g>
                            </g>
                          </g>
                        </g>
                      </g>
                    </g>
                  </g>
                </g>
              </g>
              <g id="Group_5150" data-name="Group 5150" transform="translate(108.4 85.192)">
                <g id="Group_5149" data-name="Group 5149">
                  <g id="Group_5148" data-name="Group 5148">
                    <g id="Group_5147" data-name="Group 5147">
                      <g id="Group_5146" data-name="Group 5146">
                        <g id="Group_5145" data-name="Group 5145">
                          <g id="Group_5144" data-name="Group 5144">
                            <g id="Group_5143" data-name="Group 5143">
                              <g id="Group_5142" data-name="Group 5142">
                                <g id="Group_5141" data-name="Group 5141">
                                  <g id="Group_5140" data-name="Group 5140">
                                    <g id="Group_5139" data-name="Group 5139">
                                      <g id="Group_5138" data-name="Group 5138">
                                        <g id="Group_5137" data-name="Group 5137">
                                          <g id="Group_5136" data-name="Group 5136">
                                            <g id="Group_5135" data-name="Group 5135">
                                              <g id="Group_5134" data-name="Group 5134">
                                                <path id="Path_8058" data-name="Path 8058" d="M263.912,646.859c-.025-.309,3.353-.9,8.829-1.611,1.393-.149,2.706-.428,2.935-1.373.328-1.01-.259-2.5-.935-4.119q-1.97-5.037-4.129-10.57c-5.74-15.047-9.9-27.423-9.292-27.652s5.755,11.789,11.5,26.841c1.378,3.711,2.7,7.247,3.959,10.635.527,1.577,1.438,3.363.731,5.447a3.492,3.492,0,0,1-2.283,2.039,9.506,9.506,0,0,1-2.358.333C267.354,647.138,263.931,647.168,263.912,646.859Z" transform="translate(-261.261 -601.531)" fill="#1a2e35"/>
                                              </g>
                                            </g>
                                          </g>
                                        </g>
                                      </g>
                                    </g>
                                  </g>
                                </g>
                              </g>
                            </g>
                          </g>
                        </g>
                      </g>
                    </g>
                  </g>
                </g>
              </g>
              <g id="Group_5155" data-name="Group 5155" transform="translate(62.656 176.448)">
                <g id="Group_5154" data-name="Group 5154">
                  <g id="Group_5153" data-name="Group 5153">
                    <g id="Group_5152" data-name="Group 5152">
                      <g id="Group_5151" data-name="Group 5151">
                        <path id="Path_8059" data-name="Path 8059" d="M252.065,619.877s12.833,27.08,52.284,23.3l.01-9.277S278.379,635.616,252.065,619.877Z" transform="translate(-252.065 -619.877)" fill="#ff9a6c"/>
                      </g>
                    </g>
                  </g>
                </g>
              </g>
              <g id="Group_5168" data-name="Group 5168" transform="translate(67.506 64.074)">
                <g id="Group_5167" data-name="Group 5167">
                  <g id="Group_5166" data-name="Group 5166">
                    <g id="Group_5165" data-name="Group 5165">
                      <g id="Group_5164" data-name="Group 5164">
                        <g id="Group_5163" data-name="Group 5163">
                          <g id="Group_5162" data-name="Group 5162">
                            <g id="Group_5161" data-name="Group 5161">
                              <g id="Group_5160" data-name="Group 5160">
                                <g id="Group_5159" data-name="Group 5159">
                                  <g id="Group_5158" data-name="Group 5158">
                                    <g id="Group_5157" data-name="Group 5157">
                                      <g id="Group_5156" data-name="Group 5156">
                                        <path id="Path_8060" data-name="Path 8060" d="M277.866,601.341c-.532,1.482-5.969.791-12.346,1.577-6.4.656-11.545,2.532-12.4,1.208-.378-.631.517-2.029,2.6-3.462a21.626,21.626,0,0,1,18.847-2.124C276.911,599.48,278.1,600.639,277.866,601.341Z" transform="translate(-253.04 -597.286)" fill="#1a2e35"/>
                                      </g>
                                    </g>
                                  </g>
                                </g>
                              </g>
                            </g>
                          </g>
                        </g>
                      </g>
                    </g>
                  </g>
                </g>
              </g>
              <g id="Group_5181" data-name="Group 5181" transform="translate(125.406 65.532)">
                <g id="Group_5180" data-name="Group 5180">
                  <g id="Group_5179" data-name="Group 5179">
                    <g id="Group_5178" data-name="Group 5178">
                      <g id="Group_5177" data-name="Group 5177">
                        <g id="Group_5176" data-name="Group 5176">
                          <g id="Group_5175" data-name="Group 5175">
                            <g id="Group_5174" data-name="Group 5174">
                              <g id="Group_5173" data-name="Group 5173">
                                <g id="Group_5172" data-name="Group 5172">
                                  <g id="Group_5171" data-name="Group 5171">
                                    <g id="Group_5170" data-name="Group 5170">
                                      <g id="Group_5169" data-name="Group 5169">
                                        <path id="Path_8061" data-name="Path 8061" d="M283.209,603.195c-.955,1.239-4.706-.035-9.212-.089-4.507-.209-8.322.851-9.2-.438-.388-.627.209-1.865,1.875-3.039a13.333,13.333,0,0,1,14.838.423C283.1,601.32,283.627,602.588,283.209,603.195Z" transform="translate(-264.68 -597.579)" fill="#1a2e35"/>
                                      </g>
                                    </g>
                                  </g>
                                </g>
                              </g>
                            </g>
                          </g>
                        </g>
                      </g>
                    </g>
                  </g>
                </g>
              </g>
              <g id="Group_5186" data-name="Group 5186" transform="translate(15.981 6.829)">
                <g id="Group_5185" data-name="Group 5185">
                  <g id="Group_5184" data-name="Group 5184">
                    <g id="Group_5183" data-name="Group 5183">
                      <g id="Group_5182" data-name="Group 5182">
                        <path id="Path_8062" data-name="Path 8062" d="M367.616,615.287c-2.408-5.934-8.919-9.5-15.316-9.819s-12.639,2.1-18.186,5.3c-23.478,13.57-35.546,46.35-58.746,60.392-5.705,3.452-13.132.288-17.987,4.865s-8,11.883-5.317,17.992c-3.114-4.278-6.272-8.63-8.048-13.614s-1.995-10.784.652-15.37c2.01-3.477,5.551-6.133,6.526-10.028.855-3.427-.5-7.014-.348-10.541.149-3.6,1.84-6.929,3.611-10.058,9.088-16.072,21.588-30.611,37.69-39.65,10.515-5.9,22.543-9.356,34.6-8.949s24.1,4.84,32.92,13.068c5.188,4.84,10.645,9.844,7.949,16.41" transform="translate(-242.682 -585.777)" fill="#1a2e35"/>
                      </g>
                    </g>
                  </g>
                </g>
              </g>
              <g id="Group_5224" data-name="Group 5224" transform="translate(9.996 99.845)">
                <g id="Group_5204" data-name="Group 5204">
                  <g id="Group_5203" data-name="Group 5203">
                    <g id="Group_5202" data-name="Group 5202">
                      <g id="Group_5201" data-name="Group 5201">
                        <g id="Group_5200" data-name="Group 5200">
                          <g id="Group_5199" data-name="Group 5199">
                            <g id="Group_5198" data-name="Group 5198">
                              <g id="Group_5197" data-name="Group 5197">
                                <g id="Group_5196" data-name="Group 5196">
                                  <g id="Group_5195" data-name="Group 5195">
                                    <g id="Group_5194" data-name="Group 5194">
                                      <g id="Group_5193" data-name="Group 5193">
                                        <g id="Group_5192" data-name="Group 5192">
                                          <g id="Group_5191" data-name="Group 5191">
                                            <g id="Group_5190" data-name="Group 5190">
                                              <g id="Group_5189" data-name="Group 5189">
                                                <g id="Group_5188" data-name="Group 5188">
                                                  <g id="Group_5187" data-name="Group 5187">
                                                    <path id="Path_8063" data-name="Path 8063" d="M262.731,606.6c-.413-1.129-20.976-8.551-21.25,13.306-.264,21.235,21.16,17.057,21.205,16.45S262.731,606.6,262.731,606.6Z" transform="translate(-241.479 -604.477)" fill="#ffbf9d"/>
                                                  </g>
                                                </g>
                                              </g>
                                            </g>
                                          </g>
                                        </g>
                                      </g>
                                    </g>
                                  </g>
                                </g>
                              </g>
                            </g>
                          </g>
                        </g>
                      </g>
                    </g>
                  </g>
                </g>
                <g id="Group_5223" data-name="Group 5223" transform="translate(5.323 6.928)">
                  <g id="Group_5222" data-name="Group 5222">
                    <g id="Group_5221" data-name="Group 5221">
                      <g id="Group_5220" data-name="Group 5220">
                        <g id="Group_5219" data-name="Group 5219">
                          <g id="Group_5218" data-name="Group 5218">
                            <g id="Group_5217" data-name="Group 5217">
                              <g id="Group_5216" data-name="Group 5216">
                                <g id="Group_5215" data-name="Group 5215">
                                  <g id="Group_5214" data-name="Group 5214">
                                    <g id="Group_5213" data-name="Group 5213">
                                      <g id="Group_5212" data-name="Group 5212">
                                        <g id="Group_5211" data-name="Group 5211">
                                          <g id="Group_5210" data-name="Group 5210">
                                            <g id="Group_5209" data-name="Group 5209">
                                              <g id="Group_5208" data-name="Group 5208">
                                                <g id="Group_5207" data-name="Group 5207">
                                                  <g id="Group_5206" data-name="Group 5206">
                                                    <g id="Group_5205" data-name="Group 5205">
                                                      <path id="Path_8064" data-name="Path 8064" d="M251.957,622.709c-.094-.069-.373.254-1,.537a3.706,3.706,0,0,1-2.766.03c-2.238-.846-4.094-4.422-4.158-8.252a12.2,12.2,0,0,1,1.084-5.288c.662-1.547,1.676-2.621,2.81-2.81a1.878,1.878,0,0,1,2.174,1.035c.279.592.139,1.015.249,1.055.06.055.463-.353.3-1.229a2.341,2.341,0,0,0-.826-1.338,2.758,2.758,0,0,0-2.039-.562c-1.637.1-3.124,1.591-3.895,3.258a12.6,12.6,0,0,0-1.338,5.9c.1,4.283,2.248,8.307,5.313,9.222a3.953,3.953,0,0,0,3.387-.532C251.912,623.221,252.032,622.749,251.957,622.709Z" transform="translate(-242.549 -605.87)" fill="#ff9a6c"/>
                                                    </g>
                                                  </g>
                                                </g>
                                              </g>
                                            </g>
                                          </g>
                                        </g>
                                      </g>
                                    </g>
                                  </g>
                                </g>
                              </g>
                            </g>
                          </g>
                        </g>
                      </g>
                    </g>
                  </g>
                </g>
              </g>
              <g id="Group_5230" data-name="Group 5230" transform="translate(22.802 19.488)">
                <g id="Group_5229" data-name="Group 5229">
                  <g id="Group_5228" data-name="Group 5228">
                    <g id="Group_5227" data-name="Group 5227">
                      <g id="Group_5226" data-name="Group 5226">
                        <g id="Group_5225" data-name="Group 5225">
                          <path id="Path_8065" data-name="Path 8065" d="M244.053,659.885a7.948,7.948,0,0,0,1.283-.711c.811-.517,2.064-1.209,3.561-2.263a73.238,73.238,0,0,0,11.461-10.436,203.166,203.166,0,0,0,14.022-18.216c5.009-7.024,10.51-14.8,17.524-21.822a66.889,66.889,0,0,1,11.306-8.933,55.162,55.162,0,0,1,12.217-5.547,60.506,60.506,0,0,1,22.5-2.761,58.015,58.015,0,0,1,15.067,2.955c1.746.527,3.034,1.114,3.935,1.458a8.308,8.308,0,0,0,1.388.493,8.069,8.069,0,0,0-1.308-.672,35.981,35.981,0,0,0-3.89-1.636,55.043,55.043,0,0,0-15.142-3.278,60.1,60.1,0,0,0-22.817,2.592,55.258,55.258,0,0,0-12.436,5.581,67.132,67.132,0,0,0-11.5,9.058c-7.1,7.108-12.6,14.948-17.574,22a216.8,216.8,0,0,1-13.8,18.276A78.511,78.511,0,0,1,248.674,656.6c-1.452,1.1-2.666,1.835-3.442,2.4A9.18,9.18,0,0,0,244.053,659.885Z" transform="translate(-244.053 -588.322)" fill="#375a64"/>
                        </g>
                      </g>
                    </g>
                  </g>
                </g>
              </g>
              <g id="Group_5242" data-name="Group 5242" transform="translate(16.94 127.127)">
                <g id="Group_5235" data-name="Group 5235" transform="translate(0.437 0.176)">
                  <g id="Group_5234" data-name="Group 5234">
                    <g id="Group_5233" data-name="Group 5233">
                      <g id="Group_5232" data-name="Group 5232">
                        <g id="Group_5231" data-name="Group 5231">
                          <path id="Path_8066" data-name="Path 8066" d="M247.9,610.061a4.175,4.175,0,1,0,.99.313" transform="translate(-242.962 -609.997)" fill="#fff"/>
                        </g>
                      </g>
                    </g>
                  </g>
                </g>
                <g id="Group_5241" data-name="Group 5241">
                  <g id="Group_5240" data-name="Group 5240">
                    <g id="Group_5239" data-name="Group 5239">
                      <g id="Group_5238" data-name="Group 5238">
                        <g id="Group_5237" data-name="Group 5237">
                          <g id="Group_5236" data-name="Group 5236">
                            <path id="Path_8067" data-name="Path 8067" d="M249.239,610.515a5.742,5.742,0,0,1,1.91,2.85,3.606,3.606,0,0,1-.831,3.338,3.715,3.715,0,0,1-6.531-2.084,3.6,3.6,0,0,1,1.253-3.2,5.656,5.656,0,0,1,3.208-1.219c.01-.054-.328-.224-.995-.239a4.356,4.356,0,0,0-2.651.931,4.232,4.232,0,0,0-1.7,3.83,4.557,4.557,0,0,0,8.083,2.571,4.238,4.238,0,0,0,.826-4.109,4.333,4.333,0,0,0-1.627-2.288C249.632,610.525,249.259,610.465,249.239,610.515Z" transform="translate(-242.875 -609.962)" fill="#1a2e35"/>
                          </g>
                        </g>
                      </g>
                    </g>
                  </g>
                </g>
              </g>
            </g>
            <g id="Group_5245" data-name="Group 5245" transform="translate(27.939 66.905)">
              <g id="Group_5244" data-name="Group 5244">
                <path id="Path_8068" data-name="Path 8068" d="M245.291,628.009c-.333,5.8-.6,11.928,2.079,17.082s9.436,8.66,14.48,5.775c4.114-2.353,5.347-7.621,6.044-12.306,2.015-13.525,2.935-27.2,5.064-40.7Z" transform="translate(-245.086 -597.855)" fill="#1a2e35"/>
              </g>
            </g>
            <g id="Group_5248" data-name="Group 5248" transform="translate(28.512 25.244)">
              <g id="Group_5247" data-name="Group 5247">
                <g id="Group_5246" data-name="Group 5246">
                  <path id="Path_8069" data-name="Path 8069" d="M352.376,590.472c-.02.124-1.875-.354-5.278-.463a36.419,36.419,0,0,0-14.052,2.567,46.111,46.111,0,0,0-8.8,4.536,94.685,94.685,0,0,0-9.083,6.934,109.083,109.083,0,0,0-17.783,19.17c-2.7,3.785-5.089,7.681-7.675,11.287a54.04,54.04,0,0,1-8.516,9.575,94.583,94.583,0,0,1-17.942,12c-5.437,2.875-9.978,4.885-13.107,6.272L246.5,663.9a6.206,6.206,0,0,1-1.3.467,5.685,5.685,0,0,1,1.2-.681l3.537-1.751c3.069-1.522,7.551-3.646,12.9-6.6a97.91,97.91,0,0,0,17.619-12.087,53.563,53.563,0,0,0,8.292-9.431c2.542-3.566,4.925-7.466,7.655-11.3a107.083,107.083,0,0,1,18.042-19.32,92.5,92.5,0,0,1,9.257-6.924,46.154,46.154,0,0,1,9.043-4.5,35.028,35.028,0,0,1,14.371-2.239,24.447,24.447,0,0,1,3.93.547A5.838,5.838,0,0,1,352.376,590.472Z" transform="translate(-245.201 -589.479)" fill="#375a64"/>
                </g>
              </g>
            </g>
            <g id="Group_5251" data-name="Group 5251" transform="translate(3.888 56.697)">
              <g id="Group_5250" data-name="Group 5250">
                <g id="Group_5249" data-name="Group 5249">
                  <path id="Path_8070" data-name="Path 8070" d="M263.92,623.048a9.419,9.419,0,0,1-1.88,1.268q-2.179,1.283-5.377,3.159l-1.811,1.035a5.634,5.634,0,0,1-2.323.771,2.224,2.224,0,0,1-1.437-.338,1.844,1.844,0,0,1-.8-1.4,4.7,4.7,0,0,1,1-2.686c1.915-3.064,4.014-6.427,6.243-9.993l.841.781a22.241,22.241,0,0,1-14.425,4.3,6.506,6.506,0,0,1-1.925-.328,2.622,2.622,0,0,1-1.651-1.437,2.314,2.314,0,0,1,.358-2.144,8.908,8.908,0,0,1,1.209-1.333,44.661,44.661,0,0,0,7.233-9.118c3.407-5.745,4.377-9.864,4.6-9.779a11.328,11.328,0,0,1-.671,2.855,39.733,39.733,0,0,1-3.2,7.347,42.8,42.8,0,0,1-7.193,9.481c-.791.751-1.577,1.617-1.273,2.283.254.667,1.462,1,2.577,1a21.466,21.466,0,0,0,13.664-4.069l2.537-1.856-1.7,2.637c-2.273,3.542-4.412,6.875-6.367,9.919a4.027,4.027,0,0,0-.905,2.069,1.01,1.01,0,0,0,1.224.906c1.378-.07,2.621-1.005,3.815-1.572l5.546-2.85A9.86,9.86,0,0,1,263.92,623.048Z" transform="translate(-240.251 -595.803)" fill="#375a64"/>
                </g>
              </g>
            </g>
          </g>
          <g id="Group_5253" data-name="Group 5253" transform="matrix(0.899, -0.438, 0.438, 0.899, 83.453, 141.354)">
            <path id="Path_8071" data-name="Path 8071" d="M.265,8.965A12.063,12.063,0,0,1,12.781.05a12.62,12.62,0,0,1,9.733,6.717,14.664,14.664,0,0,1,.552,11.747l-.2.848a14.092,14.092,0,0,1-15.52,3.2C2.208,20.266-.965,14.323.265,8.965Z" transform="translate(0 0)" fill="#ff9a6c"/>
          </g>
          <g id="Group_5903" data-name="Group 5903" transform="translate(89.801 139.701)">
            <path id="Path_8958" data-name="Path 8958" d="M205.188,231.487c5.71,2.8,12.521,6.3,21.509,8,0,0-5.655,8.52-14.8,4.36C202.407,239.527,205.188,231.487,205.188,231.487Z" transform="translate(-204.808 -231.487)" fill="#fff"/>
          </g>
        </g>
        <g id="Group_5265" data-name="Group 5265" transform="translate(33.548 481.083)">
          <g id="Group_5264" data-name="Group 5264">
            <path id="Path_8073" data-name="Path 8073" d="M223.83,681.136a1.312,1.312,0,0,0,.373.065l1.094.114,4.213.349c3.656.293,8.958.651,15.51,1.035,13.1.776,31.223,1.567,51.25,1.9s38.172.144,51.294-.194c6.561-.164,11.868-.348,15.539-.517l4.218-.209,1.1-.075a1.651,1.651,0,0,0,.373-.049,1.313,1.313,0,0,0-.378-.035l-1.1-.005-4.223.054c-3.745.06-9.033.15-15.539.254-13.117.189-31.248.289-51.269-.044s-38.127-1.04-51.235-1.667c-6.5-.323-11.784-.587-15.52-.771l-4.223-.194-1.1-.029A1.259,1.259,0,0,0,223.83,681.136Z" transform="translate(-223.83 -681.12)" fill="#fff"/>
          </g>
        </g>
      </g>
      <g id="Group_6535" data-name="Group 6535" transform="translate(8312.177 -414.805)">
        <g id="Union_7" data-name="Union 7" transform="translate(0 0)" fill="#fff">
          <path d="M179.845,335.128H11a11,11,0,0,1-11-11V11A11,11,0,0,1,11,0H462.434a11,11,0,0,1,11,11V324.128a11,11,0,0,1-11,11H232.414L206.13,377.683Z" stroke="none"/>
          <path d="M 206.1297149658203 375.7801818847656 L 231.8563690185547 334.1275939941406 L 462.4334716796875 334.1275939941406 C 467.9474182128906 334.1275939941406 472.4333190917969 329.6417236328125 472.4333190917969 324.1278381347656 L 472.4333190917969 10.99983406066895 C 472.4333190917969 5.485892772674561 467.9474182128906 1.000010251998901 462.4334716796875 1.000010251998901 L 10.99983596801758 1.000010251998901 C 5.485894680023193 1.000010251998901 1.000012516975403 5.485892772674561 1.000012516975403 10.99983406066895 L 1.000012516975403 324.1278381347656 C 1.000012516975403 329.6417236328125 5.485894680023193 334.1275939941406 10.99983596801758 334.1275939941406 L 180.403076171875 334.1275939941406 L 206.1297149658203 375.7801818847656 M 206.1297149658203 377.6831970214844 L 179.8453674316406 335.1275939941406 L 10.99983596801758 335.1275939941406 C 4.924836158752441 335.1275939941406 1.248707485501654e-05 330.2028198242188 1.248707485501654e-05 324.1278381347656 L 1.248707485501654e-05 10.99983406066895 C 1.248707485501654e-05 4.92483377456665 4.924836158752441 1.0275448403263e-05 10.99983596801758 1.0275448403263e-05 L 462.4334716796875 1.0275448403263e-05 C 468.508544921875 1.0275448403263e-05 473.4333190917969 4.92483377456665 473.4333190917969 10.99983406066895 L 473.4333190917969 324.1278381347656 C 473.4333190917969 330.2028198242188 468.508544921875 335.1275939941406 462.4334716796875 335.1275939941406 L 232.4140777587891 335.1275939941406 L 206.1297149658203 377.6831970214844 Z" stroke="none" fill="rgba(17,83,182,0.5)"/>
        </g>
        <g id="Group_6534" data-name="Group 6534" transform="translate(183.522 53.762)">
          <g id="Group_4922" data-name="Group 4922">
            <g id="Group_4921" data-name="Group 4921">
              <ellipse id="Ellipse_94" data-name="Ellipse 94" cx="51.951" cy="51.951" rx="51.951" ry="51.951" fill="#1153b6"/>
            </g>
          </g>
          <g id="Group_4933" data-name="Group 4933" transform="translate(34.799 27.523)">
            <g id="Group_4924" data-name="Group 4924" transform="translate(6.894)">
              <g id="Group_4923" data-name="Group 4923">
                <path id="Path_7998" data-name="Path 7998" d="M314.466,592.736h.867v-4.852a10.134,10.134,0,0,0-20.267,0v3.955h.866v-3.955a9.267,9.267,0,1,1,18.535,0Z" transform="translate(-295.065 -577.754)" fill="#fff" stroke="#fff" stroke-width="1"/>
              </g>
            </g>
            <g id="Group_4932" data-name="Group 4932" transform="translate(0 14.549)">
              <g id="Group_4926" data-name="Group 4926">
                <g id="Group_4925" data-name="Group 4925">
                  <path id="Path_7999" data-name="Path 7999" d="M298.221,614.414h25.763a4.28,4.28,0,0,0,4.276-4.27V584.375a4.28,4.28,0,0,0-4.276-4.27H298.221a4.275,4.275,0,0,0-4.27,4.27v25.769A4.275,4.275,0,0,0,298.221,614.414Zm25.763-33.443a3.411,3.411,0,0,1,3.41,3.4v25.769a3.417,3.417,0,0,1-3.41,3.41H298.221a3.417,3.417,0,0,1-3.41-3.41V584.375a3.411,3.411,0,0,1,3.41-3.4Z" transform="translate(-293.951 -580.105)" fill="#fff" stroke="#fff" stroke-width="1"/>
                </g>
              </g>
              <g id="Group_4931" data-name="Group 4931" transform="translate(12.984 9.914)">
                <g id="Group_4928" data-name="Group 4928">
                  <g id="Group_4927" data-name="Group 4927">
                    <path id="Path_8000" data-name="Path 8000" d="M300.1,589.8a4.044,4.044,0,1,0-4.047-4.048A4.047,4.047,0,0,0,300.1,589.8Zm0-7.222a3.178,3.178,0,1,1-3.181,3.174A3.177,3.177,0,0,1,300.1,582.573Z" transform="translate(-296.049 -581.707)" fill="#fff" stroke="#fff" stroke-width="1"/>
                  </g>
                </g>
                <g id="Group_4930" data-name="Group 4930" transform="translate(3.736 7.47)">
                  <g id="Group_4929" data-name="Group 4929">
                    <rect id="Rectangle_5505" data-name="Rectangle 5505" width="0.864" height="7.299" fill="#fff" stroke="#fff" stroke-width="1"/>
                  </g>
                </g>
              </g>
            </g>
          </g>
        </g>
        <g id="Group_6533" data-name="Group 6533" transform="translate(63.834 180.863)">
          <g id="Group_4896" data-name="Group 4896" transform="translate(144.706 0.519)" opacity="0">
            <rect id="Rectangle_5501" data-name="Rectangle 5501" width="58.995" height="83.894" rx="2.881" fill="#fff"/>
          </g>
          <g id="Group_4897" data-name="Group 4897" transform="translate(73.799 0.519)" opacity="0">
            <rect id="Rectangle_5502" data-name="Rectangle 5502" width="58.994" height="83.894" rx="2.881" fill="#fff"/>
          </g>
          <g id="Group_4898" data-name="Group 4898" transform="translate(215.279 0.519)" opacity="0">
            <rect id="Rectangle_5503" data-name="Rectangle 5503" width="60.66" height="83.894" rx="2.963" fill="#fff"/>
          </g>
          <g id="Group_4899" data-name="Group 4899" transform="translate(284.854 0.519)" opacity="0">
            <rect id="Rectangle_5504" data-name="Rectangle 5504" width="60.66" height="83.894" rx="2.963" fill="#fff"/>
          </g>
          <g id="Rectangle_5656" data-name="Rectangle 5656" fill="rgba(255,255,255,0.81)" stroke="#1153b6" stroke-width="1" opacity="0.49">
            <rect width="345.766" height="85.112" rx="4" stroke="none"/>
            <rect x="0.5" y="0.5" width="344.766" height="84.112" rx="3.5" fill="none"/>
          </g>
          <g id="Group_4901" data-name="Group 4901" transform="translate(149.949 30.998)">
            <g id="Group_4900" data-name="Group 4900">
              <path id="Path_7988" data-name="Path 7988" d="M295.97,616.12l6.489,3.511-2.914,4.882L293,620.64l.113,7.2H287.52l.064-7.256-6.546,3.931-2.857-4.882,6.489-3.511-6.489-3.568,2.857-4.882,6.546,3.931-.064-7.264h5.593L293,611.6l6.546-3.931,2.914,4.882Z" transform="translate(-278.181 -604.336)" fill="#1a1a1a"/>
            </g>
          </g>
          <g id="Group_4903" data-name="Group 4903" transform="translate(195.164 30.611)">
            <g id="Group_4902" data-name="Group 4902">
              <path id="Path_7989" data-name="Path 7989" d="M304.733,616.072l6.481,3.511-2.914,4.883-6.546-3.874.121,7.2h-5.593l.057-7.256-6.546,3.931-2.857-4.883,6.489-3.511-6.489-3.567,2.857-4.883,6.546,3.931-.057-7.264h5.593l-.121,7.264,6.546-3.931,2.914,4.883Z" transform="translate(-286.936 -604.288)" fill="#1a1a1a"/>
            </g>
          </g>
          <g id="Group_4905" data-name="Group 4905" transform="translate(243.038 30.611)">
            <g id="Group_4904" data-name="Group 4904">
              <path id="Path_7990" data-name="Path 7990" d="M313.7,616.072l6.481,3.511-2.914,4.883-6.545-3.874.113,7.2h-5.593l.065-7.256-6.546,3.931-2.857-4.883,6.489-3.511L295.9,612.5l2.857-4.883,6.546,3.931-.065-7.264h5.593l-.113,7.264,6.545-3.931,2.914,4.883Z" transform="translate(-295.903 -604.288)" fill="#1a1a1a"/>
            </g>
          </g>
          <g id="Group_4907" data-name="Group 4907" transform="translate(290.914 30.611)">
            <g id="Group_4906" data-name="Group 4906">
              <path id="Path_7991" data-name="Path 7991" d="M322.378,616.072l6.482,3.511-2.914,4.883-6.546-3.874.121,7.2h-5.593l.056-7.256-6.538,3.931-2.857-4.883,6.481-3.511-6.481-3.567,2.857-4.883,6.538,3.931-.056-7.264h5.593l-.121,7.264,6.546-3.931,2.914,4.883Z" transform="translate(-304.589 -604.288)" fill="#1a1a1a"/>
            </g>
          </g>
          <g id="Group_6540" data-name="Group 6540" opacity="0">
            <g id="Group_4909" data-name="Group 4909">
              <g id="Group_4908" data-name="Group 4908">
                <path id="Path_7992" data-name="Path 7992" d="M321.659,685.745H290.286a14.644,14.644,0,0,1-14.625-14.633V615.436a14.643,14.643,0,0,1,14.625-14.625h31.373a14.644,14.644,0,0,1,14.625,14.625v55.676A14.645,14.645,0,0,1,321.659,685.745Zm-31.373-83.9a13.608,13.608,0,0,0-13.591,13.591v55.676A13.6,13.6,0,0,0,290.286,684.7h31.373a13.6,13.6,0,0,0,13.592-13.592V615.436a13.608,13.608,0,0,0-13.592-13.591Z" transform="translate(-275.661 -600.811)" fill="#1a2e35"/>
              </g>
            </g>
            <g id="Group_4911" data-name="Group 4911" transform="translate(72.835)">
              <g id="Group_4910" data-name="Group 4910">
                <path id="Path_7993" data-name="Path 7993" d="M330.683,685.745H299.31a14.644,14.644,0,0,1-14.625-14.633V615.436a14.644,14.644,0,0,1,14.625-14.625h31.373a14.645,14.645,0,0,1,14.633,14.625v55.676A14.646,14.646,0,0,1,330.683,685.745Zm-31.373-83.9a13.613,13.613,0,0,0-13.592,13.591v55.676A13.608,13.608,0,0,0,299.31,684.7h31.373a13.6,13.6,0,0,0,13.592-13.592V615.436a13.608,13.608,0,0,0-13.592-13.591Z" transform="translate(-284.685 -600.811)" fill="#1a2e35"/>
              </g>
            </g>
            <g id="Group_4913" data-name="Group 4913" transform="translate(143.669)">
              <g id="Group_4912" data-name="Group 4912">
                <path id="Path_7994" data-name="Path 7994" d="M339.467,685.745H308.094a14.646,14.646,0,0,1-14.633-14.633V615.436a14.645,14.645,0,0,1,14.633-14.625h31.373a14.643,14.643,0,0,1,14.625,14.625v55.676A14.644,14.644,0,0,1,339.467,685.745Zm-31.373-83.9A13.608,13.608,0,0,0,294.5,615.436v55.676A13.6,13.6,0,0,0,308.094,684.7h31.373a13.608,13.608,0,0,0,13.592-13.592V615.436a13.613,13.613,0,0,0-13.592-13.591Z" transform="translate(-293.461 -600.811)" fill="#1a2e35"/>
              </g>
            </g>
            <g id="Group_4915" data-name="Group 4915" transform="translate(215.309)">
              <g id="Group_4914" data-name="Group 4914">
                <path id="Path_7995" data-name="Path 7995" d="M348.343,685.745H316.962a14.644,14.644,0,0,1-14.625-14.633V615.436a14.644,14.644,0,0,1,14.625-14.625h31.381a14.644,14.644,0,0,1,14.625,14.625v55.676A14.644,14.644,0,0,1,348.343,685.745Zm-31.381-83.9a13.613,13.613,0,0,0-13.592,13.591v55.676A13.608,13.608,0,0,0,316.962,684.7h31.381a13.608,13.608,0,0,0,13.592-13.592V615.436a13.613,13.613,0,0,0-13.592-13.591Z" transform="translate(-302.337 -600.811)" fill="#1a2e35"/>
              </g>
            </g>
            <g id="Group_4917" data-name="Group 4917" transform="translate(284.868)">
              <g id="Group_4916" data-name="Group 4916">
                <path id="Path_7996" data-name="Path 7996" d="M356.961,685.745H325.588a14.646,14.646,0,0,1-14.633-14.633V615.436a14.645,14.645,0,0,1,14.633-14.625h31.373a14.644,14.644,0,0,1,14.625,14.625v55.676A14.645,14.645,0,0,1,356.961,685.745Zm-31.373-83.9A13.607,13.607,0,0,0,312,615.436v55.676A13.6,13.6,0,0,0,325.588,684.7h31.373a13.608,13.608,0,0,0,13.592-13.592V615.436a13.613,13.613,0,0,0-13.592-13.591Z" transform="translate(-310.955 -600.811)" fill="#1a2e35"/>
              </g>
            </g>
          </g>
        </g>
      </g>
    </g>
  </g>
</svg>
