<svg xmlns="http://www.w3.org/2000/svg" xmlns:xlink="http://www.w3.org/1999/xlink" width="1024" height="620" viewBox="0 0 1024 620">
  <defs>
    <clipPath id="clip-Mange-Device-Graphic-svg">
      <rect width="1024" height="620"/>
    </clipPath>
  </defs>
  <g id="Mange-Device-Graphic-svg" clip-path="url(#clip-Mange-Device-Graphic-svg)">
    <g id="Group_2977" data-name="Group 2977" transform="translate(-3943.328 -85)">
      <g id="Group_2976" data-name="Group 2976" transform="translate(3954.687 100)">
        <g id="Group_2975" data-name="Group 2975" transform="translate(0)">
          <g id="Group_2965" data-name="Group 2965" transform="translate(0 318.369)">
            <g id="Group_2960" data-name="Group 2960" transform="translate(143.605 107.253)">
              <path id="Path_183" data-name="Path 183" d="M4436.573,1356.26s-18.794-21.926-1.16-35.852c0,0,12.882-7.8,23.385-7.166,0,0-14.883,24.958-10.069,27.44s14.579-29,14.579-29,29.315-2.843,38.744,1.691c0,0-25.059,20.507-19.782,21.727s32.346-18.907,32.346-18.907,27.283,4.642,25.828,21.286-10.855,21.783-14.987,21.34-28.3-9.668-28.828-6.284,14.023,14.449,24.21,14.967c0,0-19.235,21.213-32.018,15.09s-13.876-15.826-21.844-19.467-14.771-3.63-11.481.082,17.712,7.32,22.269,15.38,8.646,13.5-4.581,11.508-34.726-11.667-35.669-22.75Z" transform="translate(-4404.807 -1310.797)" fill="#da711d"/>
              <g id="Group_2959" data-name="Group 2959" transform="translate(0 26.997)">
                <path id="Path_184" data-name="Path 184" d="M4512.725,1387.574s-74.1-2.855-90.467,18.337c0,0-3.62,10.84-14.756,20.708l-1.735,4.732s12.841-13.539,17.435-14.358C4423.2,1416.993,4416.016,1390.738,4512.725,1387.574Z" transform="translate(-4390.491 -1387.446)" fill="#d24a32"/>
                <path id="Path_185" data-name="Path 185" d="M4379.408,1495.238S4363.5,1507,4362.4,1528.018l2.888.259s5.08-21.732,14.261-30.231S4379.408,1495.238,4379.408,1495.238Z" transform="translate(-4362.397 -1456.063)" fill="#d24a32"/>
              </g>
            </g>
            <g id="Group_2962" data-name="Group 2962" transform="translate(0 47.723)">
              <path id="Path_186" data-name="Path 186" d="M4064.348,1219.2s29.9-16.742,15.944-39.463c0,0-11.162-13.952-23.119-17.539,0,0,6.378,33.882,0,34.679s-4.386-38.267-4.386-38.267-31.49-15.148-43.848-13.952c0,0,19.533,33.085,13.155,32.288s-28.3-34.281-28.3-34.281-32.288-5.979-37.47,13.155,3.189,28.7,7.972,29.9,35.477.8,34.68,4.784-21.526,10.363-33.085,6.776c0,0,12.756,31.49,29.5,29.9s21.924-11.958,32.289-12.756,17.937,1.993,12.756,4.783-22.721.914-31.092,8.031-15.148,11.5.4,14.69,43.449,1.2,49.031-10.762Z" transform="translate(-3954.686 -1141.783)" fill="#d24a32"/>
              <g id="Group_2961" data-name="Group 2961" transform="translate(16.384 20.018)">
                <path id="Path_187" data-name="Path 187" d="M4001.2,1198.617s83.71,27.106,93.277,57.4c0,0-.4,13.553,7.972,29.1v5.98s-8.77-20.33-13.553-23.12C4088.9,1267.977,4107.635,1241.668,4001.2,1198.617Z" transform="translate(-4001.203 -1198.617)" fill="#da711d"/>
                <path id="Path_188" data-name="Path 188" d="M4281.306,1437.359s12.909,19.6,5.55,43.467l-3.321-.892s3.224-26.283-3.53-39.5S4281.306,1437.359,4281.306,1437.359Z" transform="translate(-4180.057 -1350.858)" fill="#da711d"/>
              </g>
            </g>
            <g id="Group_2964" data-name="Group 2964" transform="translate(131.316)">
              <path id="Path_189" data-name="Path 189" d="M4353.417,1108.344s-39.408-22.069-21.017-52.019c0,0,14.712-18.392,30.475-23.121,0,0-8.406,44.663,0,45.714s5.78-50.443,5.78-50.443,41.512-19.967,57.8-18.391c0,0-25.747,43.613-17.34,42.562s37.308-45.189,37.308-45.189,42.562-7.882,49.394,17.34-4.2,37.832-10.51,39.409-46.766,1.051-45.713,6.3,28.374,13.662,43.612,8.933c0,0-16.815,41.511-38.885,39.409s-28.9-15.763-42.561-16.814-23.645,2.628-16.814,6.305,29.95,1.205,40.985,10.587,19.967,15.161-.525,19.364-57.274,1.576-64.631-14.187Z" transform="translate(-4327.509 -1006.292)" fill="#d24a32"/>
              <g id="Group_2963" data-name="Group 2963" transform="translate(5.093 26.387)">
                <path id="Path_190" data-name="Path 190" d="M4504.692,1081.209s-110.345,35.731-122.956,75.665c0,0,.526,17.866-10.508,38.358v7.882s11.561-26.8,17.865-30.476C4389.092,1172.638,4364.4,1137.958,4504.692,1081.209Z" transform="translate(-4360.922 -1081.209)" fill="#da711d"/>
                <path id="Path_191" data-name="Path 191" d="M4352.275,1395.914s-17.018,25.842-7.316,57.3l4.378-1.176s-4.25-34.647,4.653-52.073S4352.275,1395.914,4352.275,1395.914Z" transform="translate(-4341.97 -1281.891)" fill="#da711d"/>
              </g>
            </g>
            <path id="Path_192" data-name="Path 192" d="M4255.32,1619.3a77.2,77.2,0,0,0,77.2-77.2H4178.124A77.2,77.2,0,0,0,4255.32,1619.3Z" transform="translate(-4099.425 -1353.382)" fill="#e7b62c"/>
            <path id="Path_193" data-name="Path 193" d="M4291.62,1618.712a77.249,77.249,0,0,1-86.783-76.607h19.178A77.209,77.209,0,0,0,4291.62,1618.712Z" transform="translate(-4116.729 -1353.38)" fill="#da711d"/>
            <path id="Path_194" data-name="Path 194" d="M4331.623,1754.914H4175.1a9.524,9.524,0,0,1,9.524-9.524H4322.1a9.524,9.524,0,0,1,9.524,9.524Z" transform="translate(-4097.465 -1485.064)" fill="#da711d"/>
            <rect id="Rectangle_12" data-name="Rectangle 12" width="158.686" height="2.368" transform="translate(76.161 188.725)" fill="#da711d"/>
          </g>
          <g id="Group_2967" data-name="Group 2967" transform="translate(770.533 37.652)">
            <path id="Path_195" data-name="Path 195" d="M6565.37,1682.974s1.6,25.8,6.593,26.173c.663.05,25.32.05,25.32.05l31.474-.182s-.206-7.584-9.406-9.187-24.6-8.069-30.173-20.229C6583.313,1666.806,6565.37,1682.974,6565.37,1682.974Z" transform="translate(-6418.666 -1158.537)" fill="#538c9f"/>
            <path id="Path_196" data-name="Path 196" d="M6507.442,831.842s14.859,8.448,19.019,8.448,20.487-3.156,25.04-.831,12.79,11.683,14.336,14.739c2.779,5.5-11.191,3.069-17.793-1.613a4.164,4.164,0,0,0-3.3-.681c-3.421.746-10.526,2.037-13.955.768-4.613-1.708-28.913-3.6-28.913-3.6Z" transform="translate(-6377.537 -612.077)" fill="#e29763"/>
            <path id="Path_197" data-name="Path 197" d="M6196.715,477.019s15.4,109.478,40.908,119.283c12.586,4.839,68.207,15.806,84.66,16.908,0,0,4.03-3.269,3.048-16.578,0,0-58.273-21.394-66.552-33.028-12.322-17.316,7.647-70.739-7.812-87S6209.469,453.349,6196.715,477.019Z" transform="translate(-6179.858 -372.166)" fill="#363b74"/>
            <path id="Path_198" data-name="Path 198" d="M6175.283,1041.745a191.878,191.878,0,0,0,15.047,21.529c16.555,20.9,34.576,38.132,37.717,54.42a73.5,73.5,0,0,0,2.91,10.426c1.312,3.731,2.931,7.654,4.8,11.71,7.025,15.26,17.531,32.359,28.02,47.9,18.134,26.869,35.184,49.29,35.184,49.29l31.271-1.333c-1.252-3.135-14.891-40.234-33.136-85.572-7.407-18.4-15.287-37.982-22.888-56.861q-1.519-3.782-3.028-7.521c-2.323-5.778-4.61-11.465-6.844-17-17.13-42.572-30.775-76.471-30.775-76.471s-68.471-25.937-75.581-9.13C6152.119,996.989,6156.894,1010.564,6175.283,1041.745Z" transform="translate(-6153.236 -706.9)" fill="#538c9f"/>
            <path id="Path_199" data-name="Path 199" d="M6323.41,1488.95s-21.75,13.976-19.641,18.516c.281.6,12.3,22.131,12.3,22.131l15.5,27.392s6.521-3.876,3.436-12.691-4.947-25.412,2.953-36.206C6346.274,1496.737,6323.41,1488.95,6323.41,1488.95Z" transform="translate(-6249.113 -1038.23)" fill="#538c9f"/>
            <path id="Path_200" data-name="Path 200" d="M6237.935,1188.171s-13.594-11.989-15.991-20.784c0,0,56.011-67.109,68.16-82.151.557-.689.416-1.447-.32-2.279-9.173-10.343-111.083-31.367-124.4-52.09a64.2,64.2,0,0,1-8.606-19.841c-3.02-12.645-.632-21.378-.632-21.378l101.779-2.944s84.741,52.765,94.338,88.742S6237.935,1188.171,6237.935,1188.171Z" transform="translate(-6152.997 -712.885)" fill="#6ab5bd"/>
            <path id="Path_201" data-name="Path 201" d="M6292.595,1091.487c-9.174-10.342-111.083-31.367-124.4-52.09a64.165,64.165,0,0,1-8.607-19.841v-12.881l43.257-6.8s12.269,37.747,48.6,51.9C6285.47,1065.032,6291.915,1088.557,6292.595,1091.487Z" transform="translate(-6155.806 -721.083)" fill="#538c9f"/>
            <path id="Path_202" data-name="Path 202" d="M6267.041,398.171c-20.59,5.322-54.723-13.754-54.723-13.754s13.254-8.909,18.166-28.475c.25-.986.472-2,.675-3.034,2.156-.458,6.223-1.322,10.573-2.242l15.726,14.09a135.256,135.256,0,0,1-2.325,15.905q-.51,2.633-1.185,5.643A48.493,48.493,0,0,1,6267.041,398.171Z" transform="translate(-6189.965 -300.028)" fill="#e29763"/>
            <path id="Path_203" data-name="Path 203" d="M6149.409,530.6c2.948,39.665-.93,99.993,2.415,110.441,2.888,9.014,35.787,3.655,48.919.646,4.861-1.113,10.748-2.7,16.828-4.586,16.96-5.252,35.441-12.751,37.423-18.318a4.577,4.577,0,0,0,.185-.64,5.09,5.09,0,0,0-.037-2.333c-.66-2.838-3.207-5.908-3.508-12.934-.334-7.845-.283-17.082-.579-27.017-.016-1.118-.03-2.339-.152-3.452L6250.9,572c0-.214-.01-.422-.014-.635-.286-11.078-.865-22.726-1.537-34.277-.427-7.255-.92-14.439-1.489-21.323-1.48-17.769-3.473-33.57-6.111-43.56-4.311-16.284-13.818-26.9-22.472-34.688l-6.259-5.369a36.184,36.184,0,0,1-22.709-3.025c-8.085-3.838-10.876-6.589-12.284-5.552C6159.352,437.974,6145.927,482.108,6149.409,530.6Z" transform="translate(-6148.857 -347.111)" fill="#496087"/>
            <path id="Path_204" data-name="Path 204" d="M6255.184,748.66c16.96-5.252,35.441-12.751,37.423-18.318a4.563,4.563,0,0,0,.184-.64c-.01-.778-.02-1.556-.036-2.333-.661-2.838-3.208-5.908-3.508-12.934-.335-7.845-.284-17.083-.58-27.017-.015-1.118-.03-2.339-.152-3.452l-.006-.407c0-.214-.01-.422-.014-.635l-68.566-87.355S6173.838,691.545,6255.184,748.66Z" transform="translate(-6186.471 -458.96)" fill="#363b74"/>
            <path id="Path_205" data-name="Path 205" d="M6290.866,364.757a135.295,135.295,0,0,1-2.326,15.905c-15.359-4.964-22.322-18.835-24.649-24.719.25-.986.472-2,.675-3.034,2.157-.458,6.224-1.322,10.574-2.242Z" transform="translate(-6223.374 -300.028)" fill="#d48b5d"/>
            <path id="Path_206" data-name="Path 206" d="M6291.187,306.313s-33.491-5.589-29.69-26.392,2.04-35.535,23.584-32.846,24.237,11.385,24.657,18.637S6300,307.232,6291.187,306.313Z" transform="translate(-6221.627 -232.719)" fill="#e29763"/>
            <g id="Group_2966" data-name="Group 2966" transform="translate(119.03 173.942)">
              <rect id="Rectangle_13" data-name="Rectangle 13" width="3.105" height="81.315" transform="matrix(-0.951, -0.309, 0.309, -0.951, 85.312, 78.296)" fill="#da711d"/>
              <rect id="Rectangle_14" data-name="Rectangle 14" width="85.33" height="5.105" transform="translate(85.31 78.296) rotate(-178.776)" fill="#da711d"/>
            </g>
            <path id="Path_207" data-name="Path 207" d="M6491.648,901.776s27.412,7.227,37.691,6.469,18.828-5.647,20.122-8.2,4.011-7.079-2.987-6.244-16.553,2.323-16.85.978,5.706-1.217,5.706-1.217,1.813-2.638-.47-2.734-8.948-1.9-11.422-.666-4.76,5.806-6.567,5.616-22.937-9.518-22.937-9.518Z" transform="translate(-6370.91 -647.357)" fill="#e29763"/>
            <path id="Path_208" data-name="Path 208" d="M6216.012,494.437s3.24,110.509,27.509,123.067c11.976,6.2,66.048,23.229,82.279,26.138,0,0,4.366-2.806,4.858-16.142,0,0-55.56-27.688-62.5-40.164-10.337-18.568,15.4-69.465,1.827-87.333S6231.3,472.317,6216.012,494.437Z" transform="translate(-6192.358 -385.112)" fill="#496087"/>
            <path id="Path_209" data-name="Path 209" d="M6250.908,262.811s-.383-7.137,4.019-11.227c0,0-1.533-7.156,1.3-8.336s3.422,4.837,4.719,3.893,7.078-5.426,9.555-12.032,25.148,1.4,27.79,2.585,11.136-3.174,12.787-6.713a49.712,49.712,0,0,1-6.841-6.6c-2.123-2.832-16.987-21.941-37.746-16.515s-23.59,15.334-22.413,23.828S6242.406,259.962,6250.908,262.811Z" transform="translate(-6210.391 -206.897)" fill="#2d133b"/>
          </g>
          <g id="Group_2968" data-name="Group 2968" transform="translate(173.337)">
            <path id="Path_210" data-name="Path 210" d="M4471.008,482.924l17.869-1.706a3.28,3.28,0,0,1,3.34,2.007l13.491,32.472a3.28,3.28,0,0,1-2.718,4.524L4484.4,522a3.282,3.282,0,0,1-3.366-2.066l-12.766-32.543A3.28,3.28,0,0,1,4471.008,482.924Z" transform="translate(-4461.107 -347.142)" fill="#538c9f"/>
            <path id="Path_211" data-name="Path 211" d="M4885.678,1126.053l-9.481,5.032s-51.268-54.362-63.593-106.528a81.082,81.082,0,0,1-2.146-27.215s-.745-2.363-2.05-6.54l-.174-.557c-.57-1.833-1.255-3.989-2.014-6.43-2.476-7.883-5.877-18.671-9.751-30.951-8.923-28.262-29.333-92-38.054-118.513l62.681-22.678s7.121,16.236,17.352,60.363c1.575,5.761,3.154,12.129,4.628,19.069,1.672,7.86,3.231,16.454,4.531,25.739a395.392,395.392,0,0,1,3.757,52.836c.035,7.9-.158,16.084-.627,24.533-.342,6.195.578,14.449,2.3,23.84C4860.938,1060.984,4885.678,1126.053,4885.678,1126.053Z" transform="translate(-4649.208 -561.852)" fill="#67a6b9"/>
            <path id="Path_212" data-name="Path 212" d="M5122.984,1724.077h-50.677s-1.895-8.083,1.433-13.583c2.945-4.866,1.816-7.639-.364-11.665a19.678,19.678,0,0,0,8.535,1.607,17.847,17.847,0,0,0,7.537-2.65c2.18,2.487,11.52,13.071,14.438,15.168C5107.2,1715.333,5121.963,1714.486,5122.984,1724.077Z" transform="translate(-4852.192 -1135.858)" fill="#538c9f"/>
            <path id="Path_213" data-name="Path 213" d="M4847.606,916.843l-39.372,73.4c-.57-1.833-1.255-3.989-2.014-6.43-2.476-7.883-5.877-18.671-9.751-30.951-8.923-28.262-29.333-92-38.054-118.513l62.681-22.678s7.121,16.236,17.352,60.363c1.575,5.761,3.154,12.129,4.628,19.069C4844.747,898.964,4846.307,907.558,4847.606,916.843Z" transform="translate(-4649.208 -561.523)" fill="#538c9f"/>
            <path id="Path_214" data-name="Path 214" d="M4484.165,598.313c-.314.271-15.335-15.084-23.356-23.591l8.033-4.891,43.867,27.539Z" transform="translate(-4456.425 -404.596)" fill="#ebaf7d"/>
            <path id="Path_215" data-name="Path 215" d="M4755.141,1723.2s-1.18,8.606,2.123,15.863h21s.158-6.269-5.19-14.133S4755.141,1723.2,4755.141,1723.2Z" transform="translate(-4646.955 -1150.848)" fill="#538c9f"/>
            <path id="Path_216" data-name="Path 216" d="M4798.911,113.054c.283-1.342,3.862-15.716,26.166-12.618,0,0-11.129-.6-13.846,3.868,0,0,8.455-4.63,14.168-1.673s7.422,14.167,6.852,17.657-5.884,14.136-9.887,14.423a11.888,11.888,0,0,1-4.649-.8,52.723,52.723,0,0,1,2.053,5.835c5.686,19.7-6.526,35.861-13.674,32.6-4.585-2.093-7.37,5.867-7.37,5.867l-40.093-45.9S4781.943,99.817,4798.911,113.054Z" transform="translate(-4649.347 -100)" fill="#2d133b"/>
            <path id="Path_217" data-name="Path 217" d="M4756.5,371.664a57.258,57.258,0,0,0,20.021,8.521c30.86,7.13,42.687-18.953,47.129-36.857a26.531,26.531,0,0,0-10.456-3.212c-2.231-.263-4.577-.437-6.52-.534-3.465-2.654-8.627-13.517-9.77-30.383l-1.453.39-24.321,6.657s1.114,7.731,1.659,15.039c.421,5.718.489,11.183-.595,12.52-1.9.412-3.038.681-3.038.681a.051.051,0,0,1-.011.023A156.55,156.55,0,0,0,4756.5,371.664Z" transform="translate(-4647.965 -235.515)" fill="#ebaf7d"/>
            <path id="Path_218" data-name="Path 218" d="M4798.033,316.976s1.118,7.725,1.66,15.039c13.779-1.38,20.173-14.5,22.664-21.695Z" transform="translate(-4674.872 -236.241)" fill="#e6965f"/>
            <path id="Path_219" data-name="Path 219" d="M4761.3,246.541s32.706-1.8,31.269-22.155,1.816-34.289-19.127-34-24.446,8.343-25.62,15.252S4752.754,246.487,4761.3,246.541Z" transform="translate(-4642.252 -158.549)" fill="#ebaf7d"/>
            <path id="Path_220" data-name="Path 220" d="M4743.324,186.546c4.61-6.483,8.522-5.414,10.792-3.727,17.152-11.1,29.7,2.591,29.7,2.591a38.97,38.97,0,0,0,14.362,22.053s-5.69,4.1-19.671,1.56c-4.271-.778-8.229-3.489-11.669-6.875a76.414,76.414,0,0,0,14.265,15.08c-16.939-6.4-25.16-28.735-25.989-31.1-1.866,1.934-5.517,6.106-6.441,10.006-1.257,5.3-1.225,16.019-4.36,15.878C4744.312,212.012,4736.409,196.268,4743.324,186.546Z" transform="translate(-4637.595 -150.837)" fill="#2d133b"/>
            <path id="Path_221" data-name="Path 221" d="M4698.985,396.861s53.28-12.936,76.449,6.172l-11.578,161.473-104.2-25.174s2.932-10.218,22.913-37.388S4693.855,434.922,4698.985,396.861Z" transform="translate(-4585.231 -289.737)" fill="#ebaf7d"/>
            <path id="Path_222" data-name="Path 222" d="M4719.538,805.338s-.062.547-.171,1.59c-.046.448-.107.991-.174,1.623-.448,4.185-1.3,12.216-2.391,22.657-2.86,27.385-7.348,71.369-10.4,106.087-2.393,27.145-3.912,48.627-3.091,52.077,2.469,10.38,0,134.472,0,134.472-8.856,4.247-22.285,0-22.285,0s-23.591-111.824-20.289-127.366a53.525,53.525,0,0,0-2.208-28.81c-18.316-85.3-16.312-132.581-12.673-155.214a95.352,95.352,0,0,1,3.133-13.82,28.985,28.985,0,0,1,1.255-3.4C4690.643,784.365,4719.538,805.338,4719.538,805.338Z" transform="translate(-4574.723 -549.18)" fill="#67a6b9"/>
            <path id="Path_223" data-name="Path 223" d="M4757.8,828.515a102.784,102.784,0,0,1-36.548,7.9,122.466,122.466,0,0,1-30.075-2.855,138.474,138.474,0,0,1-40.874-15.9,95.642,95.642,0,0,1,3.132-13.82c12.3-8.757,42.715-.377,67.562,8.913q1.331.5,2.647,1C4742.678,821.032,4757.8,828.515,4757.8,828.515Z" transform="translate(-4579.179 -553.917)" fill="#538c9f"/>
            <path id="Path_224" data-name="Path 224" d="M4678.972,451.354c-2.571,19.425-12.863,43.2-16.538,55.993,0,0,6.144,44.423.279,56.62a5.4,5.4,0,0,1-2.5,2.8c-21.729,9.464-106.347.274-109.918-27.022-1.3-9.918,32.23-44.805,34.184-49.037.812-1.751,1.675-7.427-2.255-19.19-5.573,17.179-15.863,37.015-26.215,40.4-11.376,3.722-56.356-29.8-56.356-29.8s-.259-4.072,5.427-7.923c3.656-2.477,12.055-3.312,12.055-3.312L4545.9,483.76c3.609-6.176,12.6-48.906,22.644-68.194,7.548-14.5,27.706-16.6,27.706-16.6s8.388,13.306,28.677,11.419,24-14.307,24-14.307,17.995,2.392,23.538,6.865C4673.421,403.72,4682.345,425.9,4678.972,451.354Z" transform="translate(-4481.585 -292.006)" fill="#496087"/>
            <path id="Path_225" data-name="Path 225" d="M4904.691,609.006s6.144,44.423.278,56.62c-15.831-7.946-36.464-25.1-30.185-51.9,9.121-38.936,46.443-60.716,46.443-60.716C4918.657,572.438,4908.366,596.209,4904.691,609.006Z" transform="translate(-4723.842 -393.735)" fill="#363b74"/>
            <path id="Path_226" data-name="Path 226" d="M4865.25,627.206s-22.535,3.266-24.333,4.947-8.016,11.456-7.25,14.856.687,6.9,2.066,6.663,5.88-8.882,7.581-9.279,3.1-1.56,3.309-.8-3.459,4.393-3.277,5.427,3.066-.177,4.362-2.182,4.532-3,5.018-4.248,2.72-5.387,5.753-5.2S4865.25,627.206,4865.25,627.206Z" transform="translate(-4697.913 -441.792)" fill="#ebaf7d"/>
            <path id="Path_227" data-name="Path 227" d="M4931.58,624.686l-21.925.887-7.5,10.226,29.821,1Z" transform="translate(-4742.319 -440.152)" fill="#ebaf7d"/>
            <path id="Path_228" data-name="Path 228" d="M4923.452,396.079s26.133,3.1,33.329,14.307c9.1,14.169,41.24,61.158,40.548,75.379,0,0-20.023,7.977-73.856,3.7,0,0-.979-8.143,10.346-14.675,0,0,28.9-3.958,32.084-6.763l-21.457-22.8Z" transform="translate(-4756.116 -291.972)" fill="#496087"/>
            <path id="Path_229" data-name="Path 229" d="M4459.956,483.929l17.868-1.707a3.281,3.281,0,0,1,3.341,2.007l13.49,32.473a3.278,3.278,0,0,1-2.717,4.523L4473.346,523a3.281,3.281,0,0,1-3.366-2.068l-12.766-32.542A3.28,3.28,0,0,1,4459.956,483.929Z" transform="translate(-4453.948 -347.793)" fill="#67a6b9"/>
            <path id="Path_230" data-name="Path 230" d="M4452.747,540.029s-4.719-8.139-4.365-10.144,5.237-11.3,7.746-12.228c4.482-1.651,10.773-2.674,9.043,2.045-1.143,3.115-5.663,7.628-4.876,9.044s.485,6.393.485,6.393Z" transform="translate(-4448.363 -369.873)" fill="#ebaf7d"/>
          </g>
          <g id="Group_2973" data-name="Group 2973" transform="translate(364.227 120.893)">
            <path id="Path_231" data-name="Path 231" d="M6158.51,1241.882c-6.4,41.031-48.273,67.16-91.22,67.16h-85.062l6.652-239.152s81.16-26.05,101.543-1.27c17.858,21.709,66.287,107.644,68.836,158.508A71.9,71.9,0,0,1,6158.51,1241.882Z" transform="translate(-5634.613 -842.263)" fill="#da711d"/>
            <path id="Path_232" data-name="Path 232" d="M5841.631,1102.585s114.748-58.57,136.482-20.31c11.541,20.314,43.3,101.359,45.643,152.222,2.278,49.42-40.537,81.915-84.581,81.915h-78.224Z" transform="translate(-5543.538 -849.634)" fill="#e7b62c"/>
            <path id="Path_233" data-name="Path 233" d="M5447.1,857.166c-.967,4.977-10.256,9.6-24.043,13.683q-3.646,1.082-7.687,2.114c-46.923,11.985-130.037,18.675-137.959,15.141-10.947-4.884-78.135-243.6-78.135-243.6s64.136-2.411,115.07-3.585c17.424-.4,33.3-.651,44.541-.618a27.651,27.651,0,0,1,3.864.268,18.345,18.345,0,0,1,11.333,5.8c8.2,8.814,10.233,26.22,17.826,45.461,7.507,19.024,16.722,42.767,25.46,66.33,2.25,6.072,4.473,12.131,6.625,18.1q.913,2.526,1.807,5.025C5438.718,817.418,5448.664,849.1,5447.1,857.166Z" transform="translate(-5127.434 -571.73)" fill="#e7b62c"/>
            <path id="Path_234" data-name="Path 234" d="M6238.215,1578.16c-6.4,41.031-48.273,67.16-91.22,67.16h-41.724C6133.095,1626.462,6158.252,1568.341,6238.215,1578.16Z" transform="translate(-5714.317 -1178.541)" fill="#da711d"/>
            <path id="Path_235" data-name="Path 235" d="M5626.367,781.779c-2.133-.349-4.884-.8-8-1.331a7.289,7.289,0,0,1-1.473-2c-1.253-2.76-.4-10.692,1.043-19.789-8.738-23.563-17.952-47.306-25.459-66.33-7.593-19.241-9.626-36.647-17.826-45.461a18.349,18.349,0,0,0-11.334-5.8c-6.771.094-13.919.212-21.294.349-2.618,5.195-7.134,10.1-14.934,14.2-34.8,18.317-8.983,56.063-8.983,56.063.25.17,13.811,27.121,13.811,27.121-.047-1.883,1.779-5.252,4.907-9.541,2.306,16.113,6.062,32.566,10.551,44.343-2.459,12.443-8.768,30.976-12.146,45.15-2.7,11.305-3.538,19.827.925,20.246a10.1,10.1,0,0,0,1.656,0,23.035,23.035,0,0,0,2.717,12.4c8.72,16.859,50.67,19.893,83.1,19.954,13.786-4.086,23.077-8.706,24.042-13.683C5649.227,849.6,5639.282,817.917,5626.367,781.779Z" transform="translate(-5327.996 -572.229)" fill="#b03321"/>
            <path id="Path_236" data-name="Path 236" d="M5836.339,1330.091c-16.42,22.813-41.606,37.435-69.662,36.983l-120.61.061-57.785.028,65.013-214.123s164.557-16.372,184.845,5.459c9.423,10.134,14.711,56.034,17.675,102.3A106.891,106.891,0,0,1,5836.339,1330.091Z" transform="translate(-5379.423 -900.058)" fill="#da711d"/>
            <path id="Path_237" data-name="Path 237" d="M5942.613,1653.432c-16.419,22.813-41.606,37.435-69.661,36.982l-120.609.061c14.192-11.914,58.827-45.721,106.619-44.121C5895.188,1647.567,5923.957,1647.048,5942.613,1653.432Z" transform="translate(-5485.698 -1223.398)" fill="#b03321"/>
            <g id="Group_2972" data-name="Group 2972" transform="translate(197.195)">
              <path id="Path_238" data-name="Path 238" d="M5836.874,738.388s10.021,14.829,15.737,46c5,27.3,9.394,37.382,16.624,42.98s47.5,22.13,47.5,22.13l-3.01,7.056s-59.034-8.04-65.665-17.907-31.912-68.159-29.95-81.584S5836.874,738.388,5836.874,738.388Z" transform="translate(-5725.429 -635.273)" fill="#e8a069"/>
              <g id="Group_2969" data-name="Group 2969" transform="translate(252.826 387.978)">
                <path id="Path_239" data-name="Path 239" d="M6276.148,1587.944c-.53,5.757,7.485,7.158,16.769,7.62s6.478,2.363,19.2,4.668,17.82-1.177,18.741-2.9c.82-1.524-5.095-3.91-11.4-6.605-.794-.336-1.587-.684-2.381-1.031-7.094-3.12-11.075-9.482-16.606-15.381-5.239-5.587-10.213-23.478-10.213-23.478l-17.289-3.692s4.854,16.1,6.539,22.976c.991,4.043-.472,8.563-1.769,12A22.659,22.659,0,0,0,6276.148,1587.944Z" transform="translate(-6272.97 -1547.148)" fill="#ebaf7d"/>
                <path id="Path_240" data-name="Path 240" d="M6298.718,1659.9c9.283.462,6.477,2.363,19.2,4.668s17.82-1.177,18.741-2.9c.82-1.524-5.094-3.91-11.4-6.605l-.1.107a36.228,36.228,0,0,1-19.271.231c-8.415-2.285-16.553-7.315-22.352-8.94a22.634,22.634,0,0,0-1.589,5.817C6281.418,1658.033,6289.434,1659.434,6298.718,1659.9Z" transform="translate(-6278.771 -1611.479)" fill="#363b74"/>
              </g>
              <path id="Path_241" data-name="Path 241" d="M5751.753,1057.1s114.882-8.646,136.509,5,56.315,172.641,56.315,172.641-2.142,1.716-6.922,2.233c-4.447.481-14.24-2.133-14.24-2.133s-49.85-71.139-53.362-89.06-2.653-33.913-10.65-34.341S5751.737,1123.56,5736.66,1097s-2.612-52.852-2.612-52.852Z" transform="translate(-5667.907 -833.337)" fill="#363b74"/>
              <g id="Group_2970" data-name="Group 2970" transform="translate(208.866 406.429)">
                <path id="Path_242" data-name="Path 242" d="M6151.342,1640.331c-.532,5.758,7.483,7.158,16.768,7.62s6.477,2.364,19.2,4.669,17.819-1.178,18.74-2.9c.821-1.525-5.095-3.91-11.4-6.606-.794-.336-1.589-.683-2.382-1.03-7.1-3.119-11.075-9.482-16.607-15.381-5.238-5.587-10.213-23.477-10.213-23.477l-17.289-3.692s4.855,16.1,6.54,22.976c.992,4.043-.471,8.563-1.77,12A22.558,22.558,0,0,0,6151.342,1640.331Z" transform="translate(-6148.162 -1599.535)" fill="#ebaf7d"/>
                <path id="Path_243" data-name="Path 243" d="M6173.912,1712.283c9.283.462,6.478,2.364,19.2,4.668s17.82-1.178,18.742-2.9c.82-1.525-5.1-3.91-11.4-6.606l-.1.108a36.226,36.226,0,0,1-19.271.23c-8.416-2.286-16.554-7.315-22.352-8.939a22.632,22.632,0,0,0-1.59,5.817C6156.614,1710.421,6164.628,1711.821,6173.912,1712.283Z" transform="translate(-6153.964 -1663.867)" fill="#363b74"/>
              </g>
              <path id="Path_244" data-name="Path 244" d="M5669.585,1101.131s102.055,4.83,123.135,19.312,49.552,174.7,49.552,174.7-2.206,1.631-7,1.962c-4.462.308-14.146-2.686-14.146-2.686s-47.044-73.024-49.855-91.068-1.332-33.991-9.3-34.731-108.058,7.918-122.087-19.209S5669.585,1101.131,5669.585,1101.131Z" transform="translate(-5608.242 -870.25)" fill="#496087"/>
              <path id="Path_245" data-name="Path 245" d="M5652.876,451.936c-4.528-2.99-10.15-3.657-14.111-3.687a6.691,6.691,0,0,1,3.109-1.23c-2.422-.527-8.044,1.536-8.044,1.536-33.158-15.383-41.849,34.371-41.91,46.061s-.873,25.094-18.558,34.4c-34.8,18.315-8.984,56.061-8.984,56.061.253.172,13.813,27.125,13.813,27.125-.231-9.465,46.487-56.218,70.125-69.577,6.054-7.749,8.97-21.956,9.191-23.075-1.709,11.3-4.08,17.552-6.058,21.027C5671.8,524.208,5664.88,459.857,5652.876,451.936Z" transform="translate(-5555.166 -445.63)" fill="#2d133b"/>
              <path id="Path_246" data-name="Path 246" d="M5716.87,689.893s9.011.391,18.513,1.293c6.458.613,13.349,1.324,16.988,2.846,9,3.76,8.051,19.684-10.822,16.735S5715.547,694.615,5716.87,689.893Z" transform="translate(-5659.815 -603.859)" fill="#ebaf7d"/>
              <path id="Path_247" data-name="Path 247" d="M5753.473,657.781c.11.059,2.692,13.7-9.666,13.154-8.113-.358-25.609-10.174-24.063-17.12.734-3.3,6.864-11.868,8.1-31.421l1.477.395,24.831,6.66s-1.1,7.881-1.615,15.34C5752.1,651.051,5752.083,657.017,5753.473,657.781Z" transform="translate(-5661.714 -560.134)" fill="#ebaf7d"/>
              <path id="Path_248" data-name="Path 248" d="M5771.935,630.174s-1.1,7.881-1.615,15.34c-14.054-1.336-20.64-14.677-23.216-22Z" transform="translate(-5679.499 -560.86)" fill="#e8a069"/>
              <path id="Path_249" data-name="Path 249" d="M5725.935,521.84s-6.6-12.151-7.708-22.238c-.79-7.2,4.594-33.344,30.854-27.776a36.093,36.093,0,0,1,14.561,6.644c5.5,4.271,13.246,13.219,2.422,35.622l-2.932,7.616Z" transform="translate(-5660.747 -462.099)" fill="#2d133b"/>
              <path id="Path_250" data-name="Path 250" d="M5770.707,558.2s-33.351-1.671-31.989-22.425-2.029-34.947,19.322-34.756,24.967,8.38,26.2,15.417S5779.418,558.1,5770.707,558.2Z" transform="translate(-5674.041 -481.509)" fill="#ebaf7d"/>
              <path id="Path_251" data-name="Path 251" d="M5753.986,493.616s-10.744,23.738-24.982,26.4-20.062-1.489-20.062-1.489a39.729,39.729,0,0,0,14.528-22.555S5747.878,481.569,5753.986,493.616Z" transform="translate(-5654.778 -473.602)" fill="#2d133b"/>
              <path id="Path_252" data-name="Path 252" d="M5830.036,501.034s6.45,5.89,7.758,11.285,1.33,16.323,4.525,16.165c0,0,7.975-16.09.876-25.965C5835.668,492.046,5830.036,501.034,5830.036,501.034Z" transform="translate(-5733.221 -479.195)" fill="#2d133b"/>
              <path id="Path_253" data-name="Path 253" d="M5729.55,829.36c-2.7,3.227-11.126,4.217-20.134,5.7-7.086,1.171-14.532,2.638-19.826,5.748-12.022,7.058-51.3,30.914-62.815,29.828-4.463-.42-3.628-8.941-.924-20.246,4.256-17.854,13.164-42.649,13.164-53.43,0-5.884,1.958-19.808,4.571-35.728q.319-1.925.646-3.883c5.171-30.952,12.335-67.448,12.335-67.448s7.988,17.429,23.553,17.429,11.948-13.292,11.948-13.292,14.2,1.671,17.556,5.284,11.867,19.237,13.555,23.5c0,0,.345,5.421-13.078,8,0,0,3.269,14.716,3.656,24.526.288,7.247-4.944,29.929-6.449,44.036-.535,5-.6,8.918.207,10.7,1.038,2.278,4.4,4.549,8.219,6.775C5723.322,821.272,5732.754,825.523,5729.55,829.36Z" transform="translate(-5599.513 -603.863)" fill="#67a6b9"/>
              <path id="Path_254" data-name="Path 254" d="M5715.734,923.572c8.616,14.688-23.364,19.1-28.658,22.214-12.022,7.059-48.788,32.65-60.3,31.565-4.463-.42-3.628-8.941-.924-20.246,4.256-17.854,13.164-42.649,13.164-53.43,0-5.884,1.958-19.808,4.571-35.728l13.859-13.305s14.848,38.379,29,44.668a119.007,119.007,0,0,0,20.86,6.79c-.535,5-.6,8.918.207,10.7C5708.553,919.075,5711.913,921.345,5715.734,923.572Z" transform="translate(-5599.513 -710.58)" fill="#538c9f"/>
              <path id="Path_255" data-name="Path 255" d="M5655.91,719.028s-11.85-7.2-23.305,6.454,8.142,111.223,25.117,116.236c18.854,5.568,73.323-.892,73.323-.892L5730,832.314S5672.01,821.2,5669.6,818.1,5661.933,720.6,5655.91,719.028Z" transform="translate(-5603.113 -621.504)" fill="#ebaf7d"/>
              <path id="Path_256" data-name="Path 256" d="M5642.608,689.893s-24.333,2.195-31.4,10.2-9.133,29.691-9.133,29.691,21.428,17.3,47.247,10.585Z" transform="translate(-5585.552 -603.859)" fill="#67a6b9"/>
              <g id="Group_2971" data-name="Group 2971" transform="translate(133.62 180.003)">
                <rect id="Rectangle_15" data-name="Rectangle 15" width="32.14" height="3.798" transform="translate(0 43.88)" fill="#b03321"/>
                <path id="Path_257" data-name="Path 257" d="M6006.4,1003.839c.315-1.256,29.547-47.157,29.547-47.157h65.041l-32.624,45.925Z" transform="translate(-5981.085 -956.682)" fill="#b03321"/>
                <path id="Path_258" data-name="Path 258" d="M6014.168,1004.36c.314-1.257,29.641-47.678,29.641-47.678h62.209l-31.037,47.678Z" transform="translate(-5986.118 -956.682)" fill="#d24a32"/>
                <path id="Path_259" data-name="Path 259" d="M6157.124,1018.608a5.2,5.2,0,0,1-4.527,3.367c-1.861,0-2.849-1.507-2.208-3.367a5.193,5.193,0,0,1,4.527-3.368C6156.776,1015.24,6157.764,1016.747,6157.124,1018.608Z" transform="translate(-6074.231 -994.615)" fill="#b03321"/>
              </g>
              <path id="Path_260" data-name="Path 260" d="M5901.969,1037.4s18.879-3.654,21.012-2.741,14.007,11.571,12.789,13.7-6.09,3.654-11.572,1.827-17.357-2.741-19.488-5.481S5901.969,1037.4,5901.969,1037.4Z" transform="translate(-5779.818 -827.098)" fill="#ebaf7d"/>
            </g>
            <path id="Path_261" data-name="Path 261" d="M5711.259,1244.029c-6.9,39.795-44.748,65.014-83.547,65.014h-78.225l6.119-239.152s74.635-26.05,93.381-1.27c16.424,21.709,60.96,107.644,63.307,158.508A77.5,77.5,0,0,1,5711.259,1244.029Z" transform="translate(-5354.292 -842.263)" fill="#da711d"/>
            <path id="Path_262" data-name="Path 262" d="M5740,1584.191c-6.9,39.795-44.748,65.014-83.546,65.014h-62.6C5623.154,1629.345,5662.607,1574.471,5740,1584.191Z" transform="translate(-5383.032 -1182.425)" fill="#b03321"/>
            <path id="Path_263" data-name="Path 263" d="M5231.006,1036.907q-.878.064-1.755.114-1.856.1-3.723.127c-.411,0-.826.01-1.242.01h-78.225l0-.038-4.515.057c-8.055.1-16.468.193-24.272.259q-1.961.021-3.863.033c-.471,0-.944,0-1.406.009-7.709.052-14.528.076-19.393.042a129.149,129.149,0,0,1-19.344-1.49,86.414,86.414,0,0,1-21.558-6.167,70.323,70.323,0,0,1-6.856-3.482,67.479,67.479,0,0,1-8.484-5.785,76.478,76.478,0,0,1-18.047-21.19,115.938,115.938,0,0,1-9.375-20.435,197.493,197.493,0,0,1-8.228-32.787c-3.006-17.585-4.724-38.063-5.242-61.739q-.311-14.3-.047-30.179.417-25.38,2.265-54.964c1.717-27.73,4.345-58.318,7.819-91.988,3.165-30.754,6.817-52.251,12.13-57.148,7.837-7.224,24.182-10.13,35.552-11.295h.011c7.058-.722,12.187-.779,12.187-.779,13.891,0,26.238,9.975,30.7,24.795,9.078,30.178,25.285,84.133,42.153,140.569q.129.424.254.849,1.452,4.862,2.912,9.748c.146.5.3.991.448,1.487.948-.425,1.934-.869,2.955-1.317a.691.691,0,0,1,.1-.047c4.044-1.793,8.62-3.756,13.562-5.757h0c2.562-1.038,5.214-2.09,7.951-3.137,7.719-2.959,16.052-5.884,24.5-8.4,3.748-1.123,7.522-2.166,11.272-3.09,4.817-1.194,9.6-2.2,14.254-2.954.16-.028.292-.048.406-.066.552-.09,1.1-.17,1.646-.25,20.085-2.948,37.516-.9,44.725,11.819,11.541,20.375,43.3,101.657,45.64,152.667C5311.038,1002.039,5272.575,1033.788,5231.006,1036.907Z" transform="translate(-4995.304 -570.302)" fill="#e7b62c"/>
            <path id="Path_264" data-name="Path 264" d="M5212,825.1s-40.15-163.569-43.048-177.316c-1.29-6.127-5.27-8.342-9.278-8.911,7.057-.722,12.19-.776,12.19-.776,13.892,0,26.239,9.942,30.7,24.72,9.723,32.232,27.627,91.669,45.765,152.208C5247.409,815,5212,825.1,5212,825.1Z" transform="translate(-5101.78 -570.306)" fill="#da711d"/>
            <path id="Path_265" data-name="Path 265" d="M5522.405,1184.081c-10.744-17.76-1.723-21.091-3.369-60.876s-20.171-36.5-27.857-44.187c-1.407-1.415-2.6-4.3-3.728-8.172-.546.08-1.1.16-1.647.25-.113.018-.245.038-.406.066-4.657.75-9.437,1.759-14.253,2.954-3.752.925-7.525,1.967-11.272,3.09-8.445,2.52-16.778,5.445-24.5,8.4q-4.1,1.572-7.951,3.137c-6.647,41.733-16.934,228.759-16.934,228.759.085.09.166.175.251.259,8.4-.075,17.476-.175,26.11-.278q1.849-.029,3.667-.047l0,.038h59.03c.081-.043.162-.095.241-.142l.161-.1c15.854-9.833,12.315-29.561,8.582-41.927-1.5-13.225-7.345-28.715-12.121-43.116,1.482-4.383,3.563-6.889,12.495-10.187,9.923-3.656,12.527-19.274,12.527-19.274,2.653,6.983-3.411,16.622-3.571,16.877C5518.209,1219.2,5533.031,1201.633,5522.405,1184.081Z" transform="translate(-5264.252 -850.632)" fill="#b03321"/>
          </g>
          <g id="girl_2" data-name="girl 2" transform="translate(330.431 277.185)">
            <path id="Path_266" data-name="Path 266" d="M5082.031,1163.441s-59.552,25.945-70.361,25.474-77.421-20.289-77.421-20.289l1.7,11.459s51.406,29.565,69.376,31.242c17.694,1.651,78.194-15.88,84.036-19.582S5099.006,1167.187,5082.031,1163.441Z" transform="translate(-4920.692 -1066.905)" fill="#e6965f"/>
            <path id="Path_267" data-name="Path 267" d="M5320.3,890.452s21.969-4.173,32.911,3.817c19.82,14.474,20.884,64.374,28.313,71.808s25.335,4.262,26.929,42.725-7.129,41.679,3.259,58.849-4.394,34.354-4.394,34.354,6.056-9.478,3.46-16.319c0,0-2.521,15.1-12.113,18.637s-11.01,6.134-12.542,11.324c0,0-81.83-41.93-81.918-71.671s-16.1-59.2-8.239-72.089a28.5,28.5,0,0,0-3.932,11.647s-4.719-9.041,3.46-17.457-9.594-25.833-6.962-46C5290.339,906.225,5300.057,891.055,5320.3,890.452Z" transform="translate(-5150.017 -889.363)" fill="#2d133b"/>
            <path id="Path_268" data-name="Path 268" d="M5333.272,1129.009a57.289,57.289,0,0,0,20.021,8.52c30.859,7.13,42.687-18.953,47.129-36.856a26.512,26.512,0,0,0-10.457-3.212c-2.23-.263-4.576-.438-6.519-.534-3.465-2.655-8.629-13.517-9.77-30.384l-1.452.39-24.322,6.657s1.114,7.731,1.66,15.038c.424,5.718.489,11.183-.593,12.52-1.9.412-3.037.681-3.037.681a.079.079,0,0,1-.013.023A156.548,156.548,0,0,0,5333.272,1129.009Z" transform="translate(-5179.172 -1004.136)" fill="#ebaf7d"/>
            <path id="Path_269" data-name="Path 269" d="M5374.81,1074.319s1.117,7.725,1.66,15.038c13.779-1.38,20.173-14.5,22.663-21.694Z" transform="translate(-5206.079 -1004.862)" fill="#e6965f"/>
            <path id="Path_270" data-name="Path 270" d="M5338.075,1003.885s32.707-1.8,31.27-22.155,1.815-34.289-19.127-34-24.448,8.344-25.619,15.253S5329.531,1003.83,5338.075,1003.885Z" transform="translate(-5173.459 -927.171)" fill="#ebaf7d"/>
            <path id="Path_271" data-name="Path 271" d="M5316.329,943.89c4.61-6.484,8.523-5.414,10.793-3.727,17.152-11.1,29.7,2.591,29.7,2.591a38.969,38.969,0,0,0,14.361,22.053s-5.689,4.105-19.67,1.56c-4.271-.778-8.227-3.489-11.668-6.875a76.426,76.426,0,0,0,14.264,15.08c-16.939-6.4-25.158-28.735-25.988-31.1-1.866,1.934-5.518,6.106-6.442,10-1.257,5.3-6.68,13.582-9.813,13.443C5311.863,966.919,5309.415,953.612,5316.329,943.89Z" transform="translate(-5165.03 -919.459)" fill="#2d133b"/>
            <path id="Path_272" data-name="Path 272" d="M5373.026,1245.085c2.953-15.1,12.583-75.423,2.953-94.834-3.458-6.974-17.03-7.6-31.92-6.991-4.633,2.991-22.289,14.295-29.541,12.884-.077-.015-.218-.049-.4-.1-3.415-.854-4.7-3.253-1.856-5.321a65.007,65.007,0,0,0-16.534,1.013c-5.173.974-19.125,8.193-19.125,8.193s7.026,12.693,17.388,17.075c-1.762,15.759.857,22.712,17.206,59.111,13.816,30.769-1.864,58.469-1.864,58.469s81.325,65.387,81.778,32.095C5391.446,1301.619,5369.251,1264.382,5373.026,1245.085Z" transform="translate(-5142.459 -1053.715)" fill="#6ab5bd"/>
            <path id="Path_273" data-name="Path 273" d="M5218.155,1446.113a15.118,15.118,0,0,1-10.877-6.621q-.59-.881-1.258-1.893c-9.257-14.013-12.858-56.93-33.682-102.651-5.071-11.13-23.277-13.133-28.24-25.716,0,0-12.219-40.783,23.386-41.986s95.355,113.478,96.3,125.505C5264.7,1404.4,5287.321,1453.917,5218.155,1446.113Z" transform="translate(-5055.317 -1134.141)" fill="#363b74"/>
            <path id="Path_274" data-name="Path 274" d="M4956.3,1724.077h50.678s1.894-8.083-1.433-13.583c-2.945-4.866-1.816-7.639.364-11.665a19.681,19.681,0,0,1-8.535,1.607,17.854,17.854,0,0,1-7.537-2.65c-2.181,2.487-11.52,13.071-14.438,15.168C4972.089,1715.333,4957.322,1714.486,4956.3,1724.077Z" transform="translate(-4934.978 -1413.042)" fill="#363b74"/>
            <path id="Path_275" data-name="Path 275" d="M5394.275,1208.331s6.6,60.007-36.179,72.581-54.918-55.213-20.381-60.089S5394.275,1208.331,5394.275,1208.331Z" transform="translate(-5169.051 -1095.984)" fill="#538c9f"/>
            <path id="Path_276" data-name="Path 276" d="M5076.115,1276.072c-3.052,22.876-14.967,95.082-35.988,130.31-6.778,11.358,17.074,17.724,17.2,17.691,3.2-.837,8.529-5.937,10.985-8.151,17.065-15.38,51.709-58.931,51.709-93.846,0-17.025.3-49.539-12.08-57.8C5100.319,1259.183,5077.327,1266.986,5076.115,1276.072Z" transform="translate(-4988.493 -1131.178)" fill="#363b74"/>
            <path id="Path_277" data-name="Path 277" d="M5304.034,1440.392s-1.877-2.614-5.152-7.577c-3.9-5.9-8.208-17.519-13.442-32.41-5.5-15.632-12.018-34.864-20.167-54.874-2.514-6.177-5.185-12.428-8.025-18.67-5.073-11.131-19.025-9.593-23.987-22.176,0,0-19.37-43.621,16.235-44.824s103.261,116.689,107.147,128.107C5360.9,1400.465,5381.665,1452.367,5304.034,1440.392Z" transform="translate(-5110.979 -1129.357)" fill="#496087"/>
            <path id="Path_278" data-name="Path 278" d="M5061.919,1724.077H5112.6s1.895-8.083-1.433-13.583c-2.946-4.866-1.816-7.639.365-11.665a19.684,19.684,0,0,1-8.536,1.607,17.839,17.839,0,0,1-7.535-2.65c-2.182,2.487-11.52,13.071-14.439,15.168C5077.706,1715.333,5062.938,1714.486,5061.919,1724.077Z" transform="translate(-5003.394 -1413.042)" fill="#363b74"/>
            <path id="Path_279" data-name="Path 279" d="M5353.987,1495.873c-5.5-15.632-12.017-34.864-20.167-54.874,2.129-15.161,6.72-28.424,14.439-33.77C5348.259,1407.23,5366.986,1465.247,5353.987,1495.873Z" transform="translate(-5179.526 -1224.827)" fill="#363b74"/>
            <path id="Path_280" data-name="Path 280" d="M5174.113,1276.118c-3.051,22.877-7.35,96.7-28.37,131.932-6.777,11.357,17.074,17.724,17.2,17.691,3.2-.837,8.528-5.937,10.983-8.151,17.066-15.381,51.709-58.931,51.709-93.846,0-17.025-19.98-48.174-32.359-56.437A12.453,12.453,0,0,0,5174.113,1276.118Z" transform="translate(-5056.909 -1132.846)" fill="#496087"/>
            <g id="Group_2974" data-name="Group 2974" transform="translate(0 66.709)">
              <path id="Path_281" data-name="Path 281" d="M4911.557,1084.289l51.9-5.512a3.35,3.35,0,0,1,3.484,2.14l18.568,48.791a3.349,3.349,0,0,1-3,4.538l-51.5,2.078a3.352,3.352,0,0,1-3.226-2.055l-18.969-45.356A3.351,3.351,0,0,1,4911.557,1084.289Z" transform="translate(-4904.05 -1078.758)" fill="#b03321"/>
              <path id="Path_282" data-name="Path 282" d="M4898.759,1085.628l51.9-5.512a3.349,3.349,0,0,1,3.485,2.14l18.568,48.791a3.35,3.35,0,0,1-2.995,4.538l-51.5,2.077a3.348,3.348,0,0,1-3.226-2.054l-18.969-45.356A3.349,3.349,0,0,1,4898.759,1085.628Z" transform="translate(-4895.76 -1079.625)" fill="#d24a32"/>
              <path id="Path_283" data-name="Path 283" d="M4985.57,1154.68c-.634-1.741.264-3.153,2-3.153a4.99,4.99,0,0,1,4.3,3.153c.633,1.742-.265,3.154-2.006,3.154A4.988,4.988,0,0,1,4985.57,1154.68Z" transform="translate(-4953.806 -1125.896)" fill="#b03321"/>
              <path id="Path_284" data-name="Path 284" d="M4908.5,1106.041a1.049,1.049,0,0,1,.986-1.549,2.45,2.45,0,0,1,2.113,1.549,1.048,1.048,0,0,1-.985,1.549A2.452,2.452,0,0,1,4908.5,1106.041Z" transform="translate(-4903.946 -1095.428)" fill="#b03321"/>
            </g>
            <path id="Path_285" data-name="Path 285" d="M5242.543,1163.441s-71.928,26.489-82.734,25.945c-6.986-.351-65.048-20.76-65.048-20.76l-5.213,9.861s56.514,36.323,72.051,36.144c30.671-.355,82.428-19.183,88.27-22.885S5259.517,1167.187,5242.543,1163.441Z" transform="translate(-5021.292 -1066.905)" fill="#ebaf7d"/>
            <path id="Path_286" data-name="Path 286" d="M5035.745,1162.956s-5.212-8.021-10.4-8.256-14.155,3.539-17.222,4.128-11.8,3.42-9.2,7.668,14.626,5.189,19.817,4.246,11.8,2.075,11.8,2.075Z" transform="translate(-4962.277 -1061.235)" fill="#ebaf7d"/>
            <path id="Path_287" data-name="Path 287" d="M5056.074,1146.674s-8.255-3.786-10.614-4.494-1.887.011-1.179,2.247,4.955,4.369,4.955,5.072S5056.074,1146.674,5056.074,1146.674Z" transform="translate(-4991.595 -1052.963)" fill="#ebaf7d"/>
            <path id="Path_288" data-name="Path 288" d="M4919.087,1150.155s5.2-8.232,6.908-8.569c5.191-1.025,5.191,5.811,4.09,10.22-1.18,4.731-5.178,9.2-6.285,8.805S4917.862,1154.505,4919.087,1150.155Z" transform="translate(-4910.743 -1052.681)" fill="#ebaf7d"/>
            <path id="Path_289" data-name="Path 289" d="M4918.658,1170.792a13.777,13.777,0,0,0,7.106,14.054Z" transform="translate(-4910.511 -1071.667)" fill="#ebaf7d"/>
            <path id="Path_290" data-name="Path 290" d="M5345.745,1072.583s3.092-1.223,11.792-.517c0,0-.464,3.394-6.88,3.729A5.117,5.117,0,0,1,5345.745,1072.583Z" transform="translate(-5187.25 -1007.572)" fill="#fff"/>
            <path id="Path_291" data-name="Path 291" d="M5418.709,1173.432s6.433,20.366,28.526,25c0,0,36.485-11.24,18.318-36.1C5465.553,1162.335,5447.592,1148.99,5418.709,1173.432Z" transform="translate(-5234.516 -1063.833)" fill="#6ab5bd"/>
          </g>
        </g>
      </g>
    </g>
  </g>
</svg>
