<svg xmlns="http://www.w3.org/2000/svg" xmlns:xlink="http://www.w3.org/1999/xlink" width="1024" height="800" viewBox="0 0 1024 800">
  <defs>
    <clipPath id="clip-path">
      <rect id="Rectangle_5658" data-name="Rectangle 5658" width="1019" height="752" fill="#fff" stroke="#707070" stroke-width="1"/>
    </clipPath>
    <clipPath id="clip-Empty-favorite">
      <rect width="1024" height="800"/>
    </clipPath>
  </defs>
  <g id="Empty-favorite" clip-path="url(#clip-Empty-favorite)">
    <g id="graphic" transform="translate(-516.406 -187)">
      <g id="Mask_Group_48" data-name="Mask Group 48" transform="translate(519.406 187)" clip-path="url(#clip-path)">
        <circle id="Ellipse_119" data-name="Ellipse 119" cx="509.5" cy="509.5" r="509.5" transform="translate(0 63)" fill="#ffff14" opacity="0.25"/>
      </g>
      <ellipse id="Ellipse_51" data-name="Ellipse 51" cx="343.171" cy="44.405" rx="343.171" ry="44.405" transform="translate(801.282 898.189)" fill="#000d1c" opacity="0.05"/>
      <g id="Group_6544" data-name="Group 6544" transform="translate(1176.767 491.569)" opacity="0.5">
        <path id="Path_9474" data-name="Path 9474" d="M3021.167,1323.431c24.464,22.337,13.827,44.673-4.254,86.156s-21.276,194.65-21.276,194.65l14.9-2.127s-2.129-157.422,18.08-199.967,28.721-63.821,46.8-49.993S3021.167,1323.431,3021.167,1323.431Z" transform="translate(-2850.271 -1225.481)" fill="#ccc"/>
        <path id="Path_9475" data-name="Path 9475" d="M3010.666,1267.761c2.971-13.238,20.613-27.562,44.211-39.711-3.512,19.525-14.758,51.447-3.118,57.995,15.7,8.83,1.53-35.739,7.589-60.237a291.518,291.518,0,0,1,73.346-24.062c-.032.092-.06.177-.1.27-13.829,35.1-31.907,48.928-24.462,54.247,5.6,4,23.846-36.547,47.936-57.329,18.085-.964,33.384,1.488,42.436,8.653,13.989,11.074,23.378,20.9,9.309,54.624a63.227,63.227,0,0,1-30.545,11.071c-31.909,3.19-46.8,4.255-24.463,14.892,10.935,5.208,29.272-.3,44.136-3.646-4.823,8.886-10.749,18.944-17.953,30.4a112.888,112.888,0,0,1-14.95,19.026c-10.288,1.971-19.249,1.993-24-.042-14.891-6.382-53.183-26.591-62.756-18.082-9.368,8.328,70.916,13.6,65.354,34.768-38.915,22.421-83.445,11.752-91.316-8.836C3040.753,1314.111,3001.721,1307.606,3010.666,1267.761Z" transform="translate(-2853.208 -1198.733)" fill="#ccc"/>
        <path id="Path_9476" data-name="Path 9476" d="M3080.567,1475.437c-42.547-31.909-86.157-2.127-108.5,31.91s-6.379,110.62-6.379,110.62,8.511,0,8.511-3.189-23.4-90.412,31.909-129.768c34.6-24.62,59.563-12.763,62.756-1.063s-13.828,32.974-13.828,32.974Z" transform="translate(-2842.664 -1255.169)" fill="#ccc"/>
        <path id="Path_9477" data-name="Path 9477" d="M2988.348,1395.649c42.545,0,56.373,65.947,44.675,104.239s-27.659,109.558-27.659,109.558l-10.635-10.637s40.419-99.984,30.848-144.658-32.976-52.12-37.229-52.12S2988.348,1395.649,2988.348,1395.649Z" transform="translate(-2848.297 -1240.973)" fill="#ccc"/>
        <path id="Path_9478" data-name="Path 9478" d="M3031.378,1526.161a30.832,30.832,0,0,1,11.2-9.41,84.352,84.352,0,0,1-2.208,9.114c-5.329,17.447-11.544,41.736-16.733,63.015-.469-2.727-1.2-6.923-2.319-13.4-.262-1.532-.468-3.191-.613-4.95A412.737,412.737,0,0,0,3031.378,1526.161Z" transform="translate(-2855.645 -1266.951)" fill="#ccc"/>
        <path id="Path_9479" data-name="Path 9479" d="M3043.1,1512.761c80.839-34.037,38.249-80.744,109.513-49.9,5.018,2.172,11.136,7.651,17.261,15.206a53.051,53.051,0,0,1-22.581,1.811c-21.274-3.19-13.828,13.829,21.274,18.083a78.823,78.823,0,0,1,16.448,3.47c16.72,32.117,24.258,74.378-11.131,89.067-6.974,2.895-15.59,4.551-25.184,5.168-10.922-8.678,2.664-58.9-14.173-51.969-16.16,6.657,5.068,43.054,2.157,52.225a233.244,233.244,0,0,1-50.5-7.078c-6.678-3.745-11.776-8.765-13.35-15.364-5.319-22.337,29.783-36.164,30.848-55.31.978-17.6-12.866,38.722-49.541,47.011C3020.981,1549.694,3005.31,1528.673,3043.1,1512.761Z" transform="translate(-2855.733 -1253.231)" fill="#ccc"/>
        <path id="Path_9480" data-name="Path 9480" d="M2940.334,1431.466c8.509-18.082-13.829-22.336-12.767-8.509.944,12.251,1.047,42.037-11.517,50.145-21.672-2.348-51.157-11.08-73.445-24.392a9.041,9.041,0,0,1,.937-5.543c9.571-19.146,71.262-35.1,52.119-41.483-15.248-5.082-41.967,24.918-63.495,40.028-12.932-9.809-21.6-21.505-21.6-34.561,0-17.671,21.473-37.674,49.236-47.233,12.5,1.258,24.1,8.091,42.236,18.366,26.786,15.179,20.59-9.362-4.733-23.927,21.863,1.132,43.657,10.474,59.735,32.789,0,0-1.52,9.539,8.573,24.293,27.542,40.252-4.241,63.75-42.239,62.224C2925.529,1463.052,2934.454,1443.96,2940.334,1431.466Z" transform="translate(-2810.57 -1232.116)" fill="#ccc"/>
        <path id="Path_9481" data-name="Path 9481" d="M3107.589,1476.786c20.8,16.073,43.911,34.865,72.277,47.628s22.689,54.368,22.689,54.368,4.255-35.929-19.384-48.222-39.237-26.947-57.2-29.783a260.418,260.418,0,0,1-27.894-5.672s5.676-11.347,2.366-15.6S3107.589,1476.786,3107.589,1476.786Z" transform="translate(-2872.246 -1258.32)" fill="#ccc"/>
        <path id="Path_9482" data-name="Path 9482" d="M3199.016,1236.565c-76.116,20.328-131.9,69.021-142.3,80.841s-10.4,15.128-10.4,15.128l8.033,15.128,3.782-1.89s-6.141-12.765,9.931-29.312c27.718-28.534,61.459-51.057,84.623-60.985S3199.016,1236.565,3199.016,1236.565Z" transform="translate(-2861.142 -1206.848)" fill="#ccc"/>
        <path id="Rectangle_5639" data-name="Rectangle 5639" d="M0,0H103.962a0,0,0,0,1,0,0V56.589A47.666,47.666,0,0,1,56.3,104.255h-8.63A47.666,47.666,0,0,1,0,56.589V0A0,0,0,0,1,0,0Z" transform="translate(90.333 346.771)" fill="#ccc"/>
        <rect id="Rectangle_5640" data-name="Rectangle 5640" width="103.962" height="7.319" transform="translate(90.333 358.714)" fill="#ccc"/>
        <rect id="Rectangle_5641" data-name="Rectangle 5641" width="103.962" height="4.305" transform="translate(90.333 372.059)" fill="#ccc"/>
      </g>
      <g id="Group_6541" data-name="Group 6541" transform="translate(544.094 606.518)">
        <path id="Path_9474-2" data-name="Path 9474" d="M3037.792,1323.431c-18.046,16.476-10.2,32.952,3.137,63.551s15.694,143.578,15.694,143.578l-10.987-1.569s1.571-116.118-13.336-147.5-21.185-47.075-34.523-36.876S3037.792,1323.431,3037.792,1323.431Z" transform="translate(-2897.146 -1251.181)" fill="#52d1aa"/>
        <path id="Path_9475-2" data-name="Path 9475" d="M3159.9,1249.65c-2.191-9.765-15.205-20.331-32.612-29.292,2.591,14.4,10.886,37.949,2.3,42.778-11.579,6.513-1.129-26.362-5.6-44.432a215.031,215.031,0,0,0-54.1-17.749c.023.068.044.131.071.2,10.2,25.891,23.535,36.091,18.043,40.014-4.128,2.95-17.589-26.958-35.358-42.287-13.341-.711-24.625,1.1-31.3,6.383-10.319,8.168-17.245,15.415-6.867,40.292a46.638,46.638,0,0,0,22.531,8.166c23.537,2.353,34.521,3.138,18.044,10.985-8.065,3.841-21.591-.218-32.556-2.69,3.557,6.555,7.929,13.973,13.243,22.423a83.284,83.284,0,0,0,11.027,14.034c7.588,1.454,14.2,1.47,17.7-.031,10.985-4.708,39.229-19.614,46.291-13.337,6.91,6.143-52.31,10.034-48.207,25.645,28.7,16.538,61.551,8.669,67.356-6.518C3137.71,1283.838,3166.5,1279.041,3159.9,1249.65Z" transform="translate(-3009.345 -1198.733)" fill="#52d1aa"/>
        <path id="Path_9476-2" data-name="Path 9476" d="M2960.172,1471.866c31.383-23.537,63.551-1.569,80.028,23.538s4.706,81.6,4.706,81.6-6.278,0-6.278-2.352,17.263-66.69-23.536-95.719c-25.521-18.16-43.935-9.415-46.291-.784s10.2,24.322,10.2,24.322Z" transform="translate(-2868.953 -1309.391)" fill="#52d1aa"/>
        <path id="Path_9477-2" data-name="Path 9477" d="M3022.349,1395.649c-31.382,0-41.582,48.644-32.953,76.889s20.4,80.813,20.4,80.813l7.844-7.846s-29.814-73.751-22.753-106.7,24.323-38.444,27.46-38.444S3022.349,1395.649,3022.349,1395.649Z" transform="translate(-2858.952 -1281.557)" fill="#52d1aa"/>
        <path id="Path_9478-2" data-name="Path 9478" d="M3028.962,1523.692a22.74,22.74,0,0,0-8.259-6.941,61.932,61.932,0,0,0,1.629,6.722c3.931,12.869,8.515,30.786,12.342,46.481.346-2.011.882-5.105,1.71-9.885.193-1.13.345-2.354.453-3.651A304.463,304.463,0,0,1,3028.962,1523.692Z" transform="translate(-2891.886 -1332.493)" fill="#74b570"/>
        <path id="Path_9479-2" data-name="Path 9479" d="M3136.107,1497.026c-59.63-25.106-28.214-59.558-80.781-36.805-3.7,1.6-8.214,5.643-12.732,11.217a39.141,39.141,0,0,0,16.655,1.335c15.692-2.353,10.2,10.2-15.692,13.338a58.135,58.135,0,0,0-12.132,2.56c-12.332,23.69-17.894,54.863,8.211,65.7a59.086,59.086,0,0,0,18.576,3.813c8.057-6.4-1.964-43.447,10.455-38.334,11.919,4.911-3.739,31.758-1.591,38.522a172.023,172.023,0,0,0,37.247-5.221c4.926-2.762,8.687-6.465,9.847-11.333,3.924-16.476-21.968-26.676-22.753-40.8-.721-12.983,9.49,28.562,36.543,34.676C3152.42,1524.268,3163.979,1508.763,3136.107,1497.026Z" transform="translate(-3007.608 -1305.59)" fill="#52d1aa"/>
        <path id="Path_9480-2" data-name="Path 9480" d="M2836.881,1411.234c-6.277-13.338,10.2-16.476,9.417-6.276-.7,9.037-.772,31.007,8.5,36.988,15.987-1.732,37.735-8.173,54.176-17.992a6.665,6.665,0,0,0-.692-4.089c-7.06-14.123-52.564-25.892-38.443-30.6,11.247-3.749,30.955,18.38,46.835,29.526,9.538-7.236,15.929-15.863,15.929-25.493,0-13.034-15.838-27.789-36.318-34.84-9.217.928-17.779,5.968-31.155,13.547-19.757,11.2-15.187-6.905,3.492-17.649-16.127.835-32.2,7.726-44.063,24.186,0,0,1.123,7.036-6.323,17.919-20.315,29.691,3.128,47.023,31.156,45.9C2847.8,1434.533,2841.219,1420.45,2836.881,1411.234Z" transform="translate(-2665.897 -1264.189)" fill="#52d1aa"/>
        <path id="Path_9481-2" data-name="Path 9481" d="M3168.464,1476.715c-15.343,11.856-32.389,25.717-53.313,35.132s-16.736,40.1-16.736,40.1-3.139-26.5,14.3-35.57,28.943-19.876,42.194-21.969a192.018,192.018,0,0,0,20.576-4.184s-4.187-8.37-1.746-11.508S3168.464,1476.715,3168.464,1476.715Z" transform="translate(-3075.358 -1315.569)" fill="#52d1aa"/>
        <path id="Path_9482-2" data-name="Path 9482" d="M3046.314,1236.565c56.145,14.994,97.294,50.911,104.964,59.63s7.672,11.159,7.672,11.159l-5.925,11.159-2.789-1.395s4.529-9.416-7.326-21.621c-20.445-21.047-45.334-37.661-62.42-44.984S3046.314,1236.565,3046.314,1236.565Z" transform="translate(-3028.837 -1214.645)" fill="#52d1aa"/>
        <path id="Rectangle_5639-2" data-name="Rectangle 5639" d="M0,0H76.685a0,0,0,0,1,0,0V38.558A38.342,38.342,0,0,1,38.342,76.9h0A38.342,38.342,0,0,1,0,38.558V0A0,0,0,0,1,0,0Z" transform="translate(123.385 255.786)" fill="#75a1de"/>
        <rect id="Rectangle_5640-2" data-name="Rectangle 5640" width="76.685" height="5.398" transform="translate(123.385 264.596)" fill="#fff"/>
        <rect id="Rectangle_5641-2" data-name="Rectangle 5641" width="76.685" height="3.175" transform="translate(123.385 274.439)" fill="#fff"/>
      </g>
      <g id="Box" transform="translate(907.626 457.128)">
        <g id="Group_4665" data-name="Group 4665" transform="translate(0 185.613)">
          <path id="Rectangle_2296" data-name="Rectangle 2296" d="M0,0H423.315a0,0,0,0,1,0,0V233.477a6.47,6.47,0,0,1-6.47,6.47H6.47A6.47,6.47,0,0,1,0,233.477V0A0,0,0,0,1,0,0Z" transform="translate(38.538 56.517)" fill="#f67d48"/>
          <g id="Group_4664" data-name="Group 4664">
            <path id="Path_7500" data-name="Path 7500" d="M212.723,688.274h299.52L475.39,641.119c-4.04-5.168-14.073-9.36-22.4-9.36H183.638c-8.332,0-11.812,4.192-7.771,9.36Z" transform="translate(-174.183 -631.759)" fill="#df6a37"/>
            <path id="Path_7501" data-name="Path 7501" d="M212.723,688.274h299.52L475.39,641.119c-4.04-5.168-14.073-9.36-22.4-9.36H183.638c-8.332,0-11.812,4.192-7.771,9.36Z" transform="translate(-174.183 -631.759)" fill="#df6a37" opacity="0.2"/>
          </g>
          <path id="Path_7502" data-name="Path 7502" d="M522.959,674.567H223.439l36.853-30.736c4.04-3.371,14.073-6.1,22.4-6.1H552.04c8.335,0,11.812,2.729,7.771,6.1Z" transform="translate(-61.106 -618.049)" fill="#f67d48"/>
          <path id="Rectangle_2297" data-name="Rectangle 2297" d="M0,0H299.521a0,0,0,0,1,0,0V233.477a6.47,6.47,0,0,1-6.47,6.47H6.47A6.47,6.47,0,0,1,0,233.477V0A0,0,0,0,1,0,0Z" transform="translate(162.331 56.517)" fill="#fff" opacity="0.2"/>
          <path id="Path_7503" data-name="Path 7503" d="M197.157,648.907V798.8l10.352-8.17,7.287,8.17,6.34-9.1,6.467,9.1,9.053-6.845,9.937,6.845V648.907Z" transform="translate(-121.441 -592.391)" fill="#fff" opacity="0.5"/>
          <text id="ни" transform="translate(258.236 230.084)" fill="#e06a37" font-size="127" font-family="Kitaboo_6_0"><tspan x="0" y="0">ни</tspan></text>
        </g>
        <path id="Path_7329" data-name="Path 7329" d="M283.959,0C254,7.819,241.912,43.283,219.023,64.138,199,82.382,169,88.891,143.211,80.588c-10.88-3.507-21.389-9.887-26.957-19.872-11.59-20.785,8.655-50.885,32.28-47.981,21.273,2.612,34.853,26.6,32.74,47.932s-15.793,39.713-30.8,55.017c-33.535,34.2-77.33,58.172-122.846,68.963S6.553,203.268,6.553,203.268" transform="matrix(0.998, 0.07, -0.07, 0.998, 124.615, 38.113)" fill="none" stroke="#0032a7" stroke-miterlimit="10" stroke-width="1" stroke-dasharray="2"/>
        <g id="Group_4543" data-name="Group 4543" transform="matrix(0.996, 0.087, -0.087, 0.996, 420.863, 0)">
          <g id="Group_4541" data-name="Group 4541" transform="translate(26.537 0)">
            <path id="Path_7330" data-name="Path 7330" d="M.506,15.023A11.854,11.854,0,0,1,8.445.254C14.714-1.634,21.523,7.4,20.206,13.817c-3.55,17.3-.241,24.742-.241,24.742S2.394,21.293.506,15.023Z" transform="translate(11.816)" fill="#e27d4c"/>
            <path id="Path_7331" data-name="Path 7331" d="M3.024,18.34A11.854,11.854,0,0,1,3.946,1.6C8.824-2.77,18.822,2.523,20.355,8.89,24.479,26.06,30.637,31.4,30.637,31.4S7.4,23.217,3.024,18.34Z" transform="translate(0 5.372)" fill="#f2cf53"/>
          </g>
          <path id="Path_7332" data-name="Path 7332" d="M79.39,3.4C71.8-2.514,65.44.146,63.218,4.84a26.532,26.532,0,0,0-12,.642,29.105,29.105,0,0,0-8.778,3.858,57.064,57.064,0,0,1-15.662,7.189L3.311,23.6c-2.135.567-3.765,1.421-3.2,3.56s2.329,1.791,4.469,1.224l23.651-5.265a59,59,0,0,1,17.428-1.464,29.171,29.171,0,0,0,9.583-.994,26.594,26.594,0,0,0,10.742-5.391,8.338,8.338,0,0,0,6.952,1.271c4.515-1.2,9.3-6.41,8.025-10.914A4.4,4.4,0,0,0,79.39,3.4Z" transform="translate(0 25.213)" fill="#f2cf53"/>
          <g id="Group_4542" data-name="Group 4542" transform="translate(2.601 39.424)">
            <path id="Path_7333" data-name="Path 7333" d="M.71.52C.466.585.229.657,0,.732A12.548,12.548,0,0,1,1.719,5.369L1.981,5.3l2.135-.478A14.859,14.859,0,0,0,2.437,0Z" transform="translate(0 8.865)" fill="#e27d4c"/>
            <path id="Path_7334" data-name="Path 7334" d="M0,.736A12.53,12.53,0,0,1,1.9,5.879L4.3,5.344A14.931,14.931,0,0,0,2.44,0Z" transform="translate(7.092 6.729)" fill="#e27d4c"/>
            <path id="Path_7335" data-name="Path 7335" d="M0,.736A12.587,12.587,0,0,1,2.085,6.4l2.394-.535A14.918,14.918,0,0,0,2.44,0Z" transform="translate(14.183 4.594)" fill="#e27d4c"/>
            <path id="Path_7336" data-name="Path 7336" d="M0,.736A12.589,12.589,0,0,1,2.268,6.912l2.089-.467c.1-.021.2-.036.305-.057A14.981,14.981,0,0,0,2.444,0Z" transform="translate(21.276 2.459)" fill="#e27d4c"/>
            <path id="Path_7337" data-name="Path 7337" d="M2.311,0C1.543.32.783.657,0,.944A12.661,12.661,0,0,1,2.523,7.763a1.15,1.15,0,0,0,.054.193q1.19-.172,2.39-.3A15,15,0,0,0,2.311,0Z" transform="translate(28.295)" fill="#e27d4c"/>
          </g>
        </g>
      </g>
      <g id="girl_2" data-name="girl 2" transform="translate(737.331 587.511)">
        <path id="Path_266" data-name="Path 266" d="M5100.392,1163.441s-66.953,29.169-79.1,28.639-87.039-22.811-87.039-22.811l1.9,12.883s57.8,33.241,78,35.125c19.9,1.856,87.912-17.854,94.483-22.016S5119.479,1167.652,5100.392,1163.441Z" transform="translate(-4919.006 -1054.907)" fill="#e6965f"/>
        <path id="Path_267" data-name="Path 267" d="M5324.286,890.587s24.692-4.692,37,4.292c22.283,16.272,23.481,72.375,31.83,80.733s28.486,4.791,30.277,48.034-8.016,46.859,3.663,66.164-4.942,38.623-4.942,38.623,6.811-10.655,3.893-18.348c0,0-2.835,16.975-13.621,20.954s-12.377,6.9-14.1,12.731c0,0-92-47.141-92.1-80.578s-18.1-66.56-9.262-81.049a32.056,32.056,0,0,0-4.421,13.095s-5.3-10.164,3.891-19.626-10.786-29.044-7.826-51.723C5290.6,908.321,5301.518,891.265,5324.286,890.587Z" transform="translate(-5132.83 -889.363)" fill="#2d133b"/>
        <path id="Path_268" data-name="Path 268" d="M5333.271,1136.772a64.372,64.372,0,0,0,22.511,9.579c34.694,8.017,47.99-21.308,52.985-41.436a29.836,29.836,0,0,0-11.757-3.613c-2.507-.3-5.144-.493-7.328-.6-3.9-2.983-9.708-15.2-10.986-34.16l-1.635.438-27.341,7.484s1.25,8.692,1.868,16.908c.471,6.427.547,12.573-.672,14.076-2.131.464-3.412.765-3.412.765s0,.01-.015.026A175.68,175.68,0,0,0,5333.271,1136.772Z" transform="translate(-5160.019 -996.38)" fill="#ebaf7d"/>
        <path id="Path_269" data-name="Path 269" d="M5374.808,1075.147s1.253,8.685,1.863,16.907c15.494-1.551,22.681-16.3,25.476-24.391Z" transform="translate(-5185.105 -997.057)" fill="#e6965f"/>
        <path id="Path_270" data-name="Path 270" d="M5339.77,1010.865s36.767-2.029,35.153-24.909,2.043-38.551-21.506-38.222-27.481,9.381-28.8,17.149S5330.166,1010.8,5339.77,1010.865Z" transform="translate(-5154.692 -924.616)" fill="#ebaf7d"/>
        <path id="Path_271" data-name="Path 271" d="M5316.937,944.893c5.183-7.289,9.582-6.087,12.134-4.19,19.283-12.478,33.39,2.912,33.39,2.912a43.824,43.824,0,0,0,16.146,24.794s-6.4,4.615-22.118,1.753c-4.8-.874-9.244-3.923-13.112-7.729a85.776,85.776,0,0,0,16.04,16.954c-19.05-7.2-28.3-32.306-29.222-34.965-2.1,2.175-6.2,6.865-7.243,11.248-1.418,5.958-7.512,15.271-11.034,15.114C5311.917,970.784,5309.16,955.823,5316.937,944.893Z" transform="translate(-5146.833 -917.425)" fill="#2d133b"/>
        <path id="Path_272" data-name="Path 272" d="M5385.01,1257.762c3.321-16.975,14.147-84.8,3.321-106.62-3.884-7.84-19.146-8.547-35.886-7.86-5.215,3.363-25.061,16.072-33.213,14.486-.09-.017-.247-.055-.458-.107-3.842-.96-5.29-3.658-2.086-5.982a73.034,73.034,0,0,0-18.591,1.138c-5.815,1.1-21.5,9.212-21.5,9.212s7.9,14.27,19.546,19.2c-1.98,17.716.969,25.534,19.35,66.457,15.525,34.594-2.1,65.737-2.1,65.737s91.429,73.514,91.941,36.084C5405.721,1321.323,5380.768,1279.458,5385.01,1257.762Z" transform="translate(-5125.787 -1042.609)" fill="#a2c9eb"/>
        <path id="Path_273" data-name="Path 273" d="M5227.61,1468.346a16.993,16.993,0,0,1-12.228-7.444c-.442-.661-.918-1.371-1.414-2.129-10.408-15.755-14.456-64.005-37.868-115.409-5.7-12.514-26.174-14.765-31.754-28.913,0,0-13.733-45.852,26.294-47.205s107.207,127.582,108.268,141.1C5279.936,1421.45,5305.375,1477.12,5227.61,1468.346Z" transform="translate(-5044.535 -1117.599)" fill="#363b74"/>
        <path id="Path_274" data-name="Path 274" d="M4956.3,1727.345h56.979s2.126-9.087-1.615-15.271c-3.31-5.472-2.04-8.589.409-13.115a22.124,22.124,0,0,1-9.592,1.807,20.063,20.063,0,0,1-8.475-2.981c-2.452,2.8-12.953,14.7-16.234,17.054C4974.051,1717.514,4957.449,1716.562,4956.3,1727.345Z" transform="translate(-4932.328 -1377.651)" fill="#4b4b4b"/>
        <path id="Path_275" data-name="Path 275" d="M5403.8,1208.331s7.419,67.466-40.677,81.6-61.745-62.075-22.912-67.557S5403.8,1208.331,5403.8,1208.331Z" transform="translate(-5150.58 -1082.02)" fill="#71a3ce"/>
        <path id="Path_276" data-name="Path 276" d="M5080.736,1277.738c-3.433,25.719-16.828,106.9-40.458,146.505-7.623,12.77,19.2,19.926,19.339,19.889,3.6-.941,9.584-6.675,12.348-9.163,19.19-17.293,58.137-66.256,58.137-105.511,0-19.14.342-55.7-13.578-64.987C5107.948,1258.751,5082.1,1267.522,5080.736,1277.738Z" transform="translate(-4982.227 -1114.836)" fill="#363b74"/>
        <path id="Path_277" data-name="Path 277" d="M5313.481,1462.831s-2.106-2.939-5.793-8.519c-4.381-6.637-9.229-19.7-15.11-36.439-6.182-17.574-13.512-39.2-22.671-61.695-2.828-6.944-5.827-13.974-9.027-20.991-5.7-12.514-21.391-10.785-26.967-24.932,0,0-21.776-49.042,18.254-50.4s116.093,131.193,120.465,144.029C5377.412,1417.942,5400.761,1476.294,5313.481,1462.831Z" transform="translate(-5096.432 -1113.137)" fill="#496087"/>
        <path id="Path_278" data-name="Path 278" d="M5061.917,1727.345h56.975s2.131-9.087-1.611-15.271c-3.311-5.472-2.04-8.589.413-13.115a22.155,22.155,0,0,1-9.6,1.807,20.074,20.074,0,0,1-8.473-2.981c-2.451,2.8-12.948,14.7-16.231,17.054C5079.666,1717.514,5063.063,1716.562,5061.917,1727.345Z" transform="translate(-4996.117 -1377.651)" fill="#4b4b4b"/>
        <path id="Path_279" data-name="Path 279" d="M5356.5,1506.891c-6.184-17.575-13.515-39.2-22.677-61.695,2.4-17.044,7.559-31.956,16.236-37.966C5350.056,1407.23,5371.107,1472.457,5356.5,1506.891Z" transform="translate(-5160.349 -1202.156)" fill="#363b74"/>
        <path id="Path_280" data-name="Path 280" d="M5177.788,1277.469c-3.432,25.722-8.261,108.724-31.9,148.331-7.615,12.768,19.2,19.927,19.343,19.888,3.6-.941,9.586-6.675,12.352-9.163,19.185-17.292,58.134-66.256,58.134-105.51,0-19.142-22.462-54.161-36.383-63.452A14,14,0,0,0,5177.788,1277.469Z" transform="translate(-5046.018 -1116.392)" fill="#496087"/>
        <g id="Group_2974" data-name="Group 2974" transform="translate(0 75)">
          <path id="Path_281" data-name="Path 281" d="M4911.928,1084.975l58.348-6.2a3.766,3.766,0,0,1,3.917,2.406l20.879,54.853a3.766,3.766,0,0,1-3.369,5.1l-57.9,2.337a3.764,3.764,0,0,1-3.626-2.309l-21.33-50.994A3.77,3.77,0,0,1,4911.928,1084.975Z" transform="translate(-4903.484 -1078.757)" fill="#404040"/>
          <path id="Path_282" data-name="Path 282" d="M4899.13,1086.315l58.345-6.2a3.782,3.782,0,0,1,3.926,2.405l20.869,54.855a3.764,3.764,0,0,1-3.368,5.1l-57.9,2.337a3.769,3.769,0,0,1-3.625-2.311l-21.327-50.993A3.769,3.769,0,0,1,4899.13,1086.315Z" transform="translate(-4895.758 -1079.568)" fill="#828282"/>
          <path id="Path_283" data-name="Path 283" d="M4985.6,1155.072c-.717-1.957.293-3.545,2.252-3.545a5.606,5.606,0,0,1,4.836,3.545c.711,1.959-.3,3.547-2.258,3.547A5.6,5.6,0,0,1,4985.6,1155.072Z" transform="translate(-4949.883 -1122.711)" fill="#e4e4e4"/>
          <path id="Path_284" data-name="Path 284" d="M4908.5,1106.234a1.182,1.182,0,0,1,1.111-1.742,2.744,2.744,0,0,1,2.373,1.742,1.178,1.178,0,0,1-1.107,1.741A2.759,2.759,0,0,1,4908.5,1106.234Z" transform="translate(-4903.393 -1094.301)" fill="#404040"/>
        </g>
        <path id="Path_285" data-name="Path 285" d="M5261.554,1163.441s-80.87,29.78-93.012,29.169c-7.862-.394-73.138-23.341-73.138-23.341l-5.858,11.087s63.534,40.838,81,40.635c34.483-.4,92.677-21.567,99.244-25.729S5280.638,1167.652,5261.554,1163.441Z" transform="translate(-5012.806 -1054.907)" fill="#ebaf7d"/>
        <path id="Path_286" data-name="Path 286" d="M5040.381,1163.983s-5.86-9.018-11.7-9.283-15.916,3.979-19.361,4.641-13.26,3.844-10.343,8.621,16.442,5.836,22.279,4.774,13.262,2.333,13.262,2.333Z" transform="translate(-4957.783 -1049.621)" fill="#ebaf7d"/>
        <path id="Path_287" data-name="Path 287" d="M5057.61,1147.265s-9.282-4.256-11.934-5.053-2.119.013-1.327,2.528,5.571,4.91,5.571,5.7S5057.61,1147.265,5057.61,1147.265Z" transform="translate(-4985.12 -1041.907)" fill="#ebaf7d"/>
        <path id="Path_288" data-name="Path 288" d="M4919.113,1151.233s5.847-9.255,7.767-9.634c5.832-1.154,5.832,6.533,4.594,11.49-1.328,5.32-5.822,10.338-7.067,9.9S4917.731,1156.124,4919.113,1151.233Z" transform="translate(-4909.731 -1041.643)" fill="#ebaf7d"/>
        <path id="Path_289" data-name="Path 289" d="M4918.672,1170.792s-1.872,10.383,7.989,15.8Z" transform="translate(-4909.514 -1059.346)" fill="#ebaf7d"/>
        <path id="Path_291" data-name="Path 291" d="M5418.707,1175.262s7.237,22.9,32.071,28.107c0,0,41.022-12.638,20.594-40.582C5471.372,1162.786,5451.179,1147.783,5418.707,1175.262Z" transform="translate(-5211.622 -1052.042)" fill="#a2c9eb"/>
      </g>
    </g>
  </g>
</svg>
