<svg xmlns="http://www.w3.org/2000/svg" xmlns:xlink="http://www.w3.org/1999/xlink" width="1024" height="800" viewBox="0 0 1024 800">
  <defs>
    <clipPath id="clip-path">
      <rect id="Rectangle_1311" data-name="Rectangle 1311" width="990" height="716" fill="#f7ddd2" stroke="#707070" stroke-width="1"/>
    </clipPath>
    <clipPath id="clip-Empty-Downloaded">
      <rect width="1024" height="800"/>
    </clipPath>
  </defs>
  <g id="Empty-Downloaded" clip-path="url(#clip-Empty-Downloaded)">
    <g id="graphic" transform="translate(17.8 -242.913)">
      <ellipse id="Ellipse_51" data-name="Ellipse 51" cx="288.793" cy="37.369" rx="288.793" ry="37.369" transform="translate(163.936 968.175)" fill="#000d1c" opacity="0.05"/>
      <g id="Mask_Group_1" data-name="Mask Group 1" transform="translate(-0.8 242.913)" clip-path="url(#clip-path)">
        <ellipse id="Ellipse_63" data-name="Ellipse 63" cx="445.64" cy="444.789" rx="445.64" ry="444.789" transform="translate(49.106 73.659)" fill="#fadebf" opacity="0.52"/>
      </g>
      <g id="leaf" transform="translate(415.858 836.135)">
        <g id="Group_4537" data-name="Group 4537" transform="translate(0)">
          <path id="Path_7325" data-name="Path 7325" d="M660.641,428.5c-1.045-.39-1.775-.646-1.775-.646s-2.549-.9-5.18-1.68-5.324-1.445-5.324-1.445,2.629-.884,5.337-1.638,5.475-1.392,5.475-1.392,2.1-.484,4.52-.938a82.06,82.06,0,0,0,2.981-41.44c-1.244-.055-2.621-.124-4-.208-4.4-.261-8.75-.678-8.75-.678s-4.361-.4-8.675-.966-8.588-1.251-8.588-1.251,4.247-.839,8.435-1.827,8.318-2.1,8.318-2.1,4.133-1.112,8.2-2.363c.839-.258,1.673-.519,2.472-.774A82.046,82.046,0,0,0,637,330.052c-1.626.9-3.872,2.174-6.079,3.577-4.16,2.611-8.129,5.634-8.129,5.634s-3.976,3-7.717,6.389c-3.753,3.363-7.233,7.111-7.233,7.111s2.2-4.609,4.845-9.057c2.616-4.456,5.667-8.717,5.667-8.717s3.021-4.272,6.466-8.305c.911-1.08,1.847-2.135,2.735-3.108a82.6,82.6,0,0,0-31.081-10.658l-2.157,3.222-4.393,6.56-1.66-7.717-.591-2.745a81.608,81.608,0,0,0-19.832,1.966l70.208,143.712A81.983,81.983,0,0,0,660.641,428.5Z" transform="translate(-537.835 -312.216)" fill="#86d7b0"/>
          <path id="Path_7326" data-name="Path 7326" d="M618.885,456.471c.335-1.062.583-1.794.583-1.794s.854-2.569,1.857-5.123,2.132-5.083,2.132-5.083-2.311,1.529-4.57,3.2-4.465,3.463-4.465,3.463-1.673,1.36-3.517,2.988A82.068,82.068,0,0,1,576.385,431c.72-1.015,1.512-2.145,2.289-3.279,2.5-3.629,4.848-7.32,4.848-7.32s2.358-3.691,4.57-7.437,4.292-7.543,4.292-7.543-3.274,2.832-6.625,5.53-6.769,5.272-6.769,5.272-3.418,2.576-6.9,5.012c-.717.5-1.437,1-2.13,1.474a82.887,82.887,0,0,1-5.865-10.1,81.854,81.854,0,0,1-8.337-35.3c1.7-.732,4.1-1.718,6.558-2.6,4.619-1.678,9.442-2.949,9.442-2.949s4.805-1.293,9.782-2.159c4.959-.894,10.055-1.335,10.055-1.335s-4.987-1.1-10.122-1.748c-5.124-.673-10.361-.886-10.361-.886s-5.225-.241-10.524-.005c-1.41.055-2.82.146-4.133.248a82.612,82.612,0,0,1,10.7-31.066l3.87.278,7.873.566-5.066-6.054-1.8-2.152a81.731,81.731,0,0,1,13.741-14.436l70.208,143.712A82,82,0,0,1,618.885,456.471Z" transform="translate(-555.754 -311.029)" fill="#74c59b"/>
        </g>
      </g>
      <g id="leaf-2" data-name="leaf" transform="translate(596.336 751.695)">
        <g id="Group_4539" data-name="Group 4539" transform="translate(0 0)">
          <path id="Path_7327" data-name="Path 7327" d="M714.085,428.736c-6.752,3.011-13.791,4.875-21.657,6.665,1.867-.958,14.091-7.129,17.909-9.946a45.369,45.369,0,0,0,15.689-21.272c.092-.256-.069-.611-.392-.559-3.311.554-14.411,2.668-14.411,2.668s9.407-3.535,11.845-4.617c2.407-1.07,12.1-18.509,13.7-25.747.079-.357-.337-.544-.61-.39q-12.846,7.212-26.214,13.418c8.122-6.387,16.409-12.639,24.256-19.348,3.922-3.353,11.408-22.218,12.537-27.4a.383.383,0,0,0-.608-.385,73.276,73.276,0,0,1-16.683,9.1c10.927-9.638,20.858-22.871,17.671-38.245a.4.4,0,0,0-.616-.288,50.779,50.779,0,0,1-8.32,4.937q2.42-4.71,4.84-9.425c1.256-2.46,1.864-4.289.864-6.98-2.4-6.456-5.163-12.8-7.786-19.17L631.487,505.137c13.753,3.857,24.424-9.641,24.424-9.641l-1.74-1.281c5.773-1.184,11.368-2.666,15.953-6.6,4.456-3.825,7.588-8.9,10.621-13.86a.393.393,0,0,0-.188-.524c-1.385-.5-10.016,2.147-11.4,1.643,3.351-.422,14.067-4.242,16.77-6.337A8.667,8.667,0,0,0,689.472,460a.4.4,0,0,0-.524-.333c-6.461,2.127-12.979,4.222-19.758,4.885,10.038-3.9,25.266-8.993,26.46-10.48l18.825-24.856A.32.32,0,0,0,714.085,428.736Z" transform="translate(-620.206 -281.755)" fill="#87cdac"/>
          <path id="Path_7328" data-name="Path 7328" d="M644.026,392.772c2.011,7.114,5.086,13.716,8.747,20.9-.459-2.048-3.545-15.387-3.825-20.125a45.351,45.351,0,0,1,6.295-25.67.4.4,0,0,1,.678-.057c1.7,2.9,7.181,12.778,7.181,12.778s-3.309-9.489-4.039-12.053c-.72-2.534,6.471-21.146,11-27.013a.4.4,0,0,1,.69.221q2.684,14.487,6.476,28.729c-.293-10.331-.8-20.7-.665-31.019.065-5.16,9.762-22.99,13.021-27.177a.383.383,0,0,1,.685.221,73.407,73.407,0,0,0,3.686,18.643c.409-14.565,4.215-30.665,18.067-38.059a.4.4,0,0,1,.613.288,51.061,51.061,0,0,0,1.534,9.551q2.07-4.874,4.143-9.753c1.085-2.539,2.1-4.175,4.81-5.133,6.491-2.291,13.135-4.227,19.711-6.29L638.223,505.137c-11.768-8.094-8.231-24.933-8.231-24.933l2.1.516c-2.79-5.2-5.232-10.44-5.145-16.479.085-5.875,1.983-11.53,3.847-17.037a.4.4,0,0,1,.524-.189c1.273.742,4.764,9.07,6.037,9.809-1.822-2.842-5.749-13.52-5.868-16.938a8.665,8.665,0,0,1,4.282-8.189.4.4,0,0,1,.593.191c2.5,6.325,5.066,12.671,8.9,18.3-3.43-10.209-9.271-25.167-8.893-27.036l7.042-30.374A.319.319,0,0,1,644.026,392.772Z" transform="translate(-626.942 -281.755)" fill="#71c299"/>
        </g>
      </g>
      <g id="leaf-3" data-name="leaf" transform="matrix(-0.966, -0.259, 0.259, -0.966, 734.525, 1042.913)">
        <g id="Group_4555" data-name="Group 4555" transform="translate(0 0)">
          <path id="Path_7353" data-name="Path 7353" d="M119.575,34.316c-1.11.1-1.881.156-1.881.156s-2.7.2-5.441.261-5.515,0-5.515,0,2.3,1.541,4.719,2.981,4.917,2.783,4.917,2.783,1.9,1.02,4.113,2.095a82.036,82.036,0,0,1-8.015,40.764c-1.214-.273-2.562-.568-3.91-.849-4.309-.9-8.621-1.646-8.621-1.646s-4.314-.755-8.623-1.348-8.616-1.05-8.616-1.05,3.877,1.926,7.658,3.979,7.474,4.21,7.474,4.21,3.7,2.16,7.288,4.436c.742.469,1.477.941,2.182,1.4a82.79,82.79,0,0,1-7.059,9.311A81.831,81.831,0,0,1,70.9,123.095c-1.335-1.291-3.165-3.115-4.927-5.049-3.329-3.614-6.362-7.573-6.362-7.573s-3.048-3.937-5.766-8.191c-2.736-4.235-5.111-8.765-5.111-8.765s.911,5.024,2.294,10.013c1.353,4.987,3.177,9.9,3.177,9.9s1.794,4.912,4.056,9.71c.6,1.281,1.221,2.547,1.825,3.721a82.623,82.623,0,0,1-32.792,2.112L26.055,125.3l-2.514-7.484-3.631,7.01-1.291,2.494A81.714,81.714,0,0,1,0,120.208L105.509,0A82,82,0,0,1,119.575,34.316Z" transform="translate(15.136 9.497)" fill="#86d7b0"/>
          <path id="Path_7354" data-name="Path 7354" d="M84.795,0c.045,1.115.089,1.886.089,1.886s.152,2.7.447,5.429.723,5.468.723,5.468S84.224,10.7,82.484,8.491s-3.4-4.515-3.4-4.515S77.83,2.224,76.477.169A82.06,82.06,0,0,0,37.1,13.4c.429,1.169.9,2.465,1.348,3.765C39.9,21.324,41.2,25.5,41.2,25.5s1.305,4.18,2.455,8.377,2.157,8.4,2.157,8.4-2.412-3.594-4.937-7.077-5.145-6.866-5.145-6.866-2.619-3.383-5.342-6.65c-.561-.675-1.124-1.345-1.668-1.983A82.093,82.093,0,0,0,3.08,59.783c1.452,1.157,3.5,2.735,5.644,4.23,4.016,2.832,8.335,5.327,8.335,5.327s4.3,2.512,8.869,4.657c4.553,2.162,9.353,3.929,9.353,3.929s-5.1-.251-10.226-.976c-5.118-.7-10.229-1.867-10.229-1.867s-5.1-1.142-10.154-2.763C3.324,71.9,1.988,71.439.747,70.995A82.6,82.6,0,0,0,2.9,103.781l3.806.75,7.747,1.522-6.481,4.51-2.3,1.6A81.6,81.6,0,0,0,15.136,129.7L120.645,9.5A82.014,82.014,0,0,0,84.795,0Z" transform="translate(0 0)" fill="#74c59b"/>
        </g>
      </g>
      <g id="plant" transform="translate(63.352 646.021)">
        <g id="Group_6619" data-name="Group 6619" transform="translate(0 0)">
          <g id="Group_6554" data-name="Group 6554" transform="translate(6.522 185.876)">
            <path id="Path_9564" data-name="Path 9564" d="M63,373.5a58.794,58.794,0,0,0-25.163-8.661c-4.111-.422-8.6-.3-11.9,2.189a2.45,2.45,0,0,0-1.226,2.174,2.663,2.663,0,0,0,1.164,1.487C36.114,378.494,51.6,379.481,63,373.5" transform="translate(-24.69 -364.648)" fill="#71c299"/>
          </g>
          <g id="Group_6555" data-name="Group 6555" transform="translate(17.446 154.565)">
            <path id="Path_9565" data-name="Path 9565" d="M57.832,385.757c-5.7-4.446-11.425-8.921-16.252-14.3s-8.747-11.764-10.189-18.844c-.437-2.148-.572-4.6.806-6.305,12.954,10.118,23.131,23.2,25.636,39.448" transform="translate(-31.088 -346.309)" fill="#71c299"/>
          </g>
          <g id="Group_6556" data-name="Group 6556" transform="translate(43.874 155.683)">
            <path id="Path_9566" data-name="Path 9566" d="M47.393,385.908c-.975-7.087-1.327-14.372.3-21.338s5.416-13.633,11.366-17.606c2.238,5.231,1.275,11.26-.3,16.728a81.338,81.338,0,0,1-11.27,23.727" transform="translate(-46.568 -346.964)" fill="#71c299"/>
          </g>
          <g id="Group_6557" data-name="Group 6557" transform="translate(25.678 217.381)">
            <path id="Path_9567" data-name="Path 9567" d="M67.631,383.1c-7.709.937-14.422,5-20.179,10.213A38.181,38.181,0,0,0,35.91,413.13c7.562-.468,13.976-5.8,18.629-11.779s7.876-12.54,12.988-18.132" transform="translate(-35.91 -383.101)" fill="#71c299"/>
          </g>
          <g id="Group_6558" data-name="Group 6558" transform="translate(56.688 173.945)">
            <path id="Path_9568" data-name="Path 9568" d="M57.542,404.736a49.766,49.766,0,0,1,5.747-47.076c4.391,15.622,2.78,33.269-5.747,47.076" transform="translate(-54.073 -357.66)" fill="#71c299"/>
          </g>
          <g id="Group_6559" data-name="Group 6559" transform="translate(42.004 240.933)">
            <path id="Path_9569" data-name="Path 9569" d="M80.406,396.963a35.99,35.99,0,0,0-34.411,19.808c-.427.852-.8,1.935-.232,2.7a2.555,2.555,0,0,0,2.283.671c6.782-.439,12.791-4.519,17.751-9.165s9.279-10.014,14.76-14.031" transform="translate(-45.472 -396.895)" fill="#71c299"/>
          </g>
          <g id="Group_6560" data-name="Group 6560" transform="translate(73.52 192.232)">
            <path id="Path_9570" data-name="Path 9570" d="M66.813,416.052a64.09,64.09,0,0,1-.64-35.8c1.262-4.608,3.379-9.46,7.64-11.62a1.5,1.5,0,0,1,1.17-.207,1.538,1.538,0,0,1,.738.857,21.551,21.551,0,0,1,1.8,10.27,64.3,64.3,0,0,1-1.608,10.4c-1.342,6.355-2.057,13.184-5.542,18.664a38.233,38.233,0,0,0-2.216,4.1c-.659,1.393-.664,1.883-1.269,2.991" transform="translate(-63.931 -368.371)" fill="#71c299"/>
          </g>
          <g id="Group_6561" data-name="Group 6561" transform="translate(119.583 207.093)">
            <path id="Path_9571" data-name="Path 9571" d="M92.144,416.513c-3.29-12.517.2-27.691,8.091-37.952.58-.756,1.351-1.566,2.3-1.479,1.451.135,1.829,2.071,1.764,3.527a68.568,68.568,0,0,1-12.154,35.9" transform="translate(-90.911 -377.075)" fill="#71c299"/>
          </g>
          <g id="Group_6562" data-name="Group 6562" transform="translate(124.822 236.146)">
            <path id="Path_9572" data-name="Path 9572" d="M93.979,407.213c15.207,3.958,32.653.111,45.3-9.213a36.667,36.667,0,0,0-24.522-3.01c-8.193,1.873-15.678,5.544-20.778,12.223" transform="translate(-93.979 -394.092)" fill="#71c299"/>
          </g>
          <g id="Group_6563" data-name="Group 6563" transform="translate(128.199 217.159)">
            <path id="Path_9573" data-name="Path 9573" d="M95.957,406.746c8.516-13.886,24.845-22.95,41.114-23.775-1.875,6.618-7.313,11.76-13.447,14.867s-12.984,4.461-19.737,5.773c-2.626.51-6.228,1.07-7.931,3.135" transform="translate(-95.957 -382.971)" fill="#71c299"/>
          </g>
          <g id="Group_6564" data-name="Group 6564" transform="translate(115.757 152.596)">
            <path id="Path_9574" data-name="Path 9574" d="M94.576,393.052c2.307-7.9,4.625-15.873,5.259-24.079s-.536-16.774-4.8-23.817c-7.954,15.393-8.76,33.38-.7,48.721" transform="translate(-88.67 -345.156)" fill="#71c299"/>
          </g>
          <g id="Group_6565" data-name="Group 6565" transform="translate(148.448 154.645)">
            <path id="Path_9575" data-name="Path 9575" d="M107.817,378.666c9.3-16.909,28.285-30.416,47.491-32.31-7.408,18.448-27.614,32.706-47.491,32.31" transform="translate(-107.817 -346.356)" fill="#71c299"/>
          </g>
          <g id="Group_6566" data-name="Group 6566" transform="translate(142.595 187.494)">
            <path id="Path_9576" data-name="Path 9576" d="M104.389,368.369c13.875,2.114,25.7,10.976,38.663,16.348,2.773,1.149,5.766,2.064,8.742,1.675s5.913-2.387,6.578-5.313a7.628,7.628,0,0,0-2.295-6.792,18.708,18.708,0,0,0-6.35-3.85c-14.123-5.88-29.267-6.027-44.145-2.462" transform="translate(-104.389 -365.596)" fill="#71c299"/>
          </g>
          <g id="Group_6567" data-name="Group 6567" transform="translate(134.565 199.329)">
            <path id="Path_9577" data-name="Path 9577" d="M99.686,373.2c3.141.9,4.215,2.527,6.7,4.644A72.3,72.3,0,0,0,135.707,392.9c1.12.278,2.588.389,3.143-.623.485-.884-.128-1.953-.758-2.742-4.507-5.639-10.935-9.5-17.7-12.016s-12.629-5.557-20.7-4.905" transform="translate(-99.686 -372.527)" fill="#71c299"/>
          </g>
          <g id="Group_6568" data-name="Group 6568" transform="translate(125.504 139.723)">
            <path id="Path_9578" data-name="Path 9578" d="M94.379,339.117a55.493,55.493,0,0,0,42.54,14.473,2.922,2.922,0,0,0,1.936-.695c1.071-1.166-.213-2.964-1.461-3.935-12.506-9.751-27.655-13.794-43.015-9.843" transform="translate(-94.379 -337.616)" fill="#71c299"/>
          </g>
          <g id="Group_6569" data-name="Group 6569" transform="translate(136.247 125.74)">
            <path id="Path_9579" data-name="Path 9579" d="M100.671,340.978a59.29,59.29,0,0,1,53.081-8.758c-6.684,6.588-15.958,10.133-25.294,11.1a80.032,80.032,0,0,1-27.787-2.346" transform="translate(-100.671 -329.426)" fill="#71c299"/>
          </g>
          <g id="Group_6570" data-name="Group 6570" transform="translate(124.807 72.741)">
            <path id="Path_9580" data-name="Path 9580" d="M101.142,335.927c-1.229-12.484-.432-22.337-1.3-34.879-.068-1-.283-2.208-1.221-2.569-1.306-.5-2.394,1.1-2.822,2.433a39.982,39.982,0,0,0,5.323,34.741" transform="translate(-93.971 -298.384)" fill="#71c299"/>
          </g>
          <g id="Group_6571" data-name="Group 6571" transform="translate(131.079 72.419)">
            <path id="Path_9581" data-name="Path 9581" d="M97.644,337.44c8.462-5.233,14.809-12.067,20.679-20.1,4.084-5.588,7.528-12.283,6.6-19.143-5.735-.114-11.185,3.049-14.915,7.408s-5.948,9.805-7.6,15.3-2.815,11.137-4.758,16.535" transform="translate(-97.644 -298.195)" fill="#71c299"/>
          </g>
          <g id="Group_6572" data-name="Group 6572" transform="translate(151.13 74.751)">
            <path id="Path_9582" data-name="Path 9582" d="M109.654,330.829a166.7,166.7,0,0,0,50.889-30.008c-6.078-2.448-13.039-.983-19.115,1.47-13.886,5.605-25.229,15.065-32.04,28.4" transform="translate(-109.388 -299.561)" fill="#71c299"/>
          </g>
          <g id="Group_6573" data-name="Group 6573" transform="translate(136.792 103.773)">
            <path id="Path_9583" data-name="Path 9583" d="M100.99,331.279c9.394,1.026,18.938,1.7,28.258.137,9.162-1.531,17.819-5.161,26.38-8.765a3.1,3.1,0,0,0,1.793-1.361,2.065,2.065,0,0,0-.644-2.257,5.463,5.463,0,0,0-2.249-1.053c-9.307-2.6-19.351-1.385-28.509,1.7a132.211,132.211,0,0,0-25.03,11.6" transform="translate(-100.99 -316.56)" fill="#71c299"/>
          </g>
          <g id="Group_6574" data-name="Group 6574" transform="translate(78.443 100.28)">
            <path id="Path_9584" data-name="Path 9584" d="M71.522,355.884c-6.409-12.938-5.993-28.036-.456-41.37,3.9,5.94,4.372,13.5,3.661,20.57s-2.865,14.342-3,21.442" transform="translate(-66.815 -314.514)" fill="#71c299"/>
          </g>
          <g id="Group_6575" data-name="Group 6575" transform="translate(14.671 128.727)">
            <path id="Path_9585" data-name="Path 9585" d="M72.338,331.185A57.7,57.7,0,0,0,29.463,349.45c7.987,1.255,16.213-.806,23.478-4.354s13.72-8.523,20.119-13.466" transform="translate(-29.463 -331.175)" fill="#71c299"/>
          </g>
          <g id="Group_6576" data-name="Group 6576" transform="translate(0 122.225)">
            <path id="Path_9586" data-name="Path 9586" d="M61.2,328.121c-7.828-.635-15.361-1.6-22.889.7s-14.376,7.543-17.444,14.792c7.321.826,14.746-1.011,21.458-4.052s12.814-7.253,18.875-11.443" transform="translate(-20.87 -327.367)" fill="#71c299"/>
          </g>
          <g id="Group_6577" data-name="Group 6577" transform="translate(19.926 111.225)">
            <path id="Path_9587" data-name="Path 9587" d="M78.434,332.942c-7.043-4.615-14.273-9.313-22.474-11.224s-17.7-.5-23.42,5.68c6.636,3.9,14.69,4.355,22.387,4.35s17.131-.094,24.386,2.474" transform="translate(-32.541 -320.924)" fill="#71c299"/>
          </g>
          <g id="Group_6578" data-name="Group 6578" transform="translate(52.197 74.39)">
            <path id="Path_9588" data-name="Path 9588" d="M65.107,348.574c-12.04-11.821-16.6-33.061-11.76-49.224a75.009,75.009,0,0,1,11.76,49.224" transform="translate(-51.442 -299.35)" fill="#71c299"/>
          </g>
          <g id="Group_6579" data-name="Group 6579" transform="translate(98.967 51.27)">
            <path id="Path_9589" data-name="Path 9589" d="M78.836,324.655c2.271-5.277,3.869-10.818,5.906-16.192s4.569-10.661,8.417-14.927,9.174-7.442,14.912-7.727A60.054,60.054,0,0,1,79.131,324.74" transform="translate(-78.836 -285.808)" fill="#71c299"/>
          </g>
          <g id="Group_6580" data-name="Group 6580" transform="translate(61.833 75.88)">
            <path id="Path_9590" data-name="Path 9590" d="M88.229,321.439c-3.756-5.172-8.1-12.192-13.194-16.052s-11.731-6.2-17.949-4.714a41.8,41.8,0,0,0,31.143,20.766" transform="translate(-57.086 -300.222)" fill="#71c299"/>
          </g>
          <g id="Group_6581" data-name="Group 6581" transform="translate(87.802 51.754)">
            <path id="Path_9591" data-name="Path 9591" d="M78.669,324.886c-2.462-6.259-4.943-12.585-5.94-19.235s-.389-13.756,3.012-19.559c6.609,12.493,8.738,25.9,3.266,38.934" transform="translate(-72.296 -286.092)" fill="#71c299"/>
          </g>
          <g id="Group_6582" data-name="Group 6582" transform="translate(99.029 25.277)">
            <path id="Path_9592" data-name="Path 9592" d="M78.872,297.061c3.742-12.385,15.083-21.5,27.326-25.687a10.2,10.2,0,0,1,4.791-.719,4.158,4.158,0,0,1,3.532,2.949c.446,2.105-1.294,3.993-2.931,5.393a93.01,93.01,0,0,1-32.718,18.064" transform="translate(-78.872 -270.584)" fill="#71c299"/>
          </g>
          <g id="Group_6583" data-name="Group 6583" transform="translate(98.967)">
            <path id="Path_9593" data-name="Path 9593" d="M79.032,297.406c.476-7.985.975-16.087,3.572-23.652s7.6-14.663,14.885-17.975c1.238,8.065-2.32,16.088-6.611,23.029S81.414,292.3,78.836,300.04" transform="translate(-78.836 -255.779)" fill="#71c299"/>
          </g>
          <g id="Group_6584" data-name="Group 6584" transform="translate(75.745 3.708)">
            <path id="Path_9594" data-name="Path 9594" d="M88.457,301.365c-3.094-9.025-3.413-20.49-8.818-28.352-3.777-5.5-9.827-9.242-13.083-15.062-2.161,5.436-1.5,11.7.761,17.1s6,10.042,10,14.313,7.425,7.485,11.142,12" transform="translate(-65.235 -257.951)" fill="#71c299"/>
          </g>
          <g id="Group_6586" data-name="Group 6586" transform="translate(98.562 43.977)">
            <g id="Group_6585" data-name="Group 6585">
              <path id="Path_9595" data-name="Path 9595" d="M79.066,550.481c-.241,0-.449-60.209-.466-134.466-.017-74.281.166-134.478.4-134.478s.449,60.2.466,134.478C79.487,490.271,79.3,550.481,79.066,550.481Z" transform="translate(-78.598 -281.537)" fill="#71c299"/>
            </g>
          </g>
          <g id="Group_6588" data-name="Group 6588" transform="translate(98.951 132.554)">
            <g id="Group_6587" data-name="Group 6587">
              <path id="Path_9596" data-name="Path 9596" d="M131.521,333.427a12.986,12.986,0,0,1-2.264.85l-6.23,2.1c-5.253,1.789-12.47,4.381-20.3,7.591C94.97,347.3,87.656,350,83.492,353.606a14.137,14.137,0,0,0-3.865,5.113c-.6,1.414-.7,2.278-.784,2.262a1.753,1.753,0,0,1,.026-.632,9.745,9.745,0,0,1,.442-1.753,13.611,13.611,0,0,1,3.771-5.451,33.888,33.888,0,0,1,8.345-5.184c3.34-1.557,7.039-3.182,10.968-4.8,7.855-3.218,15.127-5.726,20.44-7.371,2.655-.828,4.822-1.437,6.322-1.84A12.912,12.912,0,0,1,131.521,333.427Z" transform="translate(-78.826 -333.417)" fill="#71c299"/>
            </g>
          </g>
          <g id="Group_6590" data-name="Group 6590" transform="translate(103.092 90.2)">
            <g id="Group_6589" data-name="Group 6589">
              <path id="Path_9597" data-name="Path 9597" d="M147.051,308.612a3.744,3.744,0,0,1-.635.676c-.512.483-1.151,1.082-1.931,1.815l-7.213,6.553c-6.227,5.545-14.673,13.066-24.007,21.376-9.37,8.342-17.469,16.312-23.081,22.313-2.81,3-5.023,5.479-6.532,7.212l-1.745,1.992a3.655,3.655,0,0,1-.652.661,3.728,3.728,0,0,1,.516-.77c.365-.485.895-1.205,1.62-2.1,1.434-1.8,3.582-4.354,6.341-7.411a303.839,303.839,0,0,1,22.955-22.545c9.4-8.323,17.961-15.8,24.179-21.188,3.051-2.619,5.556-4.767,7.4-6.344l2.039-1.694A3.71,3.71,0,0,1,147.051,308.612Z" transform="translate(-81.252 -308.61)" fill="#71c299"/>
            </g>
          </g>
          <g id="Group_6592" data-name="Group 6592" transform="translate(124.968 108.258)">
            <g id="Group_6591" data-name="Group 6591">
              <path id="Path_9598" data-name="Path 9598" d="M94.086,340.032c-.246-.109,1.712-4.63,3.662-10.346,1.97-5.716,2.9-10.539,3.145-10.5.227.022-.326,4.987-2.32,10.777a70.082,70.082,0,0,1-2.914,7.237A11.337,11.337,0,0,1,94.086,340.032Z" transform="translate(-94.065 -319.187)" fill="#71c299"/>
            </g>
          </g>
          <g id="Group_6594" data-name="Group 6594" transform="translate(64.184 121.581)">
            <g id="Group_6593" data-name="Group 6593">
              <path id="Path_9599" data-name="Path 9599" d="M93.363,370.956a10.964,10.964,0,0,1-1.444-1.677l-3.7-4.745c-3.107-4.016-7.4-9.559-12.218-15.627s-9.244-11.513-12.45-15.45l-3.78-4.68a10.8,10.8,0,0,1-1.3-1.786,10.777,10.777,0,0,1,1.562,1.566c.965,1.045,2.329,2.583,3.993,4.5,3.329,3.84,7.837,9.228,12.66,15.3s9.045,11.685,12.03,15.8c1.492,2.057,2.681,3.736,3.48,4.912A10.741,10.741,0,0,1,93.363,370.956Z" transform="translate(-58.463 -326.99)" fill="#71c299"/>
            </g>
          </g>
          <g id="Group_6596" data-name="Group 6596" transform="translate(81.559 132.534)">
            <g id="Group_6595" data-name="Group 6595">
              <path id="Path_9600" data-name="Path 9600" d="M74.628,351.607c-.142.152-3.22-3.5-4.833-9.049a25.823,25.823,0,0,1-1.1-9.122l.384.033c-.172.7-.3,1.064-.367,1.053s-.072-.4-.014-1.116l.384.032a41.48,41.48,0,0,0,1.543,8.873C72.186,347.687,74.862,351.46,74.628,351.607Z" transform="translate(-68.64 -333.405)" fill="#71c299"/>
            </g>
          </g>
          <g id="Group_6598" data-name="Group 6598" transform="translate(46.592 128.3)">
            <g id="Group_6597" data-name="Group 6597">
              <path id="Path_9601" data-name="Path 9601" d="M74.219,334.624a15.583,15.583,0,0,0-3.374-1.96c-2.255-.872-5.646-1.064-9.37-.744a57.718,57.718,0,0,0-9.433,1.523,28.534,28.534,0,0,1-3.882.93,13.5,13.5,0,0,1,3.717-1.525,43.218,43.218,0,0,1,9.534-1.8c3.765-.324,7.335-.034,9.665,1.043C73.437,333.141,74.3,334.6,74.219,334.624Z" transform="translate(-48.159 -330.926)" fill="#71c299"/>
            </g>
          </g>
          <g id="Group_6600" data-name="Group 6600" transform="translate(32.504 121.926)">
            <g id="Group_6599" data-name="Group 6599">
              <path id="Path_9602" data-name="Path 9602" d="M76.525,332.726c-.067.135-1.965-.789-5.17-1.883A52.023,52.023,0,0,0,45.3,328.857c-3.333.6-5.351,1.221-5.4,1.077a4.874,4.874,0,0,1,1.371-.584,31.841,31.841,0,0,1,3.9-1.1,45.991,45.991,0,0,1,26.385,2.013,31.942,31.942,0,0,1,3.693,1.675A4.881,4.881,0,0,1,76.525,332.726Z" transform="translate(-39.908 -327.192)" fill="#71c299"/>
            </g>
          </g>
          <g id="Group_6602" data-name="Group 6602" transform="translate(92.244 81.851)">
            <g id="Group_6601" data-name="Group 6601">
              <path id="Path_9603" data-name="Path 9603" d="M81.621,330.128c-.232.058-1.921-5.805-3.77-13.1s-3.16-13.252-2.926-13.31,1.921,5.8,3.77,13.1S81.855,330.068,81.621,330.128Z" transform="translate(-74.898 -303.72)" fill="#71c299"/>
            </g>
          </g>
          <g id="Group_6604" data-name="Group 6604" transform="translate(88.875 94.057)">
            <g id="Group_6603" data-name="Group 6603">
              <path id="Path_9604" data-name="Path 9604" d="M83.258,325.071c-.26.084-1.345-3.835-4.18-7.842-2.757-4.091-6.28-6.145-6.15-6.346a5.688,5.688,0,0,1,2.373,1.224,19.091,19.091,0,0,1,4.489,4.622C82.734,320.9,83.468,325.055,83.258,325.071Z" transform="translate(-72.925 -310.869)" fill="#71c299"/>
            </g>
          </g>
          <g id="Group_6606" data-name="Group 6606" transform="translate(43.87 192.944)">
            <g id="Group_6605" data-name="Group 6605">
              <path id="Path_9605" data-name="Path 9605" d="M101.724,456.67c-.094.014-.271-1.448-.949-4.005a57.071,57.071,0,0,0-4.024-10.423c-4.159-8.5-11.729-19.279-21.347-30.077-4.767-5.445-9.39-10.582-13.316-15.5a108.8,108.8,0,0,1-9.52-13.732,65.786,65.786,0,0,1-4.806-10.191c-.442-1.255-.767-2.235-.944-2.914a4.811,4.811,0,0,1-.248-1.04c.077-.024.516,1.378,1.508,3.833a74.414,74.414,0,0,0,5.021,10,115.194,115.194,0,0,0,9.614,13.539c3.941,4.868,8.571,9.976,13.345,15.431,9.645,10.825,17.2,21.739,21.248,30.38a51.924,51.924,0,0,1,3.8,10.611,28.579,28.579,0,0,1,.533,3.02A4.979,4.979,0,0,1,101.724,456.67Z" transform="translate(-46.565 -368.788)" fill="#71c299"/>
            </g>
          </g>
          <g id="Group_6608" data-name="Group 6608" transform="translate(99.024 227.116)">
            <g id="Group_6607" data-name="Group 6607">
              <path id="Path_9606" data-name="Path 9606" d="M126.42,388.808a22.061,22.061,0,0,1-2.493,1.4,54.5,54.5,0,0,0-6.462,4.273,74.16,74.16,0,0,0-8.489,7.743c-2.979,3.147-6.047,6.8-9.18,10.719-6.263,7.857-12.12,14.809-15.627,20.36-1.781,2.752-3.075,5.074-3.923,6.7a21.653,21.653,0,0,1-1.371,2.51,2.4,2.4,0,0,1,.23-.707c.186-.449.437-1.122.837-1.953a63.733,63.733,0,0,1,3.708-6.881c3.4-5.684,9.216-12.732,15.467-20.577,3.14-3.924,6.245-7.586,9.281-10.729a68.964,68.964,0,0,1,8.7-7.68,45.327,45.327,0,0,1,6.674-4.079c.826-.415,1.5-.669,1.945-.862A2.4,2.4,0,0,1,126.42,388.808Z" transform="translate(-78.869 -388.803)" fill="#e0e0e0"/>
            </g>
          </g>
          <g id="Group_6610" data-name="Group 6610" transform="translate(114.645 244.48)">
            <g id="Group_6609" data-name="Group 6609">
              <path id="Path_9607" data-name="Path 9607" d="M120.879,399.036a36.032,36.032,0,0,1-5.267.767,69.489,69.489,0,0,0-12.491,2.458,37.574,37.574,0,0,0-11.185,5.87c-2.578,1.992-3.794,3.64-3.913,3.544a3.971,3.971,0,0,1,.78-1.212,19.912,19.912,0,0,1,2.744-2.809,33.884,33.884,0,0,1,11.306-6.221,56.406,56.406,0,0,1,12.7-2.243A29.244,29.244,0,0,1,120.879,399.036Z" transform="translate(-88.018 -398.973)" fill="#e0e0e0"/>
            </g>
          </g>
          <g id="Group_6612" data-name="Group 6612" transform="translate(116.164 237.425)">
            <g id="Group_6611" data-name="Group 6611">
              <path id="Path_9608" data-name="Path 9608" d="M88.93,412.684c-.275-.155,2.1-3.782,3.941-8.658,1.728-4.921,2.132-9.237,2.441-9.185a8.35,8.35,0,0,1-.087,2.826,30.284,30.284,0,0,1-1.537,6.657,32.228,32.228,0,0,1-3.054,6.105A8.506,8.506,0,0,1,88.93,412.684Z" transform="translate(-88.908 -394.841)" fill="#e0e0e0"/>
            </g>
          </g>
          <g id="Group_6614" data-name="Group 6614" transform="translate(99.043 180.345)">
            <g id="Group_6613" data-name="Group 6613">
              <path id="Path_9609" data-name="Path 9609" d="M141.811,361.413a3.9,3.9,0,0,1-.843.449c-.654.3-1.472.669-2.476,1.125-1.084.464-2.4,1.053-3.882,1.835s-3.223,1.559-5.032,2.645L126.7,369.1c-1,.572-1.982,1.253-3.031,1.909-2.119,1.286-4.241,2.868-6.5,4.483a111.663,111.663,0,0,0-25.053,25.924c-1.538,2.32-3.048,4.494-4.258,6.655-.621,1.071-1.267,2.08-1.806,3.094s-1.043,1.992-1.533,2.928c-1.024,1.844-1.755,3.606-2.471,5.12-.731,1.508-1.275,2.843-1.7,3.942-.422,1.018-.767,1.849-1.04,2.513a3.937,3.937,0,0,1-.42.857,3.963,3.963,0,0,1,.254-.917c.234-.68.529-1.531.89-2.575.379-1.122.881-2.482,1.571-4.016s1.374-3.329,2.368-5.2q.715-1.424,1.494-2.971c.526-1.029,1.161-2.054,1.772-3.14,1.193-2.191,2.691-4.4,4.221-6.744a107.519,107.519,0,0,1,25.236-26.114c2.295-1.61,4.448-3.181,6.6-4.449,1.064-.647,2.064-1.318,3.075-1.878l2.92-1.595c1.837-1.059,3.6-1.815,5.117-2.544s2.851-1.291,3.959-1.709l2.544-.977A3.982,3.982,0,0,1,141.811,361.413Z" transform="translate(-78.88 -361.408)" fill="#e0e0e0"/>
            </g>
          </g>
          <g id="Group_6616" data-name="Group 6616" transform="translate(124.335 199.276)">
            <g id="Group_6615" data-name="Group 6615">
              <path id="Path_9610" data-name="Path 9610" d="M93.7,378.782a6.053,6.053,0,0,1,2.069-3.082,13.071,13.071,0,0,1,8.337-3.2,22.79,22.79,0,0,1,8.772,1.714,12.476,12.476,0,0,1,3.317,1.612,20.43,20.43,0,0,1-3.519-1.031,26.535,26.535,0,0,0-8.544-1.425,13.585,13.585,0,0,0-7.963,2.795A24.566,24.566,0,0,0,93.7,378.782Z" transform="translate(-93.694 -372.496)" fill="#e0e0e0"/>
            </g>
          </g>
          <g id="Group_6618" data-name="Group 6618" transform="translate(118.701 195.622)">
            <g id="Group_6617" data-name="Group 6617">
              <path id="Path_9611" data-name="Path 9611" d="M90.413,386.1c-.239-.133,1.883-3.244,2.366-7.7.557-4.451-.794-7.967-.531-8.04a5.087,5.087,0,0,1,.978,2.244,15.923,15.923,0,0,1-1.347,11.54C91.145,385.473,90.5,386.159,90.413,386.1Z" transform="translate(-90.394 -370.356)" fill="#e0e0e0"/>
            </g>
          </g>
        </g>
        <g id="Group_6620" data-name="Group 6620" transform="translate(57.443 289.453)">
          <path id="Path_9612" data-name="Path 9612" d="M54.515,425.314c1.3,23.01,8.231,46.41,18.9,70.069H119.79c10.172-23.425,16.626-46.789,17.773-70.069Z" transform="translate(-54.515 -425.314)" fill="#75a1de"/>
        </g>
        <g id="Group_6622" data-name="Group 6622" transform="translate(64.768 326.251)">
          <g id="Group_6621" data-name="Group 6621">
            <path id="Path_9613" data-name="Path 9613" d="M127.013,447.3c0,.239-15.27.435-34.1.435s-34.106-.2-34.106-.435,15.267-.435,34.106-.435S127.013,447.062,127.013,447.3Z" transform="translate(-58.805 -446.867)" fill="#fafafa"/>
          </g>
        </g>
        <g id="Group_6624" data-name="Group 6624" transform="translate(67.996 334.586)">
          <g id="Group_6623" data-name="Group 6623">
            <path id="Path_9614" data-name="Path 9614" d="M124.639,452.184c0,.241-14.316.435-31.97.435s-31.973-.195-31.973-.435,14.311-.435,31.973-.435S124.639,451.944,124.639,452.184Z" transform="translate(-60.696 -451.749)" fill="#fafafa"/>
          </g>
        </g>
        <g id="Group_6626" data-name="Group 6626" transform="translate(76.654 304.559)">
          <g id="Group_6625" data-name="Group 6625">
            <path id="Path_9615" data-name="Path 9615" d="M66.2,434.162c.241,0,.435,4.784.435,10.683s-.195,10.683-.435,10.683-.434-4.782-.434-10.683S65.962,434.162,66.2,434.162Z" transform="translate(-65.767 -434.162)" fill="#fafafa"/>
          </g>
        </g>
        <g id="Group_6628" data-name="Group 6628" transform="translate(101.503 304.559)">
          <g id="Group_6627" data-name="Group 6627">
            <path id="Path_9616" data-name="Path 9616" d="M80.756,434.162c.241,0,.435,4.955.435,11.064s-.195,11.063-.435,11.063-.435-4.953-.435-11.063S80.516,434.162,80.756,434.162Z" transform="translate(-80.321 -434.162)" fill="#fafafa"/>
          </g>
        </g>
        <g id="Group_6630" data-name="Group 6630" transform="translate(124.83 304.372)">
          <g id="Group_6629" data-name="Group 6629">
            <path id="Path_9617" data-name="Path 9617" d="M94.419,434.052c.241,0,.435,5.054.435,11.284s-.195,11.284-.435,11.284-.435-5.05-.435-11.284S94.179,434.052,94.419,434.052Z" transform="translate(-93.984 -434.052)" fill="#fafafa"/>
          </g>
        </g>
        <g id="Group_6632" data-name="Group 6632" transform="translate(59.019 304.124)">
          <g id="Group_6631" data-name="Group 6631">
            <path id="Path_9618" data-name="Path 9618" d="M135.439,434.342c0,.241-17.91.435-40,.435s-40-.195-40-.435,17.907-.435,40-.435S135.439,434.1,135.439,434.342Z" transform="translate(-55.438 -433.907)" fill="#fafafa"/>
          </g>
        </g>
      </g>
      <g id="girl-standing" transform="translate(95.545 493.208)">
        <path id="Path_7537" data-name="Path 7537" d="M4867.51,1081.182l-8.127,4.313s-43.949-46.6-54.516-91.323a69.442,69.442,0,0,1-1.84-23.331s-.64-2.026-1.757-5.607c-.049-.157-.095-.317-.149-.478-.489-1.571-1.077-3.42-1.726-5.512-2.126-6.758-5.041-16.006-8.362-26.534-7.648-24.228-25.143-78.869-32.619-101.6l53.73-19.442s6.105,13.918,14.878,51.748c1.351,4.938,2.705,10.4,3.963,16.347,1.438,6.738,2.773,14.106,3.891,22.065a338.859,338.859,0,0,1,3.217,45.3c.033,6.769-.134,13.789-.537,21.031-.291,5.31.5,12.386,1.978,20.437C4846.3,1025.4,4867.51,1081.182,4867.51,1081.182Z" transform="translate(-4603.726 -605.128)" fill="#293977"/>
        <path id="Path_9680" data-name="Path 9680" d="M88.908,2.271l-4.2,5S94.273,31.156,66.47,41.978C44.7,50.453,47.26,65.386,57.1,80.4s-5.887,28.132-5.887,28.132S48.814,91.9,27.657,88.76C-1.189,84.478-9.358,45.747,12.188,26.382c17.83-16.025,23.255-2.754,35.324-17.135S82.364,4.579,82.364,4.579L86.284,0Z" transform="translate(85.606 74.58) rotate(-40)" fill="#2d133b"/>
        <path id="Path_7538" data-name="Path 7538" d="M5115.673,1720.325H5072.23s-1.628-6.929,1.229-11.644c2.522-4.173,1.556-6.549-.314-10a16.868,16.868,0,0,0,7.315,1.378,15.281,15.281,0,0,0,6.462-2.272c1.868,2.132,9.877,11.206,12.376,13C5102.141,1712.829,5114.8,1712.1,5115.673,1720.325Z" transform="translate(-4822.464 -1223.681)"/>
        <path id="Path_7539" data-name="Path 7539" d="M4834.876,901.832l-33.755,62.925c-.489-1.571-1.077-3.42-1.726-5.512-2.126-6.758-5.041-16.006-8.362-26.534-7.648-24.228-25.143-78.869-32.619-101.6l53.73-19.442s6.105,13.918,14.878,51.748c1.351,4.938,2.705,10.4,3.963,16.347C4832.424,886.5,4833.759,893.872,4834.876,901.832Z" transform="translate(-4603.726 -602.938)" fill="#2f4182"/>
        <path id="Path_7540" data-name="Path 7540" d="M4755.112,1722.879s-1.013,7.378,1.821,13.6h18s.133-5.374-4.447-12.115S4755.112,1722.879,4755.112,1722.879Z" transform="translate(-4601.298 -1239.834)"/>
        <path id="Path_7541" data-name="Path 7541" d="M4708.675,803.45s-.055.469-.146,1.363c-.04.384-.093.85-.15,1.392-.382,3.587-1.11,10.472-2.053,19.423-2.447,23.476-6.294,61.183-8.919,90.945-2.05,23.27-3.353,41.686-2.646,44.644,2.113,8.9,0,115.278,0,115.278-7.591,3.641-19.1,0-19.1,0s-20.227-95.863-17.393-109.187a45.867,45.867,0,0,0-1.9-24.7c-15.7-73.128-13.981-113.657-10.865-133.061a81.727,81.727,0,0,1,2.687-11.847,24.9,24.9,0,0,1,1.076-2.912C4683.9,785.47,4708.675,803.45,4708.675,803.45Z" transform="translate(-4523.461 -591.473)" fill="#293977"/>
        <path id="Path_7542" data-name="Path 7542" d="M92.678,24.321a89.04,89.04,0,0,1-31.51,6.771,106.168,106.168,0,0,1-25.927-2.447A119.808,119.808,0,0,1,0,15.013,81.81,81.81,0,0,1,2.7,3.166c10.6-7.507,36.828-.323,58.245,7.641.768.287,1.526.575,2.28.861C79.635,17.906,92.678,24.321,92.678,24.321Z" transform="translate(118.826 212.816) rotate(-8)" fill="#71a3ce"/>
        <path id="Path_7516" data-name="Path 7516" d="M168.028,248.294c1.317,9.5,1.329,19.064,1.29,28.636-.012,3.347.966,6.43.9,9.725-.021.891-1.685,11.974-1.9,11.923,21.595,5.311,38.865,5.524,51.49,4.057a65.683,65.683,0,0,0,9.929-5.341s4.084-35.5,7.476-45.031c.8-2.267-10.412-14.466-10.358-18.6,0,0,.591-8.316-1.682-26.24-.084-.669-1.335-.213-1.973-.318-6.193-.936-11.827-1.2-11.827-1.2l-1.784-18.362c-.936-9.638-20.662-5.5-20.662-5.5v23.649c0,.372-4.486.666-9.824,1.095-.588.027-1.176.078-1.766.132-4.117.36-8.5.54-12.511,1.637-4.75,1.3-3.176,4.858-2.6,9.183,1.313,9.923,4.171,19.561,5.65,29.458C167.923,247.556,167.977,247.925,168.028,248.294Z" transform="translate(-30.74 -124.157)" fill="#ebaf7d"/>
        <path id="Path_7517" data-name="Path 7517" d="M155.722,231.688q-5.3-7.1-10.8-14.053c-7.293-9.209-13.48-18.521-23.166-25.556-1.7-1.239-3.623-2.669-3.841-4.762a1.7,1.7,0,0,1,.291-1.277,2.151,2.151,0,0,1,1.17-.591,23.111,23.111,0,0,1,15.147,1.5c7.641,3.512,1.409-3.176,6.744-3.743,1.742,3.194,3.455,6.462,5.47,9.5,4.555,6.879,4.882,12.622,4.882,12.622S164,218.325,165.537,222.461C168.341,230.006,159.243,233.221,155.722,231.688Z" transform="translate(-117.9 -120.057)" fill="#ebaf7d"/>
        <path id="Path_7518" data-name="Path 7518" d="M180.5,254.3c-13.009-2.252-46.2-38.211-55.368-50.608,2.126-4.423,10.187-15.849,16.413-12.4.591.327,37.89,36.865,42.506,34.625,16.758-8.127,28.858-20.608,44.491-30.729,4.324-2.8,8.97-5.521,14.107-5.878,13.753-.96,12.853,12.565,9.755,21.895C247.175,226.942,201.416,257.926,180.5,254.3Z" transform="translate(-103.451 -107.942)" fill="#a2c9eb"/>
        <path id="Path_7519" data-name="Path 7519" d="M240.794,260.935a131.025,131.025,0,0,1,3.94-20.887s3.23-9.206,3.737-14.628a25.192,25.192,0,0,0-.747-8.334c-.861-3.47-9.809-21.448-10.985-23.343,0,0-4.789,17.21-22.755,17.477-9.236.108-19.193-1.6-28.108-2.99-3.5-.588-21.595-7.431-24.665-7.779,0,0,9.053,11.89,14.152,58.759,0,0-4.087,39.339-18.5,62.16,0,0,20.671,8.244,49.976,8.025,0,0,17.129-3.62,23.3,0,0,0,12.043,2.183,27.34-6.828C257.476,322.57,244.026,282.023,240.794,260.935Z" transform="translate(-40.026 -98.995)" fill="#a2c9eb"/>
        <path id="Path_7520" data-name="Path 7520" d="M170.646,182.8v7.065c7.773,7,17.117,7.773,21.817,7.65l-1.149-11.732C187.215,180.555,174.832,182.093,170.646,182.8Z" transform="translate(-12.468 -122.404)" fill="#e6965f"/>
        <path id="Path_7521" data-name="Path 7521" d="M167.33,176.671a6.924,6.924,0,0,1,2.987,1.952,8.377,8.377,0,0,1,2.192,2.789c.129.336-.336.54-.561.33-.639-.594-1.149-1.3-1.742-1.943a3.932,3.932,0,0,1-1.442,1.14c-.453.165-.789-.4-.591-.768a3.586,3.586,0,0,1,1.191-1.14,18.248,18.248,0,0,1-2.372-1.778A.351.351,0,0,1,167.33,176.671Z" transform="translate(-19.972 -133.131)" fill="#e0855c"/>
        <path id="Path_7524" data-name="Path 7524" d="M215.874,196.251s9.489-31.032-20.7-30.948c-35.056.1-32.07,25.616-26.411,34.37S216.972,209.881,215.874,196.251Z" transform="translate(-25.838 -155.842)" fill="#2d133b"/>
        <path id="Path_7525" data-name="Path 7525" d="M204.45,177.124c2.132,3,2.762,8.607,2.975,15.189.645,19.927-8.979,27.245-15.5,27.248-6.7,0-20.827-2.819-23.019-21.3-1.095-9.236-1.029-17,1.095-21.763C174.456,166.514,195.091,163.965,204.45,177.124Z" transform="translate(-17.346 -150.216)" fill="#ebaf7d"/>
        <path id="Path_7527" data-name="Path 7527" d="M191.492,174.369a6.14,6.14,0,0,1-2.252,3.746,11.4,11.4,0,0,1-4.279,1.343c-1.466.321-3.038.972-3.694,2.375a13.7,13.7,0,0,0-.585,3.113,5.675,5.675,0,0,1-2.627,3.74c-1.208.708-2.72.969-3.593,2.087a15.068,15.068,0,0,0-1.236,2.768c-.45.906-1.475,1.706-2.36,1.266-1.736-3.056-3.38-6.271-3.85-9.785a16.814,16.814,0,0,1,5.836-14.763,17.933,17.933,0,0,1,15.135-3.593C191.966,167.516,192.314,170.656,191.492,174.369Z" transform="translate(-19.991 -153.926)" fill="#2d133b"/>
        <path id="Path_7528" data-name="Path 7528" d="M175.379,180.155s-3.116-8.253-8.031-3.88,1.847,16.185,9.365,15.261C176.713,191.536,177.775,182.977,175.379,180.155Z" transform="translate(-22.404 -136.465)" fill="#ebaf7d"/>
        <path id="Path_7530" data-name="Path 7530" d="M171.863,174.788c.7-1.751,3.764-1.916,5.068-.834a.494.494,0,0,1-.216.819,11.474,11.474,0,0,1-2.36.024,7.644,7.644,0,0,0-1.889.594A.494.494,0,0,1,171.863,174.788Z" transform="translate(-10.089 -139.906)" fill="#011948"/>
        <path id="Path_7534" data-name="Path 7534" d="M162.5,192.67c-.33-1.032-2.021-.906-1.967.267.249,5.092,1.254,10.13,1.706,15.207.4,4.471.417,8.967,1.236,13.387.156.861,1.649.9,1.778,0C166.5,212.64,165.218,201.247,162.5,192.67Z" transform="translate(-32.695 -102.537)" fill="#71a3ce"/>
        <path id="Path_7535" data-name="Path 7535" d="M3.388,11.191C3.632,10.041,6.7-2.282,25.819.374c0,0-9.542-.512-11.874,3.316,0,0,7.248-3.969,12.149-1.435S32.457,14.4,31.969,17.392,26.924,29.51,23.493,29.756a10.193,10.193,0,0,1-3.987-.688,45.725,45.725,0,0,1,1.761,5C26.14,50.958-11.157-.157,3.388,11.191Z" transform="translate(130.889 35.804) rotate(-96)" fill="#2d133b"/>
        <path id="Path_7536" data-name="Path 7536" d="M2.433,26.3c3.953,5.558,7.307,4.641,9.251,3.2,14.705,9.513,25.461-2.221,25.461-2.221A33.41,33.41,0,0,1,49.456,8.37S44.579,4.852,32.594,7.033c-3.661.667-7.055,2.991-10.006,5.894A65.6,65.6,0,0,1,34.817,0C20.3,5.489,13.25,24.634,12.539,26.661c-1.6-1.658-4.727-5.235-5.52-8.578C5.941,13.541,5.968,4.351,3.279,4.471,3.279,4.471-3.5,17.967,2.433,26.3Z" transform="matrix(-0.999, 0.035, -0.035, -0.999, 193.501, 44.389)" fill="#2d133b"/>
        <path id="Path_7513" data-name="Path 7513" d="M224.75,234.136q5.294-7.107,10.8-14.056c2.468-3.116,4.9-7.011,8.049-9.461,6.118-4.753,8.8-12.268,15.42-16.805a7.484,7.484,0,0,0,2.381-2.123,2.264,2.264,0,0,0-.312-2.918,3.094,3.094,0,0,0-1.763-.438,27.311,27.311,0,0,0-10.919,1.622c-2.162.885-4.318,3.332-6.744,3.278-4.165-.09.915-4.705-1.044-7.092l-1.419-.492s-3.593,6.675-5.467,9.5c-4.555,6.879-4.879,12.622-4.879,12.622s-12.382,12.994-13.921,17.129C212.131,232.451,221.229,235.666,224.75,234.136Z" transform="translate(78.404 -122.865)" fill="#ebaf7d"/>
        <path id="Path_7514" data-name="Path 7514" d="M309.338,206.146c-9.164,12.4-42.365,48.365-55.374,50.623a29.48,29.48,0,0,1-10.346-.4c-14.628-2.93-33.839-14.02-46.983-25.208-7.449-6.3-12.943-12.607-14.559-17.492-3.1-9.338-4.012-22.851,9.74-21.91,5.155.372,9.806,3.1,14.119,5.9,15.639,10.112,27.739,22.581,44.491,30.738,4.618,2.225,41.927-34.31,42.5-34.646C299.16,190.306,307.215,201.731,309.338,206.146Z" transform="translate(9.952 -110.76)" fill="#a2c9eb"/>
        <path id="Path_7515" data-name="Path 7515" d="M232.636,236.736c-14.628-2.93-33.839-14.02-46.983-25.208l4.516-10S214.772,221.4,232.636,236.736Z" transform="translate(20.935 -91.132)" fill="#71a3ce"/>
      </g>
      <g id="box" transform="translate(363.298 678.357)">
        <g id="Group_7155" data-name="Group 7155" transform="translate(0 171.697)">
          <path id="Rectangle_2296" data-name="Rectangle 2296" d="M0,0H237.294a0,0,0,0,1,0,0V128.139a6.47,6.47,0,0,1-6.47,6.47H6.47A6.47,6.47,0,0,1,0,128.139V0A0,0,0,0,1,0,0Z" transform="translate(21.62 31.596)" fill="#f67d48"/>
          <g id="Group_4664" data-name="Group 4664">
            <path id="Path_7500" data-name="Path 7500" d="M195.8,663.463H363.833L343.159,637.01c-2.267-2.9-7.895-5.251-12.569-5.251h-151.1c-4.674,0-6.626,2.352-4.36,5.251Z" transform="translate(-174.183 -631.759)" fill="#f67d48"/>
            <path id="Path_7501" data-name="Path 7501" d="M195.8,663.463H363.833L343.159,637.01c-2.267-2.9-7.895-5.251-12.569-5.251h-151.1c-4.674,0-6.626,2.352-4.36,5.251Z" transform="translate(-174.183 -631.759)" opacity="0.2"/>
          </g>
          <path id="Path_7502" data-name="Path 7502" d="M391.468,658.4H223.439l20.674-17.243c2.267-1.891,7.895-3.422,12.569-3.422h151.1c4.676,0,6.626,1.531,4.36,3.422Z" transform="translate(-132.554 -626.689)" fill="#f67d48"/>
          <path id="Rectangle_2297" data-name="Rectangle 2297" d="M0,0H168.03a0,0,0,0,1,0,0V128.139a6.47,6.47,0,0,1-6.47,6.47H6.47A6.47,6.47,0,0,1,0,128.139V0A0,0,0,0,1,0,0Z" transform="translate(90.884 31.596)" fill="#fff" opacity="0.2"/>
          <path id="Path_7503" data-name="Path 7503" d="M197.158,648.908V733l5.808-4.583L207.053,733l3.557-5.1,3.628,5.1,5.079-3.84,5.574,3.84v-84.09Z" transform="translate(-154.711 -617.244)" fill="#fff" opacity="0.5"/>
          <text id="s" transform="translate(144.433 129.837)" fill="#e06a37" font-size="71" font-family="Kitaboo_6_0"><tspan x="0" y="0">s</tspan></text>
        </g>
        <path id="line" d="M3.72,180.067s-13.874-4.444,11.964-10.57A145.7,145.7,0,0,0,85.418,130.35c8.518-8.688,16.281-19.123,17.483-31.231S96.392,73.392,84.316,71.91c-13.411-1.648-24.9,15.438-18.324,27.237,3.161,5.668,9.126,9.29,15.3,11.281a44.811,44.811,0,0,0,43.036-9.337c12.993-11.839,19.855-31.97,36.861-36.409s11.256-51.375,11.256-51.375L185.524,0" transform="matrix(0.998, 0.07, -0.07, 0.998, 86.636, 23.351)" fill="none" stroke="#363b74" stroke-miterlimit="10" stroke-width="1" stroke-dasharray="2"/>
        <g id="flies" transform="translate(275.029 0)">
          <g id="Group_4541" data-name="Group 4541" transform="translate(18.353)">
            <path id="Path_7330" data-name="Path 7330" d="M732.238,272.377a8.2,8.2,0,0,1,5.49-10.214c4.336-1.306,9.045,4.944,8.134,9.38-2.455,11.964-.167,17.112-.167,17.112S733.543,276.714,732.238,272.377Z" transform="translate(-723.715 -261.987)" fill="#e27d4c"/>
            <path id="Path_7331" data-name="Path 7331" d="M730.687,276.168a8.2,8.2,0,0,1,.638-11.577c3.373-3.023,10.288.638,11.349,5.041,2.852,11.875,7.111,15.566,7.111,15.566S733.71,279.541,730.687,276.168Z" transform="translate(-728.595 -259.769)" fill="#f2cf53"/>
          </g>
          <path id="Path_7332" data-name="Path 7332" d="M776.108,271.367c-5.252-4.093-9.648-2.254-11.184.993a18.35,18.35,0,0,0-8.3.444,20.125,20.125,0,0,0-6.072,2.668,39.465,39.465,0,0,1-10.832,4.972l-16.229,4.887c-1.477.392-2.6.983-2.212,2.462s1.611,1.238,3.091.846L740.728,285a40.8,40.8,0,0,1,12.053-1.013,20.173,20.173,0,0,0,6.627-.688,18.392,18.392,0,0,0,7.429-3.728,5.767,5.767,0,0,0,4.808.879c3.122-.829,6.431-4.433,5.55-7.548A3.044,3.044,0,0,0,776.108,271.367Z" transform="translate(-721.201 -251.575)" fill="#f2cf53"/>
          <g id="Group_4542" data-name="Group 4542" transform="translate(1.799 27.266)">
            <path id="Path_7333" data-name="Path 7333" d="M722.417,275.8c-.169.045-.333.094-.491.146a8.678,8.678,0,0,1,1.189,3.207l.181-.045,1.477-.33a10.276,10.276,0,0,0-1.161-3.339Z" transform="translate(-721.926 -269.311)" fill="#e27d4c"/>
            <path id="Path_7334" data-name="Path 7334" d="M723.9,275.356a8.668,8.668,0,0,1,1.316,3.557l1.655-.37a10.324,10.324,0,0,0-1.283-3.7Z" transform="translate(-718.997 -270.193)" fill="#e27d4c"/>
            <path id="Path_7335" data-name="Path 7335" d="M725.878,274.761a8.7,8.7,0,0,1,1.442,3.914l1.656-.37a10.319,10.319,0,0,0-1.41-4.053Z" transform="translate(-716.069 -271.075)" fill="#e27d4c"/>
            <path id="Path_7336" data-name="Path 7336" d="M727.854,274.166a8.706,8.706,0,0,1,1.569,4.272l1.445-.323c.07-.015.139-.025.211-.04a10.36,10.36,0,0,0-1.534-4.418Z" transform="translate(-713.14 -271.957)" fill="#e27d4c"/>
            <path id="Path_7337" data-name="Path 7337" d="M731.408,272.972c-.531.221-1.057.454-1.6.653a8.758,8.758,0,0,1,1.745,4.716.81.81,0,0,0,.037.134q.823-.119,1.653-.208A10.378,10.378,0,0,0,731.408,272.972Z" transform="translate(-710.241 -272.972)" fill="#e27d4c"/>
          </g>
        </g>
      </g>
      <g id="Shelf" transform="translate(762.959 589.992)" opacity="0.61">
        <g id="Group_4655" data-name="Group 4655">
          <g id="Group_4654" data-name="Group 4654">
            <rect id="Rectangle_2263" data-name="Rectangle 2263" width="5.173" height="412.729" transform="translate(36.677 2.822)" fill="#c65447"/>
            <rect id="Rectangle_2264" data-name="Rectangle 2264" width="5.172" height="412.729" transform="translate(158.23 2.822)" fill="#c65447"/>
            <rect id="Rectangle_2265" data-name="Rectangle 2265" width="5.172" height="412.729" transform="translate(0 2.822)" fill="#e06a37"/>
            <rect id="Rectangle_2266" data-name="Rectangle 2266" width="5.172" height="412.729" transform="translate(121.553 2.822)" fill="#e06a37"/>
            <rect id="Rectangle_2267" data-name="Rectangle 2267" width="163.403" height="5.643" transform="translate(0 0.001)" fill="#e06a37"/>
            <rect id="Rectangle_2268" data-name="Rectangle 2268" width="163.403" height="5.643" transform="translate(0 101.068)" fill="#e06a37"/>
            <rect id="Rectangle_2269" data-name="Rectangle 2269" width="163.403" height="5.643" transform="translate(0 202.135)" fill="#e06a37"/>
            <rect id="Rectangle_2270" data-name="Rectangle 2270" width="163.403" height="5.643" transform="translate(0 303.203)" fill="#e06a37"/>
            <rect id="Rectangle_2271" data-name="Rectangle 2271" width="163.403" height="5.643" transform="translate(0 404.27)" fill="#e06a37"/>
            <rect id="Rectangle_2272" data-name="Rectangle 2272" width="36.678" height="5.643" transform="translate(126.725)" fill="#c65447"/>
            <rect id="Rectangle_2273" data-name="Rectangle 2273" width="36.678" height="5.643" transform="translate(126.725 101.067)" fill="#96340a"/>
            <rect id="Rectangle_2274" data-name="Rectangle 2274" width="36.678" height="5.643" transform="translate(126.725 202.134)" fill="#96340a"/>
            <rect id="Rectangle_2275" data-name="Rectangle 2275" width="36.678" height="5.643" transform="translate(126.725 303.201)" fill="#96340a"/>
            <rect id="Rectangle_2276" data-name="Rectangle 2276" width="36.678" height="5.643" transform="translate(126.725 404.268)" fill="#96340a"/>
          </g>
        </g>
        <g id="Group_4656" data-name="Group 4656" transform="translate(20.488 169.265)">
          <rect id="Rectangle_2277" data-name="Rectangle 2277" width="86.08" height="32.869" fill="#f8976d"/>
          <rect id="Rectangle_2278" data-name="Rectangle 2278" width="14.985" height="32.869" transform="translate(101.065 32.869) rotate(180)" fill="#f8976d"/>
          <rect id="Rectangle_2279" data-name="Rectangle 2279" width="14.985" height="3.622" transform="translate(101.065 18.245) rotate(180)" fill="#fabea4"/>
          <rect id="Rectangle_2280" data-name="Rectangle 2280" width="86.08" height="3.622" transform="translate(0 14.624)" fill="#fabea4"/>
        </g>
        <g id="Group_4657" data-name="Group 4657" transform="translate(16.263 346.156)">
          <rect id="Rectangle_2281" data-name="Rectangle 2281" width="67.238" height="58.113" fill="#f8976d"/>
          <rect id="Rectangle_2282" data-name="Rectangle 2282" width="11.705" height="58.113" transform="translate(78.943 58.113) rotate(180)" fill="#f67d48"/>
          <rect id="Rectangle_2283" data-name="Rectangle 2283" width="11.705" height="6.403" transform="translate(78.943 32.258) rotate(180)" fill="#e06a37"/>
          <rect id="Rectangle_2284" data-name="Rectangle 2284" width="67.238" height="6.403" transform="translate(0 25.855)" fill="#f67d48"/>
          <rect id="Rectangle_2285" data-name="Rectangle 2285" width="11.705" height="2.287" transform="translate(78.943 21.363) rotate(180)" fill="#e06a37"/>
          <rect id="Rectangle_2286" data-name="Rectangle 2286" width="67.238" height="2.287" transform="translate(0 19.076)" fill="#f67d48"/>
        </g>
      </g>
    </g>
  </g>
</svg>
