<svg xmlns="http://www.w3.org/2000/svg" xmlns:xlink="http://www.w3.org/1999/xlink" width="1024" height="800" viewBox="0 0 1024 800">
  <defs>
    <clipPath id="clip-path">
      <rect id="Rectangle_1311" data-name="Rectangle 1311" width="1016" height="735" fill="#fff" stroke="#707070" stroke-width="1"/>
    </clipPath>
    <clipPath id="clip-Empty-search-result">
      <rect width="1024" height="800"/>
    </clipPath>
  </defs>
  <g id="Empty-search-result" clip-path="url(#clip-Empty-search-result)">
    <g id="Graphic" transform="translate(-734.099 -234.167)">
      <g id="Mask_Group_1" data-name="Mask Group 1" transform="translate(738.099 234.167)" clip-path="url(#clip-path)">
        <ellipse id="Ellipse_63" data-name="Ellipse 63" cx="457.375" cy="456.503" rx="457.375" ry="456.503" transform="translate(50.399 75.599)" fill="#4e4076" opacity="0.1"/>
      </g>
      <g id="Group_4479" data-name="Group 4479" transform="translate(903.501 345.449)">
        <g id="Group_4432" data-name="Group 4432" transform="translate(297.603 114.232)">
          <rect id="Rectangle_2217" data-name="Rectangle 2217" width="217.536" height="50.911" rx="4.352" fill="#f5f5f5"/>
        </g>
        <ellipse id="Ellipse_88" data-name="Ellipse 88" cx="127.953" cy="24.703" rx="127.953" ry="24.703" transform="translate(256.999 639.311)" fill="#e4e4e4"/>
        <g id="Group_4466" data-name="Group 4466" transform="translate(47.473 104.895)">
          <rect id="Rectangle_2231" data-name="Rectangle 2231" width="257.015" height="69.583" rx="4.352" transform="translate(0 0)" fill="#f5f5f5"/>
          <path id="Path_7145" data-name="Path 7145" d="M955.717,374.056H874.3c-3.569,0-6.46,4.339-6.46,9.69v50.2c0,5.353,2.891,9.691,6.46,9.691h81.422c3.627,0,6.569-4.412,6.569-9.853V383.909C962.286,378.468,959.344,374.056,955.717,374.056Z" transform="translate(-867.835 -374.056)" fill="#379cf7"/>
        </g>
        <g id="Group_4467" data-name="Group 4467" transform="translate(65.387 114.232)">
          <path id="Path_7146" data-name="Path 7146" d="M936.072,426.462l-21.6-17.781a2.074,2.074,0,0,1-.53-2.5,17.995,17.995,0,0,0-28.579-20.941,18.378,18.378,0,0,0-3.02,3.783,17.992,17.992,0,0,0,26.139,23.712,2.175,2.175,0,0,1,.673-.328,2.059,2.059,0,0,1,1.885.4l21.6,17.781a2.624,2.624,0,0,0,1.958.6,2.681,2.681,0,0,0,1.474-4.724Zm-28.149-19.749a13.182,13.182,0,1,1-1.694-18.565A13.178,13.178,0,0,1,907.924,406.714Z" transform="translate(-879.793 -380.288)" fill="#fff"/>
          <path id="Path_7147" data-name="Path 7147" d="M904.628,386.551a13.182,13.182,0,1,0,1.694,18.565A13.176,13.176,0,0,0,904.628,386.551Z" transform="translate(-878.191 -378.691)" fill="#379cf7"/>
        </g>
        <g id="Group_4468" data-name="Group 4468" transform="translate(154.476 129.568)">
          <path id="Path_7148" data-name="Path 7148" d="M939.259,410.2l2.345-2.786a10.2,10.2,0,0,0,7,2.881c2.407,0,3.927-1.107,3.927-2.849,0-1.584-.887-2.439-5-3.42-4.719-1.107-7.38-2.5-7.38-6.65,0-3.8,3.167-6.428,7.569-6.428a12.294,12.294,0,0,1,8.043,2.786l-2.09,2.945a10.072,10.072,0,0,0-6.017-2.28c-2.28,0-3.611,1.172-3.611,2.692,0,1.709,1.014,2.47,5.257,3.483,4.686,1.14,7.125,2.818,7.125,6.556,0,4.148-3.262,6.619-7.916,6.619A13.661,13.661,0,0,1,939.259,410.2Z" transform="translate(-939.259 -390.315)" fill="#6b98f6"/>
          <path id="Path_7149" data-name="Path 7149" d="M952.872,403.271c0-4.782,3.389-8.709,8.171-8.709,5.32,0,8.012,4.18,8.012,8.993a10.521,10.521,0,0,1-.064,1.076H956.7a4.668,4.668,0,0,0,4.813,4.244,6.072,6.072,0,0,0,4.529-2l2.247,2a8.458,8.458,0,0,1-6.841,3.136A8.36,8.36,0,0,1,952.872,403.271Zm12.382-1.172c-.253-2.47-1.709-4.4-4.244-4.4-2.341,0-3.99,1.805-4.337,4.4Z" transform="translate(-932.478 -388.514)" fill="#6b98f6"/>
          <path id="Path_7150" data-name="Path 7150" d="M976.86,411.6v-2.058a6.759,6.759,0,0,1-5.416,2.407c-3.167,0-5.954-1.805-5.954-5.226,0-3.7,2.882-5.479,6.778-5.479a14.067,14.067,0,0,1,4.623.7v-.316c0-2.312-1.456-3.579-4.117-3.579a11.638,11.638,0,0,0-4.782,1.046l-1.044-3.073a14.344,14.344,0,0,1,6.364-1.393c4.941,0,7.347,2.6,7.347,7.062V411.6Zm.094-7a10.968,10.968,0,0,0-3.831-.664c-2.407,0-3.832.981-3.832,2.659,0,1.583,1.425,2.47,3.23,2.47,2.533,0,4.433-1.425,4.433-3.515Z" transform="translate(-926.192 -388.483)" fill="#6b98f6"/>
          <path id="Path_7151" data-name="Path 7151" d="M978.66,394.9h3.832v3.769c1.044-2.5,2.977-4.211,5.921-4.085v4.054h-.22c-3.357,0-5.7,2.184-5.7,6.617v6.366H978.66Z" transform="translate(-919.632 -388.506)" fill="#6b98f6"/>
          <path id="Path_7152" data-name="Path 7152" d="M986.4,403.3a8.623,8.623,0,0,1,8.677-8.74,8.355,8.355,0,0,1,6.682,2.881l-2.376,2.566a5.624,5.624,0,0,0-4.339-2.091c-2.787,0-4.814,2.408-4.814,5.384a5.087,5.087,0,0,0,5,5.383,5.88,5.88,0,0,0,4.339-2.09l2.312,2.28a8.461,8.461,0,0,1-6.84,3.136A8.551,8.551,0,0,1,986.4,403.3Z" transform="translate(-915.778 -388.514)" fill="#6b98f6"/>
          <path id="Path_7153" data-name="Path 7153" d="M999.079,390.525h3.832v8.993a6.018,6.018,0,0,1,5.225-2.945c3.768,0,5.954,2.533,5.954,6.429v10.64h-3.832v-9.5c0-2.6-1.3-4.085-3.578-4.085-2.217,0-3.769,1.552-3.769,4.148v9.437h-3.832Z" transform="translate(-909.46 -390.525)" fill="#6b98f6"/>
        </g>
        <g id="Group_4475" data-name="Group 4475" transform="translate(351.967 305.967)">
          <g id="Group_4471" data-name="Group 4471">
            <g id="Group_4469" data-name="Group 4469">
              <path id="Path_7156" data-name="Path 7156" d="M1191.793,615.855v-21a8.282,8.282,0,0,0-8.282-8.282h-10.691a11.633,11.633,0,0,1-11-8.069,84.4,84.4,0,0,0-4.581-11.056,11.644,11.644,0,0,1,2.066-13.5l7.56-7.56a8.282,8.282,0,0,0,0-11.712l-14.851-14.851a8.282,8.282,0,0,0-11.712,0l-7.56,7.56a11.645,11.645,0,0,1-13.5,2.066,84.534,84.534,0,0,0-11.056-4.581,11.635,11.635,0,0,1-8.069-11V503.173a8.282,8.282,0,0,0-8.281-8.282h-21a8.282,8.282,0,0,0-8.282,8.282v10.691a11.635,11.635,0,0,1-8.068,11,84.394,84.394,0,0,0-11.056,4.581,11.644,11.644,0,0,1-13.5-2.066l-7.561-7.56a8.28,8.28,0,0,0-11.711,0L995.8,534.67a8.282,8.282,0,0,0,0,11.712l7.56,7.56a11.648,11.648,0,0,1,2.068,13.5,84.166,84.166,0,0,0-4.582,11.056,11.635,11.635,0,0,1-11,8.069H979.151a8.282,8.282,0,0,0-8.282,8.282v21a8.282,8.282,0,0,0,8.282,8.282h10.692a11.635,11.635,0,0,1,11,8.068,84.164,84.164,0,0,0,4.582,11.058,11.645,11.645,0,0,1-2.068,13.5l-7.56,7.561a8.28,8.28,0,0,0,0,11.711l14.853,14.853a8.28,8.28,0,0,0,11.711,0l7.561-7.56a11.648,11.648,0,0,1,13.5-2.067,84.078,84.078,0,0,0,11.057,4.581,11.637,11.637,0,0,1,8.068,11v10.691a8.282,8.282,0,0,0,8.282,8.282h21a8.282,8.282,0,0,0,8.281-8.282V696.843a11.637,11.637,0,0,1,8.069-11,84.124,84.124,0,0,0,11.056-4.581,11.65,11.65,0,0,1,13.5,2.067l7.56,7.56a8.282,8.282,0,0,0,11.712,0l14.851-14.853a8.28,8.28,0,0,0,0-11.711l-7.56-7.56a11.647,11.647,0,0,1-2.066-13.5,84.4,84.4,0,0,0,4.581-11.058,11.634,11.634,0,0,1,11-8.068h10.691A8.281,8.281,0,0,0,1191.793,615.855Zm-110.462,14.856a25.358,25.358,0,1,1,25.358-25.357A25.357,25.357,0,0,1,1081.331,630.711Z" transform="translate(-970.869 -494.891)" fill="#cdd5f6"/>
            </g>
            <g id="Group_4470" data-name="Group 4470" transform="translate(199.113 183.12)">
              <path id="Path_7157" data-name="Path 7157" d="M1228.8,685.579V673.693a4.687,4.687,0,0,0-4.686-4.688h-6.051a6.585,6.585,0,0,1-6.225-4.566,47.6,47.6,0,0,0-2.591-6.256,6.592,6.592,0,0,1,1.168-7.642l4.279-4.277a4.688,4.688,0,0,0,0-6.628l-8.4-8.4a4.687,4.687,0,0,0-6.628,0l-4.278,4.279a6.594,6.594,0,0,1-7.642,1.17,47.621,47.621,0,0,0-6.256-2.593,6.583,6.583,0,0,1-4.566-6.225v-6.049a4.687,4.687,0,0,0-4.687-4.688h-11.886a4.688,4.688,0,0,0-4.688,4.688v6.049a6.582,6.582,0,0,1-4.565,6.225,47.646,47.646,0,0,0-6.257,2.593,6.591,6.591,0,0,1-7.641-1.17l-4.279-4.279a4.687,4.687,0,0,0-6.628,0l-8.4,8.4a4.686,4.686,0,0,0,0,6.628l4.277,4.277a6.59,6.59,0,0,1,1.17,7.642,47.537,47.537,0,0,0-2.591,6.258,6.586,6.586,0,0,1-6.226,4.565h-6.049a4.688,4.688,0,0,0-4.688,4.688v11.886a4.688,4.688,0,0,0,4.688,4.686h6.049a6.588,6.588,0,0,1,6.226,4.566,47.6,47.6,0,0,0,2.591,6.256,6.593,6.593,0,0,1-1.17,7.642l-4.277,4.279a4.686,4.686,0,0,0,0,6.628l8.4,8.4a4.685,4.685,0,0,0,6.628,0l4.279-4.279a6.588,6.588,0,0,1,7.641-1.169,47.689,47.689,0,0,0,6.257,2.592,6.583,6.583,0,0,1,4.565,6.225v6.051a4.688,4.688,0,0,0,4.688,4.686h11.886a4.686,4.686,0,0,0,4.687-4.686V731.41a6.584,6.584,0,0,1,4.566-6.225,47.664,47.664,0,0,0,6.256-2.592,6.59,6.59,0,0,1,7.642,1.169l4.278,4.279a4.686,4.686,0,0,0,6.628,0l8.4-8.4a4.689,4.689,0,0,0,0-6.628l-4.279-4.279a6.592,6.592,0,0,1-1.168-7.642,47.6,47.6,0,0,0,2.591-6.256,6.587,6.587,0,0,1,6.225-4.566h6.051A4.687,4.687,0,0,0,1228.8,685.579Zm-62.511,19.007a24.95,24.95,0,1,1,24.95-24.95A24.95,24.95,0,0,1,1166.289,704.586Z" transform="translate(-1103.776 -617.123)" fill="#cdd5f6"/>
            </g>
          </g>
          <g id="Group_4472" data-name="Group 4472" transform="translate(45.608 46.186)">
            <path id="Path_7158" data-name="Path 7158" d="M1066.166,655.43a64.855,64.855,0,1,1,64.854-64.856A64.928,64.928,0,0,1,1066.166,655.43Zm0-113.86a49,49,0,1,0,49,49A49.059,49.059,0,0,0,1066.166,541.57Z" transform="translate(-1001.312 -525.72)" fill="#bbc0e7"/>
          </g>
          <g id="Group_4473" data-name="Group 4473" transform="translate(241.217 48.018)">
            <path id="Path_7159" data-name="Path 7159" d="M1256.9,595.4V583.513a4.687,4.687,0,0,0-4.686-4.688h-6.051a6.583,6.583,0,0,1-6.224-4.566,47.715,47.715,0,0,0-2.593-6.256,6.593,6.593,0,0,1,1.17-7.642l4.279-4.277a4.69,4.69,0,0,0,0-6.629l-8.406-8.4a4.689,4.689,0,0,0-6.628,0l-4.277,4.279a6.59,6.59,0,0,1-7.642,1.169,47.871,47.871,0,0,0-6.256-2.592,6.583,6.583,0,0,1-4.566-6.225v-6.051a4.687,4.687,0,0,0-4.686-4.686H1188.45a4.688,4.688,0,0,0-4.688,4.686v6.051a6.583,6.583,0,0,1-4.565,6.225,47.793,47.793,0,0,0-6.258,2.592,6.59,6.59,0,0,1-7.642-1.169l-4.277-4.279a4.689,4.689,0,0,0-6.628,0l-8.4,8.4a4.687,4.687,0,0,0,0,6.629l4.277,4.277a6.59,6.59,0,0,1,1.17,7.642,47.713,47.713,0,0,0-2.593,6.256,6.584,6.584,0,0,1-6.225,4.566h-6.051a4.688,4.688,0,0,0-4.686,4.688V595.4a4.687,4.687,0,0,0,4.686,4.686h6.051a6.583,6.583,0,0,1,6.225,4.565,47.645,47.645,0,0,0,2.593,6.258,6.59,6.59,0,0,1-1.17,7.642l-4.277,4.277a4.686,4.686,0,0,0,0,6.628l8.4,8.406a4.689,4.689,0,0,0,6.628,0l4.277-4.278a6.593,6.593,0,0,1,7.642-1.17,47.662,47.662,0,0,0,6.256,2.593,6.581,6.581,0,0,1,4.566,6.225v6.049a4.688,4.688,0,0,0,4.688,4.688h11.886a4.688,4.688,0,0,0,4.686-4.688V641.23a6.581,6.581,0,0,1,4.566-6.225,47.676,47.676,0,0,0,6.256-2.593,6.593,6.593,0,0,1,7.642,1.17l4.277,4.278a4.689,4.689,0,0,0,6.628,0l8.406-8.406a4.688,4.688,0,0,0,0-6.628l-4.279-4.277a6.59,6.59,0,0,1-1.169-7.642,47.807,47.807,0,0,0,2.592-6.258,6.582,6.582,0,0,1,6.224-4.565h6.051A4.686,4.686,0,0,0,1256.9,595.4Zm-62.511,6.619a12.563,12.563,0,1,1,12.561-12.563A12.563,12.563,0,0,1,1194.393,602.018Z" transform="translate(-1131.88 -526.943)" fill="#bbc0e7"/>
          </g>
          <g id="Group_4474" data-name="Group 4474" transform="translate(270.289 77.022)">
            <path id="Path_7160" data-name="Path 7160" d="M1184.724,613.183a33.44,33.44,0,1,1,33.44-33.44A33.477,33.477,0,0,1,1184.724,613.183Zm0-58.708a25.268,25.268,0,1,0,25.268,25.268A25.3,25.3,0,0,0,1184.724,554.475Z" transform="translate(-1151.286 -546.303)" fill="#cdd5f6"/>
          </g>
        </g>
        <g id="Group_4478" data-name="Group 4478" transform="translate(0)">
          <path id="Path_7161" data-name="Path 7161" d="M1140.217,720.036l-6.66,28.049-9.975-.057-.366-27.992Z" transform="translate(-693.147 -96.815)" fill="#e49963"/>
          <path id="Path_7162" data-name="Path 7162" d="M1087.312,722.061l-18.949,26.853-7.385-9.482,11.4-21.063Z" transform="translate(-724.15 -97.645)" fill="#e49963"/>
          <path id="Path_7163" data-name="Path 7163" d="M1115.034,475.047c3.444-1.957,7.572-2.171,10.457-2a4.892,4.892,0,0,0-2.2-1.047c1.79-.265,5.786,1.51,5.786,1.51,24.9-9.594,28.812,27.067,28.288,35.584s8.367,11.3,21.321,18.009c24.716,12.8,26.887,29.949,26.887,29.949-.193.114-.394.243-.608.389-1.225-2.078-3.75-5.979-5.879-6.568a88.49,88.49,0,0,1,3.425,8.342c-7.293,5.546-20.932,17.837-30.439,26.55.042-1.7-.026-4.121-.647-5.4l-1.175,7.073c-5.088,4.677-8.595,7.967-8.595,7.967.628-6.882-31.13-43.2-47.7-54.083-4.033-5.937-5.467-16.427-5.575-17.253.7,8.318,2.12,12.983,3.391,15.609C1097.739,526.769,1105.907,480.234,1115.034,475.047Z" transform="translate(-702.609 -220.41)" fill="#2d133b"/>
          <path id="Path_7164" data-name="Path 7164" d="M1111.372,526.766c-.084.037,8,4.234,14.078,2.571,5.72-1.56,9.456-8.975,9.376-8.992-2.421-.481-3.119-3.808-3.068-18.109l-1.1.216-18.409,3.645s.419,5.793.431,11.251C1112.7,521.931,1112.421,526.277,1111.372,526.766Z" transform="translate(-699.047 -205.31)" fill="#ebaf7d"/>
          <path id="Path_7165" data-name="Path 7165" d="M1111.961,506.025s.419,5.793.431,11.251c10.3-.291,15.747-9.688,17.978-14.9Z" transform="translate(-698.754 -205.238)" fill="#e8a069"/>
          <path id="Path_7166" data-name="Path 7166" d="M1136.126,513.619s5.4-8.53,6.7-15.823c.924-5.208-1.728-24.51-21.124-21.729a26.343,26.343,0,0,0-10.929,4.13c-4.211,2.845-10.289,8.986-3.494,25.828l1.765,5.69Z" transform="translate(-702.609 -218.481)" fill="#2d133b"/>
          <path id="Path_7167" data-name="Path 7167" d="M1062.985,797.722l9.757.3,10.563.323s24.4-27.164,38.083-70.709q.479-1.519,1.011-3.073c7.491-21.839,23.018-49.251,31.2-74.064,1.3-3.952,2.472-7.672,3.52-11.193q.506-1.692.975-3.327c6.03-20.95,7.776-34.706,9.385-49.4h-53.565S1098.856,687.41,1062.985,797.722Z" transform="translate(-723.151 -163.297)" fill="#293977"/>
          <path id="Path_7168" data-name="Path 7168" d="M1101.664,589.69c.15,28.116-4.124,40.179-4.124,40.179s25.3,12.853,55.364,3.392c.355-.111,22.615-4.578,22.615-4.578-.5-1.137-6.644-20.587-7.134-21.632-6.348-13.632-7.221-20.241-7.973-24.433a89.129,89.129,0,0,1-.731-23.555,189.018,189.018,0,0,1,7.29-36.992c-8.192-1.864-15.864-5.139-24.39-8.336-1.963,2.442-7.958,5-13.158,4.881-5.99-.133-7.931-2.7-7.621-5.5-6.382,3.551-11.474,6.906-11.474,6.906-5.425,9.422-16.426,18.571-17.223,33.025C1092.908,556.605,1101.66,588.9,1101.664,589.69Z" transform="translate(-708.149 -199.888)" fill="#ff5a33"/>
          <path id="Path_7169" data-name="Path 7169" d="M1092.566,547.92c8.674-10.132,31.146-32.105,54.336-34.8l-20.01,38.983a17.25,17.25,0,0,1-7.05,10.575c-14.516,9.539-32.97,13.754-32.97,13.754s-12.5-5.452-29.584-17.97c-5.362-3.93-14.785-18.917-14.785-18.917l2.542-8.5s16,8.944,21.713,11.524c3.257,1.471,10.755,4.981,16.037,7.462A8.243,8.243,0,0,0,1092.566,547.92Z" transform="translate(-733.353 -199.888)" fill="#ff5a33"/>
          <path id="Path_7170" data-name="Path 7170" d="M1112.364,521.936s24.373.4,24.39-14.779,3.173-25.356-12.386-26.253-18.592,4.89-19.83,9.957S1106.024,521.442,1112.364,521.936Z" transform="translate(-702.597 -215.982)" fill="#ebaf7d"/>
          <path id="Path_7171" data-name="Path 7171" d="M1110.267,481.65s6.673,17.811,16.914,20.445,14.685-.109,14.685-.109a29,29,0,0,1-9.486-17.134S1115.3,473.173,1110.267,481.65Z" transform="translate(-699.598 -217.101)" fill="#2d133b"/>
          <path id="Path_7172" data-name="Path 7172" d="M1115.474,482.555s-4.984,3.978-6.2,7.843-1.762,11.825-4.081,11.555c0,0-5.028-12.106.623-18.956C1111.808,475.735,1115.474,482.555,1115.474,482.555Z" transform="translate(-703.151 -216.56)" fill="#2d133b"/>
          <path id="Path_7173" data-name="Path 7173" d="M1051.254,528.674s-3.437-12.384-17.05-10.634c-1.562.49-6.127,2.31-3.209,7.2,2.15,3.6,3.082,1.744,6.464,6.586s7.057,5.934,11.253,5.356Z" transform="translate(-739.562 -197.521)" fill="#e8a069"/>
          <path id="Path_7174" data-name="Path 7174" d="M1134.634,737.712a27.007,27.007,0,0,0,1.271,11.5s1.633,7.438-5.694,7.576-9.124-.553-8.294-5.115,2.407-12.451,2.407-12.451Z" transform="translate(-693.887 -88.01)" fill="#e49963"/>
          <path id="Path_7175" data-name="Path 7175" d="M1121.394,756.2s.156.1.46.244H1136.2a3.375,3.375,0,0,0,.4-.244c.829-3.732-.524-10.755-.524-10.755-8.3,7.6-13.491-.189-13.491-.189C1121.237,748.511,1121.394,756.2,1121.394,756.2Z" transform="translate(-694.058 -84.25)" fill="#d86713"/>
          <path id="Path_7176" data-name="Path 7176" d="M1049.2,755.051s13.507-14.993,17.656-22.622l10.043,5.146-22.452,21.085-5.253-.692Z" transform="translate(-730.023 -90.642)" fill="#e49963"/>
          <path id="Path_7177" data-name="Path 7177" d="M1043.6,761.131h18.484c1.781-1.33,3.443-4.409,5.509-8.543,1.1-2.2,3.576-3.419,6.117-4.087v12.487h3.834l3.632-13.273c2.388-4.4.189-8.38-1.5-11.852-1.955,0-7.221,1.335-17.2,12.578-3.282,3.692-6.9,5.013-10.5,4.9a.774.774,0,0,1-.147.078C1045.813,756.124,1044.092,759.487,1043.6,761.131Z" transform="translate(-732.807 -88.931)" fill="#d86713"/>
          <path id="Path_7178" data-name="Path 7178" d="M1069.5,783.789l10.563.324s24.4-27.164,38.083-70.709q.478-1.519,1.011-3.073c7.491-21.838,23.017-49.251,31.2-74.063,1.3-3.952,2.472-7.672,3.521-11.193q.505-1.692.975-3.327l-8.7-6.6s-26.122,42.3-34.209,82.109C1104.914,731.834,1076.78,773.442,1069.5,783.789Z" transform="translate(-719.906 -149.064)" fill="#233862"/>
          <path id="Path_7179" data-name="Path 7179" d="M1121.986,718.638c-.15,22.14.83,73.044,3.351,94.116h9.356c5.172,0,7.751-.086,7.751-.086,6.324-36.641,10.824-66.958,14.1-93.082,2.688-21.438,5.077-39.818,6.914-55.639,1.85-15.922,3.136-29.256,3.6-40.52q.106-2.66.153-5.174c.03-1.684.272-5.1-2.922-10.6h-48.1C1116.824,646.446,1122.07,705.77,1121.986,718.638Z" transform="translate(-696.651 -178.564)" fill="#293977"/>
          <path id="Path_7180" data-name="Path 7180" d="M1128.538,782.4c5.172,0,7.752-.075,7.752-.075,6.323-32.038,10.824-58.546,14.1-81.388,2.688-18.745,5.077-34.815,6.914-48.649,1.85-13.922,3.136-25.581,3.6-35.43l-18.733,11.019s11.957,4.217,7.395,36.15S1134.887,777.88,1128.538,782.4Z" transform="translate(-690.496 -148.211)" fill="#233862"/>
          <path id="Path_7505" data-name="Path 7505" d="M264.968,274.722l-9.057-25.508-5.957-10.72L239.332,192.2c-2.656-11.573,0-9.015,0-9.015s-9.65,41.541-13.472,57.012S264.968,274.722,264.968,274.722Z" transform="translate(202.401 154.366)" fill="#ef3c18"/>
          <g id="Group_4476" data-name="Group 4476">
            <rect id="Rectangle_2232" data-name="Rectangle 2232" width="13.194" height="52.468" transform="translate(260.496 269.825) rotate(-45)" fill="#2b478b"/>
            <rect id="Rectangle_2233" data-name="Rectangle 2233" width="37.395" height="289.55" rx="8.425" transform="translate(282.423 308.864) rotate(-45)" fill="#c65447"/>
            <path id="Path_7181" data-name="Path 7181" d="M881.594,349.487a155.168,155.168,0,1,0,219.441,0A155.169,155.169,0,0,0,881.594,349.487Zm207.354,207.354a138.075,138.075,0,1,1,0-195.267A138.076,138.076,0,0,1,1088.949,556.841Z" transform="translate(-836.147 -304.039)" fill="#c65447"/>
          </g>
          <path id="Path_7182" data-name="Path 7182" d="M1151.211,555.546l-13.623-41.952c.036.016,17.2,5.109,25.842,9.471,0,0,5.4,6.959,8.739,23.016,0,0,3.528,38.549-4.351,52.649,0,0-24.883,4.975-64.7-8.71V580.9s43.545,2.282,52.462,3.318Z" transform="translate(-703.157 -199.652)" fill="#ebaf7d"/>
          <path id="Path_7183" data-name="Path 7183" d="M1126.614,513.594s25.252,1.778,31.335,15.326,8.018,58.612.277,71.884c0,0-10.658,3.035-29.509-.49l-.7-.133s-6.014-14.721-.622-17.624c0,0,15.9.829,14.239-4.424S1126.614,513.594,1126.614,513.594Z" transform="translate(-692.182 -199.652)" fill="#ff5a33"/>
          <path id="Path_7184" data-name="Path 7184" d="M1113.344,565.89s-3.47-4.2-4.208-8.5-3.035-7.476-9.023-8.262-8.562-.872-8.547.815,4.893,13.471,13.485,20.508S1113.344,565.89,1113.344,565.89Z" transform="translate(-708.914 -182.218)" fill="#ebaf7d"/>
          <g id="Group_4477" data-name="Group 4477" transform="translate(17.094 17.094)">
            <path id="Path_7185" data-name="Path 7185" d="M1041.958,324.932,857.04,509.85a137.933,137.933,0,0,0,10.324,17.518l192.112-192.114A137.9,137.9,0,0,0,1041.958,324.932Z" transform="translate(-842.833 -310.725)" fill="#fff" opacity="0.4"/>
            <path id="Path_7186" data-name="Path 7186" d="M1034,324.167A138.146,138.146,0,0,0,856.275,501.892Z" transform="translate(-847.557 -315.449)" fill="#fff" opacity="0.4"/>
            <path id="Path_7187" data-name="Path 7187" d="M898.9,551.762a138.113,138.113,0,0,0,184.975-184.974Z" transform="translate(-821.983 -289.875)" fill="#fff" opacity="0.4"/>
          </g>
        </g>
      </g>
      <path id="Path_7188" data-name="Path 7188" d="M1156.7,526.238s12.24-3.825,16.064-19.125c0,0-19.891-2.677-21.42-18.36s56.994-48.2,56.994-48.2l35.636-14.472s32.131-6.12,36.721,17.085,2.8,58.141-7.906,67.066-44.37,5.1-44.37,5.1l-31.365-3.57S1173.215,532.295,1156.7,526.238Z" transform="translate(224.353 101.843)" fill="#9abffb"/>
      <g id="Group_4484" data-name="Group 4484" transform="translate(1407.627 572.882)">
        <path id="Path_7194" data-name="Path 7194" d="M1182.245,469.091h-3.754l-3.6-9.648a36.37,36.37,0,0,1,.378,5.085v4.563h-2.623V456.64h3.668l3.682,9.666a28.749,28.749,0,0,1-.4-4.635V456.64h2.641Z" transform="translate(-1172.649 -455.455)" fill="#2d2020"/>
        <path id="Path_7195" data-name="Path 7195" d="M1189.552,463.462c0,3.056-1.76,5.068-4.671,5.068-2.893,0-4.671-1.868-4.671-5.085,0-3.055,1.762-5.067,4.671-5.067S1189.552,460.247,1189.552,463.462Zm-6.4-.016c0,2.12.574,3,1.724,3s1.724-.917,1.724-2.984c0-2.12-.574-3-1.724-3S1183.157,461.38,1183.157,463.446Z" transform="translate(-1168.883 -454.589)" fill="#2d2020"/>
        <path id="Path_7196" data-name="Path 7196" d="M1194.553,464.328H1193.4v4.763h-2.947V456.64h4.079c3.377,0,5.12,1.2,5.12,3.79a3.424,3.424,0,0,1-2.389,3.36l3.161,5.3H1197.1ZM1193.4,462.3h1.241c1.293,0,1.976-.557,1.976-1.87,0-1.2-.7-1.724-2.156-1.724H1193.4Z" transform="translate(-1163.778 -455.455)" fill="#2d2020"/>
        <path id="Path_7197" data-name="Path 7197" d="M1206.139,464.289h-5.894c.178,1.708.987,2.174,2.156,2.174a3.867,3.867,0,0,0,2.282-.843l1.167,1.582a5.868,5.868,0,0,1-3.718,1.329c-3.181,0-4.8-2.048-4.8-5.031,0-2.857,1.562-5.121,4.455-5.121,2.731,0,4.4,1.8,4.4,4.887A9.821,9.821,0,0,1,1206.139,464.289Zm-2.731-1.831c-.018-1.3-.413-2.193-1.546-2.193-.951,0-1.491.593-1.634,2.319h3.18Z" transform="translate(-1160.353 -454.589)" fill="#2d2020"/>
        <path id="Path_7198" data-name="Path 7198" d="M1211.54,459.546l-1.043,1.6a4.375,4.375,0,0,0-2.353-.737c-.772,0-1.149.288-1.149.719,0,.5.252.718,1.957,1.221,1.888.539,2.947,1.33,2.947,3.038,0,1.976-1.868,3.143-4.24,3.143a5.931,5.931,0,0,1-3.988-1.419l1.383-1.546a4.18,4.18,0,0,0,2.534.935c.861,0,1.384-.324,1.384-.9,0-.646-.288-.844-2.013-1.329-1.887-.539-2.821-1.509-2.821-2.984,0-1.634,1.49-2.909,3.9-2.909A5.557,5.557,0,0,1,1211.54,459.546Z" transform="translate(-1157.196 -454.589)" fill="#2d2020"/>
        <path id="Path_7199" data-name="Path 7199" d="M1218.145,468.123h-2.461l-.126-1.2a3.26,3.26,0,0,1-2.893,1.51c-1.778,0-2.66-1.149-2.66-3v-6.845h2.839v6.485c0,.971.323,1.258.917,1.258a1.87,1.87,0,0,0,1.544-1.115v-6.629h2.839Z" transform="translate(-1154.041 -454.487)" fill="#2d2020"/>
        <path id="Path_7200" data-name="Path 7200" d="M1216.821,467.06V456.153l2.84-.3v11.1c0,.4.16.593.5.593a1.2,1.2,0,0,0,.466-.09l.54,2.012a4.441,4.441,0,0,1-1.726.324A2.442,2.442,0,0,1,1216.821,467.06Z" transform="translate(-1150.645 -455.849)" fill="#2d2020"/>
        <path id="Path_7201" data-name="Path 7201" d="M1226.859,468.469a4.726,4.726,0,0,1-2.587.755c-2.1-.016-3.127-1.2-3.127-3.449v-4.421H1219.8v-1.976h1.347v-2.067l2.839-.324v2.391h2.192l-.306,1.976h-1.886v4.384c0,.917.306,1.24.9,1.24a2.015,2.015,0,0,0,1.025-.306Z" transform="translate(-1149.162 -455.282)" fill="#2d2020"/>
      </g>
      <g id="Group_4488" data-name="Group 4488" transform="translate(1136.425 674.636)">
        <path id="Path_7202" data-name="Path 7202" d="M1248.361,634.857s-10.1,16.954-9.417,18.376,27.648,17.1,29.364,15.125,11.085-15.855,11.085-15.855C1266.664,641.445,1249.518,633.343,1248.361,634.857Z" transform="translate(-1226.205 -617.098)" fill="#7d97f4"/>
        <g id="Group_4487" data-name="Group 4487" transform="translate(0)">
          <g id="Group_4485" data-name="Group 4485">
            <path id="Path_7203" data-name="Path 7203" d="M1274.126,689.668c-3.041.473-12.31-3.742-16.345-5.674a150.735,150.735,0,0,1-22.189-12.8c-4.945-3.672-5.3-5.23-5.133-6.084.512-2.655,4.794-12.712,9.756-22.2,4.424-8.456,10.553-18.776,14.623-19.924l.18-.051.166.086c4.4,2.253,43.046,22.147,43.993,26.523.656,3.04-7.726,16.737-10.312,20.863-5.227,8.345-11.906,17.877-14.217,19.094A1.7,1.7,0,0,1,1274.126,689.668Zm-19.2-65.7c-6.812,2.409-22.491,35.939-23.533,41.331-.063.328.093,1.669,4.766,5.139,10.623,7.889,33.576,18.98,37.691,18.34a1.135,1.135,0,0,0,.357-.109c1.787-.939,7.744-9,13.853-18.755,6.467-10.324,10.562-18.424,10.188-20.157C1297.605,646.78,1272.056,632.738,1254.926,623.964Z" transform="translate(-1230.43 -622.942)" fill="#bdd0fb"/>
          </g>
          <path id="Path_7204" data-name="Path 7204" d="M1268.2,669.084a2.608,2.608,0,0,1-.728-.012c-4.706-.632-27.924-13.709-28.8-15.534-.186-.388-.532-1.11,4.466-10.159,2.415-4.372,4.945-8.626,4.971-8.668a.476.476,0,0,1,.818.487c-4.7,7.889-9.459,16.7-9.386,17.937.623.754,6.869,4.664,13.922,8.529,10.438,5.72,14.13,6.752,14.665,6.46,1.654-1.915,10.688-15.22,10.779-15.354a.475.475,0,1,1,.786.535c-.373.55-9.155,13.486-10.871,15.464A1,1,0,0,1,1268.2,669.084Z" transform="translate(-1226.366 -617.195)" fill="#bdd0fb"/>
          <g id="Group_4486" data-name="Group 4486" transform="translate(21.652 17)">
            <path id="Path_7205" data-name="Path 7205" d="M1273.475,654.493c-5.759.9-17.4.333-19.308-.493-2.484-1.074-9.912-16.4-9.242-19.068h0c.093-.366.428-.767,1.5-.605,2.818.425,10.686,4.544,17.235,8.436,4.011,2.383,13.329,8.126,13.231,9.958a1.252,1.252,0,0,1-.687.986A8.023,8.023,0,0,1,1273.475,654.493Zm-27.642-19.25c-.361,2.416,6.731,17.026,8.712,17.883,1.965.849,18.362,1.5,21.16-.228.192-.12.237-.207.238-.229-.219-1.272-10.619-8.279-20.956-13.673C1248.816,635.776,1246.362,635.114,1245.833,635.243Zm.015-.079Zm-.462-.115,0,0Z" transform="translate(-1244.883 -634.289)" fill="#bdd0fb"/>
          </g>
          <path id="Path_7206" data-name="Path 7206" d="M1244.341,642.912a.476.476,0,0,1-.486-.706l.947-1.667a.476.476,0,0,1,.829.47l-.948,1.667A.481.481,0,0,1,1244.341,642.912Z" transform="translate(-1223.773 -614.296)" fill="#bdd0fb"/>
          <path id="Path_7207" data-name="Path 7207" d="M1266.093,648.551a.474.474,0,0,1-.394-.12c-3.4-3.116-16.379-9.509-16.51-9.573a.476.476,0,0,1,.42-.854c.538.264,13.233,6.518,16.733,9.726a.476.476,0,0,1-.249.821Z" transform="translate(-1221.218 -615.464)" fill="#bdd0fb"/>
        </g>
      </g>
      <g id="Group_6541" data-name="Group 6541" transform="translate(874.651 708.017)">
        <path id="Path_9474" data-name="Path 9474" d="M3032.047,1323.431c-15.586,14.231-8.809,28.461,2.71,54.889s13.555,124.009,13.555,124.009l-9.49-1.355s1.357-100.291-11.518-127.4-18.3-40.659-29.818-31.85S3032.047,1323.431,3032.047,1323.431Z" transform="translate(-2910.571 -1261.029)" fill="#52d1aa"/>
        <path id="Path_9475" data-name="Path 9475" d="M3139.383,1242.71c-1.893-8.434-13.133-17.56-28.167-25.3,2.238,12.439,9.4,32.776,1.987,36.948-10,5.625-.975-22.769-4.835-38.376a185.709,185.709,0,0,0-46.728-15.33c.021.059.038.113.061.172,8.81,22.362,20.328,31.172,15.584,34.56-3.565,2.548-15.192-23.283-30.539-36.524-11.522-.614-21.269.948-27.035,5.513-8.913,7.055-14.895,13.314-5.931,34.8a40.283,40.283,0,0,0,19.46,7.053c20.329,2.032,29.816,2.71,15.585,9.487-6.966,3.318-18.648-.188-28.118-2.323,3.072,5.661,6.848,12.069,11.438,19.366a71.953,71.953,0,0,0,9.524,12.121c6.554,1.256,12.263,1.27,15.289-.026,9.487-4.066,33.882-16.941,39.981-11.52,5.968,5.306-45.18,8.666-41.636,22.15,24.792,14.284,53.161,7.487,58.176-5.63C3120.214,1272.239,3145.082,1268.095,3139.383,1242.71Z" transform="translate(-3009.346 -1198.733)" fill="#52d1aa"/>
        <path id="Path_9476" data-name="Path 9476" d="M2960.172,1470.5c27.106-20.329,54.889-1.355,69.121,20.329s4.065,70.474,4.065,70.474-5.423,0-5.423-2.032,14.91-57.6-20.328-82.673c-22.043-15.685-37.947-8.131-39.981-.677s8.809,21.007,8.809,21.007Z" transform="translate(-2881.386 -1330.168)" fill="#52d1aa"/>
        <path id="Path_9477" data-name="Path 9477" d="M3017.458,1395.649c-27.105,0-35.915,42.014-28.461,66.409s17.621,69.8,17.621,69.8l6.775-6.777s-25.751-63.7-19.652-92.159,21.008-33.2,23.718-33.2S3017.458,1395.649,3017.458,1395.649Z" transform="translate(-2876.331 -1297.108)" fill="#52d1aa"/>
        <path id="Path_9478" data-name="Path 9478" d="M3027.837,1522.746a19.64,19.64,0,0,0-7.134-6,53.529,53.529,0,0,0,1.407,5.806c3.4,11.115,7.354,26.59,10.66,40.146.3-1.737.762-4.41,1.477-8.538.167-.976.3-2.032.391-3.153A262.97,262.97,0,0,1,3027.837,1522.746Z" transform="translate(-2909.444 -1357.607)" fill="#74b570"/>
        <path id="Path_9479" data-name="Path 9479" d="M3120.432,1491c-51.5-21.684-24.369-51.441-69.77-31.789-3.2,1.384-7.1,4.874-11,9.688a33.807,33.807,0,0,0,14.385,1.154c13.553-2.032,8.81,8.81-13.553,11.52a50.2,50.2,0,0,0-10.479,2.211c-10.652,20.461-15.455,47.385,7.092,56.744a51.029,51.029,0,0,0,16.043,3.293c6.958-5.529-1.7-37.526,9.03-33.109,10.3,4.241-3.229,27.429-1.374,33.272a148.586,148.586,0,0,0,32.17-4.51c4.254-2.386,7.5-5.584,8.505-9.788,3.389-14.231-18.973-23.04-19.652-35.237-.622-11.214,8.2,24.669,31.562,29.95C3134.521,1514.526,3144.505,1501.134,3120.432,1491Z" transform="translate(-3009.447 -1325.653)" fill="#52d1aa"/>
        <path id="Path_9480" data-name="Path 9480" d="M2833.3,1403.482c-5.422-11.52,8.81-14.23,8.133-5.421-.6,7.805-.667,26.781,7.337,31.947,13.808-1.5,32.592-7.059,46.792-15.54a5.761,5.761,0,0,0-.6-3.532c-6.1-12.2-45.4-22.363-33.2-26.428,9.714-3.238,26.736,15.875,40.452,25.5,8.238-6.25,13.758-13.7,13.758-22.019,0-11.258-13.68-24-31.368-30.092-7.961.8-15.356,5.154-26.908,11.7-17.064,9.67-13.117-5.964,3.016-15.244-13.929.721-27.814,6.673-38.057,20.89,0,0,.969,6.077-5.461,15.477-17.546,25.644,2.7,40.614,26.91,39.642C2842.727,1423.6,2837.042,1411.442,2833.3,1403.482Z" transform="translate(-2685.616 -1276.478)" fill="#52d1aa"/>
        <path id="Path_9481" data-name="Path 9481" d="M3158.871,1476.688c-13.252,10.24-27.975,22.212-46.047,30.344s-14.455,34.637-14.455,34.637-2.711-22.89,12.349-30.722,25-17.167,36.444-18.975a165.853,165.853,0,0,0,17.771-3.614s-3.617-7.229-1.508-9.94S3158.871,1476.688,3158.871,1476.688Z" transform="translate(-3078.454 -1337.506)" fill="#52d1aa"/>
        <path id="Path_9482" data-name="Path 9482" d="M3046.315,1236.565c48.492,12.95,84.033,43.972,90.658,51.5s6.626,9.638,6.626,9.638l-5.117,9.638-2.409-1.2s3.912-8.133-6.327-18.674c-17.659-18.179-39.155-32.528-53.913-38.853S3046.315,1236.565,3046.315,1236.565Z" transform="translate(-3031.219 -1217.633)" fill="#52d1aa"/>
        <path id="Rectangle_5639" data-name="Rectangle 5639" d="M0,0H66.233a0,0,0,0,1,0,0V33.3A33.116,33.116,0,0,1,33.116,66.419h0A33.116,33.116,0,0,1,0,33.3V0A0,0,0,0,1,0,0Z" transform="translate(106.568 220.923)" fill="#75a1de"/>
        <rect id="Rectangle_5640" data-name="Rectangle 5640" width="66.233" height="4.663" transform="translate(106.568 228.532)" fill="#fff"/>
        <rect id="Rectangle_5641" data-name="Rectangle 5641" width="66.233" height="2.743" transform="translate(106.568 237.034)" fill="#fff"/>
      </g>
    </g>
  </g>
</svg>
