<svg xmlns="http://www.w3.org/2000/svg" xmlns:xlink="http://www.w3.org/1999/xlink" width="1024" height="800" viewBox="0 0 1024 800">
  <defs>
    <clipPath id="clip-path">
      <rect id="Rectangle_1311" data-name="Rectangle 1311" width="1024" height="741" fill="#fff" stroke="#707070" stroke-width="1"/>
    </clipPath>
    <clipPath id="clip-Empty-Recent-access">
      <rect width="1024" height="800"/>
    </clipPath>
  </defs>
  <g id="Empty-Recent-access" clip-path="url(#clip-Empty-Recent-access)">
    <g id="Graphic" transform="translate(-7.2 -257.267)">
      <g id="Mask_Group_1" data-name="Mask Group 1" transform="translate(7.2 267.913)" clip-path="url(#clip-path)">
        <ellipse id="Ellipse_63" data-name="Ellipse 63" cx="461.162" cy="460.282" rx="461.162" ry="460.282" transform="translate(50.817 76.225)" fill="#feef67" opacity="0.2"/>
      </g>
      <ellipse id="Ellipse_51" data-name="Ellipse 51" cx="298.852" cy="38.671" rx="298.852" ry="38.671" transform="translate(249.481 969.279)" fill="#000d1c" opacity="0.03"/>
      <g id="leaf" transform="translate(421.076 816.959)">
        <g id="Group_4537" data-name="Group 4537" transform="translate(0)">
          <path id="Path_7325" data-name="Path 7325" d="M575.527,432.555c1.081-.4,1.836-.668,1.836-.668s2.638-.935,5.361-1.739,5.51-1.5,5.51-1.5-2.72-.914-5.522-1.7-5.666-1.441-5.666-1.441-2.176-.5-4.678-.971a84.92,84.92,0,0,1-3.085-42.883c1.287-.056,2.713-.128,4.136-.216,4.549-.27,9.054-.7,9.054-.7s4.513-.419,8.977-1,8.888-1.295,8.888-1.295-4.4-.868-8.728-1.89S583,374.392,583,374.392s-4.276-1.151-8.481-2.445c-.868-.267-1.731-.537-2.558-.8a84.908,84.908,0,0,1,28.026-40.471c1.682.927,4.007,2.25,6.29,3.7,4.305,2.7,8.413,5.831,8.413,5.831s4.115,3.1,7.986,6.612c3.884,3.48,7.485,7.359,7.485,7.359s-2.276-4.77-5.014-9.373c-2.707-4.611-5.864-9.021-5.864-9.021s-3.126-4.421-6.691-8.595c-.943-1.117-1.911-2.209-2.831-3.216a85.472,85.472,0,0,1,32.164-11.03l2.232,3.334,4.546,6.789,1.718-7.986.612-2.841a84.452,84.452,0,0,1,20.523,2.034L598.9,462.991A84.838,84.838,0,0,1,575.527,432.555Z" transform="translate(-567.844 -312.216)" fill="#86d7b0"/>
          <path id="Path_7326" data-name="Path 7326" d="M594.132,461.467c-.347-1.1-.6-1.857-.6-1.857s-.884-2.659-1.921-5.3-2.207-5.261-2.207-5.261,2.391,1.582,4.729,3.313,4.621,3.583,4.621,3.583,1.731,1.408,3.64,3.092a84.928,84.928,0,0,0,35.722-23.924c-.745-1.051-1.564-2.219-2.368-3.393-2.584-3.755-5.016-7.575-5.016-7.575s-2.44-3.82-4.729-7.7-4.441-7.806-4.441-7.806,3.388,2.931,6.856,5.723,7,5.456,7,5.456,3.537,2.666,7.143,5.186c.742.521,1.487,1.035,2.2,1.526a85.769,85.769,0,0,0,6.07-10.457,84.708,84.708,0,0,0,8.628-36.526c-1.765-.758-4.238-1.777-6.786-2.687-4.78-1.736-9.771-3.051-9.771-3.051s-4.973-1.338-10.123-2.235c-5.132-.925-10.405-1.382-10.405-1.382s5.16-1.138,10.475-1.808c5.3-.7,10.721-.917,10.721-.917s5.407-.249,10.891-.005c1.459.057,2.918.152,4.277.257a85.494,85.494,0,0,0-11.068-32.149l-4,.288-8.148.585,5.242-6.265,1.865-2.227a84.575,84.575,0,0,0-14.22-14.939L555.754,461.735A84.852,84.852,0,0,0,594.132,461.467Z" transform="translate(-524.695 -310.96)" fill="#74c59b"/>
        </g>
      </g>
      <g id="leaf-2" data-name="leaf" transform="translate(241.027 729.577)">
        <g id="Group_4539" data-name="Group 4539" transform="translate(0 0)">
          <path id="Path_7327" data-name="Path 7327" d="M666.3,433.855c6.987,3.116,14.271,5.045,22.411,6.9-1.932-.991-14.582-7.377-18.533-10.292a46.952,46.952,0,0,1-16.236-22.013c-.095-.265.072-.632.406-.578,3.427.573,14.913,2.761,14.913,2.761s-9.735-3.658-12.257-4.778c-2.492-1.107-12.522-19.154-14.181-26.644-.082-.37.349-.563.632-.4q13.293,7.463,27.127,13.886c-8.4-6.609-16.981-13.079-25.1-20.022-4.058-3.47-11.805-22.992-12.974-28.358a.4.4,0,0,1,.629-.4,75.824,75.824,0,0,0,17.264,9.422c-11.307-9.974-21.584-23.667-18.286-39.577a.414.414,0,0,1,.637-.3,52.541,52.541,0,0,0,8.61,5.109q-2.5-4.874-5.009-9.753c-1.3-2.545-1.929-4.439-.894-7.223,2.481-6.681,5.342-13.244,8.058-19.837L751.774,512.917c-14.233,3.991-25.275-9.976-25.275-9.976l1.8-1.326c-5.974-1.225-11.764-2.759-16.508-6.83-4.611-3.958-7.852-9.214-10.991-14.343a.406.406,0,0,1,.2-.542c1.433-.521,10.364,2.222,11.8,1.7-3.468-.437-14.557-4.39-17.354-6.558-2.689-2.086-4.416-5.412-3.671-8.831a.412.412,0,0,1,.542-.344c6.686,2.2,13.431,4.369,20.446,5.055-10.388-4.04-26.146-9.306-27.381-10.845l-19.48-25.722A.331.331,0,0,1,666.3,433.855Z" transform="translate(-631.487 -281.755)" fill="#87cdac"/>
          <path id="Path_7328" data-name="Path 7328" d="M729.2,396.639c-2.081,7.362-5.263,14.194-9.052,21.63.475-2.119,3.668-15.923,3.958-20.826a46.93,46.93,0,0,0-6.514-26.565.41.41,0,0,0-.7-.059c-1.757,3-7.431,13.223-7.431,13.223s3.424-9.82,4.179-12.473c.745-2.623-6.7-21.882-11.387-27.954a.412.412,0,0,0-.714.229q-2.778,14.992-6.7,29.729c.3-10.691.824-21.42.688-32.1-.067-5.34-10.1-23.791-13.475-28.124a.4.4,0,0,0-.709.229,75.964,75.964,0,0,1-3.815,19.293c-.424-15.073-4.361-31.733-18.7-39.385a.41.41,0,0,0-.634.3,52.834,52.834,0,0,1-1.587,9.884q-2.143-5.044-4.287-10.092c-1.122-2.628-2.173-4.32-4.978-5.312-6.717-2.371-13.593-4.374-20.4-6.509L735.2,512.917c12.177-8.376,8.517-25.8,8.517-25.8l-2.17.534c2.887-5.376,5.415-10.8,5.325-17.053-.087-6.08-2.052-11.931-3.981-17.631a.411.411,0,0,0-.542-.2c-1.318.768-4.929,9.386-6.247,10.151,1.885-2.941,5.949-13.991,6.072-17.528.121-3.4-1.328-6.856-4.431-8.474a.416.416,0,0,0-.614.2c-2.589,6.545-5.242,13.113-9.208,18.941,3.55-10.565,9.594-26.043,9.2-27.977l-7.287-31.432A.33.33,0,0,0,729.2,396.639Z" transform="translate(-614.914 -281.755)" fill="#71c299"/>
        </g>
      </g>
      <g id="leaf-3" data-name="leaf" transform="matrix(0.966, -0.259, 0.259, 0.966, 192.696, 891.766)">
        <g id="Group_4555" data-name="Group 4555" transform="translate(0 0)">
          <path id="Path_7353" data-name="Path 7353" d="M123.74,98.744c-1.148-.1-1.947-.162-1.947-.162s-2.792-.208-5.63-.27-5.707.005-5.707.005,2.383-1.6,4.883-3.085,5.088-2.88,5.088-2.88,1.968-1.056,4.256-2.168A84.894,84.894,0,0,0,116.389,48c-1.256.283-2.651.588-4.046.878-4.459.935-8.921,1.7-8.921,1.7s-4.464.781-8.923,1.395-8.916,1.087-8.916,1.087,4.012-1.993,7.924-4.118,7.734-4.356,7.734-4.356,3.825-2.235,7.541-4.59c.768-.486,1.528-.974,2.258-1.444a85.67,85.67,0,0,0-7.305-9.635A84.68,84.68,0,0,0,73.365,6.873c-1.382,1.336-3.275,3.224-5.1,5.225-3.445,3.74-6.584,7.837-6.584,7.837s-3.154,4.074-5.967,8.476c-2.831,4.382-5.289,9.07-5.289,9.07s.942-5.2,2.373-10.362c1.4-5.16,3.288-10.246,3.288-10.246s1.857-5.083,4.2-10.049c.616-1.325,1.264-2.635,1.888-3.85A85.5,85.5,0,0,0,28.239.787l-1.277,3.8-2.6,7.744L20.6,5.082,19.267,2.5A84.561,84.561,0,0,0,0,9.86l109.184,124.4A84.851,84.851,0,0,0,123.74,98.744Z" transform="translate(15.664 0)" fill="#86d7b0"/>
          <path id="Path_7354" data-name="Path 7354" d="M87.749,134.223c.046-1.153.092-1.952.092-1.952s.157-2.795.462-5.618.748-5.659.748-5.659-1.893,2.158-3.694,4.441-3.514,4.672-3.514,4.672-1.3,1.813-2.7,3.94a84.918,84.918,0,0,1-40.754-13.7c.444-1.21.927-2.55,1.395-3.9,1.507-4.3,2.849-8.625,2.849-8.625s1.351-4.326,2.54-8.669,2.232-8.7,2.232-8.7-2.5,3.719-5.109,7.323-5.325,7.1-5.325,7.1-2.71,3.5-5.528,6.881c-.581.7-1.163,1.392-1.726,2.052A84.95,84.95,0,0,1,3.188,72.358c1.5-1.2,3.622-2.831,5.841-4.377,4.156-2.931,8.625-5.512,8.625-5.512s4.446-2.6,9.178-4.819c4.711-2.237,9.678-4.066,9.678-4.066s-5.278.26-10.583,1.01c-5.3.719-10.585,1.932-10.585,1.932s-5.281,1.182-10.508,2.859c-1.395.437-2.777.912-4.061,1.372A85.482,85.482,0,0,1,3,26.827l3.938-.776,8.017-1.575L8.253,19.809,5.869,18.15A84.434,84.434,0,0,1,15.663,0L124.847,124.4A84.872,84.872,0,0,1,87.749,134.223Z" transform="translate(0 9.86)" fill="#74c59b"/>
        </g>
      </g>
      <g id="Shelf" transform="translate(672.607 583.007)">
        <g id="Group_4655" data-name="Group 4655">
          <g id="Group_4654" data-name="Group 4654">
            <rect id="Rectangle_2263" data-name="Rectangle 2263" width="5.353" height="427.105" transform="translate(37.955 2.921)" fill="#c65447"/>
            <rect id="Rectangle_2264" data-name="Rectangle 2264" width="5.353" height="427.105" transform="translate(163.742 2.921)" fill="#c65447"/>
            <rect id="Rectangle_2265" data-name="Rectangle 2265" width="5.353" height="427.105" transform="translate(0 2.921)" fill="#e06a37"/>
            <rect id="Rectangle_2266" data-name="Rectangle 2266" width="5.353" height="427.105" transform="translate(125.787 2.921)" fill="#e06a37"/>
            <rect id="Rectangle_2267" data-name="Rectangle 2267" width="169.094" height="5.839" transform="translate(0 0.001)" fill="#e06a37"/>
            <rect id="Rectangle_2268" data-name="Rectangle 2268" width="169.094" height="5.839" transform="translate(0 104.589)" fill="#e06a37"/>
            <rect id="Rectangle_2269" data-name="Rectangle 2269" width="169.094" height="5.839" transform="translate(0 209.176)" fill="#e06a37"/>
            <rect id="Rectangle_2270" data-name="Rectangle 2270" width="169.094" height="5.839" transform="translate(0 313.764)" fill="#e06a37"/>
            <rect id="Rectangle_2271" data-name="Rectangle 2271" width="169.094" height="5.839" transform="translate(0 418.351)" fill="#e06a37"/>
            <rect id="Rectangle_2272" data-name="Rectangle 2272" width="37.955" height="5.839" transform="translate(131.139)" fill="#c65447"/>
            <rect id="Rectangle_2273" data-name="Rectangle 2273" width="37.955" height="5.839" transform="translate(131.139 104.587)" fill="#96340a"/>
            <rect id="Rectangle_2274" data-name="Rectangle 2274" width="37.955" height="5.839" transform="translate(131.139 209.175)" fill="#96340a"/>
            <rect id="Rectangle_2275" data-name="Rectangle 2275" width="37.955" height="5.839" transform="translate(131.139 313.762)" fill="#96340a"/>
            <rect id="Rectangle_2276" data-name="Rectangle 2276" width="37.955" height="5.839" transform="translate(131.139 418.35)" fill="#96340a"/>
          </g>
        </g>
        <g id="Group_4656" data-name="Group 4656" transform="translate(21.201 175.161)">
          <rect id="Rectangle_2277" data-name="Rectangle 2277" width="89.078" height="34.014" fill="#f8976d"/>
          <rect id="Rectangle_2278" data-name="Rectangle 2278" width="15.507" height="34.014" transform="translate(104.585 34.014) rotate(180)" fill="#f8976d"/>
          <rect id="Rectangle_2279" data-name="Rectangle 2279" width="15.507" height="3.748" transform="translate(104.585 18.881) rotate(180)" fill="#fabea4"/>
          <rect id="Rectangle_2280" data-name="Rectangle 2280" width="89.078" height="3.748" transform="translate(0 15.133)" fill="#fabea4"/>
        </g>
        <g id="Group_4657" data-name="Group 4657" transform="translate(16.829 358.213)">
          <rect id="Rectangle_2281" data-name="Rectangle 2281" width="69.58" height="60.137" fill="#f8976d"/>
          <rect id="Rectangle_2282" data-name="Rectangle 2282" width="12.113" height="60.137" transform="translate(81.693 60.137) rotate(180)" fill="#f67d48"/>
          <rect id="Rectangle_2283" data-name="Rectangle 2283" width="12.113" height="6.626" transform="translate(81.693 33.382) rotate(180)" fill="#e06a37"/>
          <rect id="Rectangle_2284" data-name="Rectangle 2284" width="69.58" height="6.626" transform="translate(0 26.756)" fill="#f67d48"/>
          <rect id="Rectangle_2285" data-name="Rectangle 2285" width="12.113" height="2.367" transform="translate(81.693 22.107) rotate(180)" fill="#e06a37"/>
          <rect id="Rectangle_2286" data-name="Rectangle 2286" width="69.58" height="2.367" transform="translate(0 19.741)" fill="#f67d48"/>
        </g>
      </g>
      <g id="Box" transform="translate(258.037 843.777)">
        <path id="Rectangle_2296" data-name="Rectangle 2296" d="M0,0H245.581a0,0,0,0,1,0,0V132.732a6.47,6.47,0,0,1-6.47,6.47H6.47A6.47,6.47,0,0,1,0,132.732V0A0,0,0,0,1,0,0Z" transform="translate(22.357 32.787)" fill="#f67d48"/>
        <g id="Group_4664" data-name="Group 4664">
          <path id="Path_7501" data-name="Path 7501" d="M196.541,664.546H370.3l-21.38-27.357c-2.344-3-8.164-5.43-13-5.43H179.668c-4.833,0-6.853,2.432-4.508,5.43Z" transform="translate(-174.183 -631.759)" fill="#e06a37"/>
        </g>
        <path id="Path_7502" data-name="Path 7502" d="M397.2,659.1H223.439l21.38-17.831c2.344-1.956,8.164-3.539,13-3.539H414.073c4.835,0,6.852,1.583,4.508,3.539Z" transform="translate(-129.263 -626.313)" fill="#f67d48"/>
        <path id="Rectangle_2297" data-name="Rectangle 2297" d="M0,0H173.764a0,0,0,0,1,0,0V132.732a6.47,6.47,0,0,1-6.47,6.47H6.47A6.47,6.47,0,0,1,0,132.732V0A0,0,0,0,1,0,0Z" transform="translate(94.175 32.787)" fill="#fff" opacity="0.2"/>
        <path id="Path_7503" data-name="Path 7503" d="M197.157,648.908v86.959l6.006-4.74,4.227,4.74,3.678-5.278,3.752,5.278,5.252-3.971,5.765,3.971V648.908Z" transform="translate(-153.231 -616.12)" fill="#fff" opacity="0.5"/>
        <text id="Ў" transform="translate(155.101 126.816)" fill="#e06a37" font-size="73" font-family="Kitaboo_6_0"><tspan x="0" y="0">Ў</tspan></text>
      </g>
      <path id="line" d="M430.8,333.852c52.389-54.8,134.256-67.989,181.526-61.685,23.179,3.093,46.685,10.236,64.043,25.9s27.12,41.308,19.1,63.273-36.88,35.344-56.8,23.094a28.2,28.2,0,0,1-11.923-14.055c-5.777-15.964,7.785-33.734,24.065-38.55s33.734-.28,49.9,4.909A620.083,620.083,0,0,1,814.957,386.6c19.129,10.757,37.8,22.589,58.274,30.492,65.125,25.142,143.781,5.009,192.654-44.838,10.978-11.2,20.983-24.646,22.532-40.25s-8.389-33.156-23.952-35.067c-17.284-2.124-32.1,19.9-23.616,35.1,4.074,7.305,11.762,11.972,19.722,14.538a57.753,57.753,0,0,0,55.464-12.034c16.745-15.258,25.589-41.2,47.506-46.923" transform="translate(-276.972 380.253)" fill="none" stroke="#7fa0f4" stroke-miterlimit="10" stroke-width="1"/>
      <g id="flies" transform="translate(899.768 628.54)">
        <g id="Group_4541" data-name="Group 4541" transform="translate(18.993)">
          <path id="Path_7330" data-name="Path 7330" d="M732.25,272.739a8.484,8.484,0,0,1,5.682-10.57c4.487-1.351,9.36,5.117,8.417,9.707-2.541,12.381-.172,17.708-.172,17.708S733.6,277.226,732.25,272.739Z" transform="translate(-723.431 -261.987)" fill="#e27d4c"/>
          <path id="Path_7331" data-name="Path 7331" d="M730.76,276.61a8.484,8.484,0,0,1,.66-11.98c3.491-3.129,10.647.66,11.744,5.217,2.952,12.288,7.359,16.108,7.359,16.108S733.888,280.1,730.76,276.61Z" transform="translate(-728.595 -259.64)" fill="#f2cf53"/>
        </g>
        <path id="Path_7332" data-name="Path 7332" d="M778.021,271.449c-5.435-4.236-9.984-2.332-11.574,1.027a18.99,18.99,0,0,0-8.589.46,20.828,20.828,0,0,0-6.283,2.761,40.838,40.838,0,0,1-11.209,5.145L723.571,285.9c-1.528.406-2.694,1.017-2.289,2.548s1.667,1.282,3.2.876l16.927-3.768a42.225,42.225,0,0,1,12.473-1.048,20.875,20.875,0,0,0,6.858-.712,19.032,19.032,0,0,0,7.688-3.858,5.968,5.968,0,0,0,4.976.909c3.231-.858,6.655-4.587,5.743-7.811A3.149,3.149,0,0,0,778.021,271.449Z" transform="translate(-721.201 -250.967)" fill="#f2cf53"/>
        <g id="Group_4542" data-name="Group 4542" transform="translate(1.862 28.216)">
          <path id="Path_7333" data-name="Path 7333" d="M722.435,275.814c-.175.046-.344.1-.509.151a8.982,8.982,0,0,1,1.231,3.319l.187-.046,1.528-.342a10.635,10.635,0,0,0-1.2-3.455Z" transform="translate(-721.926 -269.098)" fill="#e27d4c"/>
          <path id="Path_7334" data-name="Path 7334" d="M723.9,275.374a8.969,8.969,0,0,1,1.362,3.681l1.713-.383a10.684,10.684,0,0,0-1.328-3.825Z" transform="translate(-718.827 -270.031)" fill="#e27d4c"/>
          <path id="Path_7335" data-name="Path 7335" d="M725.878,274.779a9.008,9.008,0,0,1,1.492,4.051l1.713-.383a10.681,10.681,0,0,0-1.459-4.195Z" transform="translate(-715.727 -270.964)" fill="#e27d4c"/>
          <path id="Path_7336" data-name="Path 7336" d="M727.854,274.184a9.009,9.009,0,0,1,1.623,4.421l1.495-.334c.072-.015.144-.026.218-.041a10.72,10.72,0,0,0-1.587-4.572Z" transform="translate(-712.627 -271.897)" fill="#e27d4c"/>
          <path id="Path_7337" data-name="Path 7337" d="M731.464,272.972c-.55.229-1.094.47-1.654.675a9.063,9.063,0,0,1,1.806,4.881.84.84,0,0,0,.038.139q.852-.123,1.711-.216A10.74,10.74,0,0,0,731.464,272.972Z" transform="translate(-709.559 -272.972)" fill="#e27d4c"/>
        </g>
      </g>
      <g id="MAN" transform="translate(509.469 501.793)">
        <path id="Path_7479" data-name="Path 7479" d="M318.611,433.521s-.72-11.63-.634-16.666,12.526-19.481,16.752-19.481,2.816,13.313,2.113,17.453,1.407,7.9-.941,11.183-6.962,10.25-6.962,10.25Z" transform="translate(-291.373 -379.385)" fill="#fc9290"/>
        <path id="Path_7480" data-name="Path 7480" d="M382.43,449.3l-21.754,12.822a61.242,61.242,0,0,1-11.4-12.822c-.465-.685-.91-1.369-1.337-2.046a96.831,96.831,0,0,1-6.032-11.38c-.232-.5-.447-.976-.643-1.427-1.1-2.408,11.082-10.122,17.965-15.007a26.559,26.559,0,0,0,4.338-3.582,19.522,19.522,0,0,0-.023,5.428,22.307,22.307,0,0,0,6.018,11.275A148.243,148.243,0,0,1,382.43,449.3Z" transform="translate(-279.184 -369.681)" fill="#e29763"/>
        <path id="Path_7481" data-name="Path 7481" d="M365.293,419.726s-3.958,21.035-16.262,27.551c-.465-.685-.91-1.369-1.337-2.046a96.841,96.841,0,0,1-6.032-11.38c1.5-3.112,11.755-9.66,17.853-13.984C362.955,419.8,365.293,419.726,365.293,419.726Z" transform="translate(-278.939 -367.653)" fill="#d48b5d"/>
        <path id="Path_7482" data-name="Path 7482" d="M349.036,454.467s29.882-9.978,23.383-28.491-7.02-32.27-26.375-26.683-20.561,13.946-19.894,20.654S341.095,456.585,349.036,454.467Z" transform="translate(-287.148 -379.038)" fill="#e29763"/>
        <path id="Path_7483" data-name="Path 7483" d="M378.241,438.106s-3.041-2.017,3.646-12.583c3.449-5.447,6.523-10.567,1.639-19.429s-4.574-16-18.037-16-14.818-6.233-21.675-4.059-12.952,12.25-18.821,14.141-10.325,32.656,3.109,31.806c0,0,5.052-2.513,7.308-6.577s13.714-13.324,17.356-10.3S371.015,438.248,378.241,438.106Z" transform="translate(-290.675 -385.576)" fill="#060632"/>
        <path id="Path_7484" data-name="Path 7484" d="M380.923,456.448c-10.172-.6-28.676,8.635-45.368,19.487l3.843-52.358c-3.346-5.794-12.729-3.678-12.729-3.678s-5.54,4.864-15.974,34.647a189.047,189.047,0,0,0-10.168,52.378c.377,13.807,11.6,14.568,11.6,14.568,35.823-6.057,94.762-32.433,94.762-32.433C414.349,479.813,402.5,457.729,380.923,456.448Z" transform="translate(-300.527 -367.76)" fill="#85bae8"/>
        <path id="Path_7485" data-name="Path 7485" d="M378.6,725.116c-.267,2.948-.91,5.441-2.238,6.069a4.694,4.694,0,0,1-1.133.291h-44.87l-1.882-.061s.113-5.544,7.74-6.619c6.165-.863,16.131-3.8,21.032-10.192a13.877,13.877,0,0,0,2.511-5.14c2.47-10.018,18.627,3.474,18.627,3.474s.185,1.746.3,4.169A59.184,59.184,0,0,1,378.6,725.116Z" transform="translate(-285.855 -217.534)" fill="#060632"/>
        <path id="Path_7486" data-name="Path 7486" d="M406.108,731.476H356.242a11.412,11.412,0,0,1,7.793-6.36,12.845,12.845,0,0,1,1.6-.32c5.375-.756,13.643-3.085,18.919-7.906a14.829,14.829,0,0,0,4.623-7.426c2.47-10.018,18.629,3.474,18.629,3.474s.169,1.6.291,3.873C408.356,721.731,408.417,729.8,406.108,731.476Z" transform="translate(-271.286 -217.534)" fill="#060632"/>
        <path id="Path_7487" data-name="Path 7487" d="M399,544.6s-.037,1.81-.108,5.064c-.453,20.985-2.246,102.119-3.948,147.353-.07,1.647-.13,3.237-.191,4.786-.032.817-.066,1.641-.1,2.454a490.12,490.12,0,0,1-6.984,60.406c-3.821,21.84-7.7,36.712-7.7,36.712-14.57,2.952-24.013-2.588-24.013-2.588s-3.928-33.9-5.422-54.41c-.489-6.656-2.89-29.37-5.9-57-2.333-21.368-5.032-45.676-7.507-67.783-.131-1.177-.258-2.356-.392-3.516-4-35.742-7.307-64.856-7.307-64.856l25.76-2.453Z" transform="translate(-285.356 -302.118)" fill="#003778"/>
        <path id="Path_7488" data-name="Path 7488" d="M387.675,763.224l-43.037-77.284c-2.333-21.367-5.032-45.676-7.507-67.783-.131-1.177-.258-2.356-.392-3.516-4-35.742-7.307-64.856-7.307-64.856l25.76-2.453,43.7.894Z" transform="translate(-285.356 -300.683)" fill="#07294e"/>
        <path id="Path_7489" data-name="Path 7489" d="M332.555,551.531s24.08,119.029,43.7,176.479,19.866,73.408,19.866,73.408,18,3.9,25.936-.63c0,0,4.532-108.9-7.339-137.829-7.853-19.131-13.861-59.846-11.819-74.511s3.946-44.077,3.946-44.077Z" transform="translate(-283.718 -302.236)" fill="#003778"/>
        <path id="Path_7490" data-name="Path 7490" d="M416.158,597.342c-1.353,7.281-4.582,13.083-9.573,16.617-5.689,4.029-14.661,5.485-24.538,5.334a134.3,134.3,0,0,1-34.51-5.625,80.408,80.408,0,0,1-13.656-5.253c-15.253-7.952-13.089-18.537-12.722-58.155.37-40.434,25.256-92.7,29.739-101.453,7.976-15.576,41.825-10.453,41.825-10.453,7.421,6.805,13.919,16.688,18.347,32.485,1.792,6.394,2.839,15.337,3.44,25.382,1.831,30.693-.535,71.624,1.253,81.183A54.833,54.833,0,0,1,416.158,597.342Z" transform="translate(-289.863 -358.3)" fill="#a2c9eb"/>
        <path id="Path_7492" data-name="Path 7492" d="M396.172,581.1c-62.983-23.97-27.023-112.607-27.023-112.607,8.812.624,17.446,4.905,25.375,11.487,1.831,30.693-.535,71.624,1.253,81.183A54.833,54.833,0,0,1,396.172,581.1Z" transform="translate(-269.876 -342.059)" fill="#85bae8"/>
        <path id="Path_7493" data-name="Path 7493" d="M380.082,518.591s-3.451,5.977-6.77,4.568-10.024-2.9-15.006.313-12.491,11.869-7.8,13.98,13.614-3.495,15.726-4.434,5.791.939,9.86-1.095a41.036,41.036,0,0,0,8.293-6.1Z" transform="translate(-275.074 -315.766)" fill="#fc9290"/>
        <path id="Path_7494" data-name="Path 7494" d="M448.211,505.91c-23.438-27.758-77.423-63.928-77.423-63.928-11.756-1.719-24.742,19.715-14.866,38.944,5.71,11.117,30.131,24.374,51.181,32.732l-34.225,46.8c-2.691,9.95,12.69,7.3,12.69,7.3s12.8-3.788,35.994-22.875a84.161,84.161,0,0,0,22.918-28.76A28.2,28.2,0,0,0,448.211,505.91Z" transform="translate(-273.289 -356.024)" fill="#a2c9eb"/>
      </g>
    </g>
  </g>
</svg>
