<?xml version="1.0" standalone="no"?>
<!DOCTYPE svg PUBLIC "-//W3C//DTD SVG 1.1//EN" "http://www.w3.org/Graphics/SVG/1.1/DTD/svg11.dtd" >
<svg xmlns="http://www.w3.org/2000/svg">
<metadata>
<json>
<![CDATA[
{
	"fontFamily": "Kitaboo_6_0",
	"majorVersion": 1,
	"minorVersion": 0,
	"version": "Version 1.0",
	"fontId": "Kitaboo_6_0",
	"psName": "Kitaboo_6_0",
	"subFamily": "Regular",
	"fullName": "Kitaboo_6_0",
	"description": "Font generated by IcoMoon."
}
]]>
</json>
</metadata>
<defs>
<font id="Kitaboo_6_0" horiz-adv-x="1024">
<font-face units-per-em="1024" ascent="960" descent="-64" />
<missing-glyph horiz-adv-x="1024" />
<glyph unicode="&#x20;" horiz-adv-x="512" d="" />
<glyph unicode="&#x24;" glyph-name="Eraser" data-tags="Eraser" d="M1012.838 20.813c-7.245 7.27-16.845 11.238-27.085 11.238h-446.285l465.408 465.357c12.314 12.314 19.098 28.698 19.098 46.157 0.026 17.459-6.784 33.843-19.072 46.182l-331.674 331.674c-25.498 25.446-66.893 25.395-92.339 0l-530.125-530.125c-32.742-32.742-50.765-76.262-50.765-122.573s18.022-89.83 50.765-122.573l159.693-159.693c19.994-19.968 46.541-30.976 74.803-30.976h700.467c21.094 0 38.272 17.152 38.272 38.246 0 10.24-3.968 19.84-11.162 27.085zM447.13 206.49c14.925 14.95 14.925 39.219 0 54.144l-209.357 209.382 389.299 389.325 315.699-315.75-511.539-511.539h-145.971c-7.808 0-15.155 3.021-20.685 8.55l-159.693 159.718c-18.227 18.227-28.288 42.522-28.288 68.403s10.061 50.176 28.288 68.403l78.72 78.72 209.382-209.382c14.515-14.387 39.654-14.387 54.144 0.026z" />
<glyph unicode="&#x32;" glyph-name="Close" data-tags="Close" d="M571.52 448.179l439.757 439.782c8.371 8.371 12.979 18.944 12.979 29.722 0 10.803-4.608 21.35-12.979 29.722-8.115 8.115-18.662 12.595-29.696 12.595 0 0 0 0-0.026 0-11.034 0-21.581-4.48-29.722-12.595l-439.757-439.782-439.782 439.782c-8.115 8.115-18.688 12.57-29.722 12.57 0 0 0 0-0.026 0-11.034 0-21.581-4.48-29.696-12.57-17.485-17.485-17.485-41.933 0-59.443l439.782-439.782-433.178-433.178c-17.485-17.485-17.485-41.933 0.026-59.443l2.688-2.662 1.69-3.379 0.461-0.717c2.355-2.714 11.648-6.195 18.253-6.195 6.938 0 20.762 4.019 29.747 12.954l433.152 433.178 439.808-439.808c8.909-8.909 22.733-12.928 29.67-12.928s20.736 4.019 29.568 12.851l2.048 1.869c10.47 8.346 16.282 18.381 16.87 29.005 0.563 10.112-3.738 20.326-12.16 28.723l-439.757 439.731z" />
<glyph unicode="&#x36;" glyph-name="Up-arrow" data-tags="Up arrow" d="M512.205 630.835l444.467-449.306c7.731-7.731 17.613-11.981 27.853-11.981s20.122 4.301 27.878 12.032c15.488 15.539 15.488 40.243 0 55.731l-472.371 477.158c-8.755 8.73-16.282 11.981-27.827 11.981-11.571 0-19.123-3.251-27.878-12.058l-472.269-477.005c-8.781-8.832-12.058-16.384-12.058-27.93s3.277-19.098 12.032-27.878c7.757-7.757 17.638-12.032 27.878-12.032 10.214 0 20.122 4.301 27.878 12.032l444.416 449.254z" />
<glyph unicode="&#x37;" glyph-name="Down-arrow" data-tags="Down arrow" d="M511.795 265.165l-444.467 449.306c-7.731 7.706-17.613 11.981-27.827 11.981s-20.122-4.301-27.878-12.032c-15.488-15.539-15.488-40.243 0-55.731l472.371-477.158c8.755-8.73 16.282-11.981 27.827-11.981 11.571 0 19.123 3.251 27.878 12.058l472.269 477.005c8.755 8.832 12.032 16.384 12.032 27.93s-3.277 19.098-12.032 27.878c-7.757 7.757-17.638 12.032-27.878 12.032-10.214 0-20.122-4.301-27.878-12.032l-444.416-449.254z" />
<glyph unicode="&#x3c;" glyph-name="Undo" data-tags="Undo" d="M0 688.64c0 12.8 7.68 25.6 17.92 33.28l227.84 227.84c5.12 5.12 15.36 10.24 25.6 10.24v0c10.24 0 20.48-5.12 28.16-12.8s12.8-17.92 12.8-28.16c0-10.24-5.12-20.48-12.8-28.16l-166.4-163.84h496.64c217.6 0 394.24-176.64 394.24-394.24 0-220.16-176.64-396.8-394.24-396.8h-296.96c-23.040 0-38.4 15.36-38.4 40.96 0 23.040 15.36 38.4 38.4 38.4h296.96c174.080 0 314.88 140.8 314.88 317.44 0 174.080-140.8 317.44-314.88 317.44h-496.64l2.56-2.56 161.28-163.84c7.68-7.68 12.8-17.92 12.8-28.16s-5.12-20.48-12.8-28.16c-7.68-7.68-20.48-12.8-28.16-12.8s-20.48 5.12-28.16 12.8l-225.28 227.84c-7.68 5.12-15.36 17.92-15.36 33.28z" />
<glyph unicode="&#x3e;" glyph-name="Redo" data-tags="Redo" d="M1024 688.64c0 12.8-7.68 25.6-17.92 33.28l-227.84 227.84c-5.12 5.12-15.36 10.24-25.6 10.24v0c-10.24 0-20.48-5.12-28.16-12.8s-12.8-17.92-12.8-28.16c0-10.24 5.12-20.48 12.8-28.16l163.84-166.4h-494.080c-217.6 2.56-394.24-174.080-394.24-391.68 0-220.16 176.64-396.8 394.24-396.8h296.96c23.040 0 38.4 15.36 38.4 40.96 0 23.040-15.36 38.4-38.4 38.4h-296.96c-174.080 0-314.88 140.8-314.88 317.44 0 174.080 140.8 317.44 314.88 317.44h496.64l-2.56-2.56-161.28-163.84c-7.68-7.68-12.8-17.92-12.8-28.16s5.12-20.48 12.8-28.16c7.68-7.68 20.48-12.8 28.16-12.8s20.48 5.12 28.16 12.8l225.28 227.84c7.68 5.12 15.36 17.92 15.36 33.28z" />
<glyph unicode="&#x41;" glyph-name="Print" data-tags="Print" d="M944.64 727.040h-104.96v194.56c0 20.48-17.92 38.4-38.4 38.4h-578.56c-20.48 0-38.4-17.92-38.4-38.4v-194.56h-104.96c-46.080 0-81.92-38.4-81.92-81.92v-343.040c0-46.080 38.4-81.92 81.92-81.92h104.96v-245.76c0-20.48 17.92-38.4 38.4-38.4h578.56c20.48 0 38.4 17.92 38.4 38.4v245.76h104.96c46.080 0 81.92 38.4 81.92 81.92v343.040c0 46.080-35.84 81.92-81.92 81.92zM258.56 885.76h504.32v-156.16h-504.32v156.16zM765.44 10.24h-506.88v337.92h504.32v-337.92zM952.32 302.080c0-5.12-2.56-7.68-7.68-7.68h-104.96v92.16c0 20.48-17.92 38.4-38.4 38.4h-578.56c-20.48 0-38.4-17.92-38.4-38.4v-92.16h-104.96c-5.12 0-7.68 2.56-7.68 7.68v343.040c0 5.12 2.56 7.68 7.68 7.68h865.28c5.12 0 7.68-2.56 7.68-7.68v-343.040zM801.28 596.48h-87.040c-20.48 0-38.4-17.92-38.4-38.4s17.92-38.4 38.4-38.4h87.040c20.48 0 38.4 17.92 38.4 38.4s-17.92 38.4-38.4 38.4zM401.92 130.56h220.16c20.48 0 38.4 17.92 38.4 38.4s-17.92 38.4-38.4 38.4h-220.16c-20.48 0-38.4-17.92-38.4-38.4 2.56-23.040 17.92-38.4 38.4-38.4z" />
<glyph unicode="&#x42;" glyph-name="Setting" data-tags="Search" d="M112.64 115.2c17.92-30.72 53.76-43.52 89.6-30.72 10.24 2.56 20.48 7.68 30.72 10.24 5.12 2.56 12.8 5.12 17.92 7.68 23.040 7.68 43.52 7.68 58.88-2.56s25.6-25.6 30.72-48.64c0-7.68 2.56-12.8 2.56-20.48 2.56-7.68 2.56-15.36 5.12-23.040 10.24-46.080 38.4-71.68 84.48-71.68 17.92 0 35.84 0 53.76 0 7.68 0 15.36 0 25.6 0 17.92 0 33.28 0 51.2 0 10.24 0 20.48 0 30.72 0 43.52 0 71.68 25.6 79.36 69.12 2.56 7.68 2.56 15.36 2.56 23.040 2.56 10.24 2.56 20.48 5.12 30.72 5.12 17.92 15.36 33.28 30.72 43.52 15.36 7.68 33.28 10.24 51.2 5.12 10.24-2.56 20.48-7.68 28.16-10.24s15.36-5.12 20.48-7.68c40.96-15.36 76.8 0 99.84 35.84 25.6 46.080 53.76 92.16 81.92 143.36 20.48 35.84 12.8 74.24-17.92 102.4-5.12 5.12-10.24 10.24-17.92 12.8-2.56 2.56-5.12 5.12-7.68 7.68-25.6 23.040-38.4 40.96-38.4 61.44 0 17.92 12.8 38.4 38.4 58.88 2.56 2.56 5.12 5.12 7.68 7.68 7.68 5.12 15.36 12.8 20.48 17.92 28.16 25.6 33.28 61.44 17.92 94.72-28.16 48.64-56.32 99.84-87.040 151.040-20.48 33.28-56.32 46.080-94.72 33.28-10.24-2.56-17.92-7.68-28.16-10.24-5.12-2.56-12.8-5.12-17.92-7.68-23.040-7.68-43.52-7.68-58.88 2.56s-25.6 25.6-30.72 48.64c0 5.12-2.56 12.8-2.56 17.92-2.56 10.24-2.56 20.48-5.12 30.72-5.12 35.84-35.84 61.44-76.8 61.44-58.88 0-112.64 0-166.4 0-40.96 0-69.12-25.6-79.36-66.56-2.56-7.68-2.56-15.36-5.12-25.6s-2.56-20.48-5.12-30.72c-5.12-17.92-15.36-33.28-30.72-43.52-15.36-7.68-33.28-10.24-51.2-5.12-7.68 7.68-15.36 10.24-25.6 12.8-7.68 2.56-12.8 5.12-20.48 7.68-43.52 15.36-79.36 2.56-102.4-35.84-25.6-46.080-53.76-94.72-79.36-140.8-20.48-35.84-12.8-74.24 17.92-102.4 7.68-5.12 15.36-12.8 20.48-17.92s10.24-7.68 15.36-12.8c17.92-15.36 28.16-33.28 28.16-51.2s-10.24-35.84-28.16-51.2c-5.12-5.12-10.24-7.68-15.36-12.8-7.68-7.68-17.92-12.8-25.6-20.48-28.16-25.6-33.28-61.44-17.92-94.72 30.72-53.76 61.44-104.96 89.6-153.6zM104.96 314.88c10.24 7.68 20.48 17.92 35.84 28.16 30.72 28.16 46.080 66.56 46.080 104.96s-17.92 76.8-46.080 102.4c-10.24 10.24-20.48 17.92-33.28 28.16-10.24 7.68-12.8 15.36-5.12 28.16 23.040 40.96 46.080 79.36 69.12 117.76 7.68 12.8 15.36 12.8 25.6 7.68 15.36-7.68 30.72-12.8 48.64-17.92 38.4-10.24 76.8-5.12 110.080 17.92 33.28 20.48 56.32 56.32 64 94.72 2.56 12.8 5.12 23.040 5.12 35.84 0 5.12 2.56 10.24 2.56 17.92v0h171.52c0-5.12 2.56-10.24 2.56-15.36 2.56-10.24 5.12-23.040 5.12-33.28 7.68-43.52 30.72-81.92 66.56-102.4s79.36-25.6 122.88-10.24c48.64 17.92 51.2 17.92 76.8-28.16 5.12-10.24 10.24-17.92 15.36-28.16 10.24-20.48 23.040-38.4 33.28-58.88 7.68-10.24 5.12-17.92-5.12-25.6-12.8-7.68-23.040-17.92-33.28-28.16-30.72-28.16-48.64-64-48.64-104.96s17.92-76.8 48.64-104.96c2.56-2.56 2.56-2.56 5.12-5.12 7.68-7.68 15.36-15.36 25.6-20.48 15.36-10.24 12.8-20.48 5.12-33.28-20.48-35.84-43.52-74.24-64-112.64-5.12-10.24-12.8-17.92-28.16-10.24-17.92 7.68-33.28 12.8-48.64 17.92-38.4 10.24-76.8 5.12-110.080-17.92-33.28-20.48-56.32-56.32-61.44-94.72-2.56-10.24-5.12-23.040-5.12-35.84 0-5.12-2.56-10.24-2.56-17.92v0h-171.52c0 5.12-2.56 10.24-2.56 15.36-2.56 10.24-5.12 23.040-5.12 33.28-7.68 43.52-30.72 81.92-69.12 102.4-35.84 20.48-79.36 23.040-122.88 7.68-48.64-17.92-51.2-17.92-76.8 28.16-5.12 7.68-10.24 17.92-15.36 25.6-10.24 25.6-23.040 46.080-33.28 66.56-7.68 12.8-5.12 17.92 2.56 25.6zM517.12 645.12c0 0-2.56 0-2.56 0-110.080 0-194.56-84.48-197.12-194.56 0-51.2 17.92-99.84 56.32-138.24 35.84-38.4 84.48-58.88 138.24-58.88 0 0 2.56 0 2.56 0 110.080 0 194.56 84.48 197.12 194.56-2.56 104.96-87.040 194.56-194.56 197.12zM596.48 363.52c-23.040-23.040-51.2-35.84-84.48-35.84 0 0 0 0 0 0-64 0-117.76 53.76-117.76 117.76 0 30.72 12.8 61.44 33.28 84.48 23.040 23.040 51.2 35.84 84.48 35.84 0 0 0 0 0 0 30.72 0 61.44-12.8 84.48-35.84s35.84-51.2 35.84-84.48c-2.56-28.16-12.8-58.88-35.84-81.92z" />
<glyph unicode="&#x43;" glyph-name="Delete" data-tags="Delete" d="M157.568 715.597c0.333-10.88 16.512-600.576 16.512-652.314 0-34.662 5.274-62.771 15.718-83.482 14.771-29.491 38.758-43.802 73.293-43.802h479.565c27.52 0 55.859 2.355 76.749 19.379 23.552 19.123 35.021 54.451 35.021 108.006 0 90.163 7.398 441.037 11.776 642.125l0.307 12.314h-709.018l0.077-2.227zM812.006 663.731l-0.307-13.414c-6.989-324.48-10.522-521.984-10.522-586.957 0.102-33.792-5.325-57.754-14.899-65.638-4.941-3.84-13.747-7.603-43.648-7.603h-479.667c-15.744 0-21.274 5.12-25.958 14.566-3.661 7.168-9.856 24.576-9.856 58.675 0 41.242-9.216 385.382-14.694 586.88l-0.358 13.491h599.91zM609.254 131.942c14.643 0 26.573 12.109 26.573 27.034v328.832c0 14.95-11.93 27.11-26.573 27.11s-26.573-12.16-26.573-27.11v-328.832c0-14.925 11.93-27.034 26.573-27.034zM395.699 131.942c14.669 0 26.598 12.109 26.598 27.034v328.832c0 14.95-11.93 27.11-26.598 27.11s-26.624-12.16-26.624-27.11v-328.832c0-14.925 11.93-27.034 26.624-27.034zM920.627 855.373h-217.754l-2.099 10.419c-2.074 9.805-4.48 19.021-7.040 27.469-5.094 16.358-11.418 30.029-18.714 40.499-12.314 17.382-27.469 26.24-45.133 26.24h-237.926c-11.981 0-22.963-3.942-32.614-11.75-12.467-10.163-22.349-26.701-29.338-49.126-3.174-10.035-5.76-21.094-7.706-32.819l-1.843-10.931h-217.037c-14.669 0-26.624-12.16-26.624-27.11s11.955-27.11 26.624-27.11h817.203c14.643 0 26.573 12.16 26.573 27.11s-11.93 27.11-26.573 27.11zM373.786 855.245l5.299 22.656c2.432 8.832 5.248 16.051 8.371 21.427l3.763 6.426h238.31l3.763-6.144c2.662-4.352 6.784-12.698 11.11-27.546l4.89-16.845h-275.507z" />
<glyph unicode="&#x46;" glyph-name="Mark-as-Read-Check-icon1" data-tags="Mark as Read (Check icon)" d="M107.085-64c-59.121 0.073-107.027 47.987-107.085 107.105v809.785c0.073 59.117 47.97 107.023 107.076 107.11h809.788c59.137-0.058 107.063-47.975 107.136-107.104v-809.786c-0.073-59.126-47.984-107.038-107.103-107.11h-0.007zM57.446 852.864v-809.779c0.015-27.409 22.23-49.624 49.637-49.638h809.781c27.403 0.029 49.609 22.236 49.638 49.636v809.782c-0.044 27.397-22.241 49.595-49.634 49.638h-809.783c-27.383-0.044-49.569-22.23-49.613-49.609v-0.004zM401.459 230.784c-3.643 2.22-6.787 4.761-9.557 7.662l-0.017 0.018q-86.17 86.195-172.39 172.262c-4.851 5.357-8.907 11.555-11.909 18.324l-0.174 0.441v14.336c2.837 7.517 7.208 13.888 12.764 18.989l0.036 0.032c5.604 4.44 12.776 7.122 20.575 7.122 7.488 0 14.398-2.473 19.959-6.647l-0.086 0.062c2.806-2.225 5.312-4.504 7.657-6.939l0.023-0.024q72.576-72.499 145.024-145.203c3.814-3.814 5.504-3.814 9.318 0 130.432 130.56 202.931 214.835 333.44 345.446 6.496 7.963 16.308 13.008 27.298 13.008 3.416 0 6.717-0.487 9.84-1.396l-0.248 0.062c13.687-4.336 23.433-16.925 23.433-31.79 0-7.713-2.624-14.813-7.028-20.457l0.056 0.074c-1.987-2.461-3.98-4.664-6.087-6.752l-0.006-0.006c-138.829-138.829-219.597-231.398-358.4-370.202-6.725-7.598-16.318-12.527-27.068-13.078l-0.094-0.004c-6.036 0.079-11.66 1.772-16.482 4.665l0.149-0.083z" />
<glyph unicode="&#x47;" glyph-name="Back" data-tags="Back" d="M329.165 448.205l449.306 444.467c7.731 7.731 11.981 17.613 11.981 27.853s-4.301 20.122-12.032 27.878c-15.539 15.488-40.243 15.488-55.731 0l-477.158-472.371c-8.73-8.755-11.981-16.282-11.981-27.827 0-11.571 3.251-19.123 12.058-27.878l477.005-472.269c8.832-8.781 16.384-12.058 27.93-12.058s19.098 3.277 27.878 12.032c7.757 7.757 12.032 17.638 12.032 27.878 0 10.214-4.301 20.122-12.032 27.878l-449.254 444.416z" />
<glyph unicode="&#x48;" glyph-name="Next" data-tags="Next" d="M694.835 447.795l-449.306-444.467c-7.731-7.731-11.981-17.613-11.981-27.853s4.301-20.122 12.032-27.878c15.539-15.488 40.243-15.488 55.731 0l477.158 472.371c8.73 8.755 11.981 16.282 11.981 27.827 0 11.571-3.251 19.123-12.058 27.878l-477.005 472.269c-8.832 8.781-16.384 12.058-27.93 12.058s-19.098-3.277-27.878-12.032c-7.757-7.757-12.032-17.638-12.032-27.878 0-10.214 4.301-20.122 12.032-27.878l449.254-444.416z" />
<glyph unicode="&#x52;" glyph-name="Single-page-view" data-tags="Single page view" d="M905.062 569.549c-0.307 2.611-0.922 5.248-1.92 8.269l-1.254 3.328c-2.022 4.403-4.506 8.038-7.552 11.085l-356.557 356.531c-3.046 3.046-6.682 5.555-11.187 7.629l-3.328 1.28c-2.97 1.050-5.99 1.69-8.346 1.92l-239.795 0.41c-86.374 0-156.672-70.298-156.672-156.672v-710.682c0-86.374 70.272-156.646 156.646-156.646h473.779c86.374 0 156.672 70.272 156.672 156.646v472.55l-0.486 4.352zM629.146 526.976h199.962v-434.304c0-44.237-35.994-80.205-80.23-80.205h-473.754c-44.237 0-80.23 35.994-80.23 80.205v710.656c0 44.262 35.994 80.256 80.23 80.256h197.402v-199.962c-0.026-86.349 70.246-156.646 156.621-156.646zM629.146 603.418c-44.237 0-80.205 35.994-80.205 80.23v145.92l226.15-226.15h-145.946z" />
<glyph unicode="&#x53;" glyph-name="Two-page-view" data-tags="Two page view" d="M978.995 840.090l-74.88 74.906c-29.056 29.005-67.661 45.005-108.672 45.005h-236.288c-14.413 0-28.774-2.304-42.675-6.835l-4.48-1.485-4.48 1.459c-13.926 4.557-28.288 6.861-42.675 6.861h-236.288c-41.011 0-79.616-16-108.672-45.005l-74.88-74.906c-29.005-29.030-45.005-67.61-45.005-108.646v-657.434c0-76.083 61.926-138.010 138.010-138.010h326.835c14.49 0 28.851 2.304 42.675 6.861l4.48 1.459 4.48-1.459c13.824-4.557 28.186-6.861 42.675-6.861h326.835c76.083 0 138.010 61.926 138.010 138.010v657.434c0 41.037-16 79.616-45.005 108.646zM90.138 773.222c17.741 43.136 98.662 104.115 98.662 104.115 0.026-0.077 51.354 0.077 51.379 0 0.077-0.23-0.077-112.205 0-112.435 0-1.306-0.128-8.192-5.709-13.747-3.533-3.533-8.397-5.709-13.773-5.709l-141.517-8.806c0 0-0.947-0.102 10.957 36.582zM472.397 15.232h-334.387c-32.435 0-58.829 26.368-58.829 58.803v592.23h141.542c54.374 0 98.637 44.237 98.637 98.637l-2.176 115.942h155.238v-865.613zM944.819 74.010c0-32.435-26.394-58.803-58.829-58.803h-334.387v865.613h155.238l-2.176-115.942c0-54.374 44.237-98.637 98.637-98.637h141.542v-592.23zM944.819 736.64l-141.542 8.806c-5.376 0-10.214 2.176-13.747 5.709-5.555 5.555-5.709 12.442-5.709 13.747 0.077 0.23-0.077 112.205 0 112.435 0.026 0.077 51.354-0.077 51.379 0 0 0 80.896-60.979 98.662-104.115 11.904-36.685 10.957-36.582 10.957-36.582z" />
<glyph unicode="&#x61;" glyph-name="Home" data-tags="Home" d="M1011.482 525.466l-389.478 389.094c-60.672 60.595-159.411 60.595-220.058 0l-389.402-389.12c-8.090-8.064-12.544-18.842-12.544-30.362 0-11.494 4.454-22.298 12.57-30.413 15.206-15.155 40.013-16.358 56.499-2.739l18.278 15.053v-439.552c0-55.936 44.442-101.427 99.098-101.427h651.11c54.63 0 99.072 45.491 99.072 101.402v439.629l18.304-15.13c15.949-13.133 41.83-11.878 56.525 2.739 8.115 8.115 12.57 18.918 12.544 30.387 0 11.469-4.454 22.298-12.518 30.438zM569.472 365.645h-114.893c-58.88 0-106.778-48.998-106.778-109.235v-234.906h-161.357c-8.73 0-15.821 7.142-15.821 15.923v525.722l290.842 290.586c27.93 27.827 73.216 27.853 101.043 0l290.867-290.586v-525.722c0-8.781-7.117-15.923-15.821-15.923h-161.306v234.906c-0.026 60.237-47.923 109.235-106.778 109.235zM431.078 256.41c0 13.082 10.522 23.757 23.501 23.757h114.893c12.954 0 23.45-10.65 23.45-23.757v-234.906h-161.818v234.906z" />
<glyph unicode="&#x62;" glyph-name="TOC" data-tags="TOC" d="M57.498 956.083h-6.81c-27.955 0-50.688-24.269-50.688-54.067s22.733-54.067 50.688-54.067h6.81c27.93 0 50.637 24.243 50.637 54.067s-22.733 54.067-50.637 54.067zM279.987 852.813h708.838c19.379 0 35.149 18.534 35.149 41.344s-15.77 41.344-35.149 41.344h-708.838c-19.379 0-35.149-18.534-35.149-41.344s15.77-41.344 35.149-41.344zM57.523 348.109h-6.81c-27.981 0-50.714-24.192-50.714-53.939 0-29.875 22.733-54.195 50.688-54.195h6.81c27.93 0 50.637 24.294 50.637 54.195-0.026 29.747-22.707 53.939-50.611 53.939zM988.826 335.411h-708.838c-19.379 0-35.149-18.509-35.149-41.267 0-22.835 15.77-41.421 35.149-41.421h708.838c19.379 0 35.149 18.586 35.149 41.421 0 22.758-15.77 41.267-35.149 41.267zM284.134 540.058h6.784c27.904 0 50.611 24.269 50.611 54.093 0 29.798-22.707 54.042-50.611 54.042h-6.784c-27.955 0-50.714-24.243-50.714-54.042 0.051-29.85 22.784-54.093 50.714-54.093zM988.8 635.418h-483.2c-19.379 0-35.149-18.534-35.149-41.318 0-22.81 15.77-41.37 35.149-41.37h483.226c19.405 0 35.174 18.56 35.174 41.37-0.026 22.784-15.821 41.318-35.2 41.318zM290.97 48.051h-6.81c-27.955 0-50.714-24.269-50.714-54.093 0-29.798 22.733-54.042 50.714-54.042h6.784c27.904 0 50.611 24.243 50.611 54.042 0.026 29.824-22.682 54.093-50.586 54.093zM988.8 35.302h-483.2c-19.379 0-35.149-18.534-35.149-41.318 0-22.81 15.77-41.37 35.149-41.37h483.226c19.405 0 35.174 18.56 35.174 41.37-0.026 22.784-15.821 41.318-35.2 41.318z" />
<glyph unicode="&#x64;" glyph-name="Search" data-tags="Search" d="M1012.045 4.454l-254.541 250.522 7.782 9.293c63.821 76.058 98.97 171.981 98.97 270.157-0.026 234.547-193.894 425.37-432.128 425.37-238.285 0-432.128-190.822-432.128-425.37s193.843-425.37 432.128-425.37c91.955 0 183.322 29.773 257.382 83.84l9.011 6.579 256.077-251.981c15.309-15.078 42.163-15.027 57.446 0 7.706 7.629 11.955 17.715 11.955 28.467 0.026 10.752-4.224 20.864-11.955 28.493zM432.128 189.44c-193.382 0-350.72 154.752-350.72 344.986s157.338 345.011 350.694 345.011 350.694-154.752 350.694-345.011c0.026-190.234-157.286-344.986-350.669-344.986z" />
<glyph unicode="&#x67;" glyph-name="Thumbnail-view" data-tags="Thumbnail view" d="M425.958 960h-387.84c-21.069 0-38.118-17.050-38.118-38.118v-387.84c0-21.043 17.050-38.118 38.118-38.118h387.84c21.043 0 38.118 17.050 38.118 38.118v387.84c0 21.069-17.075 38.118-38.118 38.118zM391.962 887.885v-319.846h-319.846v319.846h319.846zM985.882 960h-387.84c-21.043 0-38.118-17.050-38.118-38.118v-387.84c0-21.043 17.050-38.118 38.118-38.118h387.84c21.043 0 38.118 17.050 38.118 38.118v387.84c0 21.069-17.050 38.118-38.118 38.118zM951.885 887.885v-319.846h-319.846v319.846h319.846zM425.958 400.077h-387.84c-21.069 0-38.118-17.075-38.118-38.118v-387.866c0-21.043 17.050-38.093 38.118-38.093h387.84c21.043 0 38.118 17.050 38.118 38.118v387.84c0 21.043-17.075 38.118-38.118 38.118zM391.962 327.962v-319.846h-319.846v319.846h319.846zM985.882 400.077h-387.84c-21.043 0-38.118-17.050-38.118-38.118v-387.84c0-21.043 17.050-38.118 38.118-38.118h387.84c21.069 0 38.118 17.075 38.118 38.118v387.84c0 21.043-17.075 38.118-38.118 38.118zM951.885 327.962v-319.846h-319.846v319.846h319.846z" />
<glyph unicode="&#x69;" glyph-name="Audio" data-tags="Audio" d="M847.949 82.458c7.936 0 20.096 4.147 28.006 12.083 94.694 92.493 147.277 217.165 148.045 351.078 0.794 136.218-51.763 264.243-148.045 360.525-7.782 7.782-17.715 12.083-28.006 12.083s-20.224-4.275-28.032-12.083c-7.782-7.782-12.083-17.715-12.083-28.006s4.301-20.25 12.083-28.032c165.274-165.299 165.274-434.227 0-599.501-7.782-7.782-12.083-17.741-12.083-28.032s4.301-20.25 12.083-28.032c7.936-7.936 20.096-12.083 28.032-12.083zM674.15 245.171c7.936 0 20.096 4.147 28.032 12.083 51.968 51.994 81.792 121.523 81.792 190.746 0 74.624-28.979 142.31-81.613 190.566-5.734 7.45-13.824 11.469-23.578 12.16-12.16 0.998-24.32-3.61-32.666-11.955-7.782-7.782-12.083-17.741-12.083-28.032s4.301-20.25 12.083-28.032c37.069-32.41 57.677-80.358 57.677-134.707 0-54.323-20.608-102.272-57.984-134.989-7.475-7.501-11.776-17.459-11.776-27.725s4.301-20.224 12.083-28.032c7.936-7.936 20.096-12.083 28.032-12.083zM458.522 960c-26.035 0-51.968-13.184-69.376-35.277l-178.842-200.397h-123.725c-47.744 0-86.579-39.373-86.579-87.782v-377.088c0-48.41 38.835-87.782 86.579-87.782h123.725l187.674-209.306c13.005-17.51 33.741-26.368 60.544-26.368 47.744 0 86.579 39.398 86.579 87.808v848.41c0 48.41-38.835 87.782-86.579 87.782zM464.922 23.782h-6.4c0 0 0 0 0 0h-6.4c0 1.126-1.792 2.944-2.893 2.944h-2.816l-1.894 2.125-190.618 212.096c-8.499 8.602-16.358 12.006-27.827 12.006h-145.894v390.093h145.869c11.469 0 19.328 3.43 28.032 12.237l190.438 207.232c1.741 1.766 2.586 3.456 3.61 5.555 1.229 2.534 2.79 5.658 5.862 8.755l10.931 11.085v-864.128z" />
<glyph unicode="&#x6a;" glyph-name="Video" data-tags="Video" d="M983.373 960h-942.72c-24.678 0-40.653-15.974-40.653-40.653v-942.72c0-24.678 15.974-40.627 40.653-40.627h942.72c24.704 0 40.653 15.949 40.653 40.627v942.72c0 24.678-15.949 40.653-40.653 40.653zM942.72 17.28h-861.414v861.414h861.414v-861.414zM352.333 248.781c7.706-3.814 11.136-3.814 20.045-3.814 9.446 0 11.52 0.23 14.080 2.79l1.664 1.203 325.837 162.893c10.752 7.219 24.371 19.738 24.371 36.173 0 16.128-7.987 27.955-24.371 36.173l-325.837 162.918c-11.674 7.68-27.341 4.301-40.166 0.128-7.782-8.448-15.744-24.499-15.744-36.301v-325.837c0.026-11.187 7.526-27.75 20.122-36.326zM412.518 546.79l197.581-98.79-197.581-98.79v197.581z" />
<glyph unicode="&#x6b;" glyph-name="Image" data-tags="Image" d="M983.347 960h-942.694c-24.678 0-40.653-15.974-40.653-40.653v-942.72c0-24.678 15.974-40.627 40.653-40.627h942.694c24.704 0 40.653 15.949 40.653 40.627v942.72c0 24.678-15.949 40.653-40.653 40.653zM81.306 878.694h861.389v-723.661l-285.082 383.36c-7.27 10.88-18.125 16.256-32.512 16.256s-25.242-5.376-32.333-15.974l-254.976-327.219-80.563 95.667c-10.24 10.24-22.605 16.563-32.742 16.563s-22.528-6.323-33.126-16.973l-110.054-152.115v724.096zM79.616 17.28l149.427 200.96 75.955-96.179c7.654-7.629 20.224-11.93 33.638-16.41 13.875 0.256 24.397 5.632 31.283 15.974l255.36 322.842 319.155-427.187h-864.819zM407.834 638.822c0-47.873-38.809-86.682-86.682-86.682s-86.682 38.809-86.682 86.682c0 47.873 38.809 86.682 86.682 86.682s86.682-38.809 86.682-86.682z" />
<glyph unicode="&#x73;" glyph-name="Download" data-tags="Download" d="M751.898 413.363c0 10.726-4.173 20.813-11.75 28.39-15.155 15.206-41.651 15.206-56.806 0l-131.174-131.174v609.254c0.026 22.144-18.022 40.166-40.166 40.166s-40.166-18.022-40.166-40.166v-609.229l-131.174 131.174c-7.578 7.578-17.664 11.776-28.39 11.776s-20.813-4.198-28.416-11.776-11.75-17.664-11.75-28.39 4.173-20.813 11.75-28.39l199.757-199.757c15.155-15.13 41.626-15.155 56.806 0l199.757 199.757c7.552 7.552 11.725 17.664 11.725 28.365zM40.166 270.566c-22.144 0-40.166-18.022-40.166-40.166v-218.931c0-41.626 33.869-75.469 75.469-75.469h873.062c41.626 0 75.469 33.843 75.469 75.469v218.931c0 22.144-18.022 40.166-40.166 40.166s-40.141-18.022-40.141-40.166v-214.067h-863.36v214.067c0 22.144-18.022 40.166-40.166 40.166z" />
<glyph unicode="&#x74;" glyph-name="Pen" data-tags="Pen" d="M983.117 804.915c0 33.229-12.954 64.461-36.429 87.962l-30.848 30.848c-48.512 48.384-127.386 48.358-175.872 0l-682.803-682.829c-4.941-4.915-8.397-11.136-9.958-17.92l-46.259-200.422c-2.227-9.677-0.563-19.661 4.685-28.058 5.274-8.422 13.491-14.31 23.142-16.512 2.714-0.64 5.427-0.947 8.090-0.947 3.482-0.077 5.914 0.307 8.627 0.922l200.474 46.285c6.758 1.587 12.928 4.992 17.894 9.933l682.803 682.803c23.501 23.475 36.454 54.733 36.454 87.936zM86.733 63.77l29.363 127.283 97.894-97.92-127.258-29.363zM268.442 143.846l-101.606 101.606 568.576 568.576 101.632-101.632-568.602-568.55zM894.157 769.536l-4.582-4.557-101.632 101.606 4.557 4.557c19.507 19.482 51.302 19.482 70.81 0l30.822-30.822c19.482-19.533 19.482-51.277 0.026-70.784zM810.854 12.8h-342.579c-21.222 0-38.4-17.203-38.4-38.4s17.178-38.4 38.4-38.4h342.579c21.197 0 38.4 17.203 38.4 38.4s-17.203 38.4-38.4 38.4zM985.6 12.8h-36.48c-21.197 0-38.4-17.203-38.4-38.4s17.203-38.4 38.4-38.4h36.48c21.197 0 38.4 17.203 38.4 38.4s-17.203 38.4-38.4 38.4z" />
<glyph unicode="&#x78;" glyph-name="Zoom-in" data-tags="Zoom in" d="M1011.814 5.069l-230.374 230.349 3.661 4.531c62.925 77.44 97.536 176.435 97.536 278.758 0.026 243.328-197.965 441.293-441.293 441.293s-441.293-197.965-441.293-441.293c0-243.328 197.965-441.318 441.293-441.318 100.326 0 194.15 32.87 278.861 97.638l4.531 3.456 3.994-4.019 226.253-226.253c8.064-8.013 20.378-12.211 28.416-12.211s20.378 4.198 28.442 12.237c16.154 16.205 16.154 40.627-0.026 56.832zM700.442 269.005l-4.89-4.89c-70.912-65.869-157.184-100.71-249.498-100.71-2.893-0.077-5.811-0.102-8.704-0.102-93.312 0-181.299 35.814-248.499 101.453-69.325 67.686-107.52 157.875-107.52 253.926 0 198.502 161.485 359.987 359.987 359.987s359.987-161.485 359.987-359.987c0.026-94.566-36.736-185.6-100.864-249.677zM623.77 557.952h-141.466v141.363c0 24.397-15.744 40.141-40.141 40.141s-40.141-15.77-40.141-40.141v-141.363h-141.312c-24.397 0-40.141-15.744-40.141-40.141s15.77-40.141 40.141-40.141h141.312v-141.389c0-24.371 15.77-40.115 40.141-40.115 24.781 0 40.141 20.813 40.141 40.115v141.389h141.466c24.371 0 40.115 15.77 40.115 40.141 0 24.806-20.813 40.141-40.115 40.141z" />
<glyph unicode="&#x79;" glyph-name="Zoom-out" data-tags="Zoom out" d="M1011.763 5.069l-230.374 230.349 3.661 4.531c62.925 77.44 97.536 176.435 97.536 278.758 0 243.328-197.965 441.293-441.318 441.293-243.328 0-441.293-197.965-441.293-441.293s197.965-441.318 441.293-441.318c100.326 0 194.15 32.87 278.861 97.638l4.531 3.456 3.994-4.019 226.253-226.253c8.064-8.013 20.403-12.211 28.416-12.211s20.378 4.198 28.442 12.237c16.179 16.179 16.179 40.627 0 56.832zM700.39 269.005l-4.89-4.89c-70.912-65.869-157.184-100.71-249.498-100.71-2.893-0.077-5.811-0.102-8.704-0.102-93.312 0-181.299 35.814-248.499 101.453-69.325 67.686-107.52 157.875-107.52 253.926 0 198.502 161.485 359.987 359.987 359.987s359.987-161.485 359.987-359.987c0.026-94.592-36.736-185.6-100.864-249.677zM623.693 557.952h-363.059c-24.397 0-40.141-15.744-40.141-40.141s15.77-40.141 40.141-40.141h363.059c24.371 0 40.115 15.77 40.115 40.141 0.026 24.781-20.813 40.141-40.115 40.141z" />
<glyph unicode="&#xa2;" glyph-name="Fit-to-height" data-tags="Fit to height" d="M1023.949-24.73c0 23.859-15.514 39.296-39.475 39.296h-453.504l2.202 2.176 190.643 189.619c15.437 15.411 15.437 39.475 0 54.835-7.68 7.629-17.485 11.827-27.571 11.827s-19.891-4.224-27.571-11.853l-117.222-116.608v187.904c0 23.859-15.514 39.27-39.475 39.27-23.987 0-39.475-15.411-39.475-39.27v-187.904l-2.176 2.202-115.072 114.406c-7.706 7.629-17.485 11.827-27.571 11.827-10.112 0-19.866-4.224-27.571-11.827-7.808-7.757-11.904-19.661-11.904-27.418s4.096-19.661 11.904-27.418l192.845-191.77h-453.53c-23.987 0-39.475-15.437-39.475-39.296s15.488-39.27 39.475-39.27h945.050c23.987 0 39.475 15.411 39.475 39.27zM551.45 575.078v187.853l2.176-2.176 115.046-114.432c7.68-7.629 17.459-11.827 27.571-11.827s19.917 4.198 27.571 11.827c7.603 7.578 11.955 18.432 11.955 29.824 0 0 0 0.026 0 0.026 0 11.366-4.378 22.195-11.955 29.696l-182.502 181.504c-3.354 0.947-5.402 3.021-6.528 4.147l-0.358 0.384-0.051 7.398v0.026l-0.077-17.843h450.176c23.987 0 39.475 15.411 39.475 39.245 0 23.859-15.488 39.27-39.475 39.27h-945.050c-23.987 0-39.475-15.411-39.475-39.27 0-23.834 15.488-39.245 39.475-39.245h450.176v10.138h-1.28c-0.589-0.026-2.662-1.203-3.968-2.483l-184.269-183.245c-7.808-7.757-11.904-19.686-11.904-27.443s4.096-19.661 11.904-27.443c7.68-7.629 17.459-11.827 27.571-11.827s19.891 4.198 27.571 11.827l117.248 111.283v-187.264c0-23.834 15.488-39.27 39.475-39.27 24.397 0.051 39.501 20.429 39.501 39.322z" />
<glyph unicode="&#xa9;" glyph-name="Preview" data-tags="Preview" d="M512 616.525c-92.928 0-168.525-75.597-168.525-168.525s75.597-168.525 168.525-168.525c92.928 0 168.525 75.597 168.525 168.525 0 92.902-75.597 168.525-168.525 168.525zM512 358.912c-49.126 0-89.088 39.962-89.088 89.088s39.962 89.088 89.088 89.088 89.088-39.962 89.088-89.088-39.962-89.088-89.088-89.088zM1018.778 467.686c-114.714 200.73-304.179 320.589-506.778 320.589s-392.064-119.834-506.778-320.563c-6.963-12.16-6.963-27.238 0-39.398 114.714-200.755 304.154-320.589 506.778-320.589s392.064 119.834 506.778 320.563c6.963 12.16 6.963 27.264 0 39.398zM937.062 446.285c-100.966-162.253-259.866-259.123-425.062-259.123-165.222 0-324.122 96.87-425.062 259.123l-1.050 1.715 1.050 1.69c100.941 162.278 259.84 259.149 425.062 259.149s324.096-96.87 425.062-259.149l1.050-1.69-1.050-1.715z" />
<glyph unicode="&#xb5;" glyph-name="Lock-open" data-tags="Lock open" d="M601.6 273.92c0-49.485-40.115-89.6-89.6-89.6s-89.6 40.115-89.6 89.6c0 49.485 40.115 89.6 89.6 89.6s89.6-40.115 89.6-89.6zM125.44 522.24v-496.64c0-48.64 40.96-89.6 89.6-89.6h596.48c48.64 0 89.6 40.96 89.6 89.6v496.64c0 48.64-40.96 89.6-89.6 89.6h-58.88v110.080c-2.56 130.56-110.080 238.080-240.64 238.080-128 0-232.96-102.4-238.080-227.84h74.24c5.12 87.040 76.8 153.6 163.84 153.6 89.6 0 163.84-74.24 163.84-163.84v-110.080h-460.8c-51.2 0-89.6-40.96-89.6-89.6zM819.2 532.48v-517.12h-614.4v517.12h614.4z" />
<glyph unicode="&#xb6;" glyph-name="Lock" data-tags="Lock" d="M898.56 540.16c-7.68 40.96-43.52 71.68-87.040 71.68h-58.88v110.080c0 2.56 0 7.68 0 10.24v0c0 2.56 0 5.12 0 7.68s0 7.68 0 10.24c0 5.12 0 7.68-2.56 12.8 0 2.56 0 7.68-2.56 10.24-2.56 5.12-5.12 7.68-5.12 12.8 0 2.56-2.56 7.68-2.56 10.24-2.56 5.12-2.56 7.68-5.12 12.8-2.56 2.56-2.56 7.68-5.12 10.24s-2.56 7.68-5.12 10.24c-2.56 2.56-2.56 5.12-5.12 10.24-2.56 2.56-5.12 7.68-5.12 10.24-2.56 2.56-2.56 5.12-5.12 10.24-2.56 2.56-5.12 7.68-7.68 10.24s-5.12 5.12-7.68 7.68c-2.56 0-5.12 2.56-7.68 5.12s-5.12 5.12-7.68 7.68c-2.56 2.56-5.12 5.12-7.68 7.68s-5.12 5.12-7.68 7.68c-2.56 2.56-7.68 5.12-10.24 7.68s-5.12 5.12-7.68 5.12c-2.56 2.56-7.68 5.12-10.24 5.12-2.56 2.56-5.12 2.56-10.24 5.12-5.12 5.12-7.68 5.12-12.8 7.68-2.56 2.56-5.12 2.56-10.24 5.12s-7.68 2.56-12.8 5.12c-2.56 0-5.12 2.56-10.24 2.56-5.12 2.56-7.68 2.56-12.8 2.56-2.56 0-5.12 2.56-10.24 2.56s-10.24 2.56-15.36 2.56c-2.56 0-5.12 0-7.68 0-7.68 0-15.36 0-23.040 0s-15.36 0-23.040 0c-2.56 0-5.12 0-7.68 0-5.12 0-10.24-2.56-15.36-2.56-2.56 0-5.12-2.56-10.24-2.56s-10.24-2.56-12.8-2.56c-2.56 0-5.12-2.56-10.24-2.56-5.12-2.56-7.68-2.56-12.8-5.12-2.56-2.56-5.12-2.56-10.24-5.12 0-2.56-2.56-2.56-7.68-5.12-2.56-2.56-5.12-2.56-10.24-5.12-2.56-2.56-7.68-5.12-10.24-5.12-2.56-2.56-5.12-5.12-7.68-5.12-2.56-2.56-7.68-5.12-10.24-7.68s-5.12-5.12-7.68-7.68c-2.56-2.56-5.12-5.12-7.68-7.68s-5.12-5.12-7.68-7.68c-2.56-2.56-5.12-5.12-7.68-7.68s-5.12-5.12-7.68-7.68c-2.56-2.56-5.12-5.12-7.68-10.24-2.56-2.56-5.12-5.12-5.12-10.24-2.56-2.56-5.12-7.68-5.12-10.24-2.56-2.56-2.56-5.12-5.12-10.24-2.56-2.56-2.56-7.68-5.12-10.24s-2.56-7.68-5.12-10.24c-2.56-2.56-2.56-7.68-5.12-12.8 0-2.56-2.56-7.68-2.56-10.24 0-5.12-2.56-7.68-2.56-12.8 0-2.56-2.56-7.68-2.56-10.24 0-5.12-2.56-7.68-2.56-12.8 0-2.56 0-7.68 0-10.24s0-5.12 0-7.68v0c0-2.56 0-7.68 0-10.24v-110.080h-58.88c-43.52 0-79.36-30.72-87.040-71.68 0-5.12-2.56-12.8-2.56-17.92v-496.64c0-5.12 0-12.8 2.56-17.92 7.68-40.96 43.52-71.68 87.040-71.68h596.48c43.52 0 79.36 30.72 87.040 71.68 0 5.12 2.56 12.8 2.56 17.92v496.64c-2.56 7.68-2.56 12.8-2.56 17.92zM512 184.32c-48.64 0-89.6 40.96-89.6 89.6s40.96 89.6 89.6 89.6c48.64 0 89.6-40.96 89.6-89.6s-40.96-89.6-89.6-89.6zM675.84 611.84h-327.68v110.080c0 5.12 0 10.24 0 12.8s0 5.12 0 7.68c0 2.56 0 5.12 2.56 7.68 0 2.56 0 5.12 2.56 7.68 0 2.56 2.56 5.12 2.56 7.68s2.56 5.12 2.56 7.68c0 2.56 0 5.12 2.56 7.68 0 2.56 2.56 5.12 2.56 7.68s2.56 5.12 2.56 7.68c0 2.56 2.56 5.12 2.56 5.12 2.56 2.56 2.56 5.12 5.12 7.68s2.56 5.12 5.12 5.12 2.56 5.12 5.12 7.68c2.56 2.56 2.56 2.56 5.12 5.12s2.56 5.12 5.12 5.12 2.56 2.56 5.12 5.12 5.12 2.56 5.12 5.12 2.56 2.56 5.12 5.12 5.12 2.56 7.68 5.12c0 2.56 2.56 5.12 5.12 5.12 2.56 2.56 5.12 2.56 7.68 5.12 2.56 0 5.12 2.56 5.12 2.56 2.56 2.56 5.12 2.56 7.68 2.56s5.12 2.56 5.12 2.56c2.56 0 5.12 2.56 7.68 2.56s5.12 2.56 5.12 2.56c2.56 0 5.12 2.56 10.24 2.56 2.56 0 5.12 0 5.12 2.56 7.68 2.56 10.24 2.56 12.8 2.56s2.56 0 5.12 0c5.12 0 10.24 0 15.36 0s10.24 0 15.36 0c2.56 0 2.56 0 5.12 0s7.68 0 10.24-2.56c2.56 0 5.12 0 5.12-2.56 2.56 0 5.12-2.56 10.24-2.56 2.56 0 5.12-2.56 5.12-2.56 2.56 0 5.12-2.56 7.68-2.56s5.12-2.56 5.12-2.56c2.56 0 5.12-2.56 7.68-2.56s5.12-2.56 5.12-2.56 5.12-2.56 7.68-5.12c2.56-2.56 5.12-2.56 5.12-5.12 2.56-2.56 5.12-2.56 7.68-5.12s2.56-2.56 5.12-5.12 5.12-2.56 5.12-5.12 2.56-2.56 5.12-5.12 2.56-5.12 5.12-5.12c10.24-2.56 12.8-2.56 12.8-5.12 2.56-2.56 2.56-5.12 5.12-7.68s2.56-5.12 5.12-5.12 2.56-5.12 5.12-7.68c0-2.56 2.56-5.12 2.56-5.12 2.56-2.56 2.56-5.12 2.56-7.68s2.56-5.12 2.56-7.68c0-2.56 2.56-5.12 2.56-7.68s2.56-5.12 2.56-7.68c0-2.56 2.56-5.12 2.56-7.68s0-5.12 2.56-7.68c0-2.56 0-5.12 2.56-7.68 0-2.56 0-5.12 0-7.68 0-5.12 0-7.68 0-12.8v-110.080z" />
<glyph unicode="&#xb8;" glyph-name="Note" data-tags="Note" d="M885.99 960h-747.981c-76.083 0-138.010-61.926-138.010-138.010v-747.955c0-76.109 61.926-138.035 138.010-138.035h657.434c41.011 0 79.565 16 108.646 44.979l74.931 74.906c29.005 29.082 44.979 67.686 44.979 108.646v657.459c0 76.083-61.926 138.010-138.010 138.010zM933.862 122.778l-98.816-98.842v81.587c0 10.726 8.73 19.456 19.456 19.456h81.587l-2.227-2.202zM944.794 204.134h-90.291c-54.374 0-98.637-44.262-98.637-98.637v-90.291h-617.856c-32.435 0-58.829 26.394-58.829 58.829v586.317h865.613v-456.218zM944.794 739.533h-865.587v82.432c0 32.435 26.394 58.829 58.829 58.829h747.955c32.435 0 58.829-26.394 58.829-58.829v-82.432zM318.157 377.626h387.686c21.914 0 39.757 17.818 39.757 39.757s-17.818 39.757-39.757 39.757h-387.686c-21.914 0-39.757-17.818-39.757-39.757s17.843-39.757 39.757-39.757z" />
<glyph unicode="&#xc2;" glyph-name="Preview-off" data-tags="Preview off" d="M680.525 448c0 92.928-75.597 168.525-168.525 168.525-2.15 0-4.198-0.384-6.323-0.461l174.413-174.413c0.051 2.15 0.435 4.198 0.435 6.349zM71.066 941.773c-1.408 1.408-2.022 3.226-3.174 4.787l-2.176 2.176c-15.053 15.027-39.398 15.027-54.451 0s-15.053-39.424 0-54.451l200.474-200.474c-81.178-54.63-152.269-131.174-206.515-226.125-6.963-12.16-6.963-27.238 0-39.398 114.714-200.73 304.154-320.563 506.778-320.563 80.486 0 158.797 19.2 231.27 54.554l215.014-215.014c7.501-7.501 17.357-11.264 27.213-11.264s19.712 3.763 27.213 11.29c13.619 13.619 14.259 34.611 3.174 49.664l-944.819 944.819zM428.237 477.312l113.050-113.050c-9.216-3.251-18.995-5.35-29.312-5.35-49.126 0-89.088 39.962-89.088 89.088 0 10.317 2.125 20.070 5.35 29.312zM512 187.162c-165.222 0-324.122 96.87-425.062 259.123l-1.050 1.715 1.050 1.69c49.075 78.874 111.898 142.131 182.426 186.496l99.558-99.558c-16.026-25.779-25.472-56.090-25.472-88.627 0-92.928 75.597-168.525 168.525-168.525 32.538 0 62.848 9.421 88.627 25.472l82.381-82.381c-54.656-23.014-112.384-35.405-170.982-35.405zM422.605 699.136c29.389 6.298 59.264 9.702 89.395 9.702 165.222 0 324.096-96.87 425.062-259.149l1.050-1.69-1.050-1.715c-34.202-54.989-75.213-102.17-120.755-140.851l56.602-56.602c56.038 48.742 105.6 109.030 145.869 179.456 6.963 12.16 6.963 27.238 0 39.398-114.714 200.73-304.179 320.589-506.778 320.589-52.787 0-104.602-8.397-154.47-24.064l65.075-65.075z" />
<glyph unicode="&#xc7;" glyph-name="fit-to-width" data-tags="fit to width" d="M984.704 960c-23.859 0-39.296-15.514-39.296-39.475v-453.504l-2.176 2.202-189.619 190.643c-15.411 15.437-39.475 15.437-54.835 0-7.629-7.68-11.827-17.485-11.827-27.571s4.224-19.891 11.827-27.571l116.608-117.222h-187.904c-23.859 0-39.27-15.514-39.27-39.475s15.411-39.475 39.27-39.475h187.904l-2.202-2.176-114.406-115.072c-7.629-7.706-11.827-17.459-11.827-27.571s4.224-19.866 11.827-27.571c7.757-7.808 19.661-11.904 27.418-11.904s19.661 4.096 27.418 11.904l191.77 192.845v-453.53c0-23.987 15.437-39.475 39.296-39.475s39.27 15.488 39.27 39.475v945.050c0 23.962-15.386 39.475-39.245 39.475zM384.896 487.475h-187.878l2.176 2.176 114.432 115.046c7.629 7.68 11.827 17.459 11.827 27.571s-4.198 19.917-11.827 27.571c-7.578 7.603-18.432 11.955-29.824 11.955 0 0-0.026 0-0.026 0-11.366 0-22.195-4.378-29.696-11.955l-181.504-182.502c-0.947-3.354-3.021-5.402-4.147-6.528l-0.384-0.358 18.176-0.051-7.757-0.077v450.202c0 23.962-15.386 39.475-39.245 39.475-23.834 0-39.27-15.514-39.27-39.475v-945.050c0-23.987 15.411-39.475 39.27-39.475 23.834 0 39.245 15.488 39.245 39.475v450.176h-10.112v-1.28c0.026-0.589 1.203-2.662 2.483-3.968l183.245-184.269c7.757-7.808 19.686-11.904 27.443-11.904s19.661 4.096 27.443 11.904c7.629 7.68 11.827 17.459 11.827 27.571s-4.198 19.891-11.827 27.571l-111.283 117.248h187.264c23.834 0 39.27 15.488 39.27 39.475-0.077 24.397-20.454 39.475-39.322 39.475z" />
<glyph unicode="&#xd8;" glyph-name="kitaboo-logo-icon" data-tags="kitaboo logo icon" d="M967.731 539.341c18.253 36.122 27.366 75.52 27.366 118.195v32c0 37.146-7.066 72.090-21.171 104.755s-33.562 61.261-58.291 85.683c-24.806 24.422-53.53 43.878-86.221 58.317-32.691 14.49-67.968 21.709-105.805 21.709h-694.707v-121.805h694.707c41.267 0 76.544-14.464 105.805-43.341 29.261-28.902 43.904-64.026 43.904-105.293v-32c0-41.293-14.643-76.57-43.904-105.805-29.235-29.261-64.538-43.853-105.805-43.853h-694.707v-120.781h694.707c41.267 0 76.544-14.643 105.805-43.878 29.261-29.261 43.904-64.179 43.904-104.781v-33.050c0-40.627-14.643-75.52-43.904-104.781-29.235-29.261-64.538-43.878-105.805-43.878h-694.707v-120.755h694.707c37.862 0 73.139 7.040 105.805 21.146 32.691 14.106 61.44 33.434 86.221 57.805 24.755 24.422 44.211 52.966 58.291 85.683 14.106 32.666 21.171 67.635 21.171 104.781v33.050c0 41.958-9.139 81.203-27.366 117.683-18.253 36.48-42.496 67.098-72.781 91.878 30.285 24.755 54.528 55.194 72.781 91.315v0zM104.243 586.598h631.757c28.774 0 52.173 35.302 53.786 45.645h-685.542v-45.645zM736 758.195h-631.757v-45.67h685.517c-1.587 10.368-24.986 45.67-53.76 45.67zM104.243 137.523h631.757c28.774 0 52.173 35.302 53.786 45.619h-685.542v-45.619zM736 309.12h-631.757v-45.67h685.517c-1.587 10.342-24.986 45.67-53.76 45.67z" />
<glyph unicode="&#xd9;" glyph-name="kitaboo-text-logo" data-tags="kitaboo text logo" horiz-adv-x="2844" d="M1807.939 643.18c-11.235 11.036-24.244 19.852-39.034 26.39s-30.74 9.815-47.885 9.815h-314.363v-55.116h314.363c18.687 0 34.663-6.538 47.885-19.615 13.236-13.066 19.876-28.98 19.876-47.634v-14.483c0-18.687-6.628-34.634-19.876-47.866-13.236-13.24-29.212-19.852-47.885-19.852h-314.363v-54.652h314.363c18.687 0 34.663-6.628 47.885-19.852 13.236-13.24 19.876-29.038 19.876-47.402v-14.964c0-18.386-6.628-34.17-19.876-47.402-13.236-13.265-29.212-19.852-47.885-19.852h-314.363v-54.652h314.363c17.15 0 33.098 3.19 47.885 9.554 14.79 6.393 27.792 15.15 39.034 26.168 11.177 11.062 20.010 23.964 26.371 38.781 6.364 14.773 9.583 30.604 9.583 47.402v14.964c0 18.982-4.134 36.73-12.395 53.249-8.278 16.513-19.238 30.35-32.944 41.564 13.704 11.21 24.666 24.979 32.944 41.354 8.249 16.339 12.395 34.141 12.395 53.481v14.483c0 16.802-3.206 32.634-9.583 47.402-6.364 14.773-15.196 27.705-26.371 38.76zM1440.746 510.402h285.875c13.033 0 23.606 15.966 24.341 20.648h-310.21v-20.648zM1726.627 588.064h-285.875v-20.659h310.21c-0.712 4.682-11.293 20.659-24.341 20.659zM1440.746 307.196h285.875c13.033 0 23.606 15.962 24.341 20.63h-310.21v-20.63zM1726.627 384.843h-285.875v-20.688h310.21c-0.712 4.698-11.293 20.688-24.341 20.688zM429.536 678.373h-78.823l-233.517-229.583v229.583h-61.107v-460.155h61.107v161.603l76.851 70.936 166.514-232.541h76.851l-201.002 274.914zM488.669 678.373h61.090v-460.144h-61.090v460.144zM972.465 678.373h-368.52v-51.248h153.716v-408.91h61.090v408.91h153.716zM1088.725 678.373l-179.332-460.144h63.078l51.23 138.926h195.099l50.244-138.926h66.993l-179.325 460.144h-67.992zM1043.406 408.387l77.837 214.806h0.986l76.851-214.806h-155.688zM2263.85 609.847c-17.672 21.46-39.804 38.52-66.326 51.161-26.522 12.627-57.478 18.948-92.857 18.948-34.75 0-65.382-6.322-91.904-18.948-26.522-12.644-48.662-29.705-66.355-51.161-17.672-21.5-30.952-46.29-39.788-74.388-8.858-28.11-13.282-57.018-13.282-86.709 0-30.334 4.422-59.392 13.282-87.174 8.832-27.821 22.109-52.437 39.788-73.922 17.69-21.5 39.824-38.702 66.355-51.636 26.522-12.95 57.163-19.43 91.904-19.43 35.388 0 66.326 6.48 92.857 19.43 26.522 12.934 48.662 30.16 66.326 51.636 17.69 21.476 30.952 46.116 39.804 73.922 8.832 27.792 13.282 56.84 13.282 87.174 0 29.676-4.45 58.584-13.282 86.709-8.858 28.11-22.114 52.901-39.804 74.388zM2222.16 323.661c-24.012-38.549-63.178-57.801-117.505-57.801-53.684 0-92.542 19.267-116.554 57.801-24.012 38.528-35.997 80.214-35.997 125.080 0 44.203 11.989 85.607 35.997 124.136 24.012 38.52 62.872 57.801 116.554 57.801 54.322 0 93.495-19.296 117.505-57.801 24.012-38.528 35.997-79.924 35.997-124.136 0-44.869-11.989-86.552-35.997-125.080zM2774.625 535.443c-8.858 28.11-22.109 52.901-39.804 74.388-17.69 21.46-39.804 38.52-66.326 51.161-26.516 12.627-57.163 18.948-91.9 18.948-35.388 0-66.326-6.322-92.857-18.948-26.545-12.644-48.662-29.705-66.355-51.161-17.69-21.5-30.952-46.29-39.788-74.388-8.858-28.11-13.282-57.018-13.282-86.709 0-30.334 4.422-59.392 13.282-87.174 8.832-27.821 22.080-52.437 39.788-73.922 17.69-21.5 39.804-38.702 66.355-51.636 26.522-12.95 57.478-19.43 92.857-19.43 34.721 0 65.382 6.48 91.904 19.43 26.522 12.934 48.639 30.16 66.326 51.636s30.952 46.116 39.804 73.922c8.832 27.792 13.282 56.84 13.282 87.174-0.014 29.676-4.451 58.596-13.294 86.709zM2693.141 323.661c-24.028-38.549-62.872-57.801-116.554-57.801-54.351 0-93.524 19.267-117.505 57.801-24.012 38.528-35.997 80.214-35.997 125.080 0 44.203 11.989 85.607 35.997 124.136 23.993 38.52 63.162 57.801 117.505 57.801 53.684 0 92.526-19.296 116.554-57.801 23.993-38.528 35.997-79.924 35.997-124.136-0.014-44.869-12.018-86.552-35.997-125.080z" />
<glyph unicode="&#xdc;" glyph-name="Language-selection" data-tags="Language selection" d="M530.125 349.696c10.266 17.101 4.71 39.373-12.39 49.638-56.909 34.15-109.056 75.238-155.136 122.163 37.837 45.235 71.117 94.336 98.944 145.997 36.838 68.403 56.55 126.797 65.638 158.438h64.512c19.942 0 36.198 16.23 36.198 36.173s-16.23 36.173-36.198 36.173h-241.562v25.549c0 19.942-16.23 36.173-36.198 36.173-19.942 0-36.198-16.23-36.198-36.173v-25.549h-241.562c-19.942 0-36.173-16.23-36.173-36.173s16.23-36.198 36.173-36.198h415.181c-18.048-54.912-58.061-151.859-137.574-249.805-43.878 53.99-80.614 113.664-109.286 177.51-8.141 18.202-29.645 26.291-47.795 18.202-8.832-3.968-15.59-11.11-19.021-20.147s-3.149-18.867 0.819-27.699c32.896-73.267 75.443-141.389 126.541-202.547-46.106-47.027-98.176-88.064-154.906-122.086-17.101-10.266-22.656-32.538-12.39-49.638 9.83-16.41 33.101-22.323 49.638-12.416 60.595 36.352 116.557 80.256 166.4 130.611 49.69-50.125 105.728-94.029 166.682-130.637 5.632-3.354 12.083-5.146 18.611-5.146 12.672 0 24.576 6.758 31.053 17.587zM1021.67-14.976l-207.283 549.197c-7.629 18.253-25.267 30.054-45.107 30.054-19.917-0.026-37.606-11.93-45.466-31.13l-208.717-547.994c-7.091-18.662 2.304-39.629 20.966-46.72 4.147-1.587 8.474-2.381 12.877-2.381 14.925 0 28.518 9.37 33.843 23.322l43.11 113.178h285.363l42.65-113.075c7.040-18.637 27.955-28.237 46.669-21.094 18.688 7.040 28.134 27.981 21.094 46.643zM653.466 144.922l115.763 303.923 114.688-303.923h-230.451z" />
<glyph unicode="&#xf1;" glyph-name="Info" data-tags="Info" d="M511.462 960c-282.010 0-511.462-229.683-511.462-512s229.453-512 511.462-512c282.624 0 512.538 229.683 512.538 512s-229.914 512-512.538 512zM512 14.771c-238.874 0-433.229 194.355-433.229 433.229s194.355 433.229 433.229 433.229c238.874 0 433.229-194.355 433.229-433.229s-194.355-433.229-433.229-433.229zM512 742.784c-34.202 0-62.054-27.853-62.054-62.080 0-34.202 27.827-62.029 62.054-62.029s62.054 27.827 62.054 62.029c0 34.227-27.853 62.080-62.054 62.080zM512 525.568c-25.702 0-46.541-20.838-46.541-46.541v-279.27c0-25.702 20.838-46.541 46.541-46.541s46.541 20.838 46.541 46.541v279.27c0 25.702-20.838 46.541-46.541 46.541z" />
<glyph unicode="&#x114;" glyph-name="Audio_markup" data-tags="Audio_markup" d="M966.195 159.949c37.248 25.549 57.805 59.981 57.805 96.947v674.893c0 8.806-4.787 17.229-12.826 22.579-8.474 5.478-19.2 7.091-28.826 4.275l-649.574-186.317c-13.082-3.84-21.888-14.643-21.888-26.906v-573.926l-16.947 8.371c-31.232 15.437-68.096 23.603-106.624 23.603-48.256 0-94.208-13.056-129.382-36.762-37.376-25.421-57.933-59.878-57.933-96.998 0-37.094 20.608-71.475 58.010-96.896 35.072-23.731 80.973-36.813 129.28-36.813 48.333 0 94.234 13.082 129.28 36.838 37.325 25.421 57.907 59.853 57.907 96.896v458.138l8.294 2.33 577.51 165.888v-337.459l-16.947 8.371c-31.206 15.411-68.070 23.578-106.598 23.578-48.41 0-94.336-13.030-129.382-36.685-37.299-25.472-57.856-59.93-57.856-96.973 0-36.941 20.582-71.322 57.907-96.896l0.819-0.614c34.97-23.322 80.64-36.198 128.486-36.198 48.128 0 94.106 13.056 129.485 36.736zM187.29-7.603c-65.843 0-123.622 36.122-123.622 77.312 0 41.242 57.779 77.389 123.622 77.389s123.597-36.147 123.597-77.389c0-41.165-57.754-77.312-123.597-77.312zM952.013 752.845l-577.536-165.683v137.984l8.269 2.355 577.536 165.606v-137.958l-8.269-2.304zM713.523 256.896c0 41.242 57.702 77.414 123.494 77.414 65.818 0 123.546-36.122 123.546-77.338-0.23-41.242-57.958-77.363-123.546-77.363-65.792 0-123.494 36.122-123.494 77.286z" />
<glyph unicode="&#x126;" glyph-name="Home-select" data-tags="Home select" d="M384.554-63.974h-200.238c-53.46 0.733-96.515 44.242-96.515 97.807 0 0.363 0.002 0.726 0.006 1.088v-0.055 448.987l-23.628-19.456c-6.661-5.482-15.278-8.806-24.671-8.806-0.038 0-0.076 0-0.115 0h0.006c-0.077-0.001-0.168-0.001-0.259-0.001-10.74 0-20.466 4.343-27.517 11.368l0.001-0.001c-7.182 7.192-11.623 17.123-11.623 28.091 0 0.114 0 0.228 0.001 0.342v-0.017c0 0.056 0 0.122 0 0.189 0 10.98 4.462 20.917 11.672 28.097l391.85 391.671c27.562 27.599 65.659 44.673 107.743 44.673 0.254 0 0.507-0.001 0.761-0.002h-0.039c0.153 0.001 0.333 0.001 0.514 0.001 42.168 0 80.339-17.112 107.948-44.772l391.877-391.519c7.213-7.225 11.674-17.199 11.674-28.215 0-0.061 0-0.123 0-0.184v0.009c0-0.034 0-0.074 0-0.114 0-10.963-4.463-20.883-11.671-28.043l-0.002-0.002c-7.108-6.845-16.789-11.062-27.455-11.062-0.167 0-0.333 0.001-0.499 0.003h0.025c-0.144-0.002-0.313-0.003-0.483-0.003-9.182 0-17.616 3.206-24.242 8.559l0.073-0.057-23.654 19.507v-449.166c0.004-0.338 0.007-0.736 0.007-1.136 0-53.533-43.016-97.019-96.368-97.779l-0.072-0.001h-206.228v317.125c-0.396 37.432-30.832 67.625-68.321 67.625-0.847 0-1.691-0.015-2.531-0.046l0.121 0.004h-104.471c-1.217 0.076-2.639 0.119-4.071 0.119-37.777 0-68.528-30.085-69.601-67.602l-0.002-0.099v-317.125z" />
<glyph unicode="&#x13e;" glyph-name="More-vertical" data-tags="More vertical" d="M639.949 831.872c0 70.63-57.472 128.128-128.102 128.128-70.323 0-127.795-57.498-127.795-128.128 0-70.298 57.472-127.795 127.795-127.795 70.63 0 128.102 57.498 128.102 127.795v0zM639.949 64.128c0 70.298-57.472 127.795-128.102 127.795-70.323 0-127.795-57.498-127.795-127.795 0-70.323 57.472-128.128 127.795-128.128 70.63 0 128.102 57.805 128.102 128.128v0zM639.949 448.154c0 70.323-57.472 127.795-128.102 127.795-70.323 0-127.795-57.472-127.795-127.795 0-70.63 57.472-128.102 127.795-128.102 70.63 0 128.102 57.472 128.102 128.102v0z" />
<glyph unicode="&#x145;" glyph-name="Help" data-tags="Help" d="M512 960c-282.317 0-512-229.683-512-512s229.683-512 512-512c282.317 0 512 229.683 512 512s-229.683 512-512 512zM512 14.771c-238.874 0-433.229 194.355-433.229 433.229s194.355 433.229 433.229 433.229c238.874 0 433.229-194.355 433.229-433.229s-194.355-433.229-433.229-433.229zM512 228.019c-23.475 0-42.598-19.098-42.598-42.598 0-23.475 19.098-42.573 42.598-42.573 23.475 0 42.573 19.098 42.573 42.573 0 23.501-19.098 42.598-42.573 42.598zM524.826 752.742c-54.246 3.712-106.368-14.669-146.662-51.021-40.346-36.454-63.744-86.426-65.869-140.595l-0.333-4.915 0.282-2.432c1.69-22.042 20.224-39.322 42.189-39.322s40.525 17.28 42.189 39.296l1.075 12.058c3.354 30.029 18.227 57.139 41.882 76.39 26.573 21.658 62.746 30.336 96.486 23.296 54.938-11.392 94.72-64.358 90.522-120.602-3.43-45.747-34.765-69.99-68.070-95.77-25.523-19.738-51.917-40.141-69.069-72.115-6.554-9.062-9.728-18.074-9.728-27.52 0-23.936 19.251-43.392 42.906-43.392 16.179 0 30.822 9.216 38.17 24.038l1.024 2.074c13.082 37.581 42.982 63.795 71.962 89.216 42.675 37.427 82.97 72.781 77.875 143.437-7.168 99.277-89.242 181.811-186.829 187.878z" />
<glyph unicode="&#x153;" glyph-name="Camera" data-tags="Camera" d="M774.17-15.232q-325.376 0-650.778 0c-1.042-0.032-2.267-0.051-3.496-0.051-58.452 0-107.13 41.85-117.703 97.222l-0.119 0.749c-0.333 1.562 0 3.379-2.048 4.019v576c0.589 0.691 1.664 1.331 1.766 2.074 10.237 57.359 59.737 100.339 119.276 100.339 2.231 0 4.449-0.060 6.65-0.18l-0.307 0.013c28.467-0.768 56.96-0.563 85.453-0.41 17.152 0 34.304 0.179 51.482 0 0.52-0.051 1.125-0.080 1.736-0.080 8.068 0 14.956 5.050 17.676 12.161l0.044 0.13c11.546 25.011 23.603 49.818 35.405 74.726 14.29 33.995 47.314 57.431 85.813 57.431 1.611 0 3.213-0.041 4.804-0.122l-0.223 0.009q103.962 0 207.923 0c1.306 0.065 2.835 0.103 4.373 0.103 38.531 0 71.594-23.412 85.74-56.786l0.23-0.61c11.418-23.987 23.219-47.795 33.971-72.090 3.145-8.834 11.435-15.044 21.176-15.044 0.973 0 1.931 0.062 2.872 0.182l-0.111-0.012c43.981 0.589 87.936 0.256 131.917 0.256 1.886 0.106 4.093 0.166 6.315 0.166 66.352 0 120.141-53.789 120.141-120.141 0-2.075-0.053-4.139-0.157-6.188l0.012 0.288q0-264.448 0-528.819c0.080-1.634 0.125-3.55 0.125-5.475 0-66.31-53.754-120.064-120.064-120.064-1.719 0-3.429 0.036-5.13 0.108l0.243-0.008h-124.979zM897.050 64.768c1.856-0.297 3.995-0.466 6.174-0.466 22.706 0 41.114 18.407 41.114 41.114 0 1.988-0.141 3.944-0.414 5.857l0.026-0.219q0 263.962 0 527.923c0.202 1.528 0.317 3.295 0.317 5.089 0 22.622-18.338 40.96-40.96 40.96-1.672 0-3.322-0.1-4.942-0.295l0.195 0.019q-68.531 0-136.986 0c-1.372-0.073-2.979-0.114-4.595-0.114-38.46 0-71.455 23.403-85.519 56.746l-0.228 0.61c-11.776 24.909-23.834 49.715-35.379 74.778-2.783 7.202-9.652 12.217-17.692 12.217-0.621 0-1.235-0.030-1.841-0.088l0.077 0.006q-102.989-0.384-205.952 0c-0.51 0.049-1.102 0.077-1.701 0.077-8.091 0-14.993-5.086-17.686-12.235l-0.043-0.13c-11.494-25.037-23.578-49.843-35.43-74.726-14.386-33.905-47.396-57.252-85.858-57.252-1.613 0-3.217 0.041-4.81 0.122l0.223-0.009c-46.080 0-92.006 0-137.984 0-1.889 0.306-4.067 0.481-6.285 0.481-22.82 0-41.318-18.499-41.318-41.318 0-2.203 0.172-4.365 0.504-6.475l-0.030 0.234v-525.901c-0.301-1.872-0.472-4.029-0.472-6.227 0-22.805 18.487-41.293 41.293-41.293 2.245 0 4.448 0.179 6.596 0.524l-0.236-0.031h769.869zM509.056 144.845c-136.875 2.044-247.048 113.48-247.048 250.649 0 0.693 0.003 1.386 0.008 2.078l-0.001-0.106c1.902 136.972 113.383 247.277 250.627 247.277 0.62 0 1.24-0.002 1.859-0.007l-0.095 0.001c137.076-1.731 247.531-113.256 247.531-250.58 0-0.538-0.002-1.075-0.005-1.612v0.082c-1.694-136.116-111.529-246.024-247.457-247.832l-0.172-0.002zM341.99 394.701c0.361-93.566 76.012-169.343 169.495-169.907h0.054c93.936 0.087 170.088 76.104 170.394 169.98v0.029c-0.36 93.562-75.994 169.339-169.466 169.933h-0.646c-93.675-0.464-169.472-76.342-169.805-170.003v-0.032zM783.872 530.816q0.358 33.946 0 67.968c0 4.89 1.408 6.118 6.144 6.093q33.971-0.384 67.968 0c4.89 0 6.093-1.434 6.093-6.17q-0.384-33.946 0-67.968c0-4.838-1.408-6.195-6.17-6.093-11.315 0.358-22.63 0.128-33.997 0.128s-22.656 0.205-33.971-0.128h-0.563c-4.378 0-5.53 1.613-5.478 6.17z" />
<glyph unicode="&#x15c;" glyph-name="Dark-mode" data-tags="Dark mode" d="M675.336-49.627c-3.018-0.598-6.583-1.265-10.162-1.897-256.922-45.385-503.293 102.278-590.279 338.846l-1.032 3.088c-95.572 261.348 8.636 544.622 264.707 653.433 13.606 5.258 29.534 9.705 46.111 12.633 2.384 0.421 4.766 0.808 7.146 1.161l-0.35-0.054c0.666 0.152 1.449 0.309 2.24 0.449 19.322 3.413 38.006-4.856 48.803-19.737l0.178-0.267c1.004-3.727 1.974-8.098 2.76-12.548 4.692-26.56 2.283-52.731-5.862-76.567l0.258 0.853c-3.609-26.38-10.764-62.566-14.541-83.724-8.513-45.333-9.108-96.1-0.047-147.395 11.991-67.879 39.552-129.096 78.36-180.626l-1.51 2.173c76.017-102.476 196.139-164.070 325.65-161.568l2.244 0.104c29.562-1.624 63.566-0.345 97.825 4.116l1.216 0.17c44.72 6.652 65.859-0.405 82.894-20.591s10.152-51.435-4.454-78.561c-73.704-136.975-179.384-203.047-332.155-233.492zM359.084 828.010c3.545 17.32 5.253 29.141-1.792 37.232s-38.447-13.604-39.478-14.541c-120.876-86.178-210.654-210.469-196.544-402.66 12.432-139.857 99.93-295.292 222.334-364.965 91.772-54.215 203.476-77.349 317.546-57.198 49.122 8.677 95.082 24.745 136.938 46.858l-3.092-1.478c43.487 24.196 79.176 54.999 107.772 91.274l-0.292-0.363c16.843 16.523 18.853 24.575 18.292 34.669s-3.242 15.263-26.582 12.258c-134.184-17.905-324.747 38.844-423.338 149.18-76.756 80.051-121.435 188.574-124.449 330.459 0.135 52.296 4.775 99.094 13.475 144.712l-0.823-5.546z" />
<glyph unicode="&#x15e;" glyph-name="elastic-search" data-tags="elastic search" d="M1022.925 54.477c-2.063 8.247-5.963 15.395-11.252 21.267l0.039-0.044-200.934 199.526c32.358 35.351 57.472 77.916 72.623 124.952l0.67 2.408c10.837 32.895 17.087 70.757 17.087 110.080 0 10.11-0.413 20.123-1.223 30.023l0.086-1.3c-4.242 50.132-18.273 96.137-40.176 137.317l0.931-1.919c-23.365 45.536-54.311 83.923-91.577 114.983l-0.583 0.473c-36.197 31.942-79.407 56.888-126.942 72.201l-2.543 0.708c-34.93 11.347-75.122 17.89-116.842 17.89-9.412 0-18.746-0.333-27.991-0.988l1.243 0.071c-51.567-3.849-99.21-16.907-142.551-37.541l2.416 1.035c-46.408-22.6-85.673-52.813-117.809-89.437l-0.36-0.419c-29.403-32.483-52.963-70.901-68.614-113.156l-0.787-2.428c-2.831 1.187-6.12 1.882-9.57 1.894h-132.92c-0.038 0-0.084 0-0.13 0-13.828 0-25.056-11.13-25.214-24.92v-4.444c0.159-13.819 11.398-24.96 25.24-24.96 0.037 0 0.073 0 0.11 0h127.38c-4.993-22.639-7.853-48.642-7.853-75.313 0-9.090 0.332-18.103 0.985-27.026l-0.070 1.194c0.41-5.786 1.408-11.494 2.099-17.28h-122.547c-0.038 0-0.084 0-0.13 0-13.828 0-25.056-11.13-25.214-24.92v-4.444c0.159-13.819 11.398-24.96 25.24-24.96 0.037 0 0.073 0 0.11 0h132.807c7.057-25.464 15.487-47.355 25.739-68.19l-1.009 2.27c23.24-46.034 53.912-84.95 90.876-116.758l0.491-0.413c32.857-28.985 71.524-52.313 113.915-67.95l2.514-0.812c37.919-14.954 81.814-23.922 127.717-24.598l0.283-0.003c1.381-0.019 3.011-0.029 4.644-0.029 44.225 0 86.63 7.788 125.92 22.066l-2.564-0.814c45.303 15.995 84.36 39.088 117.939 68.313l-0.435-0.37 194.918-191.027c6.544-6.773 13.895-12.699 21.916-17.642l0.484-0.278q14.643-9.344 32.794 6.784c5.871 5.391 9.537 13.103 9.537 21.671 0 2.578-0.332 5.079-0.956 7.462l0.045-0.205zM740.045 296.832c-27.607-26.861-60.203-48.763-96.241-64.164l-2.063-0.784c-34.779-15.041-75.277-23.789-117.818-23.789-0.727 0-1.453 0.003-2.178 0.008l0.111-0.001c-0.561-0.004-1.225-0.006-1.89-0.006-85.217 0-162.488 34.024-218.969 89.228l0.059-0.058c-27.48 27.046-49.861 59.177-65.633 94.882l-0.774 1.963c-15.26 34.175-24.148 74.060-24.148 116.020 0 0.702 0.002 1.403 0.007 2.103l-0.001-0.107c-0.004 0.597-0.007 1.302-0.007 2.009 0 42.533 8.884 82.992 24.897 119.621l-0.75-1.924c16.405 37.997 38.809 70.409 66.373 97.605l0.034 0.033c56.436 55.102 133.695 89.094 218.894 89.094 0.661 0 1.322-0.002 1.982-0.006h-0.102c0.769 0.007 1.677 0.011 2.586 0.011 126.029 0 234.278-76.127 281.271-184.905l0.763-1.986c15.263-34.744 24.147-75.245 24.147-117.821 0-0.663-0.002-1.325-0.006-1.986l0.001 0.102c0.006-0.694 0.009-1.514 0.009-2.335 0-42.133-8.887-82.191-24.889-118.4l0.739 1.874c-16.493-37.49-38.88-69.446-66.343-96.22l-0.064-0.062zM524.544 648.934h-182.451c-6.361-9.153-12.187-19.603-16.954-30.618l-0.454-1.177c-3-6.994-5.8-15.421-7.927-24.111l-0.239-1.156h208.051c15.727 0.058 28.46 12.791 28.518 28.513v0.006c-0.044 15.747-12.797 28.5-28.54 28.544h-0.004zM522.803 470.835h-212.275c1.905-17.527 6.253-33.56 12.728-48.455l-0.414 1.070c1.434-3.328 3.123-6.477 4.71-9.677h195.251c15.757 0 28.531 12.774 28.531 28.531s-12.774 28.531-28.531 28.531v0z" />
<glyph unicode="&#x15f;" glyph-name="Notification" data-tags="Notification" d="M877.389 478.643c0-43.853-1.997-87.834 0.87-131.507 1.382-20.736 8.832-42.726 19.277-60.851 17.101-29.747 38.605-56.986 58.778-84.915 18.202-25.216 21.786-51.968 7.603-79.514-13.773-26.726-37.146-39.245-67.226-39.245-61.875 0-123.725-0.384-185.6 0.256-13.85 0.128-20.224-3.763-24.832-17.766-26.266-79.949-93.389-128.998-174.157-129.075s-148.557 49.050-174.618 128.614c-5.043 15.386-12.595 18.381-26.88 18.202-58.726-0.691-117.478 0.026-176.205-0.589-33.408-0.358-60.39 10.419-75.418 41.498-14.464 29.901-7.040 56.806 12.237 83.2 75.622 103.629 74.778 103.885 75.418 231.424 0.358 70.4-3.891 141.645 5.222 211.046 25.011 190.797 196.736 324.25 390.374 309.453 187.853-14.336 334.413-172.928 335.206-362.778 0.154-39.142 0.026-78.31 0.026-117.453-0.026 0-0.051 0-0.077 0zM897.050 156.365c-21.709 31.642-41.062 60.646-61.235 89.062-21.632 30.438-31.693 63.693-31.283 101.248 0.922 83.814 1.178 167.654 0.102 251.469-1.971 153.549-123.341 279.782-276.147 288.563-151.859 8.704-288.051-101.325-305.331-253.261-7.834-68.89-3.891-139.187-4.096-208.845-0.435-148.275 8.55-121.37-76.339-244.608-4.915-7.142-9.267-14.643-14.95-23.629 257.946 0 511.386 0 769.28 0zM612.685 80.41c-68.275 0-134.451 0-201.421 0 16.179-44.083 56.166-71.501 101.734-71.398 43.75 0.128 83.072 27.597 99.686 71.398z" />
<glyph unicode="&#x174;" glyph-name="Privacy-policy" data-tags="Privacy policy" d="M899.2 751.206l-199.987 200.013c-5.429 5.425-12.927 8.781-21.209 8.781-0.005 0-0.010 0-0.015 0h-439.91c-60.796 0-110.080-49.284-110.080-110.080v0-803.84c0-60.796 49.284-110.080 110.080-110.080v0h559.923c60.796 0 110.080 49.284 110.080 110.080v0 683.93c-0.032 8.291-3.423 15.784-8.881 21.195l-0.002 0.002zM707.994 857.6l97.562-97.562h-97.562zM798.003-3.968h-559.923c-0.008 0-0.017 0-0.026 0-27.641 0-50.048 22.407-50.048 50.048v0 803.84c0 0.008 0 0.017 0 0.026 0 27.641 22.407 50.048 50.048 50.048 0.009 0 0.018 0 0.027 0h409.931v-169.984c0-16.57 13.433-30.003 30.003-30.003v0h170.010v-653.926c0-0.008 0-0.017 0-0.026 0-27.632-22.393-50.033-50.021-50.048h-0.001zM718.080 556.006c-0.099 0-0.217-0.001-0.334-0.001-38.613 0-72.057 22.129-88.341 54.397l-0.259 0.566-4.224 8.448c-5.034 9.911-15.152 16.585-26.828 16.589h-160c-11.677-0.003-21.795-6.677-26.75-16.418l-0.079-0.17-4.224-8.448c-16.544-32.834-49.988-54.964-88.6-54.964-0.117 0-0.235 0-0.352 0.001h0.018c-0.030 0-0.066 0-0.102 0-16.57 0-30.003-13.433-30.003-30.003 0-0.027 0-0.054 0-0.081v0.004-171.187c0-0.004 0-0.009 0-0.014 0-139.731 92.261-257.913 219.188-296.953l2.201-0.583c2.578-0.804 5.542-1.267 8.614-1.267s6.036 0.463 8.826 1.323l-0.212-0.056c129.128 39.622 221.389 157.804 221.389 297.535 0 0.005 0 0.010 0 0.014v-0.001 171.187c0 0.023 0 0.050 0 0.077 0 16.543-13.389 29.959-29.922 30.003h-0.004zM688.077 354.816c0.002-0.346 0.003-0.755 0.003-1.164 0-109.261-70.37-202.086-168.26-235.626l-1.752-0.522c-99.642 34.061-170.012 126.887-170.012 236.148 0 0.409 0.001 0.819 0.003 1.227v-0.063 143.974c46.662 9.004 85.326 37.477 107.856 76.447l0.407 0.763h123.52c22.936-39.732 61.6-68.205 107.266-77.049l0.996-0.161zM581.632 423.782l-91.93-91.93-35.354 35.354c-5.474 5.73-13.175 9.292-21.708 9.292-16.57 0-30.003-13.433-30.003-30.003 0-8.533 3.562-16.234 9.281-21.698l56.587-56.587c5.426-5.432 12.925-8.792 21.21-8.792s15.784 3.36 21.209 8.792v0l113.126 113.126c5.135 5.375 8.295 12.674 8.295 20.711 0 16.57-13.433 30.003-30.003 30.003-8.037 0-15.336-3.16-20.722-8.306l0.011 0.011z" />
<glyph unicode="&#x177;" glyph-name="Radio-button-unchecked" data-tags="Radio button unchecked" d="M511.462 960c-282.010 0-511.462-229.683-511.462-512s229.453-512 511.462-512c282.624 0 512.538 229.683 512.538 512s-229.914 512-512.538 512zM512 14.771c-238.874 0-433.229 194.355-433.229 433.229s194.355 433.229 433.229 433.229c238.874 0 433.229-194.355 433.229-433.229s-194.355-433.229-433.229-433.229z" />
<glyph unicode="&#x179;" glyph-name="Radio-button-checked" data-tags="Radio button checked" d="M768 448c0-141.385-114.615-256-256-256s-256 114.615-256 256c0 141.385 114.615 256 256 256s256-114.615 256-256zM511.462 960c-282.010 0-511.462-229.683-511.462-512s229.453-512 511.462-512c282.624 0 512.538 229.683 512.538 512s-229.914 512-512.538 512zM512 14.771c-238.874 0-433.229 194.355-433.229 433.229s194.355 433.229 433.229 433.229c238.874 0 433.229-194.355 433.229-433.229s-194.355-433.229-433.229-433.229z" />
<glyph unicode="&#x17d;" glyph-name="Terms-and-Conditions" data-tags="Terms and Conditions" d="M590.362 763.981h-390.272c-16.464 0-29.811-13.347-29.811-29.811s13.347-29.811 29.811-29.811v0h390.272c16.464 0 29.811 13.347 29.811 29.811s-13.347 29.811-29.811 29.811v0zM377.984 285.030h-177.894c-16.464 0-29.811-13.347-29.811-29.811s13.347-29.811 29.811-29.811v0h177.894c16.464 0 29.811 13.347 29.811 29.811s-13.347 29.811-29.811 29.811v0zM377.984 527.514h-177.894c-16.464 0-29.811-13.347-29.811-29.811s13.347-29.811 29.811-29.811v0h177.894c16.464 0 29.811 13.347 29.811 29.811s-13.347 29.811-29.811 29.811v0zM593.613 495.693c0 16.457-13.341 29.798-29.798 29.798v0h-85.709c-16.464 0-29.811-13.347-29.811-29.811s13.347-29.811 29.811-29.811v0h85.683c0.008 0 0.017 0 0.026 0 16.457 0 29.798 13.341 29.798 29.798 0 0.009 0 0.018 0 0.027v-0.001zM853.99 272.461c-5.058 4.086-11.566 6.559-18.652 6.559-9.381 0-17.749-4.335-23.211-11.11l-0.045-0.057-76.8-95.718-47.539 34.432c-4.842 3.542-10.915 5.667-17.485 5.667-16.462 0-29.808-13.345-29.808-29.808 0-9.893 4.819-18.66 12.239-24.082l0.084-0.059 70.502-51.2c4.843-3.544 10.917-5.671 17.488-5.671 9.373 0 17.735 4.327 23.197 11.093l0.044 0.057 94.541 117.76c4.167 5.086 6.692 11.656 6.692 18.816 0 9.418-4.369 17.815-11.19 23.275l-0.059 0.046zM929.28 363.955c-37.133 37.93-86.383 63.865-141.48 71.533l-1.291 0.147v404.301c-0.16 66.213-53.778 119.85-119.969 120.038h-520.876c-66.242-0.145-119.904-53.798-120.064-120.023v-690.498c0.145-66.242 53.798-119.904 120.023-120.064h418.959c45.297-53.267 112.37-86.837 187.283-86.837 0.344 0 0.689 0.001 1.033 0.002h-0.053c136.709 0.164 247.469 111.025 247.469 247.757 0 67.651-27.114 128.969-71.069 173.68l0.034-0.035zM85.222 149.453v690.483c0.044 33.363 27.078 60.398 60.437 60.442h520.862c0.008 0 0.017 0 0.026 0 33.391 0 60.464-27.054 60.493-60.439v-403.28c-125.194-13.659-221.754-118.805-221.754-246.504 0-36.621 7.941-71.387 22.195-102.67l-0.633 1.552h-381.184c-33.369 0.029-60.413 27.072-60.442 60.439v0.003zM752.845 2.176c-103.918 0-188.16 84.242-188.16 188.16s84.242 188.16 188.16 188.16v0h3.405c102.024-2.405 183.812-85.681 183.812-188.060 0-103.576-83.711-187.6-187.168-188.106h-0.049z" />
<glyph unicode="&#x181;" glyph-name="hamburger" data-tags="hamburger" d="M960 824.32h-896c-28.16 0-53.76-23.040-53.76-53.76v-7.68c0-28.16 23.040-53.76 53.76-53.76h896c28.16 0 53.76 23.040 53.76 53.76v10.24c0 28.16-25.6 51.2-53.76 51.2zM960 184.32h-896c-28.16 0-53.76-23.040-53.76-53.76v-7.68c0-28.16 23.040-53.76 53.76-53.76h896c28.16 0 53.76 23.040 53.76 53.76v7.68c0 28.16-25.6 53.76-53.76 53.76zM64 391.68h650.24c28.16 0 53.76 23.040 53.76 53.76v7.68c0 28.16-23.040 53.76-53.76 53.76h-650.24c-28.16 0-53.76-23.040-53.76-53.76v-7.68c0-30.72 25.6-53.76 53.76-53.76z" />
<glyph unicode="&#x18a;" glyph-name="download_nonselect" data-tags="download_nonselect" d="M965.12 901.12c-35.84 35.84-84.48 56.32-133.12 56.32h-640c-104.96 0-189.44-84.48-189.44-189.44v-640c0-104.96 84.48-189.44 189.44-189.44h640c104.96 0 189.44 84.48 189.44 189.44v640c0 51.2-20.48 97.28-56.32 133.12zM962.56 128c0-71.68-58.88-130.56-130.56-130.56h-640c-71.68 0-130.56 58.88-130.56 130.56v640c0 71.68 58.88 130.56 130.56 130.56h640c35.84 0 66.56-12.8 92.16-38.4s38.4-56.32 38.4-92.16v-640zM491.52 325.12c5.12-5.12 12.8-7.68 20.48-7.68s15.36 2.56 20.48 7.68l158.72 158.72c12.8 12.8 12.8 30.72 0 40.96-12.8 12.8-30.72 12.8-40.96 0l-107.52-107.52v317.44c0 15.36-12.8 30.72-30.72 30.72-15.36 0-30.72-12.8-30.72-30.72v-317.44l-107.52 107.52c-12.8 12.8-30.72 12.8-40.96 0-12.8-12.8-12.8-30.72 0-40.96l158.72-158.72zM798.72 189.44h-573.44c-15.36 0-30.72-12.8-30.72-30.72 0-15.36 12.8-30.72 30.72-30.72h576c15.36 0 30.72 12.8 30.72 30.72-2.56 17.92-15.36 30.72-33.28 30.72z" />
<glyph unicode="&#x18c;" glyph-name="download_select" data-tags="download_select" d="M965.12 901.12c-35.84 35.84-84.48 56.32-133.12 56.32h-640c-104.96 0-189.44-84.48-189.44-189.44v-640c0-104.96 84.48-189.44 189.44-189.44h640c104.96 0 189.44 84.48 189.44 189.44v640c0 51.2-20.48 97.28-56.32 133.12zM332.8 524.8c12.8 12.8 30.72 12.8 40.96 0l107.52-107.52v317.44c0 15.36 12.8 30.72 30.72 30.72 15.36 0 30.72-12.8 30.72-30.72v-317.44l107.52 107.52c12.8 12.8 30.72 12.8 40.96 0 12.8-12.8 12.8-30.72 0-40.96l-158.72-158.72c-5.12-5.12-12.8-7.68-20.48-7.68s-15.36 2.56-20.48 7.68l-158.72 156.16c-12.8 12.8-12.8 30.72 0 43.52zM798.72 130.56h-573.44c-15.36 0-30.72 12.8-30.72 30.72s12.8 30.72 30.72 30.72h576c15.36 0 30.72-12.8 30.72-30.72-2.56-17.92-15.36-30.72-33.28-30.72z" />
<glyph unicode="&#x18f;" glyph-name="Bookmark-fil" data-tags="Bookmark fil" d="M815.206-63.974c-7.194 0-14.285 2.022-20.378 5.862-67.686 42.394-233.702 132.506-289.997 162.867l-276.531-163.379c-6.093-3.635-13.056-5.658-20.173-5.35-5.683 0.102-35.123 1.69-57.498 24.038-15.539 15.565-24.090 36.224-24.090 58.163v859.546c0 45.338 36.89 82.227 82.227 82.227h606.438c45.338 0 82.253-36.89 82.253-82.227v-859.52c0-45.338-36.89-82.227-82.253-82.227z" />
<glyph unicode="&#x193;" glyph-name="Profile-select" data-tags="Profile select" d="M873.216 810.24c-49.573 49.583-109.267 89.046-175.717 115.025l-3.483 1.199h-1.536c-51.485 20.326-111.085 32.545-173.413 33.531l-0.411 0.005h-8.192c-282.646-0.163-511.713-229.331-511.713-512 0-282.77 229.23-512 512-512 124.422 0 238.479 44.382 327.202 118.178l-0.833-0.674 8.192 7.68c100.267 86.471 166.273 210.278 176.289 349.589l0.095 1.643c0 12.288 1.536 25.6 1.536 36.352 0 0.257 0.001 0.561 0.001 0.866 0 140.944-57.352 268.492-149.992 360.581l-0.025 0.025zM512 698.368v0c104.373-3.906 187.504-89.461 187.504-194.432s-83.131-190.526-187.149-194.421l-0.355-0.011c-9.149 0.118-18.021 0.765-26.735 1.914l1.135-0.122c-94.709 14.186-166.51 94.972-166.51 192.527 0 106.591 85.717 193.162 191.98 194.543l0.13 0.001zM512-14.848v0c-0.301-0.001-0.658-0.001-1.015-0.001-114.762 0-219.726 41.953-300.391 111.359l0.606-0.509c58.466 108.5 171.108 181.090 300.743 181.504h2.361c117.248 0 226.048-67.584 298.24-180.992-80.322-68.992-185.491-111.086-300.485-111.36h-0.059z" />
<glyph unicode="&#x195;" glyph-name="Pause-circle-outline" data-tags="Pause circle outline" d="M409.6 652.8c-28.288 0-51.2-22.912-51.2-51.2v-307.2c0-28.288 22.912-51.2 51.2-51.2s51.2 22.912 51.2 51.2v307.2c0 28.288-22.912 51.2-51.2 51.2zM614.4 652.8c-28.288 0-51.2-22.912-51.2-51.2v-307.2c0-28.288 22.912-51.2 51.2-51.2s51.2 22.912 51.2 51.2v307.2c0 28.288-22.912 51.2-51.2 51.2zM511.462 960c-282.010 0-511.462-229.683-511.462-512s229.453-512 511.462-512c282.624 0 512.538 229.683 512.538 512s-229.914 512-512.538 512zM512 14.771c-238.874 0-433.229 194.355-433.229 433.229s194.355 433.229 433.229 433.229c238.874 0 433.229-194.355 433.229-433.229s-194.355-433.229-433.229-433.229z" />
<glyph unicode="&#x1a2;" glyph-name="Read-font" data-tags="Read font" d="M7.68 961.69h1006.080v-133.12h-1006.080v133.12zM7.68 664.73h929.28v-133.12h-929.28v133.12zM7.68 75.93h929.28v-133.12h-929.28v133.12zM7.68 370.33h309.76v-133.12h-309.76v133.12z" />
<glyph unicode="&#x1a4;" glyph-name="User" data-tags="User" d="M1023.309 448.384c0-0.015 0-0.032 0-0.049 0-282.586-229.081-511.667-511.667-511.667s-511.667 229.081-511.667 511.667c0 282.118 228.323 510.909 510.264 511.665h0.072c0.137 0 0.299 0 0.462 0 282.743 0 512.012-228.946 512.537-511.566v-0.050zM808.627 94.054c101.331 85.386 165.264 212.365 165.264 354.276 0 255.355-207.006 462.362-462.362 462.362s-462.362-207.006-462.362-462.362c0-142.037 64.047-269.116 164.837-353.931l0.702-0.576c56.908 108.132 168.5 180.603 297.020 180.603 128.428 0 239.953-72.368 296.022-178.549l0.878-1.823zM511.13 309.555c-107.197 0.151-194.039 87.086-194.039 194.304 0 107.311 86.993 194.304 194.304 194.304s194.304-86.993 194.304-194.304c0-0.675-0.003-1.349-0.010-2.023l0.001 0.103c-1.229-106.513-87.86-192.384-194.548-192.384-0.004 0-0.009 0-0.013 0h0.001z" />
<glyph unicode="&#x1ba;" glyph-name="Update-Password" data-tags="Update Password" d="M228.634 59.085c-90.774 67.589-156.277 164.685-182.478 276.892l-0.639 3.249c-8.413 34.371-13.239 73.83-13.239 114.416 0 35.006 3.59 69.173 10.422 102.154l-0.562-3.245c16.433 73.728 46.653 138.574 88.032 194.688l-0.992-1.408c-4.352-0.461-8.704-1.203-13.21-1.946-4.070-0.691-8.294-1.382-12.544-1.869-16.051-1.894-32.384-4.326-48.179-6.707l-11.187-1.664c-1.985-0.315-4.281-0.5-6.618-0.512h-0.012c-0.3-0.009-0.654-0.014-1.008-0.014-18.056 0-33.052 13.099-36.004 30.313l-0.031 0.217c-0.323 1.796-0.508 3.864-0.508 5.974 0 7.842 2.554 15.088 6.874 20.952l-0.068-0.097c6.187 8.196 15.411 13.817 25.969 15.186l0.194 0.021c33.971 4.941 68.557 9.728 102.016 14.362l48.845 6.784c10.086 1.408 20.48 2.867 30.72 4.454 2.377 0.406 5.116 0.639 7.91 0.64h0.001c0.335 0.011 0.73 0.017 1.126 0.017 20.034 0 36.275-16.241 36.275-36.275 0-0.673-0.018-1.341-0.054-2.004l0.004 0.092c2.202-61.44 4.531-123.853 6.81-184.32v-2.202c0.053-0.781 0.084-1.693 0.084-2.612 0-10.428-3.916-19.941-10.358-27.149l0.035 0.039c-6.253-6.608-15.026-10.775-24.773-10.956h-1.083c-20.228 0.042-36.61 16.45-36.61 36.685 0 0.504 0.010 1.006 0.030 1.505l-0.002-0.072v1.434c-1.152 32.614-2.33 65.306-3.533 99.149-52.969-69.423-84.867-157.398-84.867-252.823 0-13.738 0.661-27.322 1.953-40.721l-0.133 1.704c17.101-210.406 191.693-352.486 347.315-379.366 23.615-4.333 50.831-6.853 78.621-6.937h0.074c118.757 1.097 225.318 52.4 299.646 133.676l0.283 0.314c60.821 60.888 102.252 141.156 114.232 230.744l0.225 2.062c2.223 16.284 3.492 35.103 3.492 54.219 0 73.133-18.576 141.928-51.266 201.923l1.105-2.216c-43.218 89.339-116.422 158.495-206.27 195.447l-2.626 0.956c-40.061 16.472-86.565 26.035-135.303 26.035-0.132 0-0.265 0-0.397 0h0.020c-12.8 0-26.086-0.666-39.219-1.946-1.468-0.163-3.171-0.257-4.895-0.257-0.079 0-0.158 0-0.238 0.001h0.012c-0.669-0.045-1.451-0.070-2.239-0.070-18.584 0-33.864 14.144-35.663 32.254l-0.012 0.149c-0.151 1.24-0.237 2.675-0.237 4.13 0 8.86 3.186 16.976 8.474 23.266l-0.045-0.055c7.005 7.733 16.975 12.669 28.101 13.003l0.059 0.001c13.542 0.922 27.085 1.382 40.218 1.382 2.498 0.051 5.442 0.079 8.393 0.079 85.748 0 165.815-24.326 233.676-66.452l-1.89 1.093c71.701-47.802 129.424-111.152 169.309-185.501l1.341-2.736c32.346-56.867 53.963-123.862 60.283-195.253l0.133-1.867 2.022-0.538v-85.376l-0.666-1.331c-2.277-5.288-3.627-11.438-3.686-17.897v-0.023c-0.23-3.046-0.461-6.221-0.947-9.37-14.957-97.587-57.396-183.318-119.065-251.28l0.357 0.4c-69.385-80.568-163.45-138.15-270.381-161.033l-3.232-0.579c-30.625-6.558-65.852-10.374-101.95-10.496h-0.092c-112.419 0.726-215.47 40.243-296.582 105.819l0.902-0.706zM563.482 181.12c-11.622 0-23.603 0.154-35.379 0.154h-3.61c-11.878 0-23.91 0-35.61-0.154-12.442 0-25.318-0.154-38.016-0.154-17.357 0-31.744 0.154-45.261 0.461-0.898-0.030-1.953-0.047-3.012-0.047-25.232 0-48.186 9.755-65.295 25.7l0.057-0.053c-15.764 16.872-25.443 39.603-25.443 64.596 0 1.312 0.027 2.618 0.080 3.917l-0.006-0.186c-0.589 41.958-0.435 84.48-0.333 125.824 0 20.198 0.128 41.114 0 61.619-0.165 1.983-0.258 4.293-0.258 6.625 0 38.55 25.65 71.11 60.815 81.542l0.602 0.153c10.24 3.174 10.24 4.966 10.035 16.691-0.333 22.221-0.435 40.96 0 59.776 1.078 38.343 17.235 72.714 42.722 97.558l0.030 0.029c25.278 24.876 59.961 40.261 98.236 40.346h0.555c0.021 0 0.046 0 0.071 0 38.131 0 72.693-15.283 97.895-40.058l-0.020 0.019c25.501-24.8 41.723-59.027 43.027-97.041l0.007-0.239c0.333-9.088 0.819-43.725 0-55.424v-0.922c-0.079-0.999-0.124-2.163-0.124-3.337 0-3.991 0.522-7.859 1.501-11.542l-0.071 0.313c0.896-1.69 5.939-1.869 8.090-1.869h2.765l1.306-0.333c33.618-8.863 58.005-38.995 58.005-74.823 0-3.822-0.278-7.579-0.814-11.253l0.050 0.418 0.179-23.27c0.461-57.882 0.947-117.76-0.333-176.64 0.013-0.554 0.020-1.206 0.020-1.86 0-47.604-38.591-86.195-86.195-86.195-1.204 0-2.403 0.025-3.596 0.074l0.171-0.006c-14.054-0.41-29.158-0.614-47.514-0.614-11.674 0.051-23.706 0.154-35.328 0.23zM559.437 242.56q17.050 0 34.099 0c16.896 0 30.72 0 43.776 0.282 28.16 0.384 37.709 9.805 37.965 37.248 0.538 56.678 0.563 116.378 0 177.459-0.256 28.621-9.216 37.862-36.915 37.99-36.864 0.23-75.085 0.333-113.638 0.333-36.762 0-75.034 0-113.741-0.307-28.365-0.128-37.555-9.139-37.811-37.018-0.538-55.731-0.538-113.766 0-177.459 0.23-29.389 9.19-37.965 39.987-38.4 12.954-0.128 26.701-0.205 43.264-0.205h68.838zM509.568 556.979c19.482-0.282 39.68-0.589 56.32-0.589 15.642 0 25.728 0.282 30.029 0.819h0.282c4.506 0.435 6.016 0.563 6.554 10.035 0.128 4.147 0.358 7.936 0.589 11.597 0.463 6.544 0.726 14.181 0.726 21.879 0 10.259-0.468 20.409-1.384 30.43l0.095-1.288c-2.244 40.751-35.835 72.946-76.946 72.946-0.462 0-0.922-0.004-1.382-0.012l0.069 0.001h-0.154c-0.603 0.017-1.313 0.027-2.025 0.027-40.937 0-74.348-32.222-76.253-72.688l-0.006-0.171c-0.691-11.29-0.589-23.040-0.538-34.278 0-10.24 0.154-20.48-0.307-30.976-0.090-0.616-0.142-1.327-0.142-2.050 0-1.703 0.286-3.34 0.813-4.864l-0.031 0.104c1.148-0.446 2.476-0.704 3.865-0.704 0.325 0 0.646 0.014 0.963 0.042l-0.041-0.003h1.562c2.97 0 7.27 0.179 13.056 0.179 11.392-0.026 27.366-0.256 44.314-0.512zM524.442 267.264c-0.466-0.030-1.011-0.048-1.56-0.048-7.043 0-13.422 2.844-18.051 7.447l0.001-0.001c-4.627 5.853-7.422 13.34-7.422 21.479 0 1.989 0.167 3.939 0.487 5.836l-0.029-0.205c1.357 19.942-1.024 30.95-18.458 39.603-17.725 10.896-29.367 30.183-29.367 52.188 0 0.238 0.001 0.475 0.004 0.712v-0.036 0.41c-0.022 0.676-0.034 1.471-0.034 2.268 0 34.848 23.789 64.14 56.013 72.522l0.521 0.115c5.5 1.383 11.817 2.185 18.319 2.202h0.011c0.081 0 0.177 0.001 0.272 0.001 26.867 0 50.311-14.656 62.773-36.409l0.186-0.353c6.96-10.424 11.106-23.242 11.106-37.028 0-21.42-10.010-40.502-25.608-52.823l-0.142-0.108-4.403-3.123c-14.182-10.010-15.744-11.136-18.202-42.138 0.318-1.661 0.501-3.57 0.501-5.523 0-7.078-2.394-13.596-6.415-18.791l0.052 0.070c-4.656-5.086-11.324-8.264-18.735-8.264-0.361 0-0.721 0.008-1.079 0.023l0.051-0.002zM505.395 398.874c-0.063-0.581-0.099-1.254-0.099-1.936 0-4.646 1.673-8.902 4.449-12.198l-0.023 0.029c3.418-3.188 8.021-5.145 13.080-5.145 0.343 0 0.683 0.009 1.022 0.027l-0.047-0.002h0.922c0.599-0.077 1.293-0.121 1.997-0.121 9.133 0 16.538 7.404 16.538 16.538 0 0.647-0.037 1.285-0.109 1.913l0.007-0.077c0.23 7.936-1.818 16.461-18.483 20.25-13.184-2.586-18.944-8.422-19.226-19.354z" />
<glyph unicode="&#x1bd;" glyph-name="Share" data-tags="Share" d="M857.6 268.8c-51.994 0-98.458-23.987-128.998-61.466l-398.72 210.253c1.843 9.882 2.918 20.019 2.918 30.413 0 9.011-0.922 17.818-2.304 26.445l394.829 218.624c30.413-39.936 78.31-65.869 132.275-65.869 91.75 0 166.4 74.65 166.4 166.4s-74.65 166.4-166.4 166.4-166.4-74.65-166.4-166.4c0-10.266 1.075-20.301 2.867-30.054l-393.293-217.779c-30.285 41.498-79.155 68.634-134.374 68.634-91.75 0-166.4-74.65-166.4-166.4s74.65-166.4 166.4-166.4c53.888 0 101.709 25.856 132.147 65.69l396.621-209.152c-2.534-11.52-3.968-23.45-3.968-35.738 0-91.75 74.65-166.4 166.4-166.4s166.4 74.65 166.4 166.4-74.65 166.4-166.4 166.4zM857.6 872.55c43.52 0 78.95-35.405 78.95-78.95s-35.43-78.95-78.95-78.95-78.95 35.43-78.95 78.95 35.43 78.95 78.95 78.95zM166.4 369.050c-43.52 0-78.95 35.405-78.95 78.95s35.43 78.95 78.95 78.95 78.95-35.43 78.95-78.95-35.43-78.95-78.95-78.95zM857.6 23.45c-43.52 0-78.95 35.405-78.95 78.95s35.405 78.95 78.95 78.95 78.95-35.405 78.95-78.95-35.43-78.95-78.95-78.95z" />
<glyph unicode="&#x1dd;" glyph-name="Audio-mute" data-tags="Audio mute" d="M1014.733-3.2l-950.912 950.912c-0.947 0.947-1.306 2.202-2.125 3.2-15.027 12.058-36.762 11.648-50.688-2.278-14.95-14.925-14.95-39.168 0-54.093l170.368-170.368h-94.976c-47.744 0-86.579-39.373-86.579-87.782v-377.088c0-48.41 38.835-87.782 86.579-87.782h123.725l187.674-209.306c13.030-17.51 33.766-26.394 60.57-26.394 47.744 0 86.579 39.398 86.579 87.808v337.024l94.054-94.054c1.869-3.379 4.096-6.605 6.963-9.498 2.611-2.611 5.709-4.634 8.934-6.426l303.616-303.616c7.475-7.475 17.254-11.213 27.059-11.213 9.779 0 19.584 3.738 27.059 11.213 13.389 13.389 14.106 33.894 3.482 48.845-0.435 0.384-0.998 0.512-1.382 0.896zM464.717 23.629h-6.4c0 0 0 0 0 0h-6.4c0 1.126-1.792 2.944-2.893 2.944h-2.816l-1.894 2.125-190.618 212.096c-8.499 8.602-16.358 12.006-27.827 12.006h-145.869v390.093h145.869c10.65 0 18.202 3.149 26.163 10.624l212.685-212.685v-417.203zM884.736 235.392l58.086-58.086c51.763 78.694 80.384 170.778 80.947 268.16 0.794 136.218-51.763 264.243-148.045 360.525-7.782 7.782-17.715 12.083-28.006 12.083s-20.224-4.275-28.032-12.083c-7.782-7.782-12.083-17.715-12.083-28.006s4.301-20.25 12.083-28.032c139.366-139.392 160.742-352.154 65.050-514.56zM703.616 447.846c0-9.984-0.717-19.738-2.074-29.235l63.949-63.949c11.802 30.003 18.304 61.568 18.304 93.21 0 74.624-28.979 142.31-81.613 190.566-5.734 7.45-13.824 11.469-23.578 12.16-12.16 0.998-24.32-3.61-32.666-11.955-7.782-7.782-12.083-17.741-12.083-28.032s4.301-20.25 12.083-28.032c37.069-32.435 57.677-80.384 57.677-134.733zM444.339 862.362c1.741 1.766 2.586 3.456 3.61 5.555 1.229 2.534 2.79 5.658 5.862 8.755l10.931 11.085v-232.346l80.179-80.179v296.832c0 48.41-38.835 87.782-86.579 87.782-26.035 0-51.968-13.184-69.376-35.277l-91.187-102.195 57.242-57.242 89.318 97.229z" />
<glyph unicode="&#x1ef;" glyph-name="Remove-all-notification1" data-tags="Remove all notification" d="M784.589 202.291c-1.69-1.024-1.434-2.97-1.971-4.48-4.904-13.339-17.498-22.682-32.275-22.682-5.502 0-10.701 1.295-15.309 3.597l0.199-0.090c-4.564 2.411-8.45 5.447-11.719 9.053l-0.032 0.035q-99.354 99.379-198.656 198.835c-3.354 3.379-4.992 3.84-8.627 0.179-66.56-66.739-133.299-133.12-199.68-200.038-6.539-6.848-15.74-11.105-25.936-11.105-9.226 0-17.638 3.486-23.99 9.213l0.032-0.028c-6.395 6.221-10.363 14.91-10.363 24.525 0 8.468 3.078 16.218 8.176 22.191l-0.040-0.047c1.562 1.818 3.302 3.507 5.12 5.12l198.4 198.374c1.331 1.331 2.893 2.406 5.12 4.301-2.765 2.278-5.12 3.917-6.938 5.837q-99.072 98.97-198.042 197.99c-7.231 6.314-11.773 15.548-11.773 25.844 0 8.179 2.867 15.689 7.65 21.579l-0.050-0.063c4.913 6.069 11.743 10.415 19.56 12.118l0.229 0.042c0.896 0.205 2.15-0.333 2.56 1.075h8.269c12.975-3.935 23.832-11.602 31.636-21.742l0.108-0.146q95.181-95.258 190.336-190.515c3.226-3.226 4.71-3.123 7.834 0q99.456 99.84 199.091 199.27c4.998 5.481 11.419 9.584 18.68 11.728l0.29 0.073c0.768 0.179 1.741 0.179 1.894 1.306h9.293c0.179-0.819 0.819-0.896 1.51-0.998 12.4-1.529 22.58-9.686 26.98-20.767l0.079-0.225c0.87-1.92 0.614-4.301 2.381-5.862v-14.438c-6.597-13.374-15.72-24.568-26.832-33.357l-0.201-0.154q-92.518-92.672-185.242-185.114c-3.072-3.072-2.867-4.403 0-7.322q96.384-96.077 192.563-192.333c8.74-7.123 15.481-16.377 19.465-26.98l0.144-0.438zM916.89-64h-809.779c-59.112 0.073-107.012 47.973-107.085 107.078v809.812c0.058 59.123 47.964 107.038 107.078 107.11h809.786c59.126-0.073 107.038-47.984 107.11-107.103v-809.786c-0.058-59.132-47.978-107.052-107.105-107.11h-0.006zM107.11 902.502c-27.403-0.029-49.609-22.236-49.638-49.636v-809.757c0.029-27.403 22.236-49.609 49.636-49.638h809.782c27.403 0.029 49.609 22.236 49.638 49.636v809.782c-0.029 27.403-22.236 49.609-49.636 49.638h-0.003z" />
<glyph unicode="&#x1f6;" glyph-name="Class" data-tags="Class-01" d="M408.564 654.088c-16.68 16.68-36.116 30.632-57.98 41.64 13.194 11.638 24.37 25.576 32.862 41.108 12.16 22.238 18.58 47.302 18.58 72.498 0 83.384-67.836 151.23-151.23 151.23s-151.23-67.836-151.23-151.23c0-25.226 6.454-50.334 18.654-72.612 8.478-15.478 19.614-29.352 32.754-40.956-32.788-16.232-60.954-40.38-82.286-70.726-25.748-36.614-39.646-79.598-40.198-124.29 0-0.054 0-0.108 0-0.158v-2.132c0-17.364 14.666-32.030 32.030-32.030 17.664 0 32.030 13.888 32.030 30.962 0 87.248 70.982 158.24 158.23 158.24 86.254 0 157.226-70.524 158.24-157.236v-0.99c0-17.078 14.366-30.962 32.030-30.962 16.394 0 29.81 12.19 31.912 28.978 0.030 0.266 0.054 0.532 0.074 0.798l0.020 0.394c0.020 0.266 0.020 0.522 0.020 0.788 0 29.278-5.622 57.808-16.704 84.782-11.092 27.102-27.186 51.294-47.804 71.908zM389.162 813.958c0.054-1.536 0.074-3.082 0.074-4.628 0-3.53-0.138-7.050-0.404-10.536 0.266 3.486 0.404 7.006 0.404 10.536 0 1.546-0.020 3.092-0.074 4.628zM41.316 500.604v0c0.020 2.014 0.074 4.022 0.158 6.026-0.084-2.004-0.138-4.012-0.158-6.026zM52.832 566.348c1.28 3.668 2.654 7.296 4.126 10.87-1.472-3.574-2.846-7.198-4.126-10.87zM250.812 947.76c1.024 0 2.048-0.010 3.072-0.030-1.024 0.020-2.048 0.030-3.072 0.030s-2.048-0.010-3.072-0.030c1.024 0.020 2.048 0.030 3.072 0.030zM172.44 691.312c1.236 0.492 2.476 0.97 3.722 1.428v0c-1.246-0.468-2.486-0.95-3.722-1.428zM250.812 729.708c-43.9 0-79.622 35.722-79.622 79.622s35.722 79.622 79.622 79.622 79.622-35.722 79.622-79.622c0-43.9-35.722-79.622-79.622-79.622zM444.572 577.312c-0.65 1.6-1.334 3.18-2.014 4.756 0.684-1.58 1.364-3.156 2.014-4.756 0.67-1.644 1.324-3.284 1.95-4.938-0.63 1.654-1.28 3.294-1.95 4.938zM460.282 497v0c-0.182-1.452-0.492-2.836-0.916-4.16 0.428 1.324 0.734 2.708 0.916 4.16zM978.794 582.176c-11.136 27.102-27.23 51.294-47.848 71.908-16.68 16.68-36.116 30.632-57.98 41.64 13.194 11.638 24.37 25.576 32.862 41.108 12.16 22.238 18.58 47.302 18.58 72.498 0 83.384-67.836 151.23-151.23 151.23s-151.21-67.846-151.21-151.23c0-25.226 6.454-50.334 18.654-72.612 8.478-15.478 19.614-29.352 32.754-40.956-32.788-16.232-60.954-40.38-82.286-70.726-25.748-36.614-39.646-79.598-40.198-124.28 0-0.054 0-0.108 0-0.158v-2.132c0-17.364 14.666-32.030 32.030-32.030 17.664 0 32.030 13.888 32.030 30.962 0 87.248 70.982 158.24 158.24 158.24 86.254 0 157.226-70.524 158.24-157.236v-0.99c0-17.078 14.366-30.962 32.030-30.962 16.394 0 29.81 12.19 31.912 28.978 0.030 0.256 0.054 0.522 0.074 0.788l0.020 0.394c0.020 0.266 0.020 0.532 0.020 0.798 0 29.278-5.612 57.798-16.694 84.772zM882.916 725.026c-1.738-2.27-3.55-4.49-5.44-6.656 1.886 2.166 3.702 4.382 5.44 6.656zM563.688 500.604v0c0.010 1.28 0.044 2.57 0.084 3.85-0.044-1.28-0.064-2.56-0.084-3.85zM773.188 947.76c1.024 0 2.048-0.010 3.072-0.030-1.024 0.020-2.048 0.030-3.072 0.030s-2.048-0.010-3.072-0.030c1.024 0.020 2.048 0.030 3.072 0.030zM680.958 803.408c-0.128 1.964-0.192 3.934-0.192 5.932s0.064 3.968 0.192 5.932c-0.128-1.964-0.192-3.934-0.192-5.932s0.064-3.978 0.192-5.932zM692.97 690.564c1.846 0.748 3.702 1.472 5.578 2.176v0c-1.876-0.704-3.732-1.428-5.578-2.176zM773.188 729.708c-43.9 0-79.622 35.722-79.622 79.622s35.722 79.622 79.622 79.622 79.622-35.722 79.622-79.622c0-43.9-35.708-79.622-79.622-79.622zM864.872 797.574c0.492 3.85 0.748 7.774 0.748 11.752s-0.256 7.902-0.748 11.752c0.492-3.85 0.748-7.774 0.748-11.752-0.010-3.978-0.256-7.902-0.748-11.752zM982.664 497c-0.158-1.31-0.428-2.57-0.788-3.766 0.364 1.206 0.63 2.462 0.788 3.766v0zM408.564 123.096c-16.68 16.68-36.116 30.632-57.98 41.64 13.194 11.638 24.37 25.576 32.862 41.108 12.16 22.238 18.58 47.302 18.58 72.498 0 83.384-67.836 151.23-151.23 151.23s-151.23-67.836-151.23-151.23c0-25.226 6.454-50.334 18.654-72.602 8.478-15.478 19.614-29.352 32.754-40.956-32.788-16.246-60.954-40.38-82.286-70.726-25.748-36.614-39.646-79.598-40.198-124.29 0-0.054 0-0.108 0-0.158v-2.132c0-17.364 14.666-32.030 32.030-32.030 17.664 0 32.030 13.888 32.030 30.962 0 87.248 70.982 158.23 158.23 158.23 86.254 0 157.226-70.524 158.24-157.236v-0.99c0-17.078 14.366-30.962 32.030-30.962 16.394 0 29.81 12.19 31.912 28.978 0.030 0.266 0.054 0.532 0.074 0.798l0.020 0.394c0.020 0.266 0.020 0.522 0.020 0.788 0 29.278-5.622 57.808-16.704 84.772-11.092 27.112-27.186 51.304-47.804 71.922zM385.682 309.566c2.324-10.038 3.55-20.49 3.55-31.218 0-3.308-0.118-6.602-0.35-9.876 0.236 3.274 0.35 6.572 0.35 9.876 0 10.718-1.226 21.17-3.55 31.218-0.576 2.506-1.226 4.992-1.94 7.444 0.714-2.452 1.364-4.938 1.94-7.444zM136.166 200.882c1.6-2.378 3.274-4.702 5.022-6.976-1.738 2.27-3.412 4.598-5.022 6.976zM60.546-51.76c-1.438 0-2.86 0.182-4.224 0.512 1.364-0.33 2.782-0.512 4.224-0.512 0.606 0 1.216 0.030 1.822 0.084-0.606-0.054-1.216-0.084-1.822-0.084zM79.776-33.598c0-0.35-0.010-0.704-0.030-1.044 0.020 0.35 0.030 0.694 0.030 1.044 0 1.994 0.030 3.978 0.108 5.962-0.074-1.974-0.108-3.968-0.108-5.962zM138.938 95.684c2.068 1.792 4.18 3.54 6.336 5.238-2.156-1.708-4.268-3.446-6.336-5.238zM250.812 416.772c1.024 0 2.048-0.010 3.072-0.030-1.024 0.020-2.048 0.030-3.072 0.030s-2.048-0.010-3.072-0.030c1.024 0.020 2.048 0.030 3.072 0.030zM250.812 370.756c3.358 0 6.676-0.182 9.94-0.532-3.264 0.35-6.582 0.532-9.94 0.532s-6.676-0.182-9.94-0.532c3.264 0.35 6.582 0.532 9.94 0.532zM176.162 161.748c-6.174 3.958-11.968 8.384-17.364 13.194 5.396-4.81 11.2-9.236 17.364-13.194v0zM192.064 127.044c3.924 1.438 7.926 2.742 11.978 3.894-4.062-1.152-8.054-2.452-11.978-3.894zM250.812 198.716c-43.9 0-79.622 35.722-79.622 79.622s35.722 79.622 79.622 79.622 79.622-35.722 79.622-79.622c0-43.9-35.722-79.622-79.622-79.622zM346.168 178.034c2.078 1.984 4.106 4.042 6.060 6.144 1.95 2.112 3.83 4.278 5.642 6.494-1.812-2.22-3.692-4.382-5.642-6.494s-3.968-4.16-6.060-6.144zM383.382 128.536c4.234-3.412 8.32-6.996 12.254-10.718-3.934 3.732-8.020 7.306-12.254 10.718zM444.572 46.324c1.836-4.47 3.51-8.98 5.036-13.534-1.526 4.554-3.2 9.068-5.036 13.534-0.65 1.6-1.334 3.18-2.014 4.756 0.684-1.58 1.364-3.166 2.014-4.756zM460.312-33.598v0l-0.020-0.394c-1.31-10.462-9.206-17.768-19.21-17.768-0.66 0-1.324 0.030-1.964 0.094 0.65-0.064 1.3-0.094 1.964-0.094 10.004 0 17.896 7.306 19.21 17.768l0.020 0.394zM930.006 123.096c-16.68 16.68-36.116 30.632-57.98 41.64 13.194 11.638 24.37 25.576 32.862 41.108 12.16 22.238 18.58 47.302 18.58 72.498 0 83.384-67.836 151.23-151.23 151.23-83.384 0-151.23-67.836-151.23-151.23 0-25.226 6.454-50.334 18.654-72.602 8.478-15.478 19.614-29.352 32.754-40.956-32.788-16.246-60.954-40.38-82.286-70.726-25.748-36.614-39.646-79.598-40.198-124.29 0-0.054 0-0.108 0-0.158v-2.132c0-17.364 14.666-32.030 32.030-32.030 17.664 0 32.030 13.888 32.030 30.962 0 87.248 70.982 158.23 158.24 158.23 86.254 0 157.226-70.524 158.24-157.236v-0.99c0-17.078 14.366-30.962 32.030-30.962 16.394 0 29.81 12.19 31.912 28.978 0.030 0.256 0.054 0.522 0.074 0.788l0.020 0.394c0.020 0.266 0.020 0.532 0.020 0.798 0 29.278-5.622 57.808-16.704 84.772-11.102 27.102-27.2 51.304-47.814 71.922zM633.824 278.338c0 1.738 0.030 3.466 0.094 5.194-0.064-1.728-0.094-3.456-0.094-5.194 0-3.18 0.108-6.336 0.33-9.482-0.222 3.146-0.33 6.302-0.33 9.482zM639.712 238.574c0.63-2.102 1.3-4.18 2.038-6.238-0.734 2.068-1.408 4.15-2.038 6.238zM645.132 223.706c0.812-1.886 1.674-3.766 2.57-5.622-0.896 1.856-1.748 3.722-2.57 5.622zM581.988-51.76c-1.438 0-2.86 0.182-4.224 0.512 1.364-0.33 2.782-0.512 4.224-0.512 0.748 0 1.472 0.044 2.196 0.118-0.724-0.074-1.462-0.118-2.196-0.118zM590.288-49.978c1.26 0.566 2.442 1.27 3.53 2.068-1.098-0.798-2.27-1.492-3.53-2.068zM772.248 416.772c1.024 0 2.048-0.010 3.072-0.030-1.024 0.020-2.038 0.030-3.072 0.030-1.024 0-2.048-0.010-3.072-0.030 1.024 0.020 2.048 0.030 3.072 0.030zM772.248 370.756c3.358 0 6.676-0.182 9.94-0.532-3.264 0.35-6.582 0.532-9.94 0.532-2.624 0-5.214-0.108-7.788-0.33 2.57 0.222 5.174 0.33 7.788 0.33zM761.914 370.18c-1.694-0.192-3.382-0.428-5.056-0.704 1.674 0.276 3.348 0.512 5.056 0.704zM694.408 328.116c-1.206-1.876-2.334-3.796-3.412-5.76 1.078 1.964 2.22 3.884 3.412 5.76zM680.018 272.406c-0.128 1.964-0.192 3.934-0.192 5.932s0.064 3.968 0.192 5.932c-0.128-1.964-0.192-3.934-0.192-5.932s0.064-3.968 0.192-5.932zM697.608 161.748c-3.702 2.378-7.276 4.918-10.698 7.616 3.422-2.698 6.996-5.238 10.698-7.616v0zM713.51 127.044c3.924 1.438 7.926 2.742 11.978 3.894-4.062-1.152-8.054-2.452-11.978-3.894zM772.248 198.716c-43.9 0-79.622 35.722-79.622 79.622s35.722 79.622 79.622 79.622c43.9 0 79.622-35.722 79.622-79.622s-35.708-79.622-79.622-79.622zM852.446 159.71c-1.758 0.748-3.53 1.472-5.312 2.186 2.156 1.388 4.254 2.826 6.326 4.332-2.058-1.492-4.17-2.944-6.326-4.332 1.782-0.714 3.55-1.438 5.312-2.186zM946.198-43.154c0.768-1.162 1.664-2.26 2.678-3.23-1.014 0.97-1.91 2.058-2.678 3.23zM962.518-51.76c-0.66 0-1.324 0.030-1.964 0.094 0.65-0.064 1.3-0.094 1.964-0.094 5.366 0 10.122 2.112 13.588 5.686-3.456-3.574-8.212-5.686-13.588-5.686zM981.724-33.992v0c-0.148-1.172-0.384-2.304-0.694-3.392 0.31 1.088 0.542 2.22 0.694 3.392z" />
<glyph unicode="&#x246;" glyph-name="Analytics" data-tags="Analytics-01" d="M1016.32-5.12c0 12.8-5.12 30.72-25.6 30.72h-51.2v878.080c2.56 15.36-10.24 28.16-25.6 30.72h-153.6c-15.36-2.56-25.6-15.36-25.6-30.72v-878.080h-94.72v645.12c2.56 15.36-10.24 28.16-25.6 30.72h-153.6c-15.36-2.56-25.6-15.36-25.6-30.72v-647.68h-110.080v417.28c2.56 15.36-10.24 28.16-25.6 30.72h-153.6c-15.36-2.56-25.6-15.36-25.6-30.72v-417.28h-87.040c-17.92-2.56-25.6-12.8-25.6-30.72 0-12.8 12.8-30.72 25.6-30.72h960c12.8 5.12 23.040 15.36 23.040 33.28v0zM901.12 893.44v-867.84h-128v867.84h128zM593.92 660.48v-637.44h-115.2v637.44h115.2zM284.16 430.080v-404.48h-122.88v404.48h122.88z" />
<glyph unicode="&#x248;" glyph-name="tickmark" data-tags="tickmark" d="M330.24 92.16c-5.12 2.56-10.24 7.68-15.36 12.8v0c-94.72 94.72-186.88 186.88-281.6 281.6-7.68 10.24-12.8 20.48-17.92 30.72v0 23.040c2.56 12.8 10.24 23.040 20.48 33.28v0c10.24 7.68 20.48 12.8 33.28 12.8s23.040-5.12 33.28-10.24v0c5.12-2.56 7.68-7.68 12.8-10.24v0c79.36-79.36 158.72-158.72 238.080-238.080 5.12-5.12 10.24-5.12 15.36 0 212.48 212.48 332.8 350.72 545.28 565.76 10.24 12.8 25.6 20.48 43.52 20.48 5.12 0 10.24 0 15.36-2.56v0c23.040-7.68 38.4-28.16 38.4-51.2 0-12.8-5.12-23.040-10.24-33.28v0c-2.56-5.12-7.68-7.68-10.24-10.24v0c-227.84-227.84-358.4-378.88-586.24-604.16-10.24-12.8-25.6-20.48-43.52-20.48v0c-12.8-7.68-23.040-2.56-30.72 0v0 0z" />
<glyph unicode="&#x25e;" glyph-name="Edit" data-tags="Edit" d="M984.909 278.707c-21.581 0-39.091-17.485-39.091-39.091v-225.459h-867.661v867.686h302.259c21.581 0 39.091 17.485 39.091 39.091 0 21.581-17.51 39.066-39.091 39.066h-341.325c-21.606 0-39.091-17.485-39.091-39.091v-945.843c0-21.581 17.51-39.066 39.091-39.066h945.818c21.581 0 39.091 17.485 39.091 39.091v264.525c0 21.581-17.51 39.091-39.091 39.091zM346.701 470.323l-54.707-194.125c-3.84-13.619 0-28.237 9.984-38.246 7.424-7.424 17.408-11.443 27.622-11.443 3.533 0 7.091 0.486 10.598 1.459l194.125 54.707c6.451 1.818 12.314 5.274 17.050 9.984l461.158 461.235c15.258 15.258 15.258 40.013 0 55.27l-139.392 139.392c-7.322 7.322-17.254 11.443-27.622 11.443s-20.301-4.122-27.622-11.443l-461.21-461.21c-4.736-4.71-8.166-10.573-9.984-17.024zM404.429 386.97l46.541-46.541-64.819-18.253 18.278 64.794zM845.517 865.638l84.122-84.122-404.608-404.608-84.122 84.122 404.608 404.608z" />
<glyph unicode="&#x275;" glyph-name="Notification-fill" data-tags="Notification fill" d="M877.184 478.72c0-43.853-2.022-87.834 0.87-131.507 2.004-22.669 8.901-43.363 19.623-61.532l-0.371 0.68c20.475-32.883 39.88-60.585 60.588-87.225l-1.708 2.284c10.126-12.268 16.267-28.151 16.267-45.469 0-12.463-3.181-24.182-8.774-34.392l0.187 0.373c-11.734-23.502-35.609-39.361-63.188-39.361-1.42 0-2.831 0.042-4.231 0.125l0.193-0.009c-61.85 0-703.539 0.256-762.266-0.358-2.588-0.318-5.584-0.5-8.623-0.5-29.311 0-54.676 16.899-66.881 41.486l-0.195 0.435c-4.588 9.492-7.269 20.642-7.269 32.419 0 19.557 7.394 37.388 19.539 50.848l-0.060-0.067c75.622 103.629 74.778 103.885 75.418 231.424-0.783 19.24-1.229 41.822-1.229 64.509 0 51.577 2.305 102.615 6.819 153.017l-0.47-6.505c25.392 176.702 175.755 311.001 357.486 311.001 11.661 0 23.192-0.553 34.57-1.634l-1.451 0.111c188.034-15.843 334.732-172.067 335.36-362.689v-0.063c0.154-39.168 0-78.31 0-117.478zM683.469 57.933h-344.115c25.762-71.665 93.138-121.991 172.269-121.991 0.547 0 1.093 0.002 1.638 0.007l-0.084-0.001c78.276 1.057 144.61 51.040 169.887 120.709l0.404 1.275z" />
<glyph unicode="&#x278;" glyph-name="active-status" data-tags="active-status" d="M512 960c-282.88 0-512-229.12-512-512s229.12-512 512-512 512 229.12 512 512-229.12 512-512 512zM787.712 588.032l-344.832-345.344c-8.448-8.704-20.48-13.568-32.512-13.568-12.288 0-23.808 4.864-32.512 13.568l-141.312 140.8c-17.92 17.92-18.176 47.36-0.256 65.28 8.704 8.704 20.224 13.568 32.512 13.824 0 0 0 0 0 0 12.288 0 23.808-4.864 32.512-13.568l107.264-108.032 313.6 312.576c8.704 8.704 20.224 13.568 32.512 13.568 0 0 0 0 0 0 12.288 0 23.808-4.864 32.512-13.568 18.176-17.92 18.432-47.36 0.512-65.536v0z" />
<glyph unicode="&#x27f;" glyph-name="Fullscreen" data-tags="Fullscreen" d="M1024 911.36c0 33.28-12.8 48.64-48.64 48.64-40.96 0-79.36 0-120.32 0h-138.24c-66.56 0-133.12 0-199.68 0-17.92 0-33.28-7.68-40.96-20.48-7.68-10.24-5.12-25.6 0-38.4 7.68-15.36 20.48-20.48 43.52-20.48 71.68 0 140.8 0 209.92 0h71.68c7.68 0 15.36 0 20.48 0l48.64-2.56-793.6-793.6v156.16c0 66.56 0 135.68 0 202.24 0 25.6-15.36 43.52-38.4 43.52s-38.4-17.92-40.96-43.52c0-163.84 0-317.44 0-465.92 0-25.6 15.36-40.96 38.4-40.96 158.72 0 312.32 0 471.040 0 17.92 0 30.72 7.68 35.84 25.6 5.12 12.8 5.12 25.6-2.56 35.84s-20.48 17.92-38.4 17.92c-64 0-125.44 0-189.44 0h-94.72c-7.68 0-15.36 0-20.48 0l-51.2 2.56 798.72 796.16v-166.4c0-61.44 0-125.44 0-186.88 0-30.72 12.8-51.2 38.4-51.2 10.24 0 20.48 2.56 28.16 10.24s12.8 23.040 12.8 40.96c0 148.48 0 299.52 0 450.56z" />
<glyph unicode="&#x296;" glyph-name="Favourits-fil" data-tags="Favourits fil" d="M661.274 61.491c102.758 95.155 194.406 192.87 258.048 275.174 65.536 84.736 104.704 196.531 104.704 299.059 0 85.658-26.778 165.888-75.443 225.869-51.482 63.462-122.931 98.406-201.216 98.406-110.259 0-179.789-71.142-218.675-130.79-2.765-4.25-5.504-8.602-8.141-13.030l-8.525-14.208-8.55 14.182c-2.662 4.429-5.376 8.781-8.141 13.005-38.886 59.699-108.39 130.842-218.701 130.842-78.31 0-149.76-34.944-201.216-98.381-48.64-60.006-75.418-140.237-75.418-225.894 0-102.554 39.142-214.323 104.678-299.059 63.693-82.33 155.366-180.070 258.048-275.174 39.475-36.557 79.334-73.523 123.034-115.021 14.618-13.952 37.478-14.31 53.811 1.229 40.141 38.17 78.029 73.318 114.662 107.264l7.040 6.528z" />
<glyph unicode="&#x2c2;" glyph-name="Back-arrow" data-tags="Back arrow" d="M981.683 408.73c24.499 0 42.317 16.717 42.317 39.757-2.56 22.963-20.352 39.731-42.317 39.731h-843.802l2.176 2.176 299.904 302.438c14.771 17.229 14.797 42.368 0 57.165-14.95 14.925-42.189 14.925-57.165 0l-371.635-371.686c-7.091-7.091-11.162-17.485-11.162-28.57s4.070-21.478 11.162-28.57l374.221-374.221c6.4-7.45 15.514-11.699 25.754-12.109 0.538-0.026 1.050-0.026 1.562-0.026 11.11 0 22.144 4.454 29.824 12.134 7.091 7.091 11.162 17.51 11.162 28.57 0 11.085-4.070 21.478-11.162 28.57l-304.64 304.64h843.802z" />
<glyph unicode="&#x37b;" glyph-name="Check-box" data-tags="check box (not displaying)" d="M916.864-64h-809.779c-59.121 0.073-107.027 47.987-107.085 107.105v809.785c0.058 59.123 47.964 107.038 107.078 107.11h809.786c59.137-0.058 107.063-47.975 107.136-107.104v-809.786c-0.058-59.141-47.993-107.067-107.132-107.11h-0.004zM107.085 902.502c-27.403-0.029-49.609-22.236-49.638-49.636v-809.782c0.029-27.403 22.236-49.609 49.636-49.638h809.782c27.403 0.029 49.609 22.236 49.638 49.636v809.782c-0.029 27.403-22.236 49.609-49.636 49.638h-0.003z" />
<glyph unicode="&#x37d;" glyph-name="Check-box-fil" data-tags="Check box fil" d="M934.4 960h-844.8c-49.408 0-89.6-40.192-89.6-89.6v-844.8c0-49.408 40.192-89.6 89.6-89.6h844.8c49.408 0 89.6 40.192 89.6 89.6v844.8c0 49.408-40.192 89.6-89.6 89.6zM832.077 609.997l-387.328-387.302c-8.73-8.755-20.224-13.133-31.667-13.133-11.418 0-22.81 4.326-31.539 13.005l-189.44 187.93c-17.562 17.408-17.664 45.798-0.256 63.36s45.798 17.69 63.36 0.256l157.773-156.493 355.789 355.763c17.51 17.51 45.85 17.51 63.36 0 17.459-17.536 17.459-45.901-0.051-63.386z" />
</font>
</defs>
</svg>
